<svg width="36" height="22" viewBox="0 0 36 22" fill="none" xmlns="http://www.w3.org/2000/svg">
<path d="M34 0C35.1 0 36 0.9 36 2V20C36 21.1 35.1 22 34 22H2C0.9 22 0 21.1 0 20V2C0 0.9 0.9 0 2 0H34Z" fill="#006FCF"/>
<path d="M21.0117 18.9356V10.5146L35.9997 10.5276V12.8536L34.2677 14.7056L35.9997 16.5726V18.9476H33.2337L31.7637 17.3256L30.3037 18.9536L21.0117 18.9336V18.9356Z" fill="white"/>
<path d="M22.0137 18.0124V11.4424H27.5857V12.9554H23.8177V13.9834H27.4957V15.4714H23.8177V16.4814H27.5857V18.0124H22.0137Z" fill="#006FCF"/>
<path d="M27.5566 18.0124L30.6396 14.7234L27.5566 11.4414H29.9426L31.8266 13.5244L33.7166 11.4424H35.9996V11.4934L32.9826 14.7234L35.9996 17.9204V18.0134H33.6926L31.7756 15.9104L29.8776 18.0144H27.5566V18.0124Z" fill="#006FCF"/>
<path d="M21.71 3.04004H25.324L26.593 5.92104V3.04004H31.053L31.823 5.19904L32.594 3.04004H36V11.461H18L21.71 3.04004Z" fill="white"/>
<path d="M22.3945 3.95508L19.4785 10.5211H21.4785L22.0285 9.20608H25.0085L25.5585 10.5211H27.6085L24.7045 3.95508H22.3945ZM22.6445 7.73208L23.5195 5.64208L24.3925 7.73208H22.6445Z" fill="#006FCF"/>
<path d="M27.5801 10.5201V3.95312L30.3911 3.96312L31.8391 8.00012L33.2951 3.95412H35.9991V10.5191L34.2591 10.5351V6.02513L32.6151 10.5191H31.0251L29.3491 6.01013V10.5201H27.5811H27.5801Z" fill="#006FCF"/>
</svg>
