<svg width="397" height="95" viewBox="0 0 397 95" fill="none" xmlns="http://www.w3.org/2000/svg">
<path d="M36.382 7.356C45.9793 7.27467 53.4213 9.02333 58.708 12.602C64.076 16.1807 66.394 21.6707 65.662 29.072C65.418 31.512 64.564 33.9113 63.1 36.27C61.7173 38.6287 59.6433 40.7433 56.878 42.614C54.194 44.4847 50.8187 45.908 46.752 46.884V47.006C55.048 47.9007 61.0667 50.422 64.808 54.57C68.5493 58.6367 70.298 63.3947 70.054 68.844C69.81 74.0493 68.3053 78.4413 65.54 82.02C62.856 85.5987 59.2773 88.3233 54.804 90.194C50.412 92.0647 45.3693 93 39.676 93H0.514L0.88 86.29C3.076 86.2087 4.82467 85.802 6.126 85.07C7.42733 84.338 8.36267 83.118 8.932 81.41C9.50133 79.6207 9.86733 77.14 10.03 73.968L12.592 25.778C12.7547 23.582 12.9173 21.5487 13.08 19.678C13.2427 17.8073 13.4053 16.3433 13.568 15.286C12.2667 15.3673 10.6807 15.4487 8.81 15.53C7.02067 15.53 5.59733 15.5707 4.54 15.652L5.028 7.59999C10.2333 7.51866 15.398 7.478 20.522 7.478C25.7273 7.478 31.014 7.43733 36.382 7.356ZM36.87 52.618C34.7553 52.618 32.844 52.618 31.136 52.618C29.5093 52.618 27.842 52.6993 26.134 52.862L25.036 75.188C24.9547 77.384 24.792 79.4173 24.548 81.288C24.304 83.0773 24.1007 84.5007 23.938 85.558C25.402 85.558 26.866 85.5987 28.33 85.68C29.794 85.68 31.2173 85.68 32.6 85.68C33.9827 85.5987 35.2027 85.558 36.26 85.558C41.628 85.3953 45.776 83.85 48.704 80.922C51.7133 77.9127 53.34 73.8867 53.584 68.844C53.828 64.7773 53.1773 61.5647 51.632 59.206C50.0867 56.766 48.0127 55.058 45.41 54.082C42.8073 53.106 39.9607 52.618 36.87 52.618ZM36.016 14.554C34.2267 14.554 32.722 14.798 31.502 15.286C30.3633 15.774 29.4687 16.7907 28.818 18.336C28.1673 19.8813 27.7607 22.1993 27.598 25.29L26.5 45.42C27.72 45.42 28.94 45.42 30.16 45.42C31.38 45.3387 32.5593 45.298 33.698 45.298C37.602 45.1353 40.6927 44.2813 42.97 42.736C45.3287 41.1907 47.0367 39.1573 48.094 36.636C49.2327 34.0333 49.8427 31.2273 49.924 28.218C50.0867 24.6393 49.4767 21.874 48.094 19.922C46.7113 17.8887 44.922 16.4653 42.726 15.652C40.53 14.8387 38.2933 14.4727 36.016 14.554ZM87.508 93C87.3453 91.6987 87.264 90.7633 87.264 90.194C87.264 89.5433 87.264 88.8113 87.264 87.998C87.264 86.4527 87.3453 84.582 87.508 82.386C87.6706 80.1087 87.874 77.506 88.118 74.578C88.4433 71.65 88.8093 68.4373 89.216 64.94C89.704 61.28 90.1106 58.108 90.436 55.424C90.8426 52.74 91.1273 50.544 91.29 48.836C91.4526 47.0467 91.534 45.664 91.534 44.688C91.6153 43.224 91.4526 42.126 91.046 41.394C90.7206 40.662 90.1513 40.296 89.338 40.296C88.2806 40.296 87.142 41.0687 85.922 42.614C84.702 44.078 83.5633 46.762 82.506 50.666L76.894 49.08C77.2193 47.4533 77.748 45.5827 78.48 43.468C79.212 41.3533 80.2286 39.32 81.53 37.368C82.8313 35.416 84.4173 33.83 86.288 32.61C88.1586 31.3087 90.3953 30.658 92.998 30.658C96.0073 30.658 98.4066 31.5933 100.196 33.464C101.985 35.3347 102.88 38.4253 102.88 42.736C102.799 44.2 102.636 45.908 102.392 47.86C102.148 49.7307 101.823 51.8453 101.416 54.204H101.66C103.856 47.6973 106.133 42.7767 108.492 39.442C110.932 36.026 113.331 33.708 115.69 32.488C118.13 31.268 120.448 30.658 122.644 30.658C125.491 30.658 127.809 31.4307 129.598 32.976C131.387 34.5213 132.282 36.5953 132.282 39.198C132.282 41.0687 131.591 42.7767 130.208 44.322C128.907 45.8673 127.158 46.64 124.962 46.64C123.335 46.64 121.871 46.1113 120.57 45.054C119.269 43.9967 118.618 42.5733 118.618 40.784C116.991 40.4587 115.324 41.2313 113.616 43.102C111.989 44.8913 110.403 47.4127 108.858 50.666C107.394 53.9193 106.093 57.5387 104.954 61.524C103.815 65.5093 102.88 69.576 102.148 73.724C101.497 77.872 101.172 81.776 101.172 85.436C101.172 86.4933 101.213 87.7947 101.294 89.34C101.375 90.804 101.457 92.024 101.538 93H87.508ZM172.262 30.658C174.539 30.658 177.183 30.8613 180.192 31.268C183.201 31.6747 186.251 32.2847 189.342 33.098C188.854 36.6767 188.285 40.7433 187.634 45.298C187.065 49.8527 186.455 54.4073 185.804 58.962C185.235 63.4353 184.747 67.5427 184.34 71.284C184.015 75.0253 183.852 77.9127 183.852 79.946C183.852 81.4913 184.015 82.6707 184.34 83.484C184.665 84.2973 185.275 84.704 186.17 84.704C187.227 84.704 188.366 83.972 189.586 82.508C190.887 80.9627 192.107 78.238 193.246 74.334L198.736 75.92C198.492 77.5467 197.963 79.4173 197.15 81.532C196.337 83.6467 195.239 85.68 193.856 87.632C192.555 89.584 190.928 91.2107 188.976 92.512C187.024 93.732 184.747 94.342 182.144 94.342C179.379 94.342 177.101 93.488 175.312 91.78C173.523 90.072 172.628 87.2253 172.628 83.24C172.628 81.776 172.709 80.1493 172.872 78.36C173.116 76.5707 173.401 74.822 173.726 73.114H173.482C171.855 77.4247 170.147 81.0033 168.358 83.85C166.569 86.6153 164.739 88.7707 162.868 90.316C160.997 91.8613 159.127 92.9187 157.256 93.488C155.385 94.0573 153.555 94.342 151.766 94.342C147.293 94.342 143.511 92.5933 140.42 89.096C137.329 85.5987 135.784 80.068 135.784 72.504C135.784 66.8107 136.557 61.4833 138.102 56.522C139.729 51.4793 142.087 47.006 145.178 43.102C148.269 39.198 152.051 36.148 156.524 33.952C161.079 31.756 166.325 30.658 172.262 30.658ZM167.992 37.49C165.227 37.49 162.746 38.344 160.55 40.052C158.354 41.6787 156.483 44.0373 154.938 47.128C153.393 50.1373 152.213 53.7567 151.4 57.986C150.668 62.2153 150.302 66.9327 150.302 72.138C150.302 76.1233 150.749 79.336 151.644 81.776C152.62 84.1347 154.084 85.314 156.036 85.314C157.988 85.314 159.859 84.338 161.648 82.386C163.437 80.434 165.064 77.7907 166.528 74.456C167.992 71.1213 169.293 67.4207 170.432 63.354C171.571 59.206 172.506 55.0173 173.238 50.788C173.97 46.4773 174.377 42.37 174.458 38.466C173.807 38.222 172.872 38.0187 171.652 37.856C170.432 37.612 169.212 37.49 167.992 37.49ZM257.323 94.342C253.012 94.342 250.084 93.2033 248.539 90.926C247.075 88.5673 246.343 85.3547 246.343 81.288C246.343 78.848 246.506 76.1233 246.831 73.114C247.156 70.0233 247.522 66.8513 247.929 63.598C248.417 60.2633 248.824 57.0913 249.149 54.082C249.474 50.9913 249.637 48.2667 249.637 45.908C249.637 44.7693 249.515 43.7527 249.271 42.858C249.027 41.9633 248.58 41.272 247.929 40.784C247.36 40.296 246.546 40.052 245.489 40.052C243.7 40.052 241.91 41.028 240.121 42.98C238.332 44.8507 236.583 47.4127 234.875 50.666C233.248 53.838 231.784 57.376 230.483 61.28C229.182 65.184 228.124 69.21 227.311 73.358C226.579 77.4247 226.213 81.288 226.213 84.948C226.213 86.0867 226.254 87.4693 226.335 89.096C226.416 90.7227 226.498 92.024 226.579 93H212.671C212.508 91.6987 212.386 90.7633 212.305 90.194C212.305 89.5433 212.305 88.8113 212.305 87.998C212.305 86.4527 212.386 84.6227 212.549 82.508C212.793 80.312 213.078 77.7907 213.403 74.944C213.728 72.0973 214.094 68.9253 214.501 65.428C214.908 62.3373 215.233 59.6533 215.477 57.376C215.802 55.0987 216.046 53.1467 216.209 51.52C216.453 49.812 216.616 48.3887 216.697 47.25C216.778 46.03 216.819 45.0133 216.819 44.2C216.819 42.8173 216.616 41.8413 216.209 41.272C215.884 40.6213 215.355 40.296 214.623 40.296C213.566 40.296 212.427 41.0687 211.207 42.614C209.987 44.078 208.848 46.762 207.791 50.666L202.179 49.08C202.504 47.4533 203.033 45.5827 203.765 43.468C204.497 41.3533 205.514 39.32 206.815 37.368C208.116 35.416 209.702 33.83 211.573 32.61C213.444 31.3087 215.68 30.658 218.283 30.658C220.398 30.658 222.187 31.146 223.651 32.122C225.196 33.0167 226.335 34.3993 227.067 36.27C227.88 38.0593 228.246 40.3773 228.165 43.224C228.084 45.0133 227.921 46.5993 227.677 47.982C227.514 49.3647 227.311 50.788 227.067 52.252H227.311C229.507 46.4773 231.825 42.0447 234.265 38.954C236.705 35.782 239.186 33.6267 241.707 32.488C244.228 31.268 246.709 30.658 249.149 30.658C252.565 30.658 255.29 31.4307 257.323 32.976C259.438 34.44 260.983 36.514 261.959 39.198C262.935 41.882 263.423 44.9727 263.423 48.47C263.423 51.886 263.138 55.5867 262.569 59.572C262.081 63.476 261.552 67.2987 260.983 71.04C260.414 74.7 260.129 77.9533 260.129 80.8C260.129 82.1013 260.332 83.0773 260.739 83.728C261.146 84.3787 261.715 84.704 262.447 84.704C263.504 84.704 264.643 83.972 265.863 82.508C267.083 80.9627 268.222 78.238 269.279 74.334L274.891 75.92C274.566 77.5467 273.956 79.4173 273.061 81.532C272.166 83.6467 270.987 85.68 269.523 87.632C268.059 89.584 266.31 91.2107 264.277 92.512C262.244 93.732 259.926 94.342 257.323 94.342ZM299.254 94.342C295.269 94.342 291.975 93.3253 289.372 91.292C286.77 89.1773 284.818 86.3713 283.516 82.874C282.296 79.3767 281.686 75.432 281.686 71.04C281.686 63.232 282.906 56.3187 285.346 50.3C287.868 44.2 291.69 39.4013 296.814 35.904C301.938 32.4067 308.364 30.658 316.09 30.658C316.904 30.658 317.961 30.6987 319.262 30.78C320.564 30.78 321.58 30.8613 322.312 31.024C322.638 27.5267 322.922 24.558 323.166 22.118C323.492 19.678 323.736 17.604 323.898 15.896C324.142 14.188 324.386 12.846 324.63 11.87C323.248 11.9513 321.702 12.0327 319.994 12.114C318.368 12.114 317.026 12.1547 315.968 12.236L316.456 4.428C320.198 4.428 323.248 4.26533 325.606 3.94C327.965 3.53333 329.795 3.04533 331.096 2.47599C332.479 1.90666 333.455 1.378 334.024 0.889993H339.636C338.904 6.66466 338.132 12.8053 337.318 19.312C336.586 25.7373 335.773 32.732 334.878 40.296C334.309 45.664 333.699 50.9507 333.048 56.156C332.479 61.28 331.991 65.916 331.584 70.064C331.259 74.212 331.096 77.5873 331.096 80.19C331.096 81.7353 331.259 82.874 331.584 83.606C331.991 84.338 332.601 84.704 333.414 84.704C334.472 84.704 335.57 83.972 336.708 82.508C337.928 80.9627 339.108 78.238 340.246 74.334L345.858 75.92C345.533 77.5467 344.964 79.4173 344.15 81.532C343.418 83.6467 342.402 85.68 341.1 87.632C339.799 89.584 338.172 91.2107 336.22 92.512C334.35 93.732 332.113 94.342 329.51 94.342C326.664 94.342 324.346 93.488 322.556 91.78C320.767 90.072 319.872 87.2253 319.872 83.24C319.872 81.3693 319.954 79.702 320.116 78.238C320.279 76.774 320.523 75.066 320.848 73.114H320.604C318.571 78.8073 316.334 83.1993 313.894 86.29C311.454 89.3807 308.974 91.4953 306.452 92.634C303.931 93.7727 301.532 94.342 299.254 94.342ZM303.158 85.07C305.354 85.07 307.428 83.8907 309.38 81.532C311.332 79.1733 313.122 76.0013 314.748 72.016C316.375 68.0307 317.676 63.598 318.652 58.718C319.303 55.79 319.832 52.6587 320.238 49.324C320.645 45.9893 321.052 42.4107 321.458 38.588C320.645 38.2627 319.506 38.0187 318.042 37.856C316.578 37.612 315.358 37.49 314.382 37.49C311.373 37.49 308.811 38.2627 306.696 39.808C304.582 41.272 302.833 43.2647 301.45 45.786C300.149 48.226 299.092 50.91 298.278 53.838C297.546 56.766 297.018 59.694 296.692 62.622C296.448 65.4687 296.326 68.0307 296.326 70.308C296.326 74.944 296.896 78.5633 298.034 81.166C299.173 83.7687 300.881 85.07 303.158 85.07ZM372.325 94.342C368.584 94.342 365.127 93.8133 361.955 92.756C358.783 91.6173 356.18 90.0313 354.147 87.998C352.195 85.8833 351.219 83.4027 351.219 80.556C351.219 78.2787 351.87 76.4487 353.171 75.066C354.554 73.602 356.221 72.87 358.173 72.87C360.206 72.87 361.792 73.5613 362.931 74.944C364.151 76.2453 364.761 77.7907 364.761 79.58C364.761 80.1493 364.68 80.7593 364.517 81.41C364.436 82.0607 364.232 82.7113 363.907 83.362C364.395 84.5007 365.534 85.4767 367.323 86.29C369.194 87.1033 370.902 87.51 372.447 87.51C376.27 87.51 379.035 86.656 380.743 84.948C382.451 83.24 383.305 81.1253 383.305 78.604C383.305 76.8147 382.654 75.2693 381.353 73.968C380.052 72.5853 378.384 71.284 376.351 70.064C374.318 68.7627 372.162 67.4613 369.885 66.16C366.55 64.208 363.663 62.3373 361.223 60.548C358.864 58.7587 357.075 56.888 355.855 54.936C354.635 52.9027 354.025 50.544 354.025 47.86C354.025 44.932 354.92 42.1667 356.709 39.564C358.498 36.9613 361.06 34.8467 364.395 33.22C367.73 31.512 371.756 30.658 376.473 30.658C379.645 30.658 382.736 31.1867 385.745 32.244C388.754 33.22 391.235 34.684 393.187 36.636C395.139 38.588 396.115 40.906 396.115 43.59C396.115 45.542 395.505 47.25 394.285 48.714C393.065 50.0967 391.398 50.788 389.283 50.788C387.331 50.788 385.745 50.1373 384.525 48.836C383.386 47.5347 382.817 45.9893 382.817 44.2C382.817 43.5493 382.858 42.9393 382.939 42.37C383.102 41.8007 383.346 41.2313 383.671 40.662C383.102 39.6047 382.085 38.7913 380.621 38.222C379.238 37.6527 377.693 37.368 375.985 37.368C374.684 37.368 373.301 37.6933 371.837 38.344C370.454 38.9133 369.275 39.7673 368.299 40.906C367.323 41.9633 366.835 43.2647 366.835 44.81C366.835 46.1113 367.16 47.25 367.811 48.226C368.462 49.202 369.6 50.2593 371.227 51.398C372.854 52.5367 375.05 53.9193 377.815 55.546C380.58 57.1727 383.386 58.9213 386.233 60.792C389.161 62.5813 391.601 64.696 393.553 67.136C395.505 69.4947 396.481 72.4227 396.481 75.92C396.481 79.4987 395.424 82.6707 393.309 85.436C391.276 88.2013 388.429 90.3973 384.769 92.024C381.109 93.5693 376.961 94.342 372.325 94.342Z" fill="#212121" fill-opacity="0.07"/>
</svg>
