<svg width="26" height="26" viewBox="0 0 26 26" fill="none" xmlns="http://www.w3.org/2000/svg">
<path d="M13 0.5C10.5277 0.5 8.11099 1.23311 6.05538 2.60663C3.99976 3.98015 2.39761 5.93238 1.45151 8.21646C0.505416 10.5005 0.257874 13.0139 0.74019 15.4386C1.2225 17.8634 2.41301 20.0907 4.16117 21.8388C5.90933 23.587 8.13661 24.7775 10.5614 25.2598C12.9861 25.7421 15.4995 25.4946 17.7836 24.5485C20.0676 23.6024 22.0199 22.0002 23.3934 19.9446C24.7669 17.889 25.5 15.4723 25.5 13C25.5 11.3585 25.1767 9.73303 24.5485 8.21646C23.9203 6.69989 22.9996 5.3219 21.8388 4.16117C20.6781 3.00043 19.3001 2.07969 17.7836 1.45151C16.267 0.823322 14.6415 0.5 13 0.5ZM18.0375 10.75L12.2 16.575C12.1148 16.6644 12.0119 16.7351 11.8978 16.7824C11.7837 16.8298 11.661 16.8528 11.5375 16.85C11.4144 16.8504 11.2923 16.8264 11.1786 16.7791C11.0648 16.7319 10.9616 16.6625 10.875 16.575L7.96251 13.6625C7.79691 13.4848 7.70675 13.2497 7.71104 13.0068C7.71532 12.764 7.81371 12.5322 7.98548 12.3605C8.15724 12.1887 8.38898 12.0903 8.63185 12.086C8.87473 12.0817 9.10979 12.1719 9.28751 12.3375L11.5375 14.5875L16.7125 9.425C16.7984 9.33609 16.9014 9.26538 17.0152 9.21708C17.129 9.16879 17.2514 9.1439 17.375 9.1439C17.4986 9.1439 17.621 9.16879 17.7348 9.21708C17.8487 9.26538 17.9516 9.33609 18.0375 9.425C18.2119 9.60142 18.3096 9.83946 18.3096 10.0875C18.3096 10.3355 18.2119 10.5736 18.0375 10.75Z" fill="#006098"/>
</svg>
