<svg width="19" height="19" viewBox="0 0 19 19" fill="none" xmlns="http://www.w3.org/2000/svg">
<path fill-rule="evenodd" clip-rule="evenodd" d="M18.1608 0.838489C17.575 0.252703 16.6252 0.252703 16.0394 0.838489L9.32209 7.55583L2.60492 0.838662C2.01914 0.252876 1.06939 0.252875 0.483604 0.838662C-0.102183 1.42445 -0.102183 2.3742 0.483604 2.95998L7.20077 9.67715L0.483086 16.3948C-0.1027 16.9806 -0.102701 17.9304 0.483086 18.5162C1.06887 19.1019 2.01862 19.1019 2.60441 18.5162L9.32209 11.7985L16.04 18.5163C16.6257 19.1021 17.5755 19.1021 18.1613 18.5163C18.7471 17.9305 18.7471 16.9808 18.1613 16.395L11.4434 9.67715L18.1608 2.95981C18.7465 2.37402 18.7465 1.42428 18.1608 0.838489Z" fill="#41667B"/>
</svg>
