<svg width="50" height="50" viewBox="0 0 50 50" fill="none" xmlns="http://www.w3.org/2000/svg">
<path d="M20.8333 6.25H8.33333C7.78079 6.25 7.2509 6.4695 6.86019 6.86019C6.4695 7.2509 6.25 7.78079 6.25 8.33333V20.8333C6.25 21.3858 6.4695 21.9158 6.86019 22.3065C7.2509 22.6971 7.78079 22.9167 8.33333 22.9167H20.8333C21.3858 22.9167 21.9158 22.6971 22.3065 22.3065C22.6971 21.9158 22.9167 21.3858 22.9167 20.8333V8.33333C22.9167 7.78079 22.6971 7.2509 22.3065 6.86019C21.9158 6.4695 21.3858 6.25 20.8333 6.25ZM41.6667 6.25H29.1667C28.6142 6.25 28.0842 6.4695 27.6935 6.86019C27.3029 7.2509 27.0833 7.78079 27.0833 8.33333V20.8333C27.0833 21.3858 27.3029 21.9158 27.6935 22.3065C28.0842 22.6971 28.6142 22.9167 29.1667 22.9167H41.6667C42.2192 22.9167 42.7492 22.6971 43.1398 22.3065C43.5304 21.9158 43.75 21.3858 43.75 20.8333V8.33333C43.75 7.78079 43.5304 7.2509 43.1398 6.86019C42.7492 6.4695 42.2192 6.25 41.6667 6.25ZM20.8333 27.0833H8.33333C7.78079 27.0833 7.2509 27.3029 6.86019 27.6935C6.4695 28.0842 6.25 28.6142 6.25 29.1667V41.6667C6.25 42.2192 6.4695 42.7492 6.86019 43.1398C7.2509 43.5304 7.78079 43.75 8.33333 43.75H20.8333C21.3858 43.75 21.9158 43.5304 22.3065 43.1398C22.6971 42.7492 22.9167 42.2192 22.9167 41.6667V29.1667C22.9167 28.6142 22.6971 28.0842 22.3065 27.6935C21.9158 27.3029 21.3858 27.0833 20.8333 27.0833ZM37.5 29.1667H33.3333V33.3333H29.1667V37.5H33.3333V41.6667H37.5V37.5H41.6667V33.3333H37.5V29.1667Z" fill="#005D95"/>
<path d="M37.5013 29.166H33.3346V33.3327H29.168V37.4993H33.3346V41.666H37.5013V37.4993H41.668V33.3327H37.5013V29.166Z" fill="#C4F053"/>
</svg>
