<svg width="36" height="22" viewBox="0 0 36 22" fill="none" xmlns="http://www.w3.org/2000/svg">
<path d="M34 0C35.1 0 36 0.9 36 2V20C36 21.1 35.1 22 34 22H2C0.9 22 0 21.1 0 20V2C0 0.9 0.9 0 2 0H34Z" fill="white"/>
<path d="M11.0005 11V14.7C11.0005 15 10.8005 15 10.5005 14.9C8.60047 14.1 7.50047 11.6 8.20047 9.5C8.60047 8.4 9.40047 7.5 10.5005 7.1C10.9005 6.9 11.0005 7 11.0005 7.3V11ZM13.0005 11V7.3C13.0005 7 13.0005 7 13.3005 7.1C15.4005 7.9 16.5005 10.4 15.7005 12.5C15.3005 13.6 14.5005 14.5 13.4005 14.9C13.0005 15.1 13.0005 15 13.0005 14.7V11ZM20.2005 4H12.0005C15.8005 4 18.8005 7.1 18.8005 11C18.8005 14.9 15.8005 18 12.0005 18H20.2005C24.0005 18 27.0005 14.9 27.0005 11C27.0005 7.1 24.0005 4 20.2005 4Z" fill="#3086C8"/>
</svg>
