<svg width="41" height="37" viewBox="0 0 41 37" fill="none" xmlns="http://www.w3.org/2000/svg">
<path d="M11.7852 8.00864V4.52261C11.7852 3.13518 12.9204 2 14.3078 2H27.4258C28.8134 2 29.9485 3.13518 29.9485 4.52261V8.00864" stroke="#006098" stroke-width="2.12901" stroke-miterlimit="22.9256" stroke-linecap="round" stroke-linejoin="round"/>
<path d="M38.1746 19.2832V32.651C38.1746 33.9425 37.1174 34.9996 35.8259 34.9996H5.91902C4.62747 34.9996 3.57031 33.9427 3.57031 32.651V19.3615" stroke="#006098" stroke-width="2.12901" stroke-miterlimit="22.9256" stroke-linecap="round" stroke-linejoin="round"/>
<path d="M17.7363 23.2384C9.45409 22.7648 2 20.3965 2 16.1335V10.5752C2 9.28166 3.05504 8.22656 4.34871 8.22656H37.3872C38.6808 8.22656 39.7359 9.28173 39.7359 10.5752V16.1335C39.7359 20.4232 32.1876 22.7944 23.843 23.2471" stroke="#006098" stroke-width="2.12901" stroke-miterlimit="22.9256" stroke-linecap="round" stroke-linejoin="round"/>
<path fill-rule="evenodd" clip-rule="evenodd" d="M17.9688 20.9062H23.7622V23.6072C23.7622 25.0927 22.5468 26.3082 21.0612 26.3082H20.6698C19.1842 26.3082 17.9688 25.0927 17.9688 23.6072V20.9062Z" stroke="#006098" stroke-width="2.12901" stroke-miterlimit="22.9256" stroke-linecap="round" stroke-linejoin="round"/>
</svg>
