<svg width="50" height="50" viewBox="0 0 50 50" fill="none" xmlns="http://www.w3.org/2000/svg">
<path fill-rule="evenodd" clip-rule="evenodd" d="M12.9286 47.3214V36.6071C12.9286 35.1286 11.7286 33.9286 10.25 33.9286H6.67857C5.2 33.9286 4 35.1286 4 36.6071V47.3214C4 48.8 5.2 50 6.67857 50H10.25C11.7286 50 12.9286 48.8 12.9286 47.3214ZM36.4214 36.3036L31.9482 39.2857H21.8571V37.5H31.4089L34.916 35.1607C34.4393 34.4196 33.6071 33.9286 32.6607 33.9286H18.4929C17.6143 33.9286 16.7554 34.1875 16.0232 34.6732L14.7143 35.5429V46.4286H30.7875C31.5822 46.4286 32.3607 46.2179 33.0447 45.8161C35.2947 44.4982 41.5447 40.8357 45.0268 38.7964C45.8625 38.3071 46.4482 37.4839 46.6393 36.5357C46.8286 35.5857 46.6036 34.6018 46.0215 33.8286V33.8268C45.1804 32.7107 43.6482 32.3768 42.4197 33.0447L36.4214 36.3036ZM20.0714 26.7107V28.0982C20.0714 30.3161 21.9554 32.1429 24.3125 32.1429H26.5446C28.9018 32.1429 30.7857 30.3161 30.7857 28.0982V26.7803C27.0446 28.0196 23.4732 27.9732 20.0714 26.7107ZM15.2536 25.8464L17.2554 24.0661C17.6232 23.7393 17.6554 23.1732 17.3286 22.8053C17.0018 22.4375 16.4357 22.4036 16.0678 22.7321L14.0661 24.5107C13.6982 24.8393 13.6643 25.4036 13.9928 25.7714C14.3196 26.1393 14.8839 26.1732 15.2536 25.8464ZM36.7357 24.4339L34.7339 22.6536C34.3661 22.3268 33.8018 22.3589 33.4732 22.7268C33.1464 23.0964 33.1804 23.6607 33.5482 23.9875L35.55 25.7678C35.9179 26.0946 36.4821 26.0625 36.8107 25.6929C37.1375 25.325 37.1036 24.7607 36.7357 24.4339ZM20.0714 24.8804C20.3054 24.8571 20.55 24.8875 20.775 24.9768C23.8036 26.1929 26.9982 26.1947 30.3572 24.9625C30.4947 24.9125 30.6411 24.8839 30.7857 24.875V22.3196C32.9536 20.6893 34.3571 18.0946 34.3571 15.175C34.3571 10.2464 30.3554 6.24463 25.4286 6.24463C20.5 6.24463 16.4982 10.2464 16.4982 15.175C16.4982 18.0946 17.9018 20.6893 20.0714 22.3196V24.8804ZM11.1429 16.0732L13.8214 16.0714C14.3143 16.0714 14.7143 15.6714 14.7143 15.1786C14.7143 14.6857 14.3143 14.2857 13.8214 14.2857L11.1429 14.2875C10.65 14.2875 10.25 14.6893 10.25 15.1821C10.25 15.6732 10.65 16.0732 11.1429 16.0732ZM37.0357 16.0714L39.7143 16.0696C40.2071 16.0696 40.6071 15.6679 40.6071 15.175C40.6071 14.6839 40.2071 14.2839 39.7143 14.2839L37.0357 14.2857C36.5429 14.2857 36.1429 14.6857 36.1429 15.1786C36.1429 15.6714 36.5429 16.0714 37.0357 16.0714ZM34.8964 7.98928L36.8982 6.20894C37.2661 5.88215 37.2982 5.31606 36.9714 4.94821C36.6446 4.58035 36.0786 4.54642 35.7107 4.87499L33.7089 6.65357C33.3411 6.98214 33.3072 7.54644 33.6357 7.9143C33.9625 8.28216 34.5268 8.31607 34.8964 7.98928ZM17.0929 6.57678L15.0911 4.79644C14.7232 4.46965 14.1589 4.50179 13.8304 4.86965C13.5036 5.23929 13.5375 5.80357 13.9054 6.13035L15.9071 7.9107C16.275 8.23749 16.8393 8.20536 17.1678 7.83572C17.4946 7.46786 17.4607 6.90357 17.0929 6.57678ZM26.3214 3.57143V0.892857C26.3214 0.4 25.9214 0 25.4286 0C24.9357 0 24.5357 0.4 24.5357 0.892857V3.57143C24.5357 4.06429 24.9357 4.46429 25.4286 4.46429C25.9214 4.46429 26.3214 4.06429 26.3214 3.57143Z" fill="#006098"/>
<path fill-rule="evenodd" clip-rule="evenodd" d="M12.9286 47.3211V36.6069C12.9286 35.1283 11.7286 33.9283 10.25 33.9283H6.67857C5.2 33.9283 4 35.1283 4 36.6069V47.3211C4 48.7997 5.2 49.9997 6.67857 49.9997H10.25C11.7286 49.9997 12.9286 48.7997 12.9286 47.3211ZM36.4214 36.3033L31.9482 39.2854H21.8571V37.4997H31.4089L34.916 35.1604C34.4393 34.4194 33.6071 33.9283 32.6607 33.9283H18.4929C17.6143 33.9283 16.7554 34.1872 16.0232 34.6729L14.7143 35.5426V46.4283H30.7875C31.5822 46.4283 32.3607 46.2176 33.0447 45.8158C35.2947 44.4979 41.5447 40.8354 45.0268 38.7961C45.8625 38.3069 46.4482 37.4837 46.6393 36.5354C46.8286 35.5854 46.6036 34.6015 46.0215 33.8283V33.8265C45.1804 32.7104 43.6482 32.3765 42.4197 33.0444L36.4214 36.3033Z" fill="#B3F018"/>
</svg>
