<svg width="20" height="20" viewBox="0 0 20 20" fill="none" xmlns="http://www.w3.org/2000/svg">
<path fill-rule="evenodd" clip-rule="evenodd" d="M14.0375 1.86461C12.9875 1.81837 12.6675 1.80713 10 1.80713C7.32 1.80713 7.0125 1.81962 5.9525 1.87586C4.9825 1.9096 4.45875 2.08081 4.09375 2.21702C3.66262 2.37474 3.27285 2.62811 2.95375 2.95808C2.61992 3.28109 2.36278 3.67482 2.20125 4.11029C2.06375 4.4627 1.90375 4.98757 1.85875 5.96732C1.80125 7.01705 1.80125 7.33572 1.80125 10.0038C1.80125 12.6706 1.81375 12.9905 1.85875 14.039C1.86375 14.6764 1.98 15.3087 2.20125 15.9073C2.3825 16.3634 2.6 16.7058 2.95375 17.0483C3.30625 17.4007 3.62625 17.6181 4.10375 17.8006C4.69625 18.0205 5.32125 18.1355 5.9525 18.1417C7.0125 18.1992 7.33125 18.1992 10 18.1992C12.6675 18.1992 12.9875 18.1867 14.0375 18.1417C15.0175 18.0967 15.5412 17.9368 15.895 17.8006C16.3625 17.6181 16.705 17.3894 17.0462 17.0483C17.4 16.6946 17.605 16.3634 17.7987 15.896C18.02 15.3012 18.1363 14.6726 18.1413 14.039C18.1875 12.9893 18.1987 12.6706 18.1987 10.0025C18.1987 7.33572 18.1862 7.0158 18.13 5.96732C18.0963 4.98757 17.925 4.4627 17.7875 4.09904C17.6299 3.66757 17.3765 3.27746 17.0462 2.95808C16.7208 2.62835 16.3288 2.37186 15.8962 2.20578C15.5413 2.06831 15.0187 1.9096 14.0375 1.86461ZM5.87125 0.0625701C6.9425 0.0175816 7.285 0.00633463 9.99875 0.00633463C11.3737 -0.0111609 12.7512 0.0075841 14.1262 0.0625701C14.9562 0.0800657 15.7775 0.237526 16.555 0.529951C17.22 0.782837 17.8228 1.1758 18.3225 1.68216C18.835 2.17828 19.2325 2.78188 19.485 3.44921C19.7725 4.22651 19.9275 5.04755 19.9412 5.87609C20 6.94832 20 7.27823 20 10.0038C20 12.7156 19.9875 13.058 19.9425 14.1177C19.8975 15.19 19.7262 15.9198 19.475 16.5459C19.225 17.2082 18.8825 17.7656 18.325 18.3242C17.8268 18.8329 17.223 19.2262 16.5562 19.4764C15.9187 19.7151 15.1875 19.8975 14.1275 19.9438C13.0562 19.9888 12.725 20 10 20C7.28625 20 6.94375 19.9888 5.8725 19.9313C4.81125 19.8975 4.0825 19.7263 3.44375 19.4764C2.78188 19.2174 2.18028 18.8252 1.67625 18.3242C1.16954 17.8185 0.773647 17.2129 0.51375 16.5459C0.285 15.9085 0.1025 15.19 0.0575 14.1177C0.01125 13.0593 0 12.7056 0 10.0025C0 7.30198 8.3819e-08 6.95957 0.0687501 5.87609C0.1025 4.81636 0.27375 4.08655 0.525 3.44921C0.791858 2.79213 1.18224 2.19229 1.675 1.68216C2.1791 1.17818 2.78103 0.782663 3.44375 0.519954C4.08125 0.291262 4.81 0.107559 5.87125 0.0625701ZM6.405 6.06854C6.87955 5.58363 7.44558 5.19764 8.07034 4.9329C8.6951 4.66816 9.36618 4.52994 10.0447 4.52624C10.7233 4.52253 11.3958 4.65341 12.0235 4.91131C12.6511 5.1692 13.2213 5.54899 13.7011 6.02868C14.1809 6.50838 14.5608 7.07845 14.8188 7.70591C15.0767 8.33337 15.2077 9.00575 15.204 9.68413C15.2002 10.3625 15.062 11.0334 14.7972 11.658C14.5324 12.2826 14.1463 12.8485 13.6613 13.3229C12.6954 14.2676 11.3959 14.7934 10.0447 14.786C8.69358 14.7786 7.39986 14.2387 6.44444 13.2835C5.48901 12.3283 4.94899 11.035 4.9416 9.68413C4.93422 8.33332 5.46007 7.03411 6.405 6.06854ZM8.7575 12.7806C9.5747 13.119 10.4929 13.119 11.3101 12.7806C12.1273 12.4421 12.7765 11.793 13.115 10.976C13.4535 10.1591 13.4535 9.2411 13.115 8.42412C12.7765 7.60713 12.1272 6.95805 11.31 6.61965C10.4928 6.28126 9.57461 6.28127 8.75742 6.61968C7.94023 6.9581 7.29098 7.6072 6.9525 8.42419C6.61402 9.24118 6.61403 10.1591 6.95253 10.9761C7.29104 11.7931 7.9403 12.4422 8.7575 12.7806ZM16.16 5.35497C16.0488 5.46616 15.9168 5.55436 15.7715 5.61453C15.6261 5.6747 15.4704 5.70567 15.3131 5.70567C15.1558 5.70567 15.0001 5.6747 14.8548 5.61453C14.7095 5.55436 14.5775 5.46616 14.4662 5.35497C14.355 5.24379 14.2668 5.11179 14.2066 4.96652C14.1464 4.82125 14.1155 4.66555 14.1155 4.50831C14.1155 4.35108 14.1464 4.19538 14.2066 4.05011C14.2668 3.90484 14.355 3.77284 14.4662 3.66165C14.6909 3.43711 14.9955 3.31096 15.3131 3.31096C15.6308 3.31096 15.9354 3.43711 16.16 3.66165C16.3846 3.8862 16.5108 4.19076 16.5108 4.50831C16.5108 4.82587 16.3846 5.13043 16.16 5.35497Z" fill="#006098"/>
</svg>
