<svg width="14" height="14" viewBox="0 0 14 14" fill="none" xmlns="http://www.w3.org/2000/svg">
<path fill-rule="evenodd" clip-rule="evenodd" d="M9.54283 1.26794C8.82901 1.23649 8.61147 1.22885 6.79803 1.22885C4.97609 1.22885 4.76704 1.23734 4.04643 1.27558C3.387 1.29853 3.03094 1.41495 2.7828 1.50758C2.4897 1.61482 2.22473 1.78711 2.0078 2.0115C1.78085 2.23114 1.60604 2.49887 1.49623 2.795C1.40275 3.03464 1.29398 3.39155 1.26338 4.05778C1.22429 4.7716 1.22429 4.98829 1.22429 6.80258C1.22429 8.61602 1.23279 8.83356 1.26338 9.54653C1.26678 9.97992 1.34581 10.4099 1.49623 10.817C1.61944 11.1271 1.76731 11.36 2.0078 11.5928C2.24743 11.8324 2.46498 11.9803 2.7896 12.1044C3.19239 12.2539 3.61729 12.3321 4.04643 12.3364C4.76704 12.3755 4.98374 12.3755 6.79803 12.3755C8.61147 12.3755 8.82901 12.367 9.54283 12.3364C10.2091 12.3058 10.5651 12.197 10.8056 12.1044C11.1234 11.9803 11.3563 11.8248 11.5883 11.5928C11.8287 11.3523 11.9681 11.1271 12.0998 10.8093C12.2502 10.4048 12.3293 9.97737 12.3327 9.54653C12.3641 8.83271 12.3718 8.61602 12.3718 6.80173C12.3718 4.98829 12.3633 4.77075 12.325 4.05778C12.3021 3.39155 12.1857 3.03464 12.0922 2.78735C11.985 2.49395 11.8128 2.22867 11.5883 2.0115C11.367 1.78728 11.1005 1.61286 10.8065 1.49993C10.5651 1.40645 10.2099 1.29853 9.54283 1.26794ZM3.99119 0.0425477C4.71946 0.0119555 4.9523 0.00430755 6.79718 0.00430755C7.73194 -0.00758943 8.6684 0.00515719 9.60316 0.0425477C10.1674 0.0544447 10.7257 0.161518 11.2543 0.360367C11.7064 0.532329 12.1162 0.799542 12.4559 1.14387C12.8043 1.48123 13.0745 1.89168 13.2462 2.34546C13.4416 2.87403 13.547 3.43234 13.5564 3.99574C13.5963 4.72486 13.5963 4.9492 13.5963 6.80258C13.5963 8.64661 13.5878 8.87945 13.5572 9.60007C13.5266 10.3292 13.4102 10.8255 13.2394 11.2512C13.0694 11.7016 12.8366 12.0806 12.4576 12.4604C12.1189 12.8064 11.7084 13.0738 11.2551 13.2439C10.8218 13.4062 10.3246 13.5303 9.60401 13.5618C8.87575 13.5924 8.65056 13.6 6.79803 13.6C4.95315 13.6 4.72031 13.5924 3.99204 13.5533C3.27057 13.5303 2.77515 13.4139 2.34091 13.2439C1.89095 13.0678 1.48197 12.8011 1.13932 12.4604C0.794841 12.1166 0.525702 11.7047 0.349017 11.2512C0.193507 10.8178 0.0694382 10.3292 0.0388459 9.60007C0.00740392 8.8803 -0.000244141 8.63981 -0.000244141 6.80173C-0.000244141 4.96535 -0.000244084 4.73251 0.046494 3.99574C0.0694382 3.27513 0.185859 2.77885 0.356665 2.34546C0.538082 1.89865 0.803472 1.49076 1.13847 1.14387C1.48117 0.801161 1.89038 0.532211 2.34091 0.353569C2.7743 0.198058 3.26972 0.0731399 3.99119 0.0425477ZM4.35405 4.12661C4.67666 3.79687 5.06146 3.53439 5.48619 3.35437C5.91092 3.17435 6.36714 3.08036 6.82844 3.07784C7.28974 3.07532 7.74696 3.16432 8.17363 3.33969C8.6003 3.51506 8.98796 3.77331 9.31415 4.09951C9.64034 4.4257 9.8986 4.81335 10.074 5.24002C10.2493 5.66669 10.3383 6.12391 10.3358 6.58521C10.3333 7.04651 10.2393 7.50273 10.0593 7.92746C9.87926 8.35219 9.61678 8.737 9.28705 9.05961C8.63046 9.70199 7.747 10.0595 6.82844 10.0545C5.90989 10.0494 5.03038 9.68232 4.38086 9.0328C3.73133 8.38327 3.36421 7.50377 3.35919 6.58521C3.35417 5.66666 3.71166 4.78319 4.35405 4.12661ZM5.95334 8.6908C6.5089 8.92091 7.13311 8.9209 7.68865 8.69078C8.2442 8.46065 8.68558 8.01926 8.91569 7.46371C9.1458 6.90816 9.14579 6.28395 8.91567 5.7284C8.68554 5.17285 8.24416 4.73147 7.6886 4.50136C7.13305 4.27125 6.50884 4.27126 5.95329 4.50139C5.39774 4.73151 4.95636 5.1729 4.72625 5.72845C4.49614 6.28401 4.49615 6.90822 4.72628 7.46376C4.9564 8.01931 5.39779 8.46069 5.95334 8.6908ZM10.9858 3.64138C10.9102 3.71699 10.8204 3.77696 10.7216 3.81788C10.6228 3.8588 10.517 3.87986 10.41 3.87986C10.3031 3.87986 10.1972 3.8588 10.0985 3.81788C9.99967 3.77696 9.90991 3.71699 9.83431 3.64138C9.7587 3.56578 9.69873 3.47602 9.65781 3.37724C9.61689 3.27845 9.59583 3.17258 9.59583 3.06565C9.59583 2.95873 9.61689 2.85286 9.65781 2.75407C9.69873 2.65529 9.7587 2.56553 9.83431 2.48993C9.987 2.33723 10.1941 2.25145 10.41 2.25145C10.626 2.25145 10.8331 2.33723 10.9858 2.48993C11.1385 2.64262 11.2242 2.84971 11.2242 3.06565C11.2242 3.28159 11.1385 3.48869 10.9858 3.64138Z" fill="white"/>
</svg>
