<svg width="30" height="36" viewBox="0 0 30 36" fill="none" xmlns="http://www.w3.org/2000/svg">
<path d="M15.0004 17.1C13.8069 17.1 12.6623 16.6259 11.8184 15.782C10.9745 14.9381 10.5004 13.7935 10.5004 12.6C10.5004 11.4065 10.9745 10.2619 11.8184 9.41802C12.6623 8.57411 13.8069 8.1 15.0004 8.1C16.1939 8.1 17.3385 8.57411 18.1824 9.41802C19.0263 10.2619 19.5004 11.4065 19.5004 12.6C19.5004 13.1909 19.384 13.7761 19.1579 14.3221C18.9317 14.868 18.6002 15.3641 18.1824 15.782C17.7645 16.1998 17.2684 16.5313 16.7225 16.7575C16.1765 16.9836 15.5913 17.1 15.0004 17.1ZM15.0004 0C11.6587 0 8.45381 1.3275 6.09085 3.69045C3.72789 6.05341 2.40039 9.25827 2.40039 12.6C2.40039 22.05 15.0004 36 15.0004 36C15.0004 36 27.6004 22.05 27.6004 12.6C27.6004 9.25827 26.2729 6.05341 23.9099 3.69045C21.547 1.3275 18.3421 0 15.0004 0Z" fill="white"/>
</svg>
