<svg width="36" height="22" viewBox="0 0 36 22" fill="none" xmlns="http://www.w3.org/2000/svg">
<path d="M34 0C35.1 0 36 0.9 36 2V20C36 21.1 35.1 22 34 22H2C0.9 22 0 21.1 0 20V2C0 0.9 0.9 0 2 0H34Z" fill="white"/>
<path d="M14 18C17.866 18 21 14.866 21 11C21 7.13401 17.866 4 14 4C10.134 4 7 7.13401 7 11C7 14.866 10.134 18 14 18Z" fill="#EB001B"/>
<path d="M22 18C25.866 18 29 14.866 29 11C29 7.13401 25.866 4 22 4C18.134 4 15 7.13401 15 11C15 14.866 18.134 18 22 18Z" fill="#F79E1B"/>
<path d="M21 10.9998C21 8.5998 19.8 6.4998 18 5.2998C16.2 6.5998 15 8.6998 15 10.9998C15 13.2998 16.2 15.4998 18 16.6998C19.8 15.4998 21 13.3998 21 10.9998Z" fill="#FF5F00"/>
</svg>
