<svg width="36" height="22" viewBox="0 0 36 22" fill="none" xmlns="http://www.w3.org/2000/svg">
<path d="M34 0C35.1 0 36 0.9 36 2V20C36 21.1 35.1 22 34 22H2C0.9 22 0 21.1 0 20V2C0 0.9 0.9 0 2 0H34Z" fill="white"/>
<path d="M22.9 7.3C23.1 6.3 22.9 5.6 22.3 5C21.7 4.3 20.6 4 19.2 4H15.1C14.8 4 14.6 4.2 14.5 4.5L13 14.6C13 14.8 13.1 15 13.3 15H16L16.4 11.6L18.2 9.4L22.9 7.3Z" fill="#003087"/>
<path d="M22.8996 7.2998L22.6996 7.4998C22.1996 10.2998 20.4996 11.2998 18.0996 11.2998H16.9996C16.6996 11.2998 16.4996 11.4998 16.3996 11.7998L15.7996 15.6998L15.5996 16.6998C15.5996 16.8998 15.6996 17.0998 15.8996 17.0998H17.9996C18.2996 17.0998 18.4996 16.8998 18.4996 16.6998V16.5998L18.8996 14.1998V14.0998C18.8996 13.8998 19.1996 13.6998 19.3996 13.6998H19.6996C21.7996 13.6998 23.3996 12.8998 23.7996 10.4998C23.9996 9.4998 23.8996 8.6998 23.3996 8.0998C23.2996 7.5998 23.0996 7.3998 22.8996 7.2998Z" fill="#3086C8"/>
<path d="M22.3004 7.0998C22.2004 6.9998 22.1004 6.9998 22.0004 6.9998C21.9004 6.9998 21.8004 6.9998 21.7004 6.8998C21.4004 6.7998 21.0004 6.7998 20.6004 6.7998H17.6004C17.5004 6.7998 17.4004 6.7998 17.4004 6.8998C17.2004 6.9998 17.1004 7.0998 17.1004 7.2998L16.4004 11.6998V11.7998C16.4004 11.4998 16.7004 11.2998 17.0004 11.2998H18.3004C20.8004 11.2998 22.4004 10.2998 22.9004 7.4998V7.2998C22.8004 7.1998 22.6004 7.0998 22.4004 7.0998H22.3004Z" fill="#012169"/>
</svg>
