<svg width="50" height="50" viewBox="0 0 50 50" fill="none" xmlns="http://www.w3.org/2000/svg">
<path fill-rule="evenodd" clip-rule="evenodd" d="M12.8139 0H29.5305L43.6985 14.7676V43.4908C43.6985 47.089 40.7874 50 37.2017 50H12.8139C9.21572 50 6.30469 47.089 6.30469 43.4908V6.50922C6.30462 2.91103 9.21566 0 12.8139 0Z" fill="white"/>
<path opacity="0.302" fill-rule="evenodd" clip-rule="evenodd" d="M29.5195 0V14.6552H43.7L29.5195 0Z" fill="white"/>
<path d="M13.5391 37.3068V28.1738H17.4246C18.3867 28.1738 19.1488 28.4362 19.7235 28.9734C20.2982 29.4982 20.5856 30.2103 20.5856 31.0974C20.5856 31.9844 20.2982 32.6966 19.7235 33.2213C19.1488 33.7585 18.3867 34.0209 17.4246 34.0209H15.8754V37.3068H13.5391ZM15.8754 32.0344H17.1623C17.5121 32.0344 17.7869 31.9595 17.9744 31.7846C18.1618 31.6222 18.2618 31.3973 18.2618 31.0974C18.2618 30.7976 18.1618 30.5727 17.9744 30.4103C17.787 30.2353 17.5121 30.1604 17.1623 30.1604H15.8754V32.0344ZM21.5476 37.3068V28.1738H24.7834C25.4206 28.1738 26.0203 28.2613 26.5825 28.4487C27.1447 28.6361 27.657 28.8985 28.1067 29.2608C28.5565 29.6106 28.9189 30.0854 29.1812 30.6851C29.4311 31.2848 29.5685 31.972 29.5685 32.7466C29.5685 33.5087 29.4311 34.1958 29.1812 34.7955C28.9189 35.3952 28.5565 35.87 28.1067 36.2198C27.6569 36.5821 27.1447 36.8445 26.5825 37.0319C26.0203 37.2193 25.4206 37.3068 24.7834 37.3068H21.5476ZM23.8339 35.3203H24.5086C24.8709 35.3203 25.2082 35.2828 25.5206 35.1953C25.8204 35.1079 26.1078 34.9704 26.3826 34.7831C26.645 34.5957 26.8574 34.3332 27.0073 33.9834C27.1572 33.6337 27.2322 33.2213 27.2322 32.7466C27.2322 32.2593 27.1572 31.847 27.0073 31.4972C26.8574 31.1474 26.645 30.885 26.3826 30.6976C26.1078 30.5102 25.8204 30.3728 25.5206 30.2853C25.2082 30.1979 24.8709 30.1604 24.5086 30.1604H23.8339V35.3203ZM30.743 37.3068V28.1738H37.2397V30.1604H33.0793V31.6221H36.4026V33.5961H33.0793V37.3068H30.743Z" fill="#41667B"/>
</svg>
