<svg width="50" height="50" viewBox="0 0 50 50" fill="none" xmlns="http://www.w3.org/2000/svg">
<g clip-path="url(#clip0_3080_10)">
<path d="M45.9277 10.3369C45.8616 9.87543 45.5407 9.49087 45.0986 9.34313C44.6588 9.19417 44.1698 9.31065 43.8393 9.63992L42.0993 11.3811C41.1692 12.3112 39.5482 12.3112 38.6181 11.3811C37.6557 10.4187 37.6562 8.86292 38.6181 7.90119L40.3581 6.16122C40.6874 5.83195 40.8027 5.34411 40.6549 4.90188C40.5071 4.45965 40.1226 4.13883 39.6612 4.07279C37.3649 3.74836 35.0409 4.51978 33.3982 6.15999C31.5406 8.0189 30.8075 10.7514 31.4864 13.2929L13.2935 31.4851L13.2923 31.4839C10.7605 30.8122 8.01236 31.5451 6.16067 33.3968C4.52882 35.0287 3.7478 37.3707 4.07224 39.6609C4.13836 40.1223 4.45918 40.5069 4.90133 40.6546C5.33995 40.8024 5.83017 40.6871 6.16067 40.3578L7.90064 38.6166C8.83071 37.6866 10.4517 37.6866 11.3818 38.6166C12.3442 39.5789 12.3437 41.1347 11.3818 42.0966L9.64183 43.8365C9.31256 44.1658 9.19722 44.6536 9.34504 45.0959C9.49286 45.5381 9.87734 45.8589 10.3388 45.925C12.6291 46.2509 14.9337 45.5042 16.6017 43.8378C18.4594 41.9788 19.1924 39.2463 18.5135 36.7049L36.7064 18.5127L36.7076 18.5139C39.2526 19.188 41.9876 18.4526 43.8393 16.6009C45.4711 14.9691 46.2521 12.6272 45.9277 10.3369Z" fill="#005D95"/>
<path d="M38.6155 31.2348C38.0328 31.2348 37.4331 31.3225 36.729 31.5088L31.9598 26.7402L26.7383 31.9612L31.5067 36.7299C31.3204 37.4352 31.2327 38.0349 31.2327 38.6176C31.2327 42.6887 34.5444 46.0004 38.6155 46.0004C42.6866 46.0004 45.9983 42.6887 45.9983 38.6176C45.9983 34.5465 42.6866 31.2348 38.6155 31.2348ZM42.653 38.3713L41.9212 41.1014C41.807 41.5255 41.4754 41.8572 41.0513 41.9713L38.3212 42.7031C37.9201 42.8137 37.4567 42.7087 37.1328 42.3847L35.1345 40.3864C34.8233 40.0752 34.702 39.6222 34.8161 39.198L35.5479 36.4679C35.6621 36.0437 35.9937 35.7121 36.4178 35.598L39.1479 34.8662C39.5697 34.7484 40.0239 34.8734 40.3363 35.1846L42.3346 37.1829C42.6458 37.4941 42.7671 37.9471 42.653 38.3713Z" fill="#C4F053"/>
<path d="M18.5112 13.2237C19.1901 10.6823 18.457 7.94857 16.5994 6.09081C13.8104 3.30306 8.94495 3.30306 6.15843 6.09081C3.28052 8.96994 3.28052 13.6538 6.15843 16.5317C8.00774 18.3811 10.7463 19.1248 13.2913 18.4436L18.0393 23.2595L23.2599 18.0394L18.5112 13.2237ZM15.2932 10.9418L14.5614 13.6719C14.4472 14.0961 14.1155 14.4277 13.6914 14.5418L10.9614 15.2736C10.5603 15.3842 10.0969 15.2792 9.77297 14.9552L7.77469 12.9569C7.46346 12.6457 7.34214 12.1927 7.45624 11.7685L8.18804 9.03844C8.30223 8.61426 8.63388 8.2826 9.05799 8.1685L11.7881 7.4367C12.2123 7.32136 12.6652 7.44392 12.9765 7.75514L14.9747 9.75342C15.286 10.0647 15.4073 10.5176 15.2932 10.9418Z" fill="#C4F053"/>
</g>
<defs>
<clipPath id="clip0_3080_10">
<rect width="42" height="42" fill="white" transform="translate(4 4)"/>
</clipPath>
</defs>
</svg>
