<svg width="50" height="50" viewBox="0 0 50 50" fill="none" xmlns="http://www.w3.org/2000/svg">
<path d="M14.7878 28.8262H0V48.6842H14.7878V28.8262Z" fill="#006098"/>
<path d="M49.9987 23.7236H35.2109V48.6839H49.9987V23.7236Z" fill="#006098"/>
<path d="M32.3976 16.3184H17.6055V48.6833H32.3976V16.3184Z" fill="#006098"/>
<path d="M42.7181 8.67773L44.8123 12.9261L49.5027 13.6084L46.1126 16.9148L46.9107 21.586L42.7181 19.3802L38.5256 21.586L39.3237 16.9148L35.9336 13.6084L40.6197 12.926L42.7181 8.67773Z" fill="#B3F018"/>
<path d="M25.0814 1.31641L27.1778 5.56696L31.8682 6.24932L28.478 9.55789L29.2784 14.2246L25.0836 12.0211L20.8889 14.2246L21.687 9.55789L18.2969 6.24932L22.9851 5.56696L25.0814 1.31641Z" fill="#B3F018"/>
<path d="M7.13601 13.6328L9.23016 17.8834L13.9206 18.5678L10.5326 21.8721L11.3308 26.541L7.13601 24.3375L2.94126 26.5432L3.7416 21.8743L0.351562 18.5699L5.03978 17.8855L7.13601 13.6328Z" fill="#B3F018"/>
</svg>
