<svg width="232" height="253" viewBox="0 0 232 253" fill="none" xmlns="http://www.w3.org/2000/svg">
<path fill-rule="evenodd" clip-rule="evenodd" d="M-134.452 5.15134C-133.743 5.64323 -133.812 6.3488 -134.582 6.48746C-135.693 6.68745 -137.246 9.4242 -137.005 10.7578C-136.88 11.4532 -137.131 12.0104 -137.608 12.0963C-139.054 12.3566 -139.121 9.2859 -137.718 7.11174C-136.488 5.20622 -135.353 4.5253 -134.452 5.15134ZM-126.804 4.91486C-125.705 5.0983 -124.301 6.31751 -124.136 7.23309C-124.067 7.61839 -124.948 8.61485 -126.094 9.44742C-128.747 11.3745 -129.545 11.5232 -128.021 9.80724C-127.367 9.07057 -126.543 8.41591 -126.191 8.35242C-125.05 8.14703 -126.192 6.98704 -127.609 6.91089C-129.265 6.82189 -130.176 5.10947 -128.676 4.90578C-128.125 4.83079 -127.283 4.83505 -126.804 4.91486ZM-97.4694 0.867729C-97.2568 1.10459 -96.3763 1.3416 -95.5127 1.39427C-93.0305 1.54599 -81.7761 4.94686 -81.987 5.48221C-82.2302 6.09992 -87.739 5.21651 -91.792 3.90894C-96.9866 2.23356 -98.1976 2.1793 -104.866 3.32377C-107.268 3.73594 -109.875 4.46478 -110.66 4.94314C-111.444 5.42149 -113.16 6.00609 -114.472 6.24229C-115.783 6.4785 -116.964 6.94424 -117.095 7.27735C-117.391 8.02711 -122.141 8.93879 -122.262 8.269C-122.31 8.0025 -121.574 7.52169 -120.626 7.20127C-119.677 6.88084 -118.212 6.22994 -117.369 5.75466C-113.883 3.79066 -110.511 2.71582 -104.356 1.60762C-100.781 0.96388 -97.6825 0.630964 -97.4694 0.867729ZM-131.818 7.53548C-130.364 7.60268 -130.287 9.37358 -131.696 10.3492C-132.563 10.9492 -132.869 11.7196 -132.762 13.023C-132.647 14.409 -132.89 14.9462 -133.76 15.2339C-135.296 15.7423 -136.334 13.8587 -135.37 12.3121C-134.988 11.6994 -134.72 10.9538 -134.773 10.6552C-134.945 9.70146 -132.848 7.48796 -131.818 7.53548ZM-133.878 17.0816C-133.104 17.9443 -133.713 19.5833 -135.312 20.9408C-138.174 23.3708 -146.085 35.4509 -147.383 39.3734C-150.371 48.4001 -152.759 56.4429 -153.412 59.6731C-154.291 64.0203 -154.321 70.4501 -153.485 75.3095C-152.558 80.6971 -148.811 89.5014 -145.202 94.7674C-144.636 95.5938 -143.936 96.8604 -143.648 97.5822C-142.795 99.7173 -139.115 103.353 -137.31 103.846C-136.388 104.098 -134.692 105.321 -133.539 106.565C-132.387 107.81 -131.284 108.812 -131.089 108.794C-130.22 108.712 -130.593 105.727 -131.606 104.658C-132.197 104.034 -132.862 102.472 -133.084 101.186C-133.589 98.2613 -133.026 98.8564 -129.609 104.86C-127.191 109.108 -126.631 111.427 -128.441 109.703C-128.934 109.233 -129.39 109.145 -129.528 109.493C-129.657 109.822 -128.759 110.453 -127.532 110.894C-126.305 111.335 -124.01 112.609 -122.432 113.724C-120.855 114.839 -119.358 115.715 -119.106 115.669C-118.854 115.624 -117.148 116.593 -115.314 117.822C-113.48 119.051 -110.177 121.052 -107.974 122.268C-105.771 123.483 -101.639 125.958 -98.792 127.766C-87.533 134.917 -83.9332 137.107 -82.8775 137.448C-82.2718 137.644 -80.4673 138.735 -78.867 139.872C-76.2021 141.767 -73.3782 143.482 -57.4374 152.889C-54.4698 154.639 -50.1709 157.325 -47.8837 158.856C-45.5965 160.387 -41.4461 162.96 -38.6601 164.574C-32.3813 168.212 -19.4264 176.11 -13.4494 179.944C-10.9832 181.525 -6.03971 184.56 -2.46416 186.687C9.73235 193.942 12.4686 195.611 16.2979 198.132C18.4043 199.518 22.3965 202.003 25.1692 203.653C27.942 205.303 32.0752 207.868 34.3543 209.354C36.6333 210.839 39.6274 212.703 41.0079 213.495C42.3884 214.288 46.2255 216.614 49.5347 218.666C52.8439 220.716 57.1408 223.197 59.083 224.178C61.0252 225.159 64.5825 227.497 66.9889 229.374C69.6225 231.43 71.6382 232.621 72.0547 232.369C72.4443 232.133 74.2121 232.939 76.107 234.216C81.3087 237.722 89.1237 240.595 91.0415 239.706C91.6023 239.446 92.098 239.436 92.1428 239.685C92.1875 239.933 93.1973 240.267 94.3863 240.427C95.5753 240.587 96.828 240.863 97.1694 241.041C98.1342 241.543 104.037 241.083 104.272 240.487C104.387 240.195 100.727 237.274 96.1382 233.998C91.5498 230.721 87.7552 227.817 87.7064 227.546C87.6575 227.275 86.1136 225.853 84.2757 224.386C81.2107 221.941 78.1799 218.386 77.9175 216.929C77.6913 215.673 80.1212 217.125 82.6349 219.748C84.0495 221.224 85.8075 222.584 86.5416 222.771C87.2758 222.958 88.4622 223.925 89.1771 224.921C92.8925 230.091 109.695 240.85 114.329 241.026C116.142 241.095 116.167 241.065 115.516 239.608C115.134 238.754 115.093 238.316 115.42 238.579C116.231 239.232 118.197 242.892 117.938 243.265C117.819 243.436 116.698 243.313 115.446 242.992C113.874 242.589 111.044 242.676 106.292 243.272C98.4563 244.256 97.8118 244.249 91.0677 243.089C83.0647 241.712 80.8113 240.603 59.9444 227.762C53.7111 223.927 46.3748 219.49 43.6409 217.903C40.9076 216.316 36.8947 213.844 34.7239 212.41C32.5537 210.975 28.6608 208.591 26.0735 207.112C23.4862 205.633 19.502 203.193 17.2197 201.688C14.9372 200.183 11.0964 197.836 8.68449 196.472C6.27266 195.108 1.4377 192.161 -2.0598 189.923C-5.5572 187.686 -9.25458 185.432 -10.2761 184.915C-11.2976 184.398 -13.8555 182.876 -15.9598 181.532C-20.1633 178.849 -23.6397 176.719 -33.3969 170.849C-36.9602 168.706 -42.7434 165.186 -46.2485 163.028C-49.7537 160.87 -53.6063 158.557 -54.8099 157.888C-56.0134 157.219 -59.2823 155.236 -62.074 153.481C-68.2163 149.619 -79.0033 143.149 -89.1976 137.212C-93.3462 134.796 -98.0486 131.897 -99.6468 130.771C-101.245 129.646 -104.64 127.581 -107.191 126.184C-109.742 124.786 -113.875 122.365 -116.374 120.804C-118.875 119.243 -123.365 116.534 -126.354 114.784C-129.343 113.035 -131.825 111.399 -131.87 111.149C-131.915 110.899 -134.341 109.023 -137.262 106.981C-140.479 104.732 -143.262 102.288 -144.321 100.783C-145.283 99.4171 -146.376 97.9153 -146.751 97.4455C-147.126 96.9755 -147.481 96.3183 -147.541 95.9848C-147.601 95.6512 -148.126 94.6659 -148.706 93.7954C-151.43 89.7147 -154.664 81.4476 -155.621 76.1195C-156.428 71.628 -156.599 63.9379 -155.956 60.9752C-154.663 55.0094 -151.772 44.3632 -150.976 42.6361C-150.587 41.7924 -149.736 39.4869 -149.084 37.5129C-148.433 35.5389 -146.474 31.8074 -144.731 29.2204C-141.03 23.7287 -134.484 16.4069 -133.878 17.0816ZM-73.8368 7.84185C-71.6846 8.27636 -69.5628 8.88289 -69.121 9.18987C-68.6798 9.49641 -68.1352 9.71458 -67.9118 9.67434C-67.6883 9.6341 -64.9915 10.778 -61.9193 12.216C-58.8465 13.654 -54.6523 15.4301 -52.5978 16.1624C-50.5432 16.8953 -47.7537 18.0258 -46.3989 18.6754C-45.0442 19.3244 -40.6722 21.2598 -36.684 22.9757C-32.6953 24.6916 -28.0929 26.6778 -26.457 27.3887C-24.8206 28.0995 -23.2769 28.6447 -23.0257 28.5995C-22.775 28.5543 -19.4927 29.9776 -15.7318 31.7626C-11.9709 33.5476 -8.01429 35.2726 -6.93995 35.5956C-5.86498 35.9192 -3.18348 37.0528 -0.980601 38.1157C1.22218 39.178 5.43294 40.9833 8.37623 42.1272C16.619 45.3293 21.0846 47.1377 25.9138 49.2277C28.3492 50.2819 34.0296 52.64 38.5364 54.4679C51.0434 59.5411 60.262 63.3975 70.4245 67.8085C75.5101 70.0161 79.9283 71.883 80.2428 71.9575C81.4516 72.2434 85.9967 74.137 94.8429 78.0402C99.8957 80.2694 105.152 82.4327 106.524 82.8473C107.897 83.2625 109.964 84.1713 111.119 84.8675C112.275 85.5636 114.376 86.3708 115.789 86.661C119.101 87.3407 121.943 88.3212 126.383 90.3148L129.96 91.9213L127.657 92.5099C125.785 92.9881 124.921 92.8708 123.043 91.8834C121.772 91.2148 119.537 90.3586 118.076 89.9807C116.616 89.6029 114.227 88.9813 112.769 88.5996C111.249 88.2016 110.049 87.5332 109.955 87.0324C109.855 86.4956 108.743 85.9627 107.068 85.6493C105.571 85.3682 102.052 84.1051 99.2482 82.8414C87.4266 77.5126 71.0586 70.6956 68.7909 70.157C67.9021 69.9456 67.1344 69.5505 67.0854 69.2785C67.0365 69.0066 65.0695 68.0261 62.7146 67.0998C57.8422 65.1824 56.6251 64.6696 53.2654 63.1162C49.4424 61.3486 48.698 61.0302 43.4473 58.9143C40.713 57.8126 38.3176 56.9397 38.1236 56.9747C37.9301 57.0095 36.633 56.3709 35.2412 55.5564C33.8498 54.7413 31.6037 53.7414 30.2503 53.3341C26.3739 52.1674 23.6243 51.0117 21.1186 49.4947C19.8431 48.7234 18.1016 48.054 17.2482 48.0079C16.3942 47.962 14.2101 47.1658 12.3936 46.2393C10.5775 45.3121 7.51433 44.0587 5.58636 43.4538C3.65891 42.8489 1.29789 41.9265 0.339158 41.4048C-3.94237 39.0721 -5.25486 38.4982 -7.16866 38.1221C-8.29155 37.9011 -9.89781 37.258 -10.7379 36.6925C-11.5784 36.127 -12.4508 35.6978 -12.6769 35.7385C-12.9037 35.7794 -14.4595 35.0321 -16.1347 34.0779C-17.8105 33.1238 -20.3751 32.0394 -21.8346 31.6675C-23.294 31.2962 -26.4964 29.9885 -28.951 28.7617C-31.4061 27.5355 -33.6112 26.5669 -33.8526 26.6104C-34.0935 26.6538 -35.2683 26.1474 -36.464 25.4849C-37.6595 24.823 -40.4266 23.6704 -42.613 22.9242C-44.7988 22.1778 -47.5772 20.9277 -48.7865 20.1456C-49.9958 19.3635 -52.7087 18.1747 -54.8151 17.5036C-56.922 16.833 -59.5775 15.7284 -60.7172 15.0486C-61.8568 14.3693 -64.1828 13.4034 -65.8863 12.9016C-67.5898 12.3998 -69.4038 11.7654 -69.9174 11.4911C-70.431 11.2167 -72.3022 10.668 -74.0756 10.2716C-75.849 9.87527 -78.1715 9.35438 -79.2372 9.11359C-80.3029 8.8728 -81.0682 8.40632 -80.9381 8.07624C-80.5488 7.08845 -77.9859 7.00395 -73.8368 7.84185ZM-102.535 16.4263C-103.333 17.5367 -108.863 21.5493 -109.836 21.7246C-111.083 21.949 -111.248 21.0843 -110.082 20.4445C-109.59 20.1735 -108.857 19.6751 -108.453 19.3364C-106.194 17.4374 -104.282 16.2234 -103.262 16.0396C-102.547 15.9109 -102.27 16.0585 -102.535 16.4263ZM-113.981 25.0029C-113.728 25.4215 -113.761 25.8072 -114.054 25.86C-115.94 26.1997 -121.557 31.1996 -124.301 34.9825C-124.964 35.8958 -125.739 36.9383 -126.023 37.2989C-126.307 37.6596 -127.316 39.1917 -128.266 40.7041C-129.659 42.9214 -130.031 43.2416 -130.19 42.3582C-130.602 40.0725 -122.6 29.8902 -117.052 25.6392C-115.099 24.1424 -114.569 24.0329 -113.981 25.0029ZM-112.134 31.7036C-111.895 31.9699 -111.945 32.2321 -112.244 32.286C-112.544 32.34 -112.985 32.1662 -113.224 31.8998C-113.464 31.6334 -113.414 31.3713 -113.114 31.3174C-112.814 31.2634 -112.374 31.4372 -112.134 31.7036ZM-131.328 46.9754C-131.459 47.3085 -131.675 47.6005 -131.807 47.6243C-131.939 47.6482 -132.091 47.4223 -132.145 47.1226C-132.199 46.8228 -131.984 46.5308 -131.666 46.4737C-131.349 46.4166 -131.197 46.6423 -131.328 46.9754ZM-133.428 52.7455C-133.34 53.3851 -133.446 53.5375 -133.698 53.1345C-133.926 52.7693 -133.991 52.2955 -133.843 52.082C-133.695 51.8685 -133.508 52.1668 -133.428 52.7455ZM-136.492 66.7289C-136.407 67.1998 -136.489 68.0528 -136.672 68.6232C-137.363 70.7663 -137.863 75.5348 -137.664 78.0777C-137.551 79.5276 -137.714 80.7594 -138.026 80.8155C-138.699 80.9366 -139.166 75.2659 -138.622 73.5863C-138.427 72.9852 -138.353 72.0166 -138.458 71.434C-138.563 70.8514 -138.336 70.0036 -137.954 69.5493C-137.571 69.0951 -137.339 68.2778 -137.437 67.7329C-137.535 67.1873 -137.397 66.5459 -137.131 66.3066C-136.865 66.0673 -136.577 66.2575 -136.492 66.7289ZM-137.03 85.5594C-136.984 85.7835 -136.33 88.0863 -135.577 90.6778C-134.823 93.2688 -134.306 95.9433 -134.426 96.621C-134.628 97.7517 -134.692 97.7261 -135.216 96.3063C-136.039 94.0763 -137.79 85.2742 -137.423 85.2081C-137.253 85.1775 -137.076 85.3353 -137.03 85.5594ZM106.394 91.5058C107.128 91.7097 107.773 92.1335 107.83 92.4475C107.893 92.7984 107.636 92.8121 107.161 92.4818C106.736 92.1869 105.565 92.094 104.559 92.2752C103.477 92.47 102.826 92.3571 102.967 91.9992C103.269 91.2319 104.679 91.0292 106.394 91.5058ZM-13.6634 113.466C-13.0688 113.925 -12.5068 114.718 -12.415 115.228C-12.2054 116.392 -10.5898 116.746 -9.91552 115.776C-8.88239 114.289 -8.38589 114.915 -9.3819 116.449C-10.7514 118.558 -11.3658 118.586 -13.7939 116.654C-15.4666 115.323 -15.7698 114.815 -15.4606 113.86C-14.9987 112.435 -15.0003 112.435 -13.6634 113.466ZM-3.61472 118.011C-1.35408 118.595 -1.07263 118.849 -0.759594 120.587C-0.420257 122.472 -0.367779 122.504 1.52937 121.991C3.42716 121.478 3.48222 121.512 3.96321 123.486C4.55482 125.916 4.87663 126.194 6.25566 125.465C7.25665 124.937 7.25279 124.844 6.18908 123.721C5.57079 123.068 5.14858 122.414 5.25048 122.267C5.81886 121.449 9.26424 124.9 8.87221 125.894C8.37452 127.158 5.25315 126.457 1.55118 124.249C-0.506241 123.022 -2.2715 121.565 -2.3714 121.01C-2.49563 120.32 -2.95023 120.073 -3.81132 120.228C-5.61357 120.553 -7.26288 119.618 -7.03105 118.402C-6.80147 117.196 -6.77993 117.194 -3.61472 118.011ZM-13.4423 120.46C-12.0691 121.211 -9.98044 122.468 -8.80051 123.253C-7.62113 124.037 -6.19646 124.597 -5.63567 124.496C-5.07488 124.395 -4.12483 124.831 -3.52388 125.465C-2.92358 126.099 -1.68508 126.781 -0.77259 126.98C1.44513 127.463 4.86608 129.919 3.63115 130.141C3.14339 130.229 2.54825 130.083 2.30898 129.817C2.06971 129.55 1.37539 129.422 0.766094 129.532C0.156798 129.642 -1.08445 129.345 -1.99221 128.872C-6.83007 126.352 -9.51216 125.194 -10.2141 125.32C-10.6446 125.397 -11.3687 125.148 -11.823 124.766C-12.5021 124.194 -12.4835 124.041 -11.7189 123.903C-10.1406 123.619 -11.392 122.441 -13.0251 122.674C-14.5507 122.891 -16.8997 121.357 -17.1767 119.962C-17.3996 118.84 -16.0824 119.015 -13.4423 120.46ZM97.7025 100.262C97.5712 100.595 96.9233 100.947 96.2629 101.044C95.1052 101.214 95.0982 101.197 96.0675 100.556C97.4512 99.6412 97.9848 99.5452 97.7025 100.262ZM135.294 94.356C136.772 94.4882 138.268 94.7083 138.617 94.8463C139.896 95.3503 139.391 96.131 137.575 96.4579C136.551 96.6423 135.64 97.1232 135.55 97.526C135.433 98.0506 135.166 98.0187 134.611 97.4137C134.184 96.9492 133.417 96.6362 132.906 96.7181C131.353 96.9679 129.762 95.9118 130.372 95.0346C130.992 94.142 131.739 94.0389 135.294 94.356ZM129.497 97.2092C129.641 98.0341 129.53 98.471 129.25 98.1793C128.97 97.8881 127.934 97.3882 126.948 97.0689L125.156 96.4886L127.196 96.0988C129.066 95.7413 129.257 95.8339 129.497 97.2092ZM121.256 98.8913C121.131 99.7566 116.001 103.105 114.283 103.443C113.52 103.592 112.701 103.964 112.462 104.269C112.223 104.573 110.654 105.631 108.975 106.619C107.296 107.607 105.203 109.289 104.324 110.357C102.896 112.091 102.852 112.275 103.912 112.085C104.565 111.967 105.465 112.334 105.912 112.899C106.56 113.718 107.008 113.793 108.109 113.269C110.56 112.101 113.984 111.001 114.049 111.362C114.198 112.191 112.922 113.275 111.494 113.533C110.644 113.686 109.428 114.304 108.792 114.906C107.169 116.443 105.232 116.389 104.526 114.787C103.998 113.591 103.734 113.535 101.286 114.111C98.0324 114.877 96.6067 114.471 97.4312 113.013C97.7379 112.47 98.2973 111.97 98.6733 111.903C99.0493 111.835 99.5962 111.357 99.8886 110.84C100.181 110.323 100.78 109.835 101.22 109.756C101.66 109.677 102.845 108.601 103.853 107.367C105.616 105.208 108.42 103.288 112.289 101.588C113.293 101.148 114.923 100.365 115.91 99.8486C118.258 98.6225 121.375 98.0639 121.256 98.8913ZM142.53 96.1104C147.191 96.4421 159.751 103.297 162.42 106.965C163.191 108.025 164.427 109.683 165.167 110.649C167.009 113.058 171.787 121.847 171.487 122.278C171.354 122.47 171.017 122.253 170.74 121.794C170.462 121.335 169.927 121.016 169.551 121.084C169.175 121.151 166.841 120.342 164.364 119.284C161.887 118.227 157.977 116.742 155.674 115.985C153.371 115.228 151.209 114.471 150.87 114.303C150.53 114.136 149.362 113.969 148.274 113.933C146.343 113.869 143.394 113.313 140.991 112.559C140.335 112.353 138.211 112.51 136.271 112.909C134.194 113.335 133.006 113.391 133.38 113.045C133.814 112.645 133.138 112.376 131.258 112.2C129.742 112.058 128.129 111.687 127.675 111.375C127.007 110.915 126.684 111.047 125.972 112.071C125.49 112.766 124.481 113.445 123.732 113.58C122.983 113.715 122.414 114.07 122.468 114.37C122.522 114.67 122.826 114.868 123.143 114.811C123.46 114.754 123.613 114.98 123.482 115.313C123.059 116.386 121.678 116.236 121.473 115.094C121.181 113.472 119.739 113.459 118.314 115.064C117.628 115.836 116.709 116.532 116.271 116.611C115.012 116.838 112.632 119.117 112.783 119.953C112.876 120.469 112.591 120.634 111.891 120.469C109.75 119.965 106.992 120.407 105.503 121.492C104.663 122.105 103.415 123.005 102.73 123.493C102.044 123.981 100.009 126.345 98.2072 128.747C96.4059 131.149 94.5437 133.462 94.0691 133.889C92.564 135.242 93.0684 136.74 95.2016 137.253C96.2632 137.509 99.3328 138.792 102.022 140.104C106.77 142.421 108.581 142.789 109.074 141.539C109.205 141.205 109.541 140.892 109.82 140.842C110.52 140.715 109.151 142.985 107.293 145.028L105.751 146.723L103.54 145.39C102.325 144.658 101.154 144.09 100.94 144.128C100.591 144.191 96.2548 141.271 92.4868 138.438C91.1319 137.419 91.1089 137.332 91.7793 135.752C92.4574 134.153 99.7302 123.528 100.204 123.443C100.337 123.419 101.546 122.415 102.891 121.212C104.917 119.399 105.686 119.027 107.373 119.039C108.591 119.048 109.509 118.801 109.657 118.425C110 117.555 118.213 112.892 119.966 112.573C120.753 112.429 121.636 111.889 121.928 111.373C122.318 110.683 123.602 110.227 126.761 109.658C130.999 108.895 137.834 109.09 137.994 109.979C138.039 110.229 138.537 110.351 139.1 110.25C139.662 110.149 140.47 110.358 140.894 110.715C141.318 111.073 142.296 111.408 143.067 111.46C143.837 111.512 144.511 111.796 144.563 112.09C144.616 112.384 145.12 112.542 145.683 112.44C146.246 112.339 147.075 112.567 147.526 112.946C148.347 113.638 149.282 113.299 149.115 112.37C149.066 112.098 147.479 111.092 145.588 110.135C142.492 108.568 142.218 108.296 142.838 107.404C143.457 106.513 143.705 106.533 145.327 107.609C146.317 108.267 147.373 108.76 147.673 108.706C147.972 108.652 149.22 109.336 150.447 110.225C151.674 111.115 153.623 112.173 154.779 112.578C155.935 112.982 158.235 113.806 159.891 114.408C161.547 115.01 163.087 115.475 163.313 115.442C164.135 115.32 163.377 113.654 161.241 110.889C158.744 107.656 158.672 107.593 153.379 104.061L149.442 101.434L147.699 102.82C146.741 103.583 145.991 104.396 146.033 104.628C146.075 104.859 145.864 105.093 145.564 105.147C144.55 105.33 144.709 103.57 145.856 101.92C147.262 99.8964 146.975 99.2947 144.44 98.945C142.634 98.6956 142.344 98.8288 141.084 100.482C139.739 102.246 139.688 102.266 139.009 101.269C138.48 100.492 138.541 99.8946 139.264 98.7815C139.787 97.9761 140.163 97.0261 140.099 96.6708C139.971 95.9574 140.068 95.9354 142.53 96.1104ZM126.627 100.08C128.342 102.248 128.005 103.636 125.187 105.999C123.712 107.237 122.246 108.147 121.93 108.022C121.614 107.898 121.192 106.811 120.992 105.608C120.688 103.777 120.903 103.098 122.304 101.444C124.246 99.154 125.564 98.7382 126.627 100.08ZM101.127 105.216C101.241 105.85 99.8382 107.338 97.5835 108.975C96.4888 109.77 94.6507 111.514 93.4987 112.85C92.3468 114.187 90.8898 115.685 90.2616 116.18C89.6327 116.675 88.0231 118.501 86.6845 120.238C83.2185 124.734 78.3467 129.288 77.4597 128.862C77.06 128.67 74.6653 127.358 72.138 125.946C66.8893 123.014 63.5377 121.605 62.3284 121.823C61.8684 121.906 61.3779 122.691 61.2385 123.566C60.9774 125.207 58.245 129.505 57.7023 129.129C57.2565 128.818 60.2106 122.204 60.8461 122.09C61.1431 122.036 61.3229 121.644 61.2463 121.219C61.1141 120.485 66.0252 114.418 66.8848 114.255C67.6159 114.116 67.4804 115.072 66.438 117.42C65.3637 119.837 65.7379 121.928 66.9801 120.452C67.7455 119.544 70.6023 120.258 76.2916 122.781C79.645 124.268 79.8626 124.289 81.1603 123.26C81.9077 122.666 83.5323 120.824 84.7702 119.166C86.0083 117.507 87.8356 115.531 88.8303 114.775C89.8257 114.019 90.6828 112.848 90.7351 112.173C90.789 111.479 91.1625 111 91.5937 111.07C92.0134 111.139 93.2444 110.475 94.3289 109.596C97.4688 107.051 101.042 104.748 101.127 105.216ZM70.5992 111.706C70.4351 111.942 70.1081 112.001 69.8722 111.837C69.6367 111.673 69.7707 111.48 70.1702 111.408C70.5697 111.336 70.7626 111.47 70.5992 111.706ZM122.402 105.098C122.453 105.382 122.775 105.656 123.116 105.705C123.457 105.755 123.664 105.387 123.574 104.887C123.484 104.387 123.162 104.114 122.859 104.28C122.557 104.445 122.351 104.814 122.402 105.098ZM-4.86974 130.571C-2.45351 131.96 0.581793 133.702 1.87606 134.443C4.31646 135.841 4.9221 136.661 3.67952 136.885C2.82554 137.038 0.535587 135.358 -0.231917 134.014C-0.544107 133.467 -1.07631 133.252 -1.49174 133.504C-1.88749 133.744 -2.57907 133.631 -3.0281 133.252C-3.59395 132.775 -3.98652 132.77 -4.31004 133.236C-5.06612 134.324 -5.7815 134.172 -5.68631 132.945C-5.56726 131.416 -8.93939 129.64 -9.215 131.087C-9.31031 131.586 -9.66248 131.886 -9.99806 131.754C-10.8714 131.41 -10.8764 130.788 -10.017 129.327C-9.26943 128.057 -9.22414 128.068 -4.86974 130.571ZM139.639 103.49C139.826 104.527 138.243 106.654 137.378 106.529C137.027 106.479 137.357 105.586 138.114 104.546C139.076 103.222 139.534 102.905 139.639 103.49ZM131.198 106.609C131.321 107.292 130.743 107.396 129.563 106.903C128.825 106.595 128.885 106.478 129.875 106.293C130.549 106.167 131.144 106.309 131.198 106.609ZM14.6285 128.102C15.0343 128.615 16.1599 129.161 17.1289 129.315C18.0979 129.468 19.4494 130.265 20.1322 131.085C20.8149 131.905 21.8382 132.639 22.4062 132.715C22.9742 132.792 23.7113 133.545 24.0437 134.388C24.3763 135.232 24.9859 135.861 25.3979 135.787C26.3206 135.621 26.0731 133.884 25.0223 133.154C24.4222 132.737 24.5088 132.571 25.413 132.409C26.7111 132.175 27.7412 133.624 27.5151 135.365C27.4092 136.18 26.969 136.494 25.8614 136.545C25.0311 136.584 24.1811 136.629 23.9725 136.645C23.7644 136.661 23.3429 136.199 23.0363 135.618C22.7296 135.036 21.8392 134.441 21.0583 134.294C20.2769 134.148 18.9631 133.245 18.1387 132.289C17.3144 131.332 16.3539 130.722 16.0043 130.934C14.9622 131.565 12.7912 130.223 12.5328 128.788C12.2444 127.186 13.5621 126.755 14.6285 128.102ZM6.68183 130.666C6.81186 131.388 14.6894 135.465 15.6289 135.296C16.7788 135.089 17.2108 135.782 17.1727 137.773C17.1345 139.736 16.2946 140.305 15.9838 138.579C15.8454 137.811 15.1227 137.315 13.6712 136.994C12.5097 136.737 10.2292 135.674 8.6039 134.632C6.97796 133.589 5.04726 132.663 4.31364 132.572C3.0473 132.417 3.02317 132.361 3.83546 131.479C4.80951 130.42 6.54818 129.924 6.68183 130.666ZM-11.7602 134.488C-11.6631 135.028 -11.2408 135.707 -10.8228 135.998C-10.4041 136.289 -10.2 136.726 -10.3689 136.969C-10.847 137.657 -13.7834 135.505 -13.61 134.593C-13.3856 133.414 -11.968 133.335 -11.7602 134.488ZM-8.92334 134.619C-8.87251 134.902 -9.04897 135.328 -9.31533 135.567C-9.58171 135.806 -9.86857 135.62 -9.95267 135.153C-10.0368 134.685 -9.86041 134.259 -9.56066 134.205C-9.26093 134.151 -8.97417 134.337 -8.92334 134.619ZM-5.45953 137.451C-3.85989 138.032 -4.01621 138.93 -5.73623 139.039C-6.60233 139.094 -7.3263 138.802 -7.405 138.365C-7.58684 137.355 -6.77495 136.973 -5.45953 137.451ZM-10.5054 140.085C-9.1166 141.027 -7.67563 141.743 -7.30285 141.675C-6.93008 141.608 -6.39489 141.99 -6.11318 142.523C-5.83192 143.057 -4.51267 143.963 -3.18125 144.535C-1.09102 145.435 -0.711905 145.85 -0.400631 147.579L-0.0401937 149.581L-1.90923 148.341C-2.93678 147.659 -3.71336 146.764 -3.63506 146.352C-3.55665 145.941 -3.83573 145.469 -4.2554 145.304C-4.69329 145.131 -5.06135 145.303 -5.11953 145.708C-5.27084 146.752 -6.93088 145.685 -7.16325 144.394C-7.28278 143.731 -8.3965 143.017 -10.3346 142.362C-12.7875 141.533 -13.371 141.085 -13.5993 139.855C-13.9508 137.959 -13.6036 137.985 -10.5054 140.085ZM73.5172 123.747C73.5712 124.047 73.8753 124.245 74.1925 124.188C74.5096 124.131 74.574 123.866 74.3347 123.6C74.0954 123.333 73.7918 123.135 73.6594 123.159C73.527 123.182 73.4632 123.447 73.5172 123.747ZM6.70111 137.132C7.17663 137.923 8.06778 138.379 9.22579 138.423C10.526 138.472 10.8809 138.684 10.5243 139.197C10.254 139.586 10.1348 140.468 10.2589 141.158C10.537 142.702 9.66398 142.966 8.92319 141.561C8.62282 140.993 7.59237 140.285 6.63264 139.989C4.76085 139.412 4.70424 139.329 4.86818 137.374C5.00856 135.701 5.77856 135.599 6.70111 137.132ZM76.6837 125.709C76.7647 126.158 77.0615 126.485 77.3438 126.434C78.031 126.31 78.3698 125.37 77.856 125.013C77.1318 124.51 76.532 124.866 76.6837 125.709ZM1.55866 140.839C2.23488 141.395 2.99711 142.56 3.25275 143.426L3.71836 145.003L2.29666 144.15C1.51504 143.681 0.351709 142.948 -0.287672 142.522C-0.927606 142.096 -1.71669 141.795 -2.04096 141.853C-3.26499 142.074 -2.38046 140.621 -1.05543 140.233C-0.158521 139.971 0.762802 140.185 1.55866 140.839ZM31.9961 135.543C32.2876 136.025 32.2131 136.823 31.8248 137.382C31.2067 138.271 31.1219 138.282 30.9778 137.481C30.8897 136.992 30.599 136.23 30.3316 135.789C30.0217 135.277 30.1415 134.933 30.663 134.839C31.1126 134.758 31.7126 135.075 31.9961 135.543ZM24.2195 140.139C26.6163 141.216 28.2623 142.327 28.499 143.026C28.9784 144.444 28.3187 144.587 26.2824 143.505C25.4125 143.043 24.425 142.714 24.0882 142.775C23.7514 142.836 23.2633 142.534 23.0032 142.105C22.7437 141.677 21.7689 141.09 20.8366 140.803C19.7398 140.465 19.2008 139.974 19.3076 139.411C19.5481 138.15 19.9158 138.205 24.2195 140.139ZM5.34564 142.404C5.7516 142.746 5.95345 143.214 5.79392 143.443C5.45887 143.926 3.86442 143.142 3.73655 142.432C3.60731 141.714 4.50862 141.698 5.34564 142.404ZM87.8537 127.668C88.4267 128.067 88.0994 130.117 87.4329 130.306C87.0993 130.4 86.2666 130.532 85.5821 130.599C84.8976 130.666 84.3927 131.024 84.4595 131.395C84.5263 131.766 84.4151 131.954 84.2119 131.814C84.0093 131.672 84.0986 130.728 84.4113 129.715C84.9385 128.005 86.7707 126.916 87.8537 127.668ZM144.922 118.767C145.357 119.252 144.873 119.433 140.55 120.401C139.273 120.686 137.996 121.255 137.711 121.665C137.427 122.074 136.693 122.507 136.08 122.627C135.467 122.747 134.554 123.291 134.052 123.836C133.549 124.381 132.556 124.932 131.844 125.06C131.132 125.188 130.088 125.659 129.523 126.106C128.643 126.802 128.523 126.777 128.684 125.93C128.788 125.386 128.856 124.849 128.836 124.737C128.816 124.625 129.685 124.197 130.767 123.785C131.849 123.373 133.861 122.243 135.238 121.272C137.88 119.41 144.062 117.81 144.922 118.767ZM77.0442 130.835C77.0913 131.097 76.943 131.586 76.7146 131.92C76.4863 132.255 76.3981 133.525 76.5191 134.741L76.7389 136.952L75.3999 135.581C74.1856 134.337 74.1122 134.063 74.6075 132.633C75.1301 131.123 76.8655 129.843 77.0442 130.835ZM16.3224 142.244C18.2197 143.563 17.3048 145.337 15.3546 144.121C14.7391 143.738 13.9481 143.475 13.5971 143.539C13.2462 143.602 12.8927 143.286 12.8118 142.836C12.6148 141.742 15.017 141.337 16.3224 142.244ZM80.6353 132.03C80.7072 132.43 80.5732 132.623 80.3372 132.459C80.1018 132.295 80.0429 131.968 80.2063 131.732C80.3704 131.497 80.5634 131.631 80.6353 132.03ZM4.88231 145.671C4.95424 146.07 4.82019 146.263 4.58425 146.099C4.34878 145.935 4.2899 145.608 4.45335 145.372C4.61745 145.137 4.81038 145.271 4.88231 145.671ZM40.1497 140.628C40.393 141.029 40.1796 142.284 39.6764 143.418C38.7779 145.44 37.2915 150.672 37.4172 151.37C37.4523 151.565 37.1238 152.481 36.6879 153.406C36.2513 154.332 35.624 156.509 35.2929 158.246C34.9624 159.982 34.5537 161.934 34.3859 162.583C34.2175 163.232 34.0908 164.247 34.1043 164.838C34.1423 166.57 32.8848 166.82 32.5823 165.14C32.1726 162.865 33.01 158.369 35.2354 150.896C37.4462 143.472 39.3995 139.389 40.1497 140.628ZM9.58726 145.761C10.2156 146.198 10.4561 148.043 9.89747 148.143C9.63479 148.191 9.05877 147.926 8.61775 147.555C7.43976 146.562 8.3409 144.895 9.58726 145.761ZM192.74 114.04C192.857 114.69 192.383 115.383 191.47 115.898C190.669 116.35 188.494 118.686 186.638 121.09C182.433 126.532 181.904 126.977 180.768 126.021C180.019 125.391 180.06 125.088 181.041 123.962C181.674 123.235 183.112 121.421 184.236 119.93C188.393 114.415 192.318 111.697 192.74 114.04ZM126.826 125.991C127.265 126.547 127.666 127.666 127.716 128.48C127.79 129.69 127.357 130.218 125.341 131.374C123.985 132.152 121.91 133.865 120.73 135.182C119.55 136.499 118.338 137.62 118.036 137.674C117.734 137.729 117.11 138.261 116.65 138.858C116.189 139.455 115.651 139.83 115.453 139.693C115.045 139.41 115.406 138.93 118.522 135.609C119.74 134.311 120.999 133.202 121.321 133.144C122.162 132.993 124.044 131.369 124.412 130.478C124.584 130.06 125.175 129.637 125.724 129.538C126.723 129.358 127.304 127.236 126.446 126.898C125.631 126.576 122.153 128.056 121.655 128.936C121.387 129.409 120.822 129.858 120.399 129.934C119.596 130.079 117.442 131.908 116.415 133.317C115.736 134.248 114.846 134.537 114.725 133.865C114.598 133.161 118.721 129.111 119.754 128.925C120.261 128.834 121.294 128.015 122.05 127.105C123.726 125.088 125.739 124.618 126.826 125.991ZM12.9131 146.817C14.4394 148.172 14.4177 149.017 12.8503 149.3C11.6241 149.52 10.76 148.747 11.6723 148.245C12.1838 147.964 12.1387 147.742 11.453 147.161C10.9285 146.717 10.7747 146.266 11.0599 146.009C11.3181 145.778 12.1522 146.141 12.9131 146.817ZM2.82626 148.295C4.0919 149.271 3.99295 150.106 2.64235 149.848C1.77482 149.683 0.534478 147.579 1.23042 147.453C1.4555 147.413 2.17358 147.792 2.82626 148.295ZM155.532 121.042C158.631 121.776 158.646 122.502 155.573 122.918C153.963 123.137 153.057 123.06 153.395 122.735C153.821 122.327 153.655 122.014 152.773 121.562C151.581 120.952 151.58 120.944 152.631 120.776C153.215 120.684 154.52 120.803 155.532 121.042ZM88.8839 134.343C87.7248 136.627 80.4128 146.815 80.0932 146.593C79.908 146.464 80.0195 145.506 80.3414 144.463C80.8831 142.706 80.8476 142.505 79.8563 141.741C78.2202 140.478 76.7418 140.586 75.857 142.031C75.0558 143.34 71.9126 145.677 71.4163 145.333C70.874 144.955 75.0593 138.098 75.9275 137.942C76.4158 137.854 78.1912 138.574 79.8723 139.542C82.8615 141.263 82.9492 141.275 83.8506 140.106C84.3574 139.449 85.0385 138.195 85.3635 137.319C85.9019 135.868 88.0843 133.502 89.043 133.33C89.2582 133.291 89.1868 133.747 88.8839 134.343ZM193.572 117.27C194.264 118.042 193.653 119.557 192.57 119.752C191.582 119.93 191.561 119.859 192.174 118.417C192.892 116.726 193.002 116.636 193.572 117.27ZM17.4571 148.845C18.1272 149.311 18.5844 152.662 18.0443 153.147C17.7484 153.413 17.3859 152.615 17.1126 151.097C16.6576 148.571 16.6963 148.317 17.4571 148.845ZM197.419 117.055C197.6 117.256 198.108 118.368 198.547 119.524C198.986 120.68 199.791 121.855 200.334 122.134C201.837 122.906 200.226 123.055 198.466 122.307C197.341 121.829 196.486 121.889 194.755 122.567C192.74 123.357 192.499 123.653 192.44 125.416C192.39 126.939 192.597 127.47 193.357 127.769C193.897 127.981 194.899 128.525 195.583 128.977C196.266 129.429 198.316 129.814 200.137 129.831L203.449 129.863L203.738 131.935C203.898 133.074 203.941 134.022 203.835 134.041C203.435 134.113 197.348 132.154 195.789 131.451C193.576 130.454 192.267 130.796 190.789 132.76C189.841 134.02 189.687 134.69 190.148 135.548C190.482 136.169 191.054 137.636 191.419 138.808C191.785 139.98 192.425 141.233 192.841 141.592C193.258 141.952 194.054 143.834 194.61 145.775C195.167 147.717 196.001 150.424 196.466 151.791C197.299 154.242 198.346 163.809 197.587 162.033C197.372 161.53 196.839 161.183 196.401 161.261C195.964 161.34 195.399 161.062 195.146 160.643C194.893 160.225 194.221 159.966 193.654 160.068C192.208 160.329 192.185 159.324 193.626 158.847C194.79 158.46 194.787 158.328 193.469 152.024C192.655 148.127 191.694 144.927 191.03 143.901C190.428 142.969 189.806 141.491 189.648 140.616C189.491 139.742 188.869 138.39 188.267 137.611C187.665 136.834 187.091 135.758 186.993 135.222C186.699 133.62 182.095 129.59 180.769 129.773C180.524 129.807 178.41 129.315 176.071 128.681C165.734 125.876 160.691 126.639 148.29 132.887L144.919 134.584L145.411 137.559L145.902 140.534L147.702 140.21C148.692 140.031 149.727 140.136 150.003 140.443C150.356 140.836 150.651 140.698 151.002 139.977C151.77 138.4 161.87 136.124 165.964 136.605C170.512 137.14 173.006 138.009 174.218 139.482C175.758 141.353 175.037 141.875 172.738 140.554C171.662 139.936 170.493 139.48 170.141 139.542C169.789 139.603 168.694 139.391 167.708 139.072C165.393 138.32 153.449 140.191 152.579 141.441C151.877 142.45 149.848 142.84 148.373 142.25C147.715 141.988 146.856 142.058 146.301 142.42C145.425 142.991 145.453 143.046 146.672 143.145C148.647 143.306 148.631 144.239 146.645 144.797C145.682 145.068 144.406 145.931 143.809 146.714C143.212 147.498 141.869 148.798 140.823 149.604C139.778 150.411 138.066 151.936 137.018 152.993C135.971 154.051 133.815 156.142 132.228 157.64C128.451 161.206 125.923 164.394 125.738 165.827C125.578 167.07 123.676 171.143 123.06 171.56C122.853 171.701 122.763 172.256 122.86 172.794C122.957 173.331 122.723 174.143 122.341 174.597C121.958 175.051 121.687 175.655 121.738 175.939C121.789 176.223 121.31 177.609 120.673 179.019C118.268 184.34 116.67 190.993 115.777 199.41C115.66 200.515 115.332 202.324 115.048 203.432C114.319 206.278 117.015 218.722 118.988 221.62C119.739 222.722 120.732 224.189 121.196 224.879C121.66 225.57 122.957 227.184 124.08 228.467C126.252 230.95 126.37 231.717 124.485 231.107C123.265 230.712 118.242 225.267 118.034 224.114C117.968 223.746 117.64 223.253 117.306 223.02C116.4 222.386 114.015 215.678 113.367 211.941C112.68 207.975 112.717 203.498 113.452 201.683C114.096 200.09 113.407 199.376 112.391 200.583C111.996 201.052 111.506 201.319 111.303 201.178C110.746 200.791 111.339 199.647 112.175 199.496C113.119 199.326 114.935 194.405 114.646 192.799C114.442 191.667 115.288 187.436 116.149 185.277C116.348 184.777 116.577 184.04 116.657 183.638C116.738 183.237 116.876 182.579 116.965 182.176C117.142 181.369 118.077 178.844 120.27 173.252C121.914 169.06 121.945 168.479 120.51 168.737C118.952 169.018 115.166 168.045 115.41 167.427C115.528 167.127 115.372 166.782 115.062 166.66C114.753 166.538 113.875 167.628 113.113 169.082C112.349 170.536 111.573 171.885 111.387 172.079C110.635 172.867 110.484 175.466 111.164 175.938C111.923 176.465 111.855 176.909 110.479 180.39C109.952 181.723 109.228 183.879 108.871 185.181C108.138 187.85 105.466 191.837 105.253 190.58C105 189.087 106.659 181.643 107.39 180.986C107.634 180.768 107.907 179.317 107.995 177.763C108.342 171.713 113.291 162.74 120.577 154.948C123.651 151.661 127.331 147.707 128.755 146.162C132.627 141.959 132.722 141.901 132.592 143.813C132.458 145.799 129.12 151.213 128.061 151.162C127.104 151.116 121.621 156.219 121.737 157.046C121.784 157.382 122.502 158.139 123.332 158.728C124.163 159.317 125.158 160.194 125.545 160.677C126.19 161.481 126.422 161.365 128.337 159.279C129.486 158.027 131.291 156.183 132.348 155.181C133.406 154.179 135.188 152.425 136.308 151.284C137.429 150.143 138.721 149.141 139.179 149.059C139.638 148.976 140.991 147.46 142.187 145.69C144.404 142.409 144.844 140.249 143.923 137.181C143.51 135.805 143.275 135.682 141.858 136.1C139.89 136.68 139.648 136.988 140.626 137.667C141.045 137.958 141.516 138.911 141.673 139.786C142.019 141.704 139.11 146.258 137.336 146.577C136.322 146.76 136.125 146.47 135.714 144.185C135.27 141.723 135.388 141.387 137.924 137.87C141.321 133.159 144.161 131.051 150.109 128.829C152.719 127.854 155.565 126.686 156.434 126.234C159.209 124.79 166.916 124.011 170.763 124.787C171.405 124.916 173.114 125.268 174.561 125.569C176.007 125.87 179.392 127.315 182.083 128.783C184.772 130.25 187.168 131.415 187.406 131.372C188.067 131.253 191.011 126.314 190.882 125.54C190.713 124.518 192.771 121.967 193.934 121.757C194.494 121.656 195.54 120.793 196.257 119.839C197.492 118.197 197.502 118.075 196.436 117.556C195.461 117.082 195.43 116.987 196.2 116.848C196.689 116.76 197.238 116.853 197.419 117.055ZM9.30968 151.51C10.1502 151.881 11.2177 152.435 11.6813 152.741C12.1454 153.047 12.7132 153.263 12.9437 153.221C13.1737 153.18 13.7523 153.709 14.2284 154.397C14.705 155.085 15.4677 155.58 15.9239 155.498C16.3795 155.416 16.8105 155.782 16.8815 156.31C16.9582 156.883 16.8494 157.017 16.613 156.641C16.3828 156.275 15.7402 156.225 15.0836 156.522C14.2114 156.915 13.2308 156.509 10.8193 154.756C9.09664 153.505 7.466 152.52 7.19513 152.569C6.92428 152.617 6.63676 152.289 6.5558 151.84C6.36562 150.784 7.38956 150.661 9.30968 151.51ZM14.8229 150.881C14.907 151.348 14.7307 151.774 14.4309 151.828C14.1312 151.882 13.8444 151.696 13.7936 151.414C13.7428 151.131 13.9192 150.705 14.1856 150.466C14.452 150.227 14.7388 150.414 14.8229 150.881ZM48.4305 147.16C48.5186 147.799 48.4127 147.952 48.1607 147.549C47.9323 147.183 47.8672 146.71 48.0156 146.496C48.1639 146.283 48.3505 146.581 48.4305 147.16ZM136.768 133.001C135.793 134.405 132.674 136.878 132.25 136.584C131.89 136.333 136.28 132.138 137.046 132.001C137.308 131.953 137.184 132.403 136.768 133.001ZM188.052 125.674C187.125 127.64 186.015 128.645 185.312 128.156C184.754 127.768 187.256 124.085 188.192 123.916C188.736 123.818 188.698 124.305 188.052 125.674ZM112.621 137.805C112.648 137.955 112.548 138.1 112.398 138.127C112.248 138.154 112.103 138.053 112.076 137.903C112.049 137.753 112.15 137.609 112.3 137.582C112.45 137.555 112.594 137.655 112.621 137.805ZM89.8448 144.116C91.4263 144.981 91.5858 145.22 90.87 145.66C90.4045 145.947 89.5169 146.017 88.8985 145.817C87.4728 145.355 86.4249 146.266 86.8868 147.566C87.287 148.691 86.8918 150.034 86.1196 150.173C85.8373 150.224 85.5373 149.879 85.4524 149.408C85.1891 147.946 83.5421 149.117 83.3958 150.87C83.3205 151.771 82.8334 152.937 82.3128 153.461C81.0012 154.783 78.9067 160.896 79.4552 161.802C79.9918 162.688 79.3634 162.901 78.3306 162.184C77.5736 161.658 77.5936 161.606 76.1151 168.01C75.8171 169.302 75.2886 171.407 74.9409 172.688C74.5937 173.969 74.3917 175.525 74.4926 176.145C74.5929 176.765 74.4353 177.948 74.1419 178.775C73.8484 179.601 73.6846 180.75 73.7773 181.328C73.8707 181.906 73.689 182.824 73.3741 183.37C72.418 185.025 72.8074 195.312 74.0571 201.418C74.6858 204.487 75.181 207.49 75.1582 208.092C75.1283 208.879 75.5189 209.227 76.5496 209.333C77.3378 209.413 77.696 209.556 77.3456 209.65C76.9334 209.761 76.9197 210.428 77.307 211.542C77.6361 212.489 77.7906 213.887 77.6501 214.651L77.3947 216.038L75.9786 214.389C74.6986 212.898 74.3471 211.612 72.3327 201.044C70.4978 191.419 70.2015 189.045 70.6563 187.637C70.9606 186.696 71.0787 185.155 70.9194 184.214C70.7594 183.272 70.903 181.961 71.2386 181.3C71.5736 180.639 71.7488 179.546 71.6274 178.872C71.5059 178.197 71.6246 177.45 71.8909 177.211C72.1573 176.971 72.2853 176.276 72.1754 175.665C72.0655 175.055 72.2044 173.842 72.4835 172.971C72.7631 172.099 73.2473 170.454 73.5598 169.314C74.6731 165.251 75.2553 163.629 76.6133 160.812C77.3698 159.241 77.9383 157.674 77.8762 157.329C77.6973 156.336 79.013 153.55 80.5128 151.745C81.2694 150.835 82.1902 149.621 82.5589 149.047C86.7444 142.541 86.8411 142.475 89.8448 144.116ZM203.432 123.423C203.486 123.722 203.3 124.009 203.018 124.06C202.735 124.111 202.309 123.934 202.07 123.668C201.831 123.402 202.017 123.115 202.485 123.031C202.952 122.947 203.378 123.123 203.432 123.423ZM197.737 124.483C197.991 124.766 198.897 125.149 199.752 125.334C201.046 125.615 201.146 125.739 200.353 126.084C199.829 126.312 198.901 126.186 198.289 125.805C197.678 125.423 196.89 125.163 196.539 125.227C196.188 125.29 195.856 125.096 195.802 124.797C195.672 124.071 197.152 123.831 197.737 124.483ZM76.5994 146.073C76.8354 146.237 77.1946 147.295 77.3979 148.423C77.6978 150.089 77.4946 150.754 76.3163 151.96C74.9266 153.382 74.8133 153.412 73.6319 152.675C71.8193 151.546 71.4575 148.677 72.9495 147.264C74.1761 146.102 75.8534 145.555 76.5994 146.073ZM194.762 125.265C194.789 125.415 194.688 125.56 194.538 125.587C194.388 125.614 194.244 125.513 194.217 125.363C194.19 125.214 194.29 125.069 194.44 125.042C194.59 125.015 194.735 125.115 194.762 125.265ZM16.426 158.221C16.2947 158.554 16.0794 158.846 15.947 158.87C15.8146 158.894 15.6625 158.668 15.6085 158.368C15.5545 158.068 15.7703 157.776 16.0875 157.719C16.4047 157.662 16.5573 157.888 16.426 158.221ZM206.995 124.698C207.625 125.23 207.431 125.535 205.952 126.337C204.953 126.879 204.175 127.548 204.225 127.825C204.275 128.101 203.921 128.399 203.44 128.485C202.865 128.589 202.624 128.326 202.739 127.721C202.836 127.214 202.898 126.704 202.877 126.586C202.836 126.364 205.578 124.162 205.987 124.088C206.115 124.065 206.569 124.339 206.995 124.698ZM131.226 138.012C131.325 138.56 129.287 141.266 127.297 143.231C125.691 144.815 124.932 145.211 125.302 144.271C125.681 143.312 131.141 137.541 131.226 138.012ZM46.7218 153.047C46.7487 153.197 46.6482 153.342 46.4983 153.369C46.3485 153.396 46.2038 153.295 46.1768 153.145C46.1498 152.995 46.2503 152.851 46.4002 152.824C46.5501 152.797 46.6948 152.897 46.7218 153.047ZM70.5147 151.563C70.7052 152.97 70.5692 154.19 70.1969 154.416C68.5581 155.408 71.3999 158.388 73.6414 158.028C74.9554 157.817 75.1527 159.462 73.8415 159.698C73.2633 159.802 71.7255 159.193 70.4243 158.344C69.1231 157.496 67.8737 156.834 67.648 156.875C67.0224 156.988 66.8471 158.601 67.3668 159.46C67.6214 159.88 66.8252 163.758 65.5983 168.077C64.3714 172.397 63.2326 176.969 63.0687 178.236C62.9042 179.504 62.6585 181.067 62.5228 181.711C62.3872 182.354 62.2444 184.992 62.2051 187.574C62.1658 190.155 61.9038 194.468 61.6229 197.158C61.054 202.611 61.4272 205.94 63.413 213.118C64.3831 216.624 64.6077 218.137 64.211 218.494C63.8338 218.833 63.5361 218.305 63.269 216.821C63.0543 215.629 62.2223 213.217 61.4198 211.463C59.2176 206.649 58.4066 198.511 59.5724 192.932C59.7069 192.289 59.8692 190.488 59.9334 188.929C59.9982 187.37 60.1112 185.197 60.1844 184.101C60.347 181.686 61.5639 174.088 62.0189 172.65C63.1288 169.146 65.429 160.072 65.3372 159.562C65.0343 157.88 68.6631 149.416 69.7862 149.186C70.0038 149.141 70.3314 150.21 70.5147 151.563ZM197.928 127.227C197.982 127.527 197.796 127.814 197.513 127.864C197.231 127.915 196.805 127.739 196.566 127.472C196.326 127.206 196.513 126.919 196.98 126.835C197.447 126.751 197.874 126.927 197.928 127.227ZM113.349 142.923C112.348 144.527 112.701 145.786 114.291 146.295C115.03 146.532 116.036 147.119 116.527 147.6C117.704 148.755 120.177 148.267 121.67 146.585C122.324 145.848 123.288 145.168 123.812 145.074C124.699 144.914 124.709 144.991 123.956 146.2C123.511 146.913 121.942 148.683 120.469 150.131L117.791 152.765L115.955 151.785C114.945 151.246 113.318 150.243 112.342 149.554C111.364 148.866 110.04 148.271 109.398 148.232C108.391 148.17 108.556 147.805 110.609 145.562C111.917 144.133 112.948 142.744 112.9 142.477C112.852 142.21 113.096 141.94 113.442 141.877C113.818 141.81 113.781 142.23 113.349 142.923ZM45.4793 155.521C45.5063 155.671 45.4058 155.816 45.2559 155.843C45.106 155.87 44.9613 155.769 44.9343 155.62C44.9074 155.47 45.0079 155.325 45.1578 155.298C45.3076 155.271 45.4523 155.372 45.4793 155.521ZM182.071 132.798C183.904 133.806 183.68 135.298 181.285 138.054C179.07 140.602 177.66 140.801 177.015 138.66C176.685 137.563 176.906 136.604 177.806 135.239C179.702 132.359 180.471 131.919 182.071 132.798ZM208.922 127.873C209.889 128.544 209.609 130.174 208.246 131.815C206.856 133.488 206.845 133.582 207.969 134.182C209.083 134.776 209.072 134.811 207.749 134.899C206.58 134.978 206.275 134.675 205.824 132.987C205.407 131.424 205.537 130.624 206.412 129.365C207.563 127.709 208.168 127.349 208.922 127.873ZM104.529 149.109C104.316 149.766 103.781 150.369 103.339 150.448C102.672 150.568 102.618 150.387 103.02 149.38C103.287 148.714 103.822 148.111 104.21 148.041C104.747 147.944 104.823 148.2 104.529 149.109ZM138.688 143.521C138.557 143.854 138.572 144.104 138.722 144.077C138.872 144.05 139.102 143.756 139.233 143.422C139.365 143.089 139.35 142.839 139.2 142.866C139.05 142.893 138.82 143.187 138.688 143.521ZM107.98 149.528C108.221 150.868 106.321 153.866 105.313 153.735C104.631 153.646 103.758 154.613 102.44 156.921C100.433 160.437 96.6481 168.244 96.2298 169.733C95.2495 173.223 94.3863 174.025 93.9887 171.818C93.4451 168.798 100.865 153.707 103.089 153.307C104.287 153.091 106.51 151.254 107.326 149.803C107.684 149.168 107.899 149.078 107.98 149.528ZM43.9674 161.983C43.959 162.758 43.762 163.427 43.5298 163.468C43.2977 163.51 43.0496 164.251 42.9784 165.115C42.9027 166.035 42.6834 166.401 42.4488 165.999C42.2279 165.621 42.2041 164.74 42.3953 164.039C42.5866 163.339 42.8028 162.312 42.8763 161.757C43.0812 160.205 43.9841 160.392 43.9674 161.983ZM186.823 137.492C187.167 139.549 183.814 143.599 182.046 143.262C180.943 143.052 180.604 142.162 181.561 141.99C181.916 141.926 183.208 140.665 184.432 139.189C186.187 137.071 186.692 136.713 186.823 137.492ZM83.4446 157.006C83.4852 157.232 83.0407 158.572 82.4576 159.987C81.6138 162.031 81.3155 162.356 80.9991 161.571C80.7587 160.973 81.1478 159.797 81.9861 158.59C82.7481 157.494 83.4041 156.781 83.4446 157.006ZM134.345 149.085C134.372 149.235 134.272 149.38 134.122 149.407C133.972 149.434 133.827 149.333 133.8 149.183C133.773 149.033 133.874 148.889 134.024 148.862C134.174 148.835 134.318 148.935 134.345 149.085ZM173.192 142.964C173.318 143.664 171.13 147.807 170.582 147.905C170.042 148.003 170.383 146.279 171.304 144.259C172.084 142.549 173.003 141.918 173.192 142.964ZM149.39 147.044C148.78 147.282 148.067 148.139 147.805 148.948C147.386 150.242 147.471 150.488 148.518 151.003C149.582 151.528 149.704 151.472 149.689 150.47C149.68 149.855 149.997 149.154 150.394 148.914C150.791 148.674 151.051 148.121 150.973 147.686C150.895 147.25 151.103 147.002 151.436 147.133C151.769 147.264 152.124 147.831 152.225 148.391C152.339 149.021 152.873 149.397 153.624 149.372C155.678 149.307 155.754 150.573 153.719 150.962C152.722 151.152 151.357 151.769 150.684 152.332C148.837 153.88 148.395 153.789 146.855 151.546L145.436 149.482L146.515 148.231C147.109 147.544 148.248 146.897 149.047 146.796C150.224 146.646 150.289 146.693 149.39 147.044ZM73.4455 161.924C73.0483 162.562 72.7982 163.501 72.8901 164.011C72.982 164.521 72.7148 165.146 72.2961 165.399C71.8777 165.653 71.6161 166.31 71.7152 166.86C71.8142 167.41 71.6636 168.067 71.3807 168.321C71.0979 168.575 70.7246 169.48 70.5506 170.333C70.3609 171.263 70.0802 171.62 69.8476 171.225C69.6346 170.864 69.8547 169.108 70.3374 167.324C70.8196 165.539 71.1783 163.878 71.1342 163.634C71.0121 162.956 72.6273 161.042 73.4454 160.895C73.9805 160.799 73.9803 161.066 73.4455 161.924ZM116.181 154.453C116.36 155.446 115.542 156.444 114.909 156.004C114.689 155.85 114.848 155.236 115.264 154.638C115.96 153.635 116.032 153.621 116.181 154.453ZM110.495 155.162C110.331 155.397 110.004 155.456 109.768 155.293C109.533 155.128 109.667 154.935 110.066 154.864C110.466 154.792 110.659 154.926 110.495 155.162ZM180.026 143.423C180.083 143.74 181.133 145.349 182.358 147C183.584 148.65 184.668 150.452 184.767 151.003C184.866 151.554 185.22 152.112 185.553 152.243C185.886 152.374 186.484 154.289 186.882 156.498C187.417 159.469 187.876 160.702 188.643 161.236C189.886 162.1 196.354 164.083 197.344 163.905C197.996 163.787 206.943 167.797 209.754 169.466C210.447 169.878 212.339 170.58 213.958 171.028C220.718 172.894 223.035 174.449 224.033 177.788C224.568 179.58 225.433 180.823 227.185 182.317L229.599 184.376L230.632 190.112C231.328 193.978 231.513 196.534 231.2 197.952C230.944 199.109 230.836 200.617 230.96 201.304C231.173 202.491 226.312 220.037 225.244 221.934C224.965 222.429 223.809 224.52 222.675 226.581C220.786 230.012 215.019 237.806 214.269 237.941C214.095 237.972 212.889 238.949 211.589 240.112C210.29 241.274 208.817 242.299 208.316 242.389C207.815 242.479 207.325 242.974 207.228 243.487C207.089 244.218 206.572 244.432 204.866 244.465C202.822 244.505 202.531 244.715 200.284 247.764L197.885 251.019L193.434 251.821C190.986 252.261 188.517 252.479 187.948 252.304C187.38 252.128 185.833 251.752 184.51 251.467C183.188 251.182 180.959 250.099 179.558 249.061C178.157 248.023 175.419 246.486 173.476 245.646C171.532 244.807 167.779 242.889 165.137 241.385C160.516 238.755 158.748 238.296 158.238 239.59C158.106 239.924 157.448 240.295 156.773 240.417C156.099 240.538 155.136 241.084 154.633 241.628C154.131 242.173 152.973 242.762 152.06 242.935C151.148 243.11 150.174 243.579 149.897 243.978C149.619 244.377 147.619 245.15 145.452 245.695C143.284 246.24 141.156 246.958 140.724 247.29C138.956 248.647 125.776 248.015 123.009 246.441L121.632 245.657L123.248 245.258C125.53 244.695 125.455 244.697 130.815 245.098C136.231 245.503 142.48 244.233 143.857 242.447C144.815 241.206 145.495 241.09 145.282 242.205C145.095 243.188 146.234 243.159 147.593 242.145C149.561 240.677 152.286 239.358 156.673 237.751L161.321 236.046L164.319 238.03C170.023 241.806 173.673 243.411 176.375 243.331C178.345 243.274 179.127 243.539 179.783 244.486C180.421 245.406 180.503 245.906 180.111 246.47C179.241 247.722 179.616 248.002 182.111 247.963C183.423 247.943 184.938 248.194 185.48 248.521C186.132 248.916 187.584 248.871 189.786 248.388C192.047 247.892 193.378 247.859 193.954 248.283C194.667 248.81 194.485 248.917 192.793 248.965C191.689 248.996 190.478 249.304 190.103 249.649C189.054 250.611 196.193 249.107 198.202 247.943C200.204 246.782 199.624 246.223 195.918 245.742C192.76 245.332 190.597 244.242 188.264 241.883C186.369 239.966 184.631 236.865 184.776 235.656C184.869 234.876 184.597 232.579 183.811 227.52C183.164 223.358 183.178 223.269 184.479 223.358C185.718 223.442 185.78 223.288 185.384 221.093C185.151 219.798 185.169 218.093 185.425 217.305C185.68 216.516 185.759 214.858 185.599 213.619C185.085 209.612 186.615 205.923 192.21 197.677C195.109 193.405 197.968 189.552 198.563 189.116C203.855 185.24 208.833 182.986 212.887 182.629C214.66 182.474 216.624 182.505 217.25 182.7C217.877 182.894 219.162 183.26 220.106 183.513C221.049 183.766 223.022 185.105 224.49 186.49C225.957 187.875 227.265 188.852 227.397 188.663C227.738 188.172 225.22 184.279 223.675 182.907C222.96 182.272 222.273 181.184 222.148 180.489C221.532 177.068 217.842 174.949 210.635 173.878C206.237 173.224 205.582 172.809 206.822 171.462C207.653 170.561 207.637 170.526 206.482 170.717C205.816 170.827 204.343 170.38 203.209 169.723C198.3 166.882 192.167 164.685 189.619 164.853C187.33 165.004 187.193 164.944 188.309 164.287L189.555 163.553L188.053 162.793C186.689 162.103 186.496 161.68 185.964 158.193C185.486 155.05 185.041 153.903 183.517 151.872C182.493 150.507 181.351 148.599 180.978 147.632C180.605 146.666 179.708 145.284 178.984 144.564C177.677 143.262 177.676 143.252 178.795 143.051C179.415 142.939 179.969 143.107 180.026 143.423ZM41.6839 169.894C41.2867 170.531 41.0266 171.527 41.1069 172.108C41.1998 172.78 41.0981 172.915 40.8273 172.48C40.3242 171.673 41.0962 168.97 41.869 168.831C42.1644 168.778 42.0811 169.256 41.6839 169.894ZM166.938 147.721C167.878 148.014 168.954 148.199 169.331 148.131C170.335 147.95 175.612 151.314 175.224 151.887C175.042 152.155 174.347 152.034 173.68 151.618C171.655 150.356 164.23 149.049 161.685 149.508C159.242 149.947 157.938 149.432 159.342 148.582C160.827 147.682 165.22 147.184 166.938 147.721ZM167.883 152.851L169.652 153.609L164.239 154.488C159.251 155.298 154.358 157.109 154.532 158.079C154.566 158.266 156.977 157.891 159.89 157.245C164.272 156.273 165.338 156.199 166.071 156.816C166.557 157.225 167.4 157.481 167.944 157.383C168.488 157.285 169.972 157.968 171.243 158.899L173.553 160.593L175.162 158.145C176.621 155.926 176.959 155.7 178.803 155.712C179.92 155.719 180.85 155.763 180.868 155.809C180.887 155.856 181.636 157.255 182.532 158.918L184.163 161.943L182.378 164.151C181.396 165.365 180.144 166.439 179.595 166.538C178.232 166.784 172.226 171.064 170.206 173.23C169.3 174.201 167.744 175.789 166.749 176.758C165.753 177.728 164.065 180.314 162.997 182.505C161.928 184.696 160.195 187.805 159.144 189.413C158.093 191.021 157.039 192.902 156.802 193.592C156.44 194.646 155.22 198.465 153.425 204.166C152.412 207.383 152.266 208.533 151.931 215.969C151.751 219.975 151.796 220.084 153.698 220.242C155.678 220.405 156.646 221.047 157.224 222.576C157.464 223.211 158.309 223.649 159.46 223.736C163.733 224.059 164.761 228.329 161.066 230.411C159.952 231.038 158.971 231.568 158.885 231.588C158.655 231.642 159.705 229.824 160.617 228.588C161.507 227.384 161.488 226.724 160.538 225.687C159.987 225.087 159.704 225.22 158.73 226.533C158.094 227.389 157.632 228.415 157.704 228.813C157.775 229.21 157.589 229.58 157.289 229.634C156.989 229.687 156.653 229.224 156.541 228.604C156.386 227.746 156.051 227.57 155.143 227.871C154.157 228.197 154.032 228.546 154.428 229.867C155.162 232.322 156.996 234.595 158.395 234.784C159.439 234.925 159.504 235.024 158.777 235.368C157.258 236.085 154.669 234.482 152.703 231.605C151.232 229.454 150.646 227.932 150.096 224.827C149.411 220.969 149.342 220.839 148.204 221.276C146.724 221.845 140.101 219.738 139.638 218.551C139.393 217.921 139.589 217.724 140.352 217.826C141.973 218.044 144.155 218.519 146.006 219.058C146.93 219.327 148.005 219.489 148.394 219.419C149.256 219.264 149.73 216.947 149.591 213.577C149.488 211.086 150.572 202.948 151.165 201.759C151.334 201.42 152.06 199.185 152.777 196.793C153.494 194.401 155.267 190.387 156.717 187.871C158.168 185.357 160.113 181.886 161.04 180.159C161.967 178.432 163.73 175.986 164.958 174.724C166.187 173.462 167.17 172.245 167.144 172.019C167.09 171.556 158.999 167.474 155.744 166.268L153.607 165.476L154.887 164.037C156.025 162.757 156.791 162.495 161.845 161.66C166.776 160.845 167.697 160.842 168.842 161.637L170.159 162.553L164.027 163.52C160.654 164.052 157.811 164.607 157.709 164.753C157.383 165.222 159.073 166.127 161.79 166.939C165.899 168.168 167.789 169.207 167.996 170.353C168.221 171.605 169.471 171.517 170.218 170.196C170.51 169.679 171.066 169.199 171.454 169.129C171.842 169.059 172.197 168.743 172.244 168.427C172.29 168.111 173.994 167.051 176.03 166.071C182.481 162.967 183.115 162.257 181.095 160.393C180.55 159.891 180.027 159.05 179.932 158.526C179.618 156.78 178.462 157.03 176.92 159.176C175.759 160.793 175.526 161.589 175.942 162.511C176.844 164.509 175.331 164.176 171.886 161.619C168.305 158.959 166.056 158.398 160.864 158.869C157.837 159.144 156.671 159.542 153.529 161.374C149.71 163.6 148.662 163.796 149.619 162.103C150.042 161.355 149.986 161.002 149.357 160.473C148.917 160.102 148.661 159.531 148.79 159.204C149.142 158.311 151.847 156.419 153.876 155.647C154.863 155.271 155.767 154.722 155.883 154.427C156 154.132 158.349 153.486 161.105 152.992C165.12 152.272 166.465 152.244 167.883 152.851ZM117.019 161.601C116.724 162.026 116.544 162.714 116.619 163.13C116.812 164.202 122.491 167.918 123.1 167.37C123.377 167.121 123.812 165.979 124.065 164.833C124.506 162.84 124.463 162.714 123.069 161.96C120.205 160.409 117.94 160.275 117.019 161.601ZM177.478 153.228C178.093 153.655 178.155 154.419 177.584 154.522C177.316 154.57 176.89 154.267 176.636 153.849C176.167 153.075 176.697 152.685 177.478 153.228ZM145.678 159.001C145.752 159.538 143.414 161.982 143.061 161.737C142.68 161.472 144.463 158.798 145.098 158.683C145.386 158.632 145.647 158.774 145.678 159.001ZM192.093 151.065C192.12 151.215 192.019 151.36 191.869 151.387C191.719 151.414 191.575 151.313 191.548 151.164C191.521 151.014 191.621 150.869 191.771 150.842C191.921 150.815 192.066 150.916 192.093 151.065ZM69.6239 173.995C69.735 174.612 69.5655 175.014 69.247 174.889C68.9284 174.763 68.741 174.275 68.8307 173.805C69.0601 172.601 69.3869 172.679 69.6239 173.995ZM132.106 163.542C132.72 164.19 133.268 164.974 133.324 165.285C133.38 165.595 134.038 165.739 134.788 165.604C135.537 165.469 136.203 165.666 136.267 166.041C136.332 166.416 134.998 168.872 133.304 171.498C131.611 174.123 129.932 177.013 129.573 177.919C128.671 180.199 127.456 180.886 127.581 179.046C127.642 178.146 127.312 177.404 126.645 176.941C125.7 176.284 125.814 176.202 128.013 175.95C130.136 175.707 130.407 175.531 130.366 174.418C130.34 173.727 130.564 173.116 130.865 173.062C131.76 172.901 132.701 171.2 132.503 170.102C132.401 169.538 132.575 168.55 132.889 167.907C133.378 166.902 133.309 166.577 132.4 165.618C131.44 164.604 131.27 164.594 130.569 165.501C130.144 166.052 129.51 166.554 129.159 166.617C128.035 166.82 128.294 165.406 129.662 163.861L130.989 162.363L132.106 163.542ZM141.112 164.012C140.573 164.788 139.927 165.282 139.678 165.108C139.429 164.935 139.633 164.35 140.132 163.809C141.532 162.291 142.21 162.431 141.112 164.012ZM146.364 162.71C146.546 163.72 144.995 166.579 144.185 166.725C142.802 166.974 142.379 166.195 143.285 165.065C144.32 163.773 146.284 162.27 146.364 162.71ZM115.453 169.648C115.588 170.397 115.519 170.726 115.301 170.379C115.082 170.032 114.971 169.418 115.055 169.016C115.139 168.615 115.318 168.899 115.453 169.648ZM41.3347 182.994C41.4696 183.743 41.4012 184.072 41.1827 183.725C40.9638 183.377 40.8534 182.764 40.9374 182.362C41.0209 181.961 41.1998 182.245 41.3347 182.994ZM153.089 165.684C153.142 165.984 152.711 166.315 152.129 166.42C151.547 166.525 150.962 166.887 150.829 167.225C150.696 167.563 149.808 168.343 148.857 168.958C147.906 169.573 147.167 170.296 147.215 170.565C147.375 171.451 149.711 172.574 154.082 173.865C158.714 175.233 160.21 176.296 159.316 177.582C158.508 178.745 152.327 177.283 147.85 174.871C144.889 173.276 144.519 171.696 146.641 169.717C147.502 168.915 148.854 167.635 149.645 166.873C151.184 165.393 152.928 164.791 153.089 165.684ZM142.057 168.867C142.413 169.77 142.773 171.034 142.858 171.676C142.998 172.734 142.955 172.726 142.405 171.588C141.27 169.243 140.469 170.013 140.646 173.28C140.772 175.626 140.493 176.927 139.543 178.434C135.012 185.614 132.534 195.274 133.644 201.434C133.998 203.405 133.944 204.676 133.482 205.225C133.1 205.679 132.914 206.756 133.069 207.618C133.225 208.481 133.106 209.231 132.807 209.285C131.76 209.473 131.124 201.045 131.717 194.852C132.108 190.774 133.563 185.49 134.443 184.958C135.403 184.377 133.955 183.196 132.586 183.443C131.284 183.677 131.253 183.408 132.31 181.047C133.356 178.714 134.348 177.499 135.357 177.317C135.903 177.219 135.873 177.628 135.245 178.81C134.028 181.101 134.822 181.575 136.304 179.442C136.981 178.468 137.833 177.508 138.199 177.308C139.056 176.84 138.065 175.142 137.041 175.326C135.74 175.56 135.848 173.469 137.203 172.185C137.914 171.512 138.958 170.155 139.524 169.17C140.834 166.89 141.257 166.839 142.057 168.867ZM113.577 172.799C113.446 173.132 113.23 173.424 113.098 173.448C112.966 173.472 112.814 173.246 112.76 172.946C112.706 172.646 112.921 172.354 113.239 172.297C113.556 172.24 113.708 172.466 113.577 172.799ZM68.4586 181.809C68.3006 184.622 67.7918 185.49 67.4262 183.569C67.2487 182.633 67.4288 181.481 67.8275 181.008C68.4648 180.25 68.5407 180.347 68.4586 181.809ZM90.0281 178.048C90.1076 178.433 89.7771 179.363 89.2934 180.114C88.8099 180.866 88.3666 181.216 88.3084 180.893C88.1539 180.035 89.8561 177.218 90.0281 178.048ZM128.809 171.463C128.836 171.613 128.736 171.757 128.586 171.784C128.436 171.811 128.292 171.711 128.265 171.561C128.238 171.411 128.338 171.266 128.488 171.239C128.638 171.212 128.783 171.313 128.809 171.463ZM116.82 173.622C116.847 173.772 116.746 173.916 116.596 173.943C116.447 173.97 116.302 173.87 116.275 173.72C116.248 173.57 116.348 173.425 116.498 173.398C116.648 173.371 116.793 173.472 116.82 173.622ZM125.834 173.687C125.861 173.836 125.76 173.981 125.611 174.008C125.461 174.035 125.316 173.935 125.289 173.785C125.262 173.635 125.363 173.49 125.512 173.463C125.662 173.436 125.807 173.537 125.834 173.687ZM135.093 175.114C135.147 175.414 134.946 175.703 134.647 175.757C134.347 175.811 134.057 175.61 134.004 175.31C133.95 175.01 134.151 174.721 134.45 174.667C134.75 174.613 135.04 174.814 135.093 175.114ZM103.435 180.533C103.462 180.683 103.362 180.828 103.212 180.855C103.062 180.882 102.917 180.781 102.89 180.631C102.863 180.481 102.964 180.337 103.114 180.31C103.264 180.283 103.408 180.383 103.435 180.533ZM187.003 166.545C187.077 166.96 186.671 167.516 186.1 167.781C184.838 168.365 184.993 169.628 186.526 171.246C187.24 172 187.962 172.279 188.443 171.987C189.123 171.576 190.236 172.187 190.42 173.072C190.596 173.919 186.878 173.346 185.21 172.269C183.098 170.907 182.409 168.874 183.518 167.278C184.39 166.023 186.817 165.512 187.003 166.545ZM188.596 168.105C188.831 168.268 189.676 168.355 190.473 168.297C192.19 168.174 200.544 171.75 202.41 173.408C203.18 174.091 203.754 175.195 203.812 176.099C203.89 177.318 203.599 177.727 202.397 178.088C201.417 178.383 200.535 178.244 199.896 177.695C198.985 176.911 198.958 176.966 199.553 178.418L200.196 179.99L198.919 179.041C196.966 177.592 195.021 174.877 194.936 173.482C194.893 172.793 194.594 172.277 194.27 172.336C193.946 172.394 192.778 171.845 191.676 171.115C190.573 170.385 189.49 169.82 189.27 169.86C189.05 169.9 188.653 169.465 188.388 168.894C187.874 167.785 187.915 167.632 188.596 168.105ZM88.8019 186.759C88.8559 187.059 88.6821 187.5 88.4157 187.739C88.1493 187.978 87.8872 187.928 87.8333 187.629C87.7793 187.329 87.9531 186.888 88.2195 186.649C88.4858 186.41 88.748 186.459 88.8019 186.759ZM68.1964 191.065C68.3075 191.682 68.1532 192.231 67.8535 192.285C67.5537 192.339 67.2449 192.03 67.1671 191.598C67.0893 191.166 67.2436 190.617 67.51 190.378C67.7764 190.139 68.0853 190.448 68.1964 191.065ZM148.985 180.477C152.548 182.266 155.599 183.98 155.765 184.285C156.174 185.033 152.457 185.673 150.788 185.142C150.071 184.914 147.71 183.662 145.541 182.361C142.777 180.702 141.529 179.607 141.365 178.698C141.237 177.986 141.441 177.363 141.819 177.314C142.197 177.265 145.422 178.688 148.985 180.477ZM127.832 181.657C127.951 182.318 124.325 193.921 123.872 194.327C122.037 195.976 124.253 186.027 126.352 183.194C127.129 182.145 127.795 181.453 127.832 181.657ZM101.987 186.983C101.895 187.464 101.724 187.874 101.606 187.896C101.488 187.917 101.326 187.566 101.245 187.117C101.164 186.667 101.335 186.256 101.626 186.204C101.916 186.152 102.078 186.502 101.987 186.983ZM42.6278 198.275C42.894 198.462 43.2398 199.374 43.3975 200.299C43.6394 201.724 43.5697 201.849 42.9445 201.115C42.1288 200.157 41.858 197.731 42.6278 198.275ZM68.7419 194.095C68.7689 194.244 68.6684 194.389 68.5185 194.416C68.3686 194.443 68.2239 194.343 68.1969 194.193C68.1699 194.043 68.2705 193.898 68.4204 193.871C68.5702 193.844 68.7149 193.945 68.7419 194.095ZM132.19 185.367C132.52 185.911 132.456 186.723 132.03 187.406C131.641 188.03 131.387 188.902 131.466 189.343C131.546 189.784 131.438 190.417 131.227 190.749C130.526 191.85 129.82 198.789 129.983 202.968C130.095 205.807 130.577 208.473 131.537 211.556C132.959 216.125 132.947 218.262 131.496 218.523C130.995 218.614 130.469 216.35 129.331 209.208C128.504 204.018 127.977 199.492 128.159 199.15C128.34 198.808 128.5 197.64 128.513 196.554C128.526 195.469 128.65 194.054 128.788 193.41C129.83 188.567 130.164 187.371 130.858 186.008C131.566 184.616 131.697 184.553 132.19 185.367ZM197.6 174.362C197.836 174.525 198.163 174.466 198.327 174.231C198.491 173.995 198.298 173.861 197.898 173.933C197.499 174.005 197.365 174.198 197.6 174.362ZM140.971 185.643C141.837 186.29 143.353 187.081 144.339 187.4C145.679 187.834 145.911 188.071 145.257 188.339C144.334 188.718 138.191 186.064 138.039 185.221C137.866 184.26 139.416 184.483 140.971 185.643ZM111.591 190.412C113.204 191.532 111.774 196.312 110.031 195.625C109.524 195.425 109.436 195.581 109.758 196.113C110.381 197.142 109.546 198.282 107.959 198.568C106.613 198.81 105.208 197.182 105.485 195.704C105.974 193.105 110.198 189.443 111.591 190.412ZM43.8636 202.794C43.9355 203.194 43.8015 203.387 43.5655 203.223C43.3301 203.059 43.2712 202.732 43.4346 202.496C43.5987 202.261 43.7916 202.395 43.8636 202.794ZM200.322 176.028C200.576 176.447 201.033 176.744 201.337 176.69C201.656 176.632 201.541 176.296 201.065 175.895C200.61 175.512 200.154 175.215 200.05 175.233C199.947 175.252 200.069 175.61 200.322 176.028ZM194.83 177.277C195.06 177.534 194.333 178.439 193.214 179.289C189.36 182.218 180.966 190.875 177.81 195.175C172.96 201.785 172.274 200.951 176.535 193.624C179.287 188.892 182.107 185.555 188.952 178.931C190.441 177.489 194.097 176.461 194.83 177.277ZM110.391 193.171C110.643 193.575 110.749 193.422 110.66 192.783C110.58 192.204 110.394 191.906 110.246 192.119C110.097 192.333 110.162 192.806 110.391 193.171ZM138.008 190.484C137.965 191.188 137.792 192.042 137.624 192.382C137.456 192.722 137.292 193.827 137.259 194.839C137.226 195.851 136.973 196.719 136.698 196.769C135.997 196.895 135.405 193.212 136.035 192.647C136.318 192.393 136.666 191.555 136.811 190.786C137.142 189.016 138.115 188.771 138.008 190.484ZM45.9758 208.884C46.1268 209.786 46.0591 210.109 45.8252 209.604C45.5913 209.099 45.4681 208.361 45.551 207.966C45.6338 207.57 45.8248 207.983 45.9758 208.884ZM70.9118 206.504C71.2654 208.265 71.3011 209.669 70.9937 209.725C70.3522 209.84 70.1461 208.745 70.2266 205.643C70.2841 203.406 70.2913 203.415 70.9118 206.504ZM196.596 182.326C196.686 182.825 196.235 183.235 195.439 183.378C194.722 183.507 194.065 183.978 193.98 184.425C193.895 184.871 192.636 186.114 191.182 187.186C189.728 188.259 187.964 189.789 187.262 190.587C186.56 191.385 185.843 191.94 185.67 191.819C185.039 191.381 194.453 181.868 195.749 181.634C196.134 181.565 196.515 181.876 196.596 182.326ZM126.44 195.802C126.494 196.102 126.293 196.391 125.993 196.445C125.694 196.499 125.404 196.298 125.35 195.999C125.296 195.699 125.497 195.409 125.797 195.355C126.097 195.301 126.386 195.503 126.44 195.802ZM123.185 196.717C123.273 197.356 123.167 197.509 122.915 197.106C122.686 196.74 122.621 196.267 122.77 196.053C122.918 195.84 123.105 196.138 123.185 196.717ZM104.914 200.009C105.71 201.324 106.066 204.264 105.523 205.046C105.244 205.448 105.118 208.116 105.244 210.976L105.471 216.176L104.414 210.633C103.808 207.458 103.562 204.904 103.84 204.654C104.106 204.415 104.153 203.267 103.943 202.104C103.541 199.868 104.099 198.663 104.914 200.009ZM124.765 199.245C124.853 199.885 124.747 200.037 124.495 199.634C124.267 199.269 124.202 198.795 124.35 198.582C124.499 198.368 124.685 198.667 124.765 199.245ZM90.6273 206.518C90.7155 207.157 90.6096 207.31 90.3575 206.907C90.1292 206.541 90.0641 206.068 90.2124 205.854C90.3608 205.641 90.5473 205.939 90.6273 206.518ZM207.704 186.515C205.773 187.636 204.113 188.568 204.014 188.586C203.916 188.604 203.991 189.021 204.181 189.513C204.453 190.216 205.232 190.314 207.821 189.969C209.633 189.727 212.113 189.446 213.333 189.342C215.869 189.127 220.107 186.648 219.582 185.687C219.222 185.028 214.303 184.108 212.374 184.338C211.736 184.414 209.635 185.394 207.704 186.515ZM48.6983 214.021C48.7253 214.171 48.6248 214.315 48.4749 214.342C48.325 214.369 48.1804 214.269 48.1534 214.119C48.1264 213.969 48.2269 213.824 48.3768 213.797C48.5267 213.77 48.6714 213.871 48.6983 214.021ZM136.314 199.229C136.637 199.712 136.792 200.571 136.658 201.136C136.426 202.116 136.396 202.122 136.014 201.252C135.795 200.751 135.64 199.892 135.671 199.345C135.725 198.397 135.755 198.392 136.314 199.229ZM125.836 201.819C125.917 202.269 125.738 202.681 125.438 202.735C125.138 202.789 124.827 202.465 124.746 202.015C124.665 201.566 124.844 201.154 125.144 201.1C125.443 201.046 125.755 201.369 125.836 201.819ZM214.538 187.638C214.173 187.866 213.699 187.931 213.486 187.783C213.272 187.635 213.571 187.448 214.149 187.368C214.789 187.28 214.941 187.386 214.538 187.638ZM200.908 190.525C200.304 191.594 201.261 193.743 202.132 193.273C202.85 192.886 202.667 189.391 201.935 189.523C201.653 189.574 201.191 190.024 200.908 190.525ZM73.0949 213.988C73.3967 214.63 73.7268 215.595 73.8273 216.131C74.007 217.085 70.3378 223.347 69.5127 223.495C69.2832 223.537 68.6818 222.837 68.1761 221.94C66.756 219.422 67.3564 216.863 69.8747 214.707C72.4028 212.541 72.4125 212.539 73.0949 213.988ZM219.838 189.158C219.64 190.412 219.851 191.285 220.655 192.528C222.227 194.96 223.347 195.476 224.598 194.342C225.834 193.221 225.384 189.399 223.985 189.132C223.505 189.04 223.031 188.522 222.934 187.979C222.745 186.934 221.706 186.53 220.707 187.115C220.377 187.308 219.986 188.228 219.838 189.158ZM123.214 205.163C123.472 205.342 123.751 205.865 123.834 206.325C123.944 206.938 123.794 207.028 123.268 206.663C122.875 206.39 122.596 205.867 122.649 205.502C122.702 205.136 122.956 204.984 123.214 205.163ZM198.712 194.075C199.012 195.741 198.204 196.422 197.435 195.151C196.906 194.279 195.499 194.983 195.687 196.027C195.76 196.43 194.716 198.039 193.368 199.603C188.837 204.856 185.139 214.491 187.84 214.005C188.872 213.819 189.65 212.492 189.433 211.288C189.329 210.713 189.807 209.222 190.494 207.974C193.772 202.024 196.837 197.301 197.537 197.124C199.417 196.647 200.973 192.916 199.668 192.01C198.89 191.469 198.424 192.476 198.712 194.075ZM182.013 195.08C182.04 195.229 181.939 195.374 181.79 195.401C181.64 195.428 181.495 195.328 181.468 195.178C181.441 195.028 181.542 194.883 181.691 194.856C181.841 194.829 181.986 194.93 182.013 195.08ZM166.686 200.092C168.177 200.907 170.574 202.248 172.013 203.071C175.101 204.838 176.28 204.774 176.647 202.82C176.969 201.099 180.432 195.967 181.003 196.365C181.225 196.519 180.81 197.326 180.082 198.157C179.1 199.279 178.901 199.944 179.315 200.728C179.733 201.522 179.551 202.093 178.584 203.009L177.294 204.23L178.775 204.979C180.94 206.074 180.035 206.691 176.559 206.492C174.152 206.354 172.683 205.786 169.545 203.781C164.915 200.823 162.909 200.456 163.264 202.629C163.39 203.406 163.476 204.448 163.455 204.946C163.413 205.922 166.701 207.903 172.524 210.409C174.446 211.237 176.096 212.313 176.19 212.801C176.482 214.312 172.021 213.237 167.329 210.665C160.827 207.101 160.961 207.237 160.811 204.005C160.671 200.975 161.481 199.058 163.02 198.781C163.545 198.686 165.195 199.277 166.686 200.092ZM91.7417 212.459C91.7687 212.609 91.6681 212.754 91.5183 212.781C91.3684 212.808 91.2237 212.707 91.1967 212.558C91.1697 212.408 91.2703 212.263 91.4201 212.236C91.57 212.209 91.7147 212.31 91.7417 212.459ZM212.955 193.384C213.548 195.132 213.576 196.105 213.068 197.302C212.695 198.177 212.174 198.932 211.909 198.98C211.183 199.111 210.956 196.806 211.529 195.119C212.283 192.899 211.151 191.802 208.58 192.265C205.566 192.808 200.66 196.318 200.621 197.962C200.601 198.766 200.873 198.821 202.227 198.287C204.033 197.575 204.766 198.486 203.032 199.289C202.255 199.649 202.131 200.063 202.533 200.953C202.827 201.604 202.85 202.333 202.584 202.572C201.87 203.214 200.1 201.786 199.844 200.362C199.722 199.684 199.423 198.991 199.18 198.822C198.659 198.46 195.257 203.062 195.435 203.889C195.503 204.201 196.314 205.08 197.239 205.842C202.131 209.872 204.123 211.791 203.928 212.285C203.641 213.012 204.009 212.915 205.529 211.862C206.489 211.198 207.004 211.113 207.699 211.505C208.676 212.057 212.222 211.001 212.599 210.046C212.715 209.75 213.528 209.379 214.405 209.221C215.282 209.063 217.046 208.442 218.326 207.841C220.973 206.596 221.612 206.761 221.036 208.542C220.738 209.459 220.098 209.886 218.609 210.159C217.496 210.363 215.342 211.112 213.823 211.824C212.304 212.537 210.564 213.113 209.956 213.106C209.234 213.097 208.347 213.889 207.4 215.387C205.582 218.263 204.187 218.233 203.66 215.307C203.364 213.664 202.737 212.88 200.206 210.989C198.505 209.717 196.313 207.999 195.334 207.169C193.295 205.439 192.867 205.365 193.123 206.782C193.223 207.338 192.811 208.564 192.207 209.508C190.758 211.772 191.014 212.743 193.102 212.9C195.64 213.092 195.106 214.099 192.169 214.659C190.759 214.927 189.48 215.327 189.328 215.546C189.176 215.765 189.096 216.937 189.15 218.151C189.255 220.481 190.292 221.524 191.202 220.215C191.475 219.821 192.381 219.376 193.214 219.226C194.047 219.076 195.62 218.396 196.709 217.715C198.938 216.322 202.689 215.749 203.215 216.722C203.407 217.077 203.116 217.447 202.564 217.551C202.015 217.654 200.649 218.269 199.528 218.917C198.407 219.565 196.586 220.269 195.482 220.481C194.378 220.693 193.367 221.14 193.236 221.473C193.105 221.806 192.031 222.252 190.85 222.465L188.702 222.852L189.236 225.817C189.529 227.448 190.021 228.882 190.329 229.003C190.636 229.124 191.16 229.879 191.494 230.68C192.073 232.07 196.891 236.006 197.811 235.841C198.052 235.797 198.598 235.828 199.024 235.909C199.55 236.008 199.742 235.524 199.621 234.411C199.432 232.68 200.416 229.745 201.234 229.598C201.861 229.485 202.326 232.055 201.769 232.554C201.535 232.765 201.335 233.585 201.327 234.375L201.312 235.812L204.507 234.856C208.647 233.617 212.912 230.48 214.983 227.153L216.628 224.507L213.063 221.821C209.235 218.937 208.053 217.372 208.841 216.238C209.203 215.716 209.589 215.775 210.277 216.458C210.794 216.971 212.448 218.431 213.95 219.702C215.454 220.973 216.743 222.344 216.816 222.749C217.012 223.837 218.227 222.963 218.243 221.724C218.251 221.139 218.725 219.748 219.297 218.633C220.188 216.894 220.203 216.588 219.407 216.485C218.897 216.419 218.07 216.312 217.568 216.247C215.717 216.009 216.846 214.687 219.089 214.466C221.107 214.268 221.34 214.089 221.693 212.464C221.907 211.483 222.449 210.063 222.898 209.308C223.577 208.166 223.554 207.05 222.762 202.652C221.952 198.151 221.616 197.213 220.495 196.309C219.771 195.726 219.112 194.876 219.03 194.421C218.824 193.281 216.91 191.891 215.816 192.087C215.321 192.177 214.374 191.975 213.713 191.64C212.059 190.801 212.07 190.775 212.955 193.384ZM157.832 201.634C158.425 202.134 158.475 202.409 158.042 202.797C157.658 203.142 157.756 204.23 158.345 206.168C159.359 209.504 158.84 209.925 156.731 207.477C154.894 205.345 154.528 203.59 155.623 202.169C156.639 200.852 156.845 200.803 157.832 201.634ZM136.177 206.127C136.256 206.566 136.805 207.67 137.397 208.58C137.99 209.489 138.815 210.91 139.232 211.736C139.751 212.766 140.564 213.328 141.815 213.522L143.641 213.805L142.547 214.976C141.479 216.121 141.41 216.111 139.427 214.533C138.137 213.507 137.294 212.332 137.109 211.304C136.949 210.415 136.573 209.732 136.273 209.786C135.973 209.84 135.551 208.903 135.335 207.704C135.119 206.505 135.188 205.48 135.488 205.426C135.787 205.372 136.097 205.688 136.177 206.127ZM222.882 190.815C222.954 191.215 222.82 191.408 222.584 191.244C222.348 191.08 222.289 190.753 222.453 190.517C222.617 190.282 222.81 190.416 222.882 190.815ZM207.504 196.538C207.557 198.153 207.651 201.059 207.711 202.995C207.841 207.171 207.303 210.06 206.419 209.932C205.696 209.827 205.172 205.866 205.746 204.839C205.95 204.475 205.879 202.589 205.589 200.648C205.206 198.081 205.291 196.655 205.899 195.42C206.36 194.486 206.888 193.695 207.072 193.662C207.256 193.629 207.451 194.923 207.504 196.538ZM217.419 193.878C218.095 194.63 216.996 197.998 215.073 201.071C214.15 202.545 213.437 203.983 213.488 204.267C213.622 205.01 211.511 208.542 210.415 209.41C208.841 210.655 209.006 208.76 210.71 206.022C211.55 204.672 212.208 203.41 212.174 203.217C212.139 203.024 212.921 201.391 213.912 199.588C214.902 197.785 215.993 195.647 216.335 194.837C216.708 193.953 217.142 193.57 217.419 193.878ZM134.647 210.754C135.071 211.049 135.488 211.677 135.573 212.15C135.658 212.623 136.142 213.435 136.648 213.954C138.413 215.764 138.686 216.666 137.532 216.874C136.822 217.002 136.392 216.698 136.262 215.977C136.154 215.378 135.847 214.927 135.58 214.975C135.313 215.023 134.812 214.417 134.467 213.628C134.122 212.839 133.635 211.787 133.384 211.291C132.86 210.251 133.519 209.971 134.647 210.754ZM92.8662 217.923C93.1324 218.111 93.4257 218.687 93.5184 219.202C93.6113 219.717 94.1798 220.775 94.7824 221.554C95.9855 223.107 96.5983 225.37 95.8528 225.504C95.5923 225.551 95.0599 224.598 94.6695 223.386C94.2797 222.174 93.6449 221.057 93.2602 220.905C92.8751 220.754 92.52 219.944 92.4714 219.106C92.4223 218.267 92.5999 217.735 92.8662 217.923ZM128.238 213.813C128.922 215.327 128.819 217.317 128.051 217.456C127.771 217.506 127.344 216.444 127.101 215.095C126.618 212.415 127.273 211.676 128.238 213.813ZM78.2537 221.921C78.3256 222.321 78.1916 222.514 77.9557 222.35C77.7202 222.186 77.6613 221.859 77.8248 221.623C77.9889 221.388 78.1818 221.522 78.2537 221.921ZM225.893 198.12C225.575 201.865 225.649 206.724 226.029 206.989C226.635 207.409 227.91 201.035 227.78 198.232C227.621 194.811 226.182 194.725 225.893 198.12ZM107.424 223.628C108.902 229.534 109.078 231.101 108.191 230.484C108.003 230.354 107.393 227.32 106.837 223.742L105.825 217.238L107.424 223.628ZM69.1487 226.299C69.452 226.636 69.5791 227.086 69.4317 227.298C69.0317 227.874 68.3707 227.252 68.4922 226.415C68.5767 225.828 68.7053 225.805 69.1487 226.299ZM181.513 207.165C181.779 207.74 181.771 208.842 181.494 209.614C181.218 210.386 180.847 211.589 180.669 212.287C180.491 212.986 180.114 213.765 179.832 214.019C179.549 214.273 179.401 214.945 179.503 215.514C179.638 216.262 179.183 216.739 177.85 217.247C176.839 217.631 175.663 217.88 175.237 217.799C174.279 217.616 173.667 219.07 173.405 222.156C173.294 223.454 172.973 224.559 172.691 224.61C172.079 224.72 171.733 219.685 172.291 218.802C172.501 218.47 172.591 217.75 172.492 217.201C172.242 215.812 173.699 215.075 174.738 216.066C175.246 216.55 176.103 216.709 176.855 216.458C177.842 216.128 178.436 214.953 179.573 211.079C180.676 207.322 181.146 206.375 181.513 207.165ZM160.541 210.199C160.568 210.349 160.468 210.493 160.318 210.52C160.168 210.547 160.023 210.447 159.996 210.297C159.969 210.147 160.07 210.002 160.22 209.976C160.37 209.949 160.514 210.049 160.541 210.199ZM219.669 201.098C219.858 202.146 218.38 204.004 217.186 204.219C215.82 204.465 216.153 203.408 217.967 201.744C219.192 200.619 219.558 200.48 219.669 201.098ZM203.988 204.626C204.015 204.776 203.914 204.921 203.764 204.948C203.614 204.975 203.47 204.874 203.443 204.725C203.416 204.575 203.516 204.43 203.666 204.403C203.816 204.376 203.961 204.477 203.988 204.626ZM201.461 205.175C201.697 205.339 201.935 205.726 201.991 206.036C202.052 206.378 201.793 206.391 201.331 206.071C200.913 205.78 200.674 205.392 200.801 205.21C200.928 205.027 201.225 205.011 201.461 205.175ZM137.408 218.436C138.696 218.503 138.748 218.98 137.651 220.685C136.65 222.241 136.373 222.363 135.065 221.828C134.293 221.512 134.326 221.222 135.284 219.92C135.906 219.075 136.862 218.407 137.408 218.436ZM183.186 210.968C183.363 211.949 182.215 216.111 181.739 216.214C181.025 216.368 181.038 214.829 181.758 213.974C182.14 213.52 182.373 212.703 182.275 212.158C182.177 211.612 182.314 210.971 182.581 210.732C182.847 210.492 183.119 210.599 183.186 210.968ZM131.474 220.741C131.888 221.265 132.325 222.263 132.443 222.958L132.658 224.222L131.347 223.052C129.958 221.811 129.314 220.042 130.194 219.883C130.483 219.831 131.059 220.217 131.474 220.741ZM97.314 226.742C97.55 226.905 97.8052 227.429 97.882 227.905C97.9959 228.616 97.8849 228.612 97.2631 227.881C96.4944 226.977 96.5294 226.196 97.314 226.742ZM152.27 223.468C151.892 224.136 151.969 224.63 152.566 225.384C153.616 226.71 154.157 226.563 154.932 224.739C155.521 223.352 155.491 223.215 154.518 222.861C153.112 222.349 152.865 222.415 152.27 223.468ZM145.262 224.297C146.238 224.975 145.873 226.063 144.59 226.293C143.591 226.473 143.176 226.248 143.032 225.449C142.84 224.386 144.303 223.63 145.262 224.297ZM138.337 226.732C141.143 227.733 142.004 228.455 140.66 228.681C140.028 228.787 134.607 225.889 135.212 225.769C135.361 225.739 136.768 226.173 138.337 226.732ZM181.265 219.268C181.434 220.089 181.328 220.804 181.028 220.858C180.388 220.973 180.313 220.554 180.685 218.95C180.926 217.91 180.992 217.946 181.265 219.268ZM156.445 225.838C156.395 226.471 156.551 226.953 156.791 226.91C157.243 226.829 157.649 225.385 157.482 224.456C157.322 223.567 156.54 224.609 156.445 225.838ZM110.639 233.532C110.774 234.282 110.705 234.611 110.487 234.263C110.268 233.916 110.158 233.303 110.242 232.9C110.325 232.499 110.504 232.783 110.639 233.532ZM221.156 215.602C221.183 215.751 221.327 215.852 221.477 215.825C221.627 215.798 221.728 215.653 221.701 215.503C221.674 215.354 221.529 215.253 221.379 215.28C221.229 215.307 221.129 215.452 221.156 215.602ZM207.422 219.239C207.761 219.989 207.833 220.966 207.581 221.41C207.167 222.144 206.619 226.179 206.444 229.785C206.35 231.737 205.193 233.612 204.535 232.879C203.98 232.261 204.533 227.504 205.234 226.876C205.475 226.659 205.501 225.53 205.291 224.366C205.082 223.202 205.128 222.055 205.395 221.815C205.661 221.576 205.799 220.935 205.701 220.389C205.602 219.844 205.811 219.055 206.164 218.636C206.677 218.027 206.93 218.148 207.422 219.239ZM112.807 235.707C112.891 236.174 112.688 236.449 112.355 236.318C112.022 236.187 111.708 235.849 111.657 235.566C111.606 235.284 111.81 235.009 112.109 234.955C112.409 234.901 112.723 235.24 112.807 235.707ZM203.877 219.637C204.142 221.108 196.524 232.991 195.56 232.611C194.5 232.194 194.661 231.592 196.629 228.601C197.663 227.033 199.462 224.275 200.629 222.473C202.724 219.238 203.659 218.422 203.877 219.637ZM125.126 234.219C126.004 234.896 126.106 235.207 125.633 235.771C125.309 236.159 124.756 237.694 124.405 239.183C123.981 240.982 123.362 242.075 122.56 242.444C121.007 243.158 119.973 242.424 120.09 240.692C120.192 239.182 122.904 233.574 123.593 233.45C123.832 233.407 124.522 233.753 125.126 234.219ZM130.068 233.972C130.55 234.504 131.346 234.867 131.837 234.779C132.327 234.691 133.101 234.931 133.555 235.314C134.009 235.696 134.964 235.904 135.676 235.776C136.389 235.647 137.016 235.788 137.07 236.087C137.213 236.881 134.701 237.203 133.864 236.499C133.473 236.169 132.24 235.718 131.126 235.497C130.011 235.276 128.9 234.665 128.656 234.138C128.066 232.864 128.968 232.758 130.068 233.972ZM185.381 230.247C185.721 233.748 186.239 236.222 186.963 237.794C188.049 240.152 190.798 242.73 191.997 242.514C192.354 242.45 192.991 242.687 193.412 243.042C194.416 243.888 198.856 243.741 199.996 242.824C200.488 242.43 201.507 241.857 202.261 241.552C203.395 241.094 203.544 240.77 203.124 239.675C202.801 238.837 202.25 238.417 201.62 238.531C201.073 238.629 200.43 238.492 200.191 238.225C199.952 237.959 199.147 237.851 198.402 237.985C197.179 238.205 193.772 236.487 190.803 234.154C189.14 232.847 187.1 229.215 186.613 226.698C186.297 225.065 185.96 224.448 185.516 224.69C185.104 224.914 185.056 226.894 185.381 230.247ZM220.871 220.804C219.928 222.025 219.972 223.411 220.947 223.235C221.695 223.1 223.727 220.511 223.608 219.845C223.468 219.069 221.742 219.674 220.871 220.804ZM194.997 225.074C195.524 225.661 193.864 228.112 192.811 228.301C191.347 228.565 191.288 227.634 192.674 226.165C194.236 224.508 194.414 224.424 194.997 225.074ZM141.13 236.763C141.157 236.913 141.057 237.058 140.907 237.085C140.757 237.112 140.612 237.011 140.585 236.861C140.558 236.711 140.659 236.567 140.809 236.54C140.959 236.513 141.103 236.613 141.13 236.763ZM210.663 226.536C211.648 227.958 211.528 228.87 210.328 229.086C209.794 229.182 209.433 228.617 209.199 227.32C208.794 225.068 209.416 224.735 210.663 226.536ZM218.279 226.161C217.945 226.947 217.112 227.977 216.428 228.451C215.744 228.924 215.247 229.661 215.324 230.088C215.471 230.906 208.006 236.818 206.479 237.093C205.218 237.32 204.475 238.583 204.74 240.051C204.994 241.462 206.2 241.506 206.977 240.131C207.258 239.635 207.859 239.3 208.314 239.386C208.768 239.473 209.218 239.136 209.313 238.638C209.408 238.14 210.214 237.33 211.103 236.839C211.993 236.348 213.72 234.639 214.939 233.043C216.159 231.446 217.55 229.932 218.03 229.679C219.172 229.076 220.861 225.634 220.313 225.025C219.619 224.252 218.926 224.639 218.279 226.161ZM173.378 237.741C173.52 238.532 173.367 239.033 173.023 238.897C172.69 238.766 172.332 238.183 172.227 237.601C172.122 237.019 172.282 236.499 172.582 236.445C172.881 236.391 173.24 236.975 173.378 237.741ZM181.858 238.01C182.061 239.179 181.97 239.351 181.443 238.788C180.563 237.845 180.362 236.732 181.051 236.608C181.351 236.554 181.713 237.185 181.858 238.01ZM183.395 241.812C183.263 242.146 183.048 242.438 182.916 242.461C182.783 242.485 182.631 242.259 182.577 241.96C182.523 241.66 182.739 241.368 183.056 241.311C183.373 241.254 183.526 241.479 183.395 241.812Z" fill="#006098"/>
</svg>
