<svg width="213" height="215" viewBox="0 0 213 215" fill="none" xmlns="http://www.w3.org/2000/svg">
<path fill-rule="evenodd" clip-rule="evenodd" d="M72.75 1.20756C75.578 2.14006 81.2645 3.89306 84.5 4.83056C89.7675 6.35606 91.9595 7.61507 95.3435 11.0596C97.168 12.9161 99.257 15.4061 99.9865 16.5926C101.378 18.8571 103.228 23.6421 103.754 26.3406C103.924 27.2151 104.331 28.1296 104.657 28.3726C105.201 28.7771 111.132 30.6071 122 33.7241C124.338 34.3941 126.925 35.1721 127.75 35.4526C128.575 35.7326 131.95 36.7816 135.25 37.7836C138.55 38.7851 142.375 40.0801 143.75 40.6616C148.031 42.4706 153.911 41.9431 163.5 38.8891C164.463 38.5826 166.037 38.1746 167 37.9826C167.963 37.7901 171.45 36.8516 174.75 35.8961C185.91 32.6656 185.249 32.7286 191.881 34.2626C198.841 35.8731 199.924 36.3716 201.87 38.8601C204.938 42.7826 205.061 43.6721 204.866 60.5031C204.769 68.8891 204.387 85.8001 204.017 98.0831C203.274 122.753 203.266 122.656 206.256 124.504C208.184 125.695 209.9 127.87 211.41 131.033C212.28 132.856 212.5 134.224 212.5 137.821C212.5 144.742 210.015 151.18 205.375 156.28L203 158.89V162.606C203 170.702 198.228 178.597 191.53 181.583C189.726 182.387 187.864 183.257 187.392 183.516C186.581 183.962 182.926 185.304 173.75 188.527C171.55 189.299 168.175 190.522 166.25 191.244C162.578 192.621 154.158 195.621 150.75 196.765C149.65 197.135 147.175 198.026 145.25 198.746C143.325 199.467 140.406 200.513 138.762 201.072C137.118 201.63 133.856 202.822 131.512 203.721C113.651 210.567 103.321 214.139 100.686 214.38C98.3845 214.59 97.58 214.353 92.8595 212.076C87.4145 209.45 82.207 205.318 80.721 202.445C80.1635 201.366 80 198.782 80 191.037C80 179.534 80.469 180.618 74.5 178.328C66.128 175.117 63.7505 174.155 56.75 171.154C52.625 169.385 48.8 167.726 48.25 167.468C46.248 166.529 42.207 165.511 40.4585 165.506C38.68 165.5 37.608 165.665 27.5 167.494C22.4395 168.409 16.2145 169.397 8.6535 170.483C2.3195 171.394 -0.766998 171.073 -5.25 169.04C-5.8 168.79 -8.3875 167.747 -11 166.721C-20.6685 162.926 -25.4405 160.096 -29.378 155.825C-31.918 153.069 -31.876 153.426 -32.2585 131.25C-32.4195 121.9 -32.7625 109.525 -33.02 103.75C-33.2775 97.9751 -33.721 86.3876 -34.0055 78.0001C-34.2895 69.6126 -34.7355 60.7251 -34.996 58.2501C-35.256 55.7751 -35.624 49.7466 -35.813 44.8536C-36.145 36.2501 -36.121 35.9091 -35.078 34.4991C-34.485 33.6966 -34 32.9151 -34 32.7611C-34 32.6076 -32.5305 30.2466 -30.735 27.5141C-27.2585 22.2251 -25.5895 20.6646 -22.917 20.2056C-22 20.0481 -19.225 19.5006 -16.75 18.9891C-14.275 18.4776 -9.66251 17.5781 -6.5 16.9901C-3.33749 16.4021 0.487503 15.6216 2 15.2561C3.5125 14.8906 6.55 14.2231 8.75 13.7721C10.95 13.3216 14.6625 12.5356 17 12.0256C19.3375 11.5161 23.5 10.6091 26.25 10.0111C29 9.41257 32.6 8.61706 34.25 8.24306C35.9 7.86906 39.5 7.08057 42.25 6.49057C45 5.90107 48.6 5.11257 50.25 4.73857C51.9 4.36457 55.3875 3.57807 58 2.99057C60.6125 2.40357 63.7625 1.60156 65 1.20906C67.7475 0.337064 70.11 0.336561 72.75 1.20756ZM62.75 3.91356C57.5435 5.13656 47.9865 7.28007 42 8.56807C39.3875 9.13007 35.4315 10.0251 33.209 10.5566C30.986 11.0881 27.0485 11.9586 24.459 12.4916C21.869 13.0241 17.725 13.9041 15.25 14.4476C6.222 16.4286 -18.804 21.5771 -20.75 21.8536C-21.85 22.0101 -23.357 22.4441 -24.099 22.8186C-25.3395 23.4441 -28 26.4106 -28 27.1681C-28 27.3461 -29.3625 29.5751 -31.0275 32.1211L-34.0555 36.7501L-33.773 40.5001C-33.258 47.3411 -33.094 50.9796 -31.494 91.0001C-31.214 98.0126 -30.772 110.163 -30.512 118C-30.2525 125.838 -29.885 136.919 -29.696 142.625C-29.3215 153.916 -29.2115 154.305 -26.4515 154.095C-25.191 153.999 -22.127 155.336 -17.8045 157.868C-17.2245 158.208 -16.3175 158.489 -15.7895 158.493C-15.261 158.497 -14.4075 158.881 -13.893 159.347C-12.799 160.337 -9.49998 161.559 -8.90799 161.193C-8.68349 161.055 -8.5 160.265 -8.5 159.438C-8.5 158.611 -8.23349 157.443 -7.90799 156.842C-7.58199 156.242 -7.12849 154.738 -6.89999 153.5C-6.133 149.345 -5.81349 148.055 -4.70599 144.639C-3.3615 140.493 -2.75 131.383 -2.75 115.5C-2.75 91.5011 -3.5155 82.7416 -7.01151 66.7501C-7.61301 64.0001 -8.29149 60.6871 -8.51999 59.3881C-8.74849 58.0891 -9.73749 54.6791 -10.718 51.8106C-11.698 48.9416 -12.5 46.0326 -12.5 45.3456C-12.5 44.0236 -10.0345 39.3441 -7.33051 35.5336C-6.43901 34.2776 -5.38301 32.6011 -4.98401 31.8076C-3.88751 29.6271 -2.686 29.1446 2.5 28.8016C10.36 28.2816 22.9735 26.9816 27.5715 26.2181C29.9485 25.8231 32.5365 25.5001 33.323 25.5001C35.1585 25.5001 43.9485 23.3296 45.536 22.4841C46.204 22.1286 47.3125 21.4361 48 20.9461C48.6875 20.4556 51.275 19.5696 53.75 18.9771C56.225 18.3846 59.375 17.6181 60.75 17.2741C62.143 16.9251 63.693 16.8206 64.25 17.0386C66.7715 18.0251 76.172 16.6626 80 14.7561C81.837 13.8416 85 13.3486 85 13.9776C85 14.2651 84.648 14.5001 84.218 14.5001C83.788 14.5001 82.269 15.0301 80.843 15.6781C79.417 16.3256 77.35 17.0296 76.25 17.2421C74.017 17.6731 73.658 17.4521 79.5 19.2461C81.0125 19.7106 82.6245 20.4251 83.082 20.8341C83.54 21.2431 84.349 21.5036 84.8805 21.4136C85.4115 21.3236 86.162 21.4851 86.548 21.7721C87.73 22.6506 92.137 23.9986 94.25 24.1276C95.35 24.1951 96.475 24.4856 96.75 24.7731C97.36 25.4116 100.986 26.6801 101.301 26.3656C101.425 26.2411 100.948 24.3026 100.238 22.0576C99.2815 19.0291 98.4055 17.3661 96.8435 15.6131C93.174 11.4941 89.9965 8.50006 89.2945 8.50006C88.9215 8.50006 86.8175 9.40006 84.62 10.5001C82.422 11.6001 80.2475 12.5001 79.787 12.5001C79.327 12.5001 78.343 12.8106 77.6 13.1901C76.8575 13.5691 75.4625 14.0321 74.5 14.2186L72.75 14.5571L75.1525 13.0106C76.4735 12.1601 78.2735 11.3241 79.1525 11.1526C80.031 10.9816 82.077 10.1506 83.6985 9.30556C86.612 7.78856 86.63 7.76557 85.1985 7.41407C82.2385 6.68707 77.152 5.05857 74 3.82907C70.3755 2.41507 69.0895 2.42456 62.75 3.91356ZM54.0935 8.34156C53.733 8.48606 53.3015 8.46807 53.1355 8.30207C52.9695 8.13607 53.2645 8.01806 53.7915 8.03956C54.374 8.06356 54.4925 8.18206 54.0935 8.34156ZM89.8335 10.8336C89.65 11.0166 89.35 11.0166 89.1665 10.8336C88.9835 10.6501 89.1335 10.5001 89.5 10.5001C89.8665 10.5001 90.0165 10.6501 89.8335 10.8336ZM93.4605 13.7916C93.4365 14.3741 93.318 14.4926 93.1585 14.0941C93.014 13.7331 93.032 13.3016 93.198 13.1356C93.364 12.9696 93.482 13.2646 93.4605 13.7916ZM72.0935 14.8416C71.733 14.9861 71.3015 14.9681 71.1355 14.8021C70.9695 14.6361 71.2645 14.5181 71.7915 14.5396C72.374 14.5636 72.4925 14.6821 72.0935 14.8416ZM60.058 19.4636C59.0635 19.7186 56.5705 20.2986 54.518 20.7526C50.7885 21.5771 41.197 25.9626 37.259 28.6441C36.164 29.3901 35.01 30.0001 34.695 30.0001C34.38 30.0001 33.8425 30.3376 33.5 30.7501C32.8045 31.5876 31 31.7726 31 31.0066C31 30.7346 31.9565 29.9171 33.125 29.1891C36.8265 26.8836 36.506 26.7676 29.709 27.9546C26.7065 28.4786 20.875 29.1601 16.75 29.4686C8.64999 30.0746 0.552994 30.8841 -1.58301 31.3011C-2.526 31.4851 -3.14749 32.1006 -3.70749 33.4056C-4.14299 34.4201 -5.39349 36.4876 -6.48599 38.0001C-8.36099 40.5941 -9.03099 41.7391 -9.70599 43.5001C-9.86449 43.9126 -10.2555 44.6126 -10.575 45.0551C-11.032 45.6881 -10.943 46.3306 -10.159 48.0551C-8.567 51.5581 -6.13501 60.3796 -6.41751 61.6296C-6.46451 61.8381 -6.26251 62.9631 -5.96851 64.1296C-4.90201 68.3621 -4.56898 69.8391 -3.54349 74.8926C-2.96948 77.7211 -2.5 80.9141 -2.5 81.9881C-2.5 83.0621 -2.27348 84.0811 -1.99649 84.2521C-1.44598 84.5926 -1.4135 84.5106 -0.498505 80.5001C-0.153503 78.9876 0.291 77.5251 0.489502 77.2501C0.688004 76.9751 1.142 75.2876 1.4985 73.5001C1.85501 71.7126 2.4485 69.8976 2.8175 69.4671C3.18651 69.0366 3.6385 67.9116 3.82251 66.9671C4.00652 66.0226 4.30598 65.1376 4.48749 65.0001C4.66949 64.8626 5.53302 63.2876 6.40701 61.5001C8.66002 56.8916 9.98599 54.6531 12.3935 51.3946C13.552 49.8261 14.5 48.4311 14.5 48.2941C14.5 48.1576 15.0065 47.4916 15.625 46.8151C20.158 41.8561 21.5 40.5776 21.5 41.2181C21.5 41.6216 20.7605 42.6941 19.857 43.6011C18.2825 45.1816 13.484 51.9271 11.1285 55.8716C9.39401 58.7761 5 67.8291 5 68.4981C5 68.8271 4.67551 69.6931 4.2785 70.4231C3.38 72.0761 0.873016 80.8471 -0.316986 86.5001C-1.83748 93.7246 -1.258 120.942 0.453003 122.653C1.2935 123.494 1.1405 125.023 0.25 124.681C-0.248505 124.49 -0.505493 124.705 -0.515991 125.322C-0.542984 126.887 -1.96249 139.082 -2.45749 142C-2.71399 143.513 -3.381 146.109 -3.939 147.769C-4.4975 149.43 -5.09799 151.792 -5.27399 153.019C-5.44949 154.246 -5.9005 155.939 -6.276 156.782C-6.651 157.624 -7.10349 159.221 -7.28049 160.329C-7.59848 162.318 -7.55849 162.384 -4.26599 165.297C-2.4305 166.922 -0.213501 168.441 0.660492 168.673C1.599 168.923 4.09351 168.867 6.75 168.537C14.744 167.543 33.236 164.391 33.725 163.939C34.0135 163.673 33.877 163.5 33.3785 163.5C32.134 163.5 29 161.497 29 160.701C29 159.734 29.6405 159.824 31.1365 161C31.8355 161.55 32.8355 162 33.3585 162C33.881 162 34.7455 162.331 35.2795 162.734C35.899 163.203 37.4445 163.474 39.5505 163.484C42.955 163.501 44.072 163.766 49.347 165.81C53.474 167.409 64.5365 172.242 67.987 173.954C69.5065 174.708 71.5375 175.468 72.5 175.643L74.25 175.961L73.007 175.106C65.5845 169.998 60.2285 161.355 57.0055 149.284C56.4225 147.102 55.8675 145.19 55.771 145.034C55.2255 144.15 53.859 134.302 53.477 128.5C52.493 113.559 55.4225 98.9171 62.4145 83.8286C63.2865 81.9466 64 80.3196 64 80.2131C64 80.1066 64.741 78.8341 65.6465 77.3846C66.552 75.9356 67.566 74.1876 67.9005 73.5001C68.908 71.4271 70.494 68.8896 72.4305 66.2501C73.4395 64.8751 74.8795 62.8501 75.631 61.7501C78.6305 57.3581 90.027 47.0001 91.86 47.0001C92.2505 47.0001 94.245 45.9836 96.292 44.7406C104.511 39.7516 111.399 37.4041 118.081 37.3146C122.371 37.2571 124.117 37.5501 123.451 38.2156C123.333 38.3341 122.001 38.5391 120.493 38.6706C118.984 38.8021 116.738 39.2641 115.5 39.6976C114.262 40.1311 112.419 40.4886 111.404 40.4926C109.409 40.5006 108.439 41.2581 109.869 41.6916C110.354 41.8381 109.978 41.8886 109.036 41.8026C106.99 41.6171 100.513 44.4596 96.066 47.4951C94.4505 48.5981 92.5575 49.5001 91.859 49.5001C90.1595 49.5001 86.751 52.2731 81.083 58.2666C77.151 62.4246 76.4565 63.4026 76.6725 64.4761C77.5765 68.9636 77.2495 71.5486 75.5 73.7501C74.675 74.7881 74 76.0566 74 76.5691C74 77.1791 73.641 77.5001 72.9585 77.5001C71.2095 77.5001 72.1685 78.6151 74.526 79.3221C77.2455 80.1381 78.001 79.9176 77.668 78.4056C77.4645 77.4826 77.521 77.4011 77.949 78.0001C78.4695 78.7291 78.727 81.5001 78.2745 81.5001C78.1505 81.5001 76.744 81.1431 75.1495 80.7066C67.1285 78.5121 67 78.5096 67 80.5481C67 81.3991 66.691 82.6931 66.3135 83.4231C64.923 86.1106 64 88.5611 64 89.5631C64 90.1291 63.55 91.1646 63 91.8636C62.45 92.5631 61.984 93.7236 61.965 94.4426C61.9325 95.6381 61.89 95.6641 61.466 94.7501C61.103 93.9666 61.0605 94.0826 61.2715 95.2866C61.4385 96.2416 61.168 97.6916 60.556 99.1191C60.0145 100.383 59.7005 101.908 59.8575 102.509C60.0145 103.111 59.925 103.748 59.6585 103.926C59.0145 104.356 57.5 109.105 57.5 110.694C57.5 111.385 57.194 112.13 56.82 112.35C56.233 112.695 55.325 119.575 55.48 122.5C56.0925 134.069 56.521 139.362 56.93 140.43C57.2085 141.156 57.8015 143.428 58.2475 145.478C59.3745 150.656 60.748 154.585 63.04 159.183C64.118 161.346 65 163.4 65 163.747C65 164.094 65.3505 164.669 65.779 165.024C66.2075 165.38 66.8695 166.417 67.2505 167.328C67.9965 169.114 71.3785 171.565 74.4515 172.549C76.5215 173.211 79.5 175.298 79.5 176.087C79.5 176.429 79.2295 176.398 78.75 176C78.123 175.48 78 175.554 78 176.455C78 177.047 78.394 177.671 78.875 177.84C79.356 178.01 80.256 178.605 80.875 179.162C81.9735 180.151 82 180.42 82 190.644V201.113L85.7635 204.877C87.8335 206.946 89.6895 208.474 89.8885 208.27C90.0875 208.067 89.35 207.105 88.25 206.133C86.3975 204.497 86.349 204.39 87.5875 204.684L88.925 205L88.7095 180.125C88.591 166.444 88.407 137.221 88.3 115.186C88.1135 76.6911 88.143 75.0456 89.0515 73.1856C89.5715 72.1211 90.4405 70.5751 90.983 69.7501C91.5255 68.9251 92.3455 67.5751 92.8045 66.7501C93.264 65.9251 93.862 65.1066 94.134 64.9311C95.037 64.3481 94.05 63.6366 91.8865 63.3111C86.775 62.5421 85.9755 62.3651 85.716 61.9451C85.2635 61.2126 90.1225 61.4421 92.9685 62.2871C95.5875 63.0651 95.6335 63.0601 96.934 61.8636C97.658 61.1981 99.6 60.2681 101.25 59.7966C104.877 58.7606 120.553 54.5991 123 54.0226C127.61 52.9366 131.845 51.8136 132.75 51.4376C133.3 51.2091 135.416 50.6536 137.452 50.2036C139.488 49.7536 141.85 49.1011 142.702 48.7541C143.553 48.4071 145.366 47.9621 146.73 47.7651C148.094 47.5681 150.344 47.0071 151.73 46.5186C154.645 45.4906 158.415 44.3841 159.5 44.2376C159.912 44.1821 162.162 43.6241 164.5 42.9976C166.838 42.3711 169.65 41.6871 170.75 41.4776C171.85 41.2686 174.775 40.5061 177.25 39.7831C179.725 39.0606 183.212 38.1136 185 37.6781C189.837 36.5006 189.984 36.3726 187.118 35.8431C184.82 35.4186 183.934 35.5301 180.118 36.7201C172.204 39.1896 170.787 39.5931 168.507 40.0291C163.879 40.9136 155.629 43.0566 152 44.3171C149.938 45.0336 147.238 45.7981 146 46.0166C144.762 46.2346 142.062 46.9061 140 47.5086C137.938 48.1106 135.35 48.7746 134.25 48.9836C133.15 49.1921 131.676 49.5961 130.975 49.8811C130.274 50.1661 128.137 50.5241 126.225 50.6776C124.314 50.8306 123.2 50.8416 123.75 50.7021C124.3 50.5626 125.2 50.2566 125.75 50.0216C126.3 49.7866 128.438 49.0971 130.5 48.4896C132.562 47.8816 135.488 46.9776 137 46.4801C138.512 45.9826 141.494 45.1981 143.627 44.7371C145.759 44.2761 147.622 43.7081 147.766 43.4746C147.91 43.2416 147.178 42.9146 146.139 42.7476C143.381 42.3056 143.508 42.3441 134 39.1001C129.188 37.4581 123.45 35.7266 121.25 35.2521C115.422 33.9956 104.41 30.5731 103.475 29.7276C103.033 29.3276 101.987 29.0001 101.152 29.0001C100.317 29.0001 98.5345 28.5671 97.1915 28.0376C92.874 26.3356 77.4635 21.5001 76.3385 21.4946C75.74 21.4916 74.125 21.1196 72.75 20.6681C70.543 19.9431 66.675 19.3076 63.058 19.0761C62.4025 19.0346 61.0525 19.2086 60.058 19.4636ZM59.8335 22.8336C59.65 23.0166 59.35 23.0166 59.1665 22.8336C58.9835 22.6501 59.1335 22.5001 59.5 22.5001C59.8665 22.5001 60.0165 22.6501 59.8335 22.8336ZM-16.9065 22.8416C-17.267 22.9861 -17.6985 22.9681 -17.8645 22.8021C-18.0305 22.6361 -17.7355 22.5181 -17.2085 22.5396C-16.626 22.5636 -16.5075 22.6821 -16.9065 22.8416ZM55.8335 23.8336C55.65 24.0166 55.35 24.0166 55.1665 23.8336C54.9835 23.6501 55.1335 23.5001 55.5 23.5001C55.8665 23.5001 56.0165 23.6501 55.8335 23.8336ZM25.5 23.7501C25.5 23.8876 25.3875 24.0001 25.25 24.0001C25.1125 24.0001 25 23.8876 25 23.7501C25 23.6126 25.1125 23.5001 25.25 23.5001C25.3875 23.5001 25.5 23.6126 25.5 23.7501ZM-19.375 25.1016C-18.344 25.3751 -17.5 25.8021 -17.5 26.0496C-17.5 26.6281 -17.3435 26.6581 -20.25 25.5231C-22.9085 24.4851 -22.478 24.2771 -19.375 25.1016ZM85.5 25.9506C87.7915 26.4461 86.718 26.8471 82.232 27.1706C80.297 27.3101 78.1595 27.6346 77.482 27.8921C76.8045 28.1496 74.5625 28.8926 72.5 29.5426C65.0405 31.8946 56.587 37.4441 48.956 44.9991C35.5835 58.2376 27.9305 70.9326 23.685 86.9216C18.966 104.693 18.4045 115.634 21.4355 130.75C23.844 142.76 28.066 151.248 35.675 159.375C38.0005 161.859 36.2945 161.308 33.3535 158.625C31.9215 157.319 30.6785 156.092 30.591 155.898C30.503 155.704 29.578 154.466 28.535 153.148C24.5945 148.167 20.013 136.319 18.424 127C17.5905 122.11 17.5715 106.069 18.3925 100C19.2485 93.6726 22.0625 82.9646 24.1865 77.9541C24.605 76.9661 24.8205 75.6721 24.6655 75.0791C24.5105 74.4856 24.611 74.0001 24.8895 74.0001C25.5645 74.0001 28.045 69.2121 27.6005 68.7671C27.4085 68.5751 27.6145 68.1526 28.0585 67.8281C28.5025 67.5036 29.602 65.7786 30.502 63.9941C31.4025 62.2101 32.548 60.4626 33.0485 60.1116C33.549 59.7601 33.8515 59.1951 33.7215 58.8561C33.5915 58.5171 34.181 57.4546 35.032 56.4946C35.883 55.5351 37.2365 54.0111 38.0395 53.1081C38.843 52.2051 39.5 51.1626 39.5 50.7906C39.5 50.4191 40.0445 49.7581 40.7105 49.3221C41.376 48.8856 43.887 46.4976 46.2905 44.0146C48.694 41.5316 50.8805 39.5001 51.1495 39.5001C51.418 39.5001 52.605 38.6566 53.786 37.6251C57.0065 34.8141 58.4745 33.7801 61.5 32.1931C63.0125 31.3996 64.356 30.6816 64.4855 30.5981C64.615 30.5141 64.39 30.2261 63.9855 29.9576C63.4595 29.6086 63.6425 29.5611 64.6285 29.7901C65.5215 29.9976 66.44 29.8266 67.236 29.3051C67.912 28.8626 68.921 28.5001 69.478 28.5001C70.0355 28.5001 70.7675 28.0581 71.105 27.5181C71.5345 26.8306 72.058 26.6211 72.8505 26.8201C73.473 26.9761 74.701 26.8536 75.5795 26.5476C77.6875 25.8126 83.301 25.4746 85.5 25.9506ZM-11.5 28.2501C-11.5 28.3876 -11.6125 28.5001 -11.75 28.5001C-11.8875 28.5001 -12 28.3876 -12 28.2501C-12 28.1126 -11.8875 28.0001 -11.75 28.0001C-11.6125 28.0001 -11.5 28.1126 -11.5 28.2501ZM95.125 30.8311C94.781 30.9701 94.2185 30.9701 93.875 30.8311C93.531 30.6926 93.8125 30.5791 94.5 30.5791C95.1875 30.5791 95.4685 30.6926 95.125 30.8311ZM33.99 32.7621C33.642 33.1811 33.2545 33.4211 33.1285 33.2956C32.782 32.9486 33.4865 32.0001 34.0905 32.0001C34.4225 32.0001 34.3845 32.2871 33.99 32.7621ZM30.5 32.2996C30.5 32.4641 29.769 33.2706 28.875 34.0916C27.981 34.9126 26.069 36.7391 24.625 38.1501C20.5395 42.1436 21.539 40.1761 25.792 35.8541C29.199 32.3911 30.5 31.4091 30.5 32.2996ZM29.75 36.5001C29.58 36.7751 29.3285 37.0001 29.191 37.0001C29.0535 37.0001 29.08 36.7751 29.25 36.5001C29.42 36.2251 29.6715 36.0001 29.809 36.0001C29.9465 36.0001 29.92 36.2251 29.75 36.5001ZM189.5 38.7541C186.888 39.3986 183.006 40.3926 180.875 40.9631C178.744 41.5336 175.256 42.4631 173.125 43.0296C170.994 43.5956 167.619 44.4956 165.625 45.0296C161.581 46.1126 158.012 47.0546 147.75 49.7481C143.9 50.7591 139.062 52.0391 137 52.5931C134.938 53.1471 132.35 53.7866 131.25 54.0136C130.15 54.2406 128.575 54.6846 127.75 55.0001C126.925 55.3156 125.35 55.7581 124.25 55.9831C122.478 56.3456 116.554 57.8791 105.165 60.9221C98.336 62.7466 97.319 63.6566 91.95 72.7501L90.474 75.2501L90.7565 138.75C90.9115 173.675 91.156 203.411 91.2995 204.83C91.5115 206.925 91.8975 207.756 93.3565 209.258C95.5825 211.551 97.9025 212.996 99.3595 212.998C100.774 213.001 114.211 208.5 120 206.085C120.688 205.798 125.75 203.947 131.25 201.972C136.75 199.996 143.22 197.619 145.628 196.69C148.036 195.761 150.286 194.999 150.628 194.997C150.97 194.995 151.812 194.704 152.5 194.35C153.188 193.995 155.325 193.189 157.25 192.558C159.175 191.926 162.438 190.763 164.5 189.972C166.562 189.182 172.146 187.158 176.908 185.474C181.67 183.791 187.119 181.646 189.019 180.707C190.918 179.768 192.684 179 192.943 179C193.847 179 197.261 174.612 198.853 171.405C200.795 167.491 201.471 164.737 201.488 160.679C201.499 157.769 201.613 157.481 203.673 155.179C208.566 149.71 210.483 144.862 210.493 137.93C210.5 133.528 209.943 131.551 207.796 128.355C206.496 126.421 205.478 125.985 201.61 125.705C198.731 125.497 187.712 122.262 183.75 120.462C181.501 119.44 178.295 118.5 177.055 118.5C176.33 118.5 174.501 118.035 172.993 117.466C171.484 116.898 169.125 116.091 167.75 115.674C166.375 115.256 164.8 114.637 164.25 114.296C162.729 113.355 156.541 111.588 153.926 111.348L151.601 111.134L147.738 115.408C145.612 117.758 143.54 120.479 143.133 121.454C142.702 122.486 142.308 125.425 142.191 128.488C142.025 132.804 142.147 134.062 142.87 135.481C143.869 137.444 148.229 140.308 151 140.821C151.963 140.999 153.27 141.55 153.907 142.045C154.543 142.54 155.358 142.831 155.718 142.693C156.079 142.555 157.83 143.13 159.61 143.971C161.39 144.812 163.201 145.5 163.633 145.5C164.065 145.5 165.056 145.817 165.835 146.204C166.613 146.591 167.925 147.209 168.75 147.578C169.575 147.947 170.386 148.434 170.552 148.661C170.718 148.887 171.618 149.267 172.552 149.504C178.645 151.053 192 156.591 192 157.569C192 158.575 188.51 157.577 177.5 153.422C172.646 151.591 172.514 151.611 170.005 154.587C165.527 159.899 161.527 163.044 155.187 166.237C151.053 168.318 150.251 168.543 145.955 168.816C135.829 169.462 129.889 166.733 124.825 159.111C122.659 155.851 120.924 151.588 120.301 148C120.025 146.408 120.048 146.363 120.553 147.5C123.847 154.922 125.393 157.44 128.639 160.666C130.625 162.64 133.168 164.59 134.663 165.286C142.51 168.94 155.445 164.113 164.336 154.215C166.214 152.124 168.27 150.208 168.905 149.958C170.511 149.324 169.749 148.366 167.952 148.761C166.909 148.99 166.419 148.87 166.214 148.336C166.056 147.927 165.213 147.326 164.339 147.002C163.465 146.677 162.075 146.047 161.25 145.601C160.329 145.103 158.688 144.813 157 144.849C153.846 144.916 148.09 143.358 146.305 141.954C145.638 141.43 144.776 141 144.389 141C143.239 141 141.132 138.395 140.549 136.25C140.25 135.15 140.005 132.949 140.003 131.358C140 128.563 139.964 128.484 138.936 129.034C137.968 129.553 137.897 129.899 138.15 132.927C138.523 137.404 139.236 139.579 141.145 142.066C143.803 145.529 145.088 146.219 149.409 146.5L153.25 146.75L151.5 147.723C148.828 149.209 141.021 149.135 138.203 147.597C133.296 144.92 130.473 138.92 130.53 131.284C130.589 123.323 132.636 116.381 136.725 110.28C139.027 106.844 143.345 102.714 145.625 101.766C146.656 101.337 147.5 101.072 147.5 101.176C147.5 101.279 146.56 102.014 145.411 102.807C138.897 107.308 135.393 112.38 133.186 120.5C132.271 123.867 132.027 126.062 132.015 131.058C132 137.287 132.022 137.41 133.758 140.881C134.726 142.815 136.02 144.725 136.633 145.126C138.093 146.08 143 147.509 143 146.981C143 146.538 138.697 143.5 138.069 143.5C137.551 143.5 135.852 141.151 134.613 138.723C133.759 137.048 133.624 136.004 133.778 132.238C133.879 129.77 134.11 126.513 134.292 125C134.661 121.927 136.595 115.705 137.447 114.854C137.751 114.549 138 113.807 138 113.204C138 112.601 138.338 111.978 138.75 111.819C139.162 111.661 139.5 111.205 139.5 110.806C139.5 110.408 141.244 108.49 143.375 106.545C147.429 102.844 151.958 100.5 155.054 100.5C158.159 100.5 162.278 103.02 164.535 106.301C166.439 109.069 166.216 110.296 164.217 108.049C162.257 105.846 160.322 104.91 157.549 104.826C154.308 104.728 151.343 106.344 146.892 110.636C142.847 114.536 141.919 115.903 139.723 121.191C138.937 123.084 138.214 124.392 138.116 124.099C137.876 123.378 139.212 119.534 140.777 116.446C141.481 115.057 141.965 113.658 141.852 113.336C141.505 112.345 138.19 116.398 137.514 118.641C137.164 119.801 136.525 121.875 136.095 123.25C134.983 126.803 135.024 135.243 136.162 137.25C136.997 138.723 137.007 138.666 136.698 134.202C136.362 129.36 136.871 127.29 138.264 127.825C139.426 128.271 140.343 127.179 140.704 124.922C140.885 123.789 141.589 121.649 142.267 120.166C142.945 118.684 143.501 117.309 143.501 117.11C143.502 116.504 147.124 112.773 149.43 111.002C151.253 109.603 151.762 109.424 152.538 109.908C153.185 110.312 153.861 110.338 154.766 109.994C155.481 109.723 156.79 109.5 157.675 109.5C159.834 109.5 164.776 111.279 166.704 112.749C168.43 114.066 176.352 117.151 176.991 116.756C177.214 116.618 178.038 116.84 178.823 117.25C179.608 117.659 181.009 117.995 181.936 117.997C183.347 118 183.525 117.883 183.025 117.28C182.697 116.884 181.938 116.491 181.339 116.405C180.392 116.27 180.204 115.826 179.897 113C179.135 105.988 178.298 101.675 177.149 98.8471C174.21 91.6131 171.019 87.7661 165.646 84.9796C159.814 81.9546 153.154 82.4686 145.018 86.5711C142.966 87.6061 141.219 88.3856 141.137 88.3036C140.942 88.1086 146.379 84.3931 148 83.6126C150.939 82.1976 155.963 81.0126 159.047 81.0066C164.455 80.9961 169.227 82.9531 173.65 86.9961C180.044 92.8401 183.378 100.806 183.866 111.412C184.121 116.964 184.253 117.64 185.2 118.234C185.777 118.597 189.4 119.943 193.25 121.225C197.1 122.508 200.64 123.769 201.118 124.028C203.095 125.103 204.28 124.27 202.672 122.936C201.916 122.31 201.873 120.505 202.176 102.25C202.359 91.2501 202.756 77.1331 203.059 70.8791C203.361 64.6256 203.517 56.1881 203.406 52.1291C203.218 45.3341 203.097 44.5476 201.876 42.1901C201.146 40.7821 199.832 39.0276 198.956 38.2906C197.18 36.7956 197.504 36.7796 189.5 38.7541ZM41.5 40.2501C41.5 40.3876 41.3875 40.5001 41.25 40.5001C41.1125 40.5001 41 40.3876 41 40.2501C41 40.1126 41.1125 40.0001 41.25 40.0001C41.3875 40.0001 41.5 40.1126 41.5 40.2501ZM171 40.7501C171 40.8876 170.888 41.0001 170.75 41.0001C170.612 41.0001 170.5 40.8876 170.5 40.7501C170.5 40.6126 170.612 40.5001 170.75 40.5001C170.888 40.5001 171 40.6126 171 40.7501ZM136.133 44.0621C135.794 44.4041 135.391 44.5576 135.237 44.4036C135.083 44.2496 135.361 43.9701 135.854 43.7821C136.566 43.5111 136.623 43.5681 136.133 44.0621ZM131.712 43.9396C131.867 44.1901 131.658 44.5241 131.247 44.6821C130.836 44.8396 130.5 44.7641 130.5 44.5141C130.5 43.8361 131.388 43.4151 131.712 43.9396ZM190.5 44.2501C190.5 44.3876 190.388 44.5001 190.25 44.5001C190.112 44.5001 190 44.3876 190 44.2501C190 44.1126 190.112 44.0001 190.25 44.0001C190.388 44.0001 190.5 44.1126 190.5 44.2501ZM54 45.3541C58.8045 47.1146 63.921 49.1161 64.608 49.5036C65.08 49.7696 66.3175 50.2026 67.358 50.4656C70.1375 51.1681 78.5 54.6526 78.5 55.1086C78.5 55.8556 76.253 55.4931 72.7605 54.1826C70.83 53.4581 69.036 52.6706 68.775 52.4326C68.5135 52.1946 67.893 52.0001 67.3955 52.0001C66.898 52.0001 64.4115 51.1306 61.8705 50.0676C59.329 49.0051 56.03 47.7111 54.539 47.1926C53.0475 46.6741 51.735 45.9691 51.622 45.6251C51.4125 44.9871 52.623 44.8491 54 45.3541ZM196.774 47.8231C197.787 48.9161 198 49.6581 198 52.0931C198 54.0316 197.665 55.6961 197.021 56.9586C196.111 58.7421 194.5 60.0531 194.5 59.0101C194.5 58.7576 193.708 58.8821 192.739 59.2871C188.554 61.0356 186.598 56.2821 189.201 50.6911C191.192 46.4151 194.358 45.2161 196.774 47.8231ZM84.75 48.5001C84.58 48.7751 84.3285 49.0001 84.191 49.0001C84.0535 49.0001 84.08 48.7751 84.25 48.5001C84.42 48.2251 84.6715 48.0001 84.809 48.0001C84.9465 48.0001 84.92 48.2251 84.75 48.5001ZM174.337 49.7766C176.297 50.6351 176.407 50.8136 177.013 54.0961C177.34 55.8656 177.333 57.3336 176.993 58.5001C176.532 60.0801 176.604 60.3491 177.741 61.2691C178.433 61.8291 179 62.6556 179 63.1051C179 64.1096 175.21 67.4281 173.602 67.8321C170.488 68.6136 168.004 65.4176 168.002 60.6251C168 57.8931 167.881 57.5001 167.053 57.5001C166.083 57.5001 165.5 56.5826 165.5 55.0561C165.5 53.9046 167.645 51.0541 169.365 49.9201C170.983 48.8526 172.151 48.8191 174.337 49.7766ZM192.082 50.2986C191.173 50.9356 191.006 51.3921 191.26 52.5486C191.459 53.4511 191.375 54.0001 191.039 54.0001C190.743 54.0001 190.5 54.3376 190.5 54.7501C190.5 55.1626 190.781 55.5036 191.125 55.5076C191.542 55.5131 191.502 55.6721 191.004 55.9871C190.473 56.3226 190.413 56.6131 190.795 56.9951C191.177 57.3776 191.715 57.1481 192.666 56.1976C194.188 54.6761 194.101 54.8896 194.259 52.2501C194.438 49.2721 194.048 48.9221 192.082 50.2986ZM18.5 49.7501C18.5 49.8876 18.3875 50.0001 18.25 50.0001C18.1125 50.0001 18 49.8876 18 49.7501C18 49.6126 18.1125 49.5001 18.25 49.5001C18.3875 49.5001 18.5 49.6126 18.5 49.7501ZM132.5 50.2501C132.5 50.3876 132.387 50.5001 132.25 50.5001C132.113 50.5001 132 50.3876 132 50.2501C132 50.1126 132.113 50.0001 132.25 50.0001C132.387 50.0001 132.5 50.1126 132.5 50.2501ZM171.673 52.4146C172.874 53.7421 172.775 57.7436 171.5 59.3636C170.47 60.6731 170.111 64.0001 171 64.0001C171.275 64.0001 171.5 64.3376 171.5 64.7501C171.5 65.9651 172.484 65.6086 173.02 64.1991C173.344 63.3471 173.77 62.9966 174.257 63.1836C174.666 63.3406 175 63.2506 175 62.9846C175 62.7181 174.768 62.5001 174.483 62.5001C174.152 62.5001 174.084 61.6086 174.294 60.0276C174.744 56.6351 174.177 54.1161 172.644 52.6956C171.124 51.2871 170.485 51.1021 171.673 52.4146ZM120 51.9466C120 52.4566 118.786 53.0001 117.648 53.0001C117.02 53.0001 116.993 52.8616 117.5 52.2501C118.173 51.4391 120 51.2171 120 51.9466ZM168.774 53.4241C168.613 53.9326 168.821 55.0016 169.238 55.7991C169.654 56.5971 169.995 57.5316 169.997 57.8751C169.999 58.2191 170.225 58.5001 170.5 58.5001C171.209 58.5001 171.123 53.8226 170.4 53.1001C169.562 52.2616 169.115 52.3506 168.774 53.4241ZM101 54.4901C98.013 55.5516 95.5 55.7891 95.5 55.0096C95.5 54.4331 96.6595 54.1631 100.75 53.7881L103.75 53.5131L101 54.4901ZM112.365 54.8466C111.879 54.9736 111.204 54.9651 110.865 54.8281C110.527 54.6911 110.925 54.5876 111.75 54.5976C112.575 54.6076 112.852 54.7196 112.365 54.8466ZM137.5 55.7501C137.5 55.8876 137.387 56.0001 137.25 56.0001C137.113 56.0001 137 55.8876 137 55.7501C137 55.6126 137.113 55.5001 137.25 55.5001C137.387 55.5001 137.5 55.6126 137.5 55.7501ZM94.625 56.3311C94.281 56.4701 93.7185 56.4701 93.375 56.3311C93.031 56.1926 93.3125 56.0791 94 56.0791C94.6875 56.0791 94.9685 56.1926 94.625 56.3311ZM90 56.8856C90 57.6341 88.805 58.4661 87.515 58.6161C85.992 58.7931 85.628 57.6961 87.104 57.3766C87.7345 57.2401 88.644 56.9631 89.125 56.7611C89.615 56.5551 90 56.6096 90 56.8856ZM98.75 58.5001C98.58 58.7751 98.1035 59.0001 97.691 59.0001C97.2785 59.0001 97.08 58.7751 97.25 58.5001C97.42 58.2251 97.8965 58.0001 98.309 58.0001C98.7215 58.0001 98.92 58.2251 98.75 58.5001ZM181 58.7501C181 58.8876 180.888 59.0001 180.75 59.0001C180.612 59.0001 180.5 58.8876 180.5 58.7501C180.5 58.6126 180.612 58.5001 180.75 58.5001C180.888 58.5001 181 58.6126 181 58.7501ZM153.094 59.3416C152.733 59.4861 152.301 59.4681 152.135 59.3021C151.969 59.1361 152.265 59.0181 152.792 59.0396C153.374 59.0636 153.493 59.1821 153.094 59.3416ZM123.833 59.3336C123.65 59.5166 123.35 59.5166 123.167 59.3336C122.984 59.1501 123.133 59.0001 123.5 59.0001C123.867 59.0001 124.016 59.1501 123.833 59.3336ZM148.5 59.9526C151.023 60.2861 150.547 61.0791 147.895 60.9606C146.426 60.8951 143.496 62.0776 141.852 63.4001C140.664 64.3566 138.264 64.5546 137.24 63.7806C136.406 63.1501 136.38 63.0296 137.073 63.0161C137.526 63.0071 139.551 62.3116 141.573 61.4701C146.259 59.5196 145.868 59.6051 148.5 59.9526ZM130.5 60.9076C132.141 61.1551 133.015 61.9151 133.79 63.7711C134.14 64.6071 135.062 65.6196 135.838 66.0201C137.721 66.9916 137.983 67.4256 137.992 69.5836C138.01 73.7786 134.805 78.5046 131.271 79.4941C129.277 80.0526 128.856 80.0216 127.633 79.2276C126.872 78.7341 125.956 77.9181 125.596 77.4151C125.237 76.9116 124.546 76.5001 124.059 76.5001C123.573 76.5001 122.652 75.9441 122.014 75.2646C120.971 74.1541 120.882 73.7086 121.148 70.8646C121.763 64.2766 125.618 60.1721 130.5 60.9076ZM128.014 64.9021C127.885 64.9861 128.086 65.2446 128.462 65.4766C128.849 65.7161 129.008 66.2601 128.827 66.7311C128.651 67.1891 128.265 67.4141 127.969 67.2311C127.674 67.0486 127.547 66.6006 127.686 66.2361C127.826 65.8716 127.66 65.3401 127.317 65.0556C126.409 64.3021 124.871 67.0636 125.283 68.7066C125.524 69.6666 125.282 70.2496 124.24 71.2156C122.87 72.4856 122.819 74.0001 124.147 74.0001C125.14 74.0001 126.886 71.9401 127.081 70.5391C127.282 69.1001 128.25 68.6276 128.684 69.7571C129.13 70.9196 127.715 73.9531 126.52 74.3946C125.594 74.7371 125.7 74.9061 127.618 76.1501C128.786 76.9071 129.817 77.2976 129.911 77.0176C130.004 76.7381 130.793 76.1681 131.665 75.7516C133.445 74.9011 135.5 71.7056 135.5 69.7861C135.5 68.8126 135.038 68.2846 133.5 67.5001C132.298 66.8871 131.5 66.1246 131.5 65.5901C131.5 65.1006 131.246 64.4461 130.936 64.1361C130.417 63.6166 129.723 63.7981 128.014 64.9021ZM182.5 64.2501C182.5 64.3876 182.388 64.5001 182.25 64.5001C182.112 64.5001 182 64.3876 182 64.2501C182 64.1126 182.112 64.0001 182.25 64.0001C182.388 64.0001 182.5 64.1126 182.5 64.2501ZM173.5 64.7501C173.5 64.8876 173.612 65.0001 173.75 65.0001C173.888 65.0001 174 64.8876 174 64.7501C174 64.6126 173.888 64.5001 173.75 64.5001C173.612 64.5001 173.5 64.6126 173.5 64.7501ZM163.625 66.8311C163.281 66.9701 162.718 66.9701 162.375 66.8311C162.031 66.6926 162.312 66.5791 163 66.5791C163.688 66.5791 163.968 66.6926 163.625 66.8311ZM-20.25 67.2461C-16.5095 68.5596 -13.3725 73.2886 -12.4625 78.9856C-11.635 84.1636 -12.187 86.5521 -14.8915 89.4971C-16.946 91.7351 -17.4105 92.0001 -19.279 92.0001C-21.147 92.0001 -21.668 91.7031 -24.186 89.2051C-25.7355 87.6681 -27.142 85.8116 -27.311 85.0801C-27.4805 84.3486 -27.9145 83.2746 -28.276 82.6941C-28.654 82.0861 -28.962 79.9631 -29.0015 77.6941C-29.094 72.4261 -29.124 72.6066 -28.0995 72.2816C-27.6045 72.1246 -26.9175 71.2161 -26.573 70.2631C-25.9505 68.5421 -23.875 66.4801 -22.8075 66.5221C-22.501 66.5341 -21.35 66.8601 -20.25 67.2461ZM80.484 67.6251C80.463 68.4621 79.0835 70.2501 78.731 69.8976C78.2165 69.3831 79.0995 67.0001 79.804 67.0001C80.187 67.0001 80.493 67.2816 80.484 67.6251ZM73.3375 68.8751C72.8435 69.9066 71.714 72.1226 70.828 73.8001C69.481 76.3496 69.3645 76.8111 70.1165 76.6146C70.611 76.4851 71.132 76.1916 71.274 75.9616C71.416 75.7316 71.8625 75.6706 72.266 75.8256C72.6695 75.9801 73 75.8441 73 75.5226C73 75.2011 73.571 73.7311 74.269 72.2561C75.129 70.4381 75.4335 69.1596 75.2145 68.2871C74.7775 66.5451 74.3965 66.6646 73.3375 68.8751ZM65.25 68.5001C65.08 68.7751 64.617 69.0001 64.2205 69.0001C63.824 69.0001 63.5 68.7751 63.5 68.5001C63.5 68.2251 63.9635 68.0001 64.5295 68.0001C65.0955 68.0001 65.42 68.2251 65.25 68.5001ZM-24.1015 68.8751C-25.2685 70.2246 -26.1055 73.0946 -25.5065 73.6936C-25.228 73.9721 -25 74.6746 -25 75.2546C-25 75.8346 -24.6695 76.7456 -24.266 77.2796C-23.58 78.1866 -23.5285 78.1196 -23.484 76.2501C-23.4175 73.4531 -22.6995 75.3341 -22.3315 79.2696C-22.1785 80.9086 -22.041 82.2991 -22.0265 82.3596C-22.012 82.4196 -21.6625 82.3391 -21.25 82.1811C-20.775 81.9986 -20.5 82.1876 -20.5 82.6966C-20.5 83.1386 -20.058 83.9421 -19.518 84.4821C-18.97 85.0301 -18.7495 85.5951 -19.018 85.7616C-19.983 86.3576 -19.4975 87.5001 -18.2795 87.5001C-17.608 87.5001 -16.92 87.7251 -16.75 88.0001C-16.58 88.2751 -16.1255 88.5001 -15.74 88.5001C-14.586 88.5001 -13.8525 84.6501 -14.2005 80.4206C-14.6465 75.0056 -16.542 71.1101 -19.766 68.9846C-21.607 67.7711 -23.114 67.7331 -24.1015 68.8751ZM188.891 70.0766C189.192 70.8061 189.677 71.5506 189.969 71.7311C190.261 71.9116 190.5 72.3036 190.5 72.6026C190.5 72.9016 189.925 72.5266 189.224 71.7691C188.522 71.0116 188.036 70.0226 188.145 69.5711C188.292 68.9576 188.481 69.0851 188.891 70.0766ZM176.25 70.5001C176.08 70.7751 175.716 71.0001 175.441 71.0001C175.166 71.0001 175.08 70.7751 175.25 70.5001C175.42 70.2251 175.784 70.0001 176.059 70.0001C176.334 70.0001 176.42 70.2251 176.25 70.5001ZM-22.25 71.0001C-22.42 71.2751 -22.658 71.5001 -22.7795 71.5001C-22.901 71.5001 -23 71.2751 -23 71.0001C-23 70.7251 -22.7615 70.5001 -22.4705 70.5001C-22.1795 70.5001 -22.08 70.7251 -22.25 71.0001ZM107.538 72.4616C111.271 76.1936 107.749 85.4901 102.6 85.4981C101.968 85.4991 100.797 85.1621 99.9985 84.7491C96.2165 82.7936 97.545 74.0541 101.973 71.7641C104.215 70.6046 105.891 70.8146 107.538 72.4616ZM65.5 71.9411C65.5 72.2161 65.275 72.5801 65 72.7501C64.725 72.9201 64.5 72.8341 64.5 72.5591C64.5 72.2841 64.725 71.9201 65 71.7501C65.275 71.5801 65.5 71.6661 65.5 71.9411ZM-27.9735 73.8751C-27.905 76.1551 -26.5695 81.9896 -25.6385 84.0746C-24.3965 86.8566 -21.133 90.2626 -19.3895 90.5956C-18.2365 90.8161 -16.5 90.0581 -16.5 89.3341C-16.5 89.1661 -17.231 88.8406 -18.125 88.6106C-19.1485 88.3471 -19.9915 87.6941 -20.4025 86.8461C-20.761 86.1061 -21.359 85.5001 -21.7305 85.5001C-22.376 85.5001 -25.0235 79.7491 -25.691 76.8971C-26.2395 74.5561 -26.9565 73.0001 -27.4875 73.0001C-27.7695 73.0001 -27.988 73.3941 -27.9735 73.8751ZM101.93 74.6251C100.956 75.4256 99.8535 78.9391 100.077 80.5271C100.219 81.5346 100.572 81.7771 102.077 81.9026C103.516 82.0221 104.075 81.8121 104.702 80.9161C105.934 79.1586 105.683 78.8496 103.25 79.1236C102.012 79.2631 101 79.2076 101 79.0001C101 78.2156 102.49 77.4296 103.418 77.7241C104.815 78.1676 105.418 75.6766 104.148 74.7126C103.025 73.8616 102.867 73.8556 101.93 74.6251ZM83.5 74.5001C83.5 74.7751 83.275 75.0001 83 75.0001C82.725 75.0001 82.5 74.7751 82.5 74.5001C82.5 74.2251 82.725 74.0001 83 74.0001C83.275 74.0001 83.5 74.2251 83.5 74.5001ZM196.839 75.0021C197.446 75.2471 198.395 76.4986 198.985 77.8336C200.412 81.0591 199.991 84.9551 197.933 87.5721C196.312 89.6326 196.173 90.2676 197.25 90.6811C197.663 90.8391 198 91.3131 198 91.7346C198 92.3061 197.442 92.5001 195.795 92.5001C193.946 92.5001 193.38 92.2516 192.295 90.9616C190.375 88.6801 190.471 84.7181 192.548 80.5631C193.789 78.0786 193.976 77.3231 193.492 76.7396C192.069 75.0261 194.18 73.9306 196.839 75.0021ZM87.0935 76.3416C86.733 76.4861 86.3015 76.4681 86.1355 76.3021C85.9695 76.1361 86.2645 76.0181 86.7915 76.0396C87.374 76.0636 87.4925 76.1821 87.0935 76.3416ZM122.25 77.6551C123.35 77.9461 124.338 78.2496 124.445 78.3291C124.553 78.4091 123.321 80.2236 121.708 82.3621C118.051 87.2101 116.053 90.1611 114.014 93.7246C112.561 96.2641 111.049 97.6861 109.751 97.7326C109.476 97.7421 109.229 98.0876 109.202 98.5001C109.062 100.61 109.013 100.713 108.411 100.111C107.958 99.6581 108.613 97.9801 111.23 92.8856C113.104 89.2361 114.944 85.8951 115.318 85.4606C116.116 84.5366 116.192 84.0001 115.524 84.0001C114.849 84.0001 110.775 90.4301 108.34 95.3411C107.205 97.6286 105.99 99.5001 105.639 99.5001C104.654 99.5001 104.851 98.7391 106.844 94.8491C110.934 86.8701 118.162 76.8806 119.714 77.0631C120.009 77.0981 121.15 77.3646 122.25 77.6551ZM159.5 77.7501C159.5 77.8876 159.388 78.0001 159.25 78.0001C159.112 78.0001 159 77.8876 159 77.7501C159 77.6126 159.112 77.5001 159.25 77.5001C159.388 77.5001 159.5 77.6126 159.5 77.7501ZM81.364 80.0001C81.364 81.2376 81.2665 81.7441 81.147 81.1251C81.028 80.5061 81.028 79.4941 81.147 78.8751C81.2665 78.2561 81.364 78.7626 81.364 80.0001ZM194.905 82.5491C194.887 83.4846 194.584 84.5876 194.232 85.0001C193.415 85.9581 193.102 87.9096 193.734 88.1026C194.708 88.3991 196.483 84.3196 196.492 81.7681C196.499 79.5176 196.427 79.3586 195.718 80.0671C195.289 80.4966 194.923 81.6136 194.905 82.5491ZM112.5 79.7501C112.5 79.8876 112.387 80.0001 112.25 80.0001C112.113 80.0001 112 79.8876 112 79.7501C112 79.6126 112.113 79.5001 112.25 79.5001C112.387 79.5001 112.5 79.6126 112.5 79.7501ZM33 83.0001C33.5675 83.3671 33.3475 83.4866 32.0955 83.4926C31.118 83.4971 30.5675 83.2956 30.75 83.0001C31.138 82.3721 32.028 82.3721 33 83.0001ZM76.0935 83.3416C75.733 83.4861 75.3015 83.4681 75.1355 83.3021C74.9695 83.1361 75.2645 83.0181 75.7915 83.0396C76.374 83.0636 76.4925 83.1821 76.0935 83.3416ZM135.46 84.2916C135.436 84.8741 135.318 84.9926 135.158 84.5941C135.014 84.2331 135.032 83.8016 135.198 83.6356C135.364 83.4696 135.482 83.7646 135.46 84.2916ZM117.167 84.3336C117.35 84.5166 117.5 84.3666 117.5 84.0001C117.5 83.6336 117.35 83.4836 117.167 83.6666C116.984 83.8501 116.984 84.1501 117.167 84.3336ZM-22 83.7501C-22 83.8876 -21.8875 84.0001 -21.75 84.0001C-21.6125 84.0001 -21.5 83.8876 -21.5 83.7501C-21.5 83.6126 -21.6125 83.5001 -21.75 83.5001C-21.8875 83.5001 -22 83.6126 -22 83.7501ZM160.627 86.0431C165.031 87.0811 169.272 90.1026 171.951 94.1121C175.44 99.3326 176.448 102.621 177.77 113.095C178.028 115.144 177.495 115.783 176.146 115.044C175.653 114.774 174.122 114.204 172.744 113.776C169.883 112.889 167.5 110.928 167.5 109.46C167.5 106.748 163.717 101.761 160 99.5741C158.04 98.4206 157.202 98.2506 153.5 98.2551C149.785 98.2596 148.874 98.4486 146.267 99.7551C142.862 101.462 137.705 106.06 135.452 109.4C133.445 112.372 130.566 118.605 129.747 121.75C127.08 131.982 129.345 142.122 135.544 147.695C140.374 152.038 147.398 152.125 153.863 147.922L156.977 145.898L159.113 146.67C164.677 148.681 165.76 149.094 165.936 149.269C166.04 149.373 164.18 151.36 161.803 153.684C158.347 157.063 156.521 158.393 152.673 160.329C148.003 162.68 147.717 162.755 142.792 162.918C138.287 163.066 137.414 162.949 134.985 161.867C129.469 159.411 124.767 154.17 122.542 148C118.223 136.023 119.684 122.632 126.909 108C130.09 101.557 130.492 100.998 135.746 95.6876C140.403 90.9816 141.849 89.8416 145.136 88.2846C150.546 85.7226 155.95 84.9406 160.627 86.0431ZM138.5 86.7501C138.5 86.8876 138.387 87.0001 138.25 87.0001C138.113 87.0001 138 86.8876 138 86.7501C138 86.6126 138.113 86.5001 138.25 86.5001C138.387 86.5001 138.5 86.6126 138.5 86.7501ZM81.6875 88.0626C82.169 90.4706 82.043 97.1601 81.5 98.0001C81.1725 98.5071 81.013 96.7646 81.0075 92.6251C81.0035 89.2561 81.0845 86.5001 81.1875 86.5001C81.2905 86.5001 81.5155 87.2031 81.6875 88.0626ZM148.234 88.7736C143.975 90.7571 137.514 95.9771 134.622 99.7711C134.002 100.585 132.916 101.979 132.208 102.869C130.554 104.95 126 113.8 126 114.934C126 115.41 125.808 116.014 125.574 116.275C124.968 116.951 123.5 122.555 123.5 124.191C123.5 124.947 123.261 126.012 122.97 126.556C122.255 127.892 122.249 134.194 122.956 140.033C123.515 144.651 125.632 151.125 127.114 152.745C127.464 153.128 128.312 154.219 129 155.171C131.858 159.126 136.835 161.167 143.022 160.92C146.908 160.766 147.689 160.551 151.638 158.558C155.402 156.657 161.958 151.765 162.397 150.53C162.638 149.855 159.837 149.104 158.679 149.532C157.788 149.862 157.654 149.769 157.865 148.963C158.185 147.736 157.295 147.725 155.577 148.935C149.879 152.949 142.345 153.928 137.59 151.273C136.853 150.862 135.912 150.388 135.5 150.22C134.46 149.797 130.852 145.141 129.82 142.889C128.057 139.044 126.992 133.54 127.24 129.552C127.369 127.461 127.516 125.638 127.566 125.5C127.615 125.363 127.719 124.688 127.796 124C128.092 121.342 128.896 118.651 130.111 116.25C130.807 114.875 132.083 112.335 132.945 110.605C135.322 105.834 142.944 98.7136 146.637 97.8131C147.401 97.6271 148.413 97.0866 148.887 96.6126C149.616 95.8841 150.42 95.7901 154.057 96.0091C157.966 96.2441 158.618 96.4366 161.118 98.0966C162.632 99.1021 164.675 100.906 165.657 102.104C167.35 104.171 169.5 108.402 169.5 109.67C169.5 109.992 170.231 110.564 171.125 110.94C172.019 111.317 173.406 111.935 174.206 112.315C175.007 112.694 175.75 112.917 175.856 112.81C176.226 112.44 174.501 103.74 173.614 101.5C171.206 95.4251 167.919 91.3146 163.893 89.3436C160.337 87.6031 159.936 87.5311 154.734 87.7016C151.651 87.8026 149.589 88.1426 148.234 88.7736ZM78.384 90.0001C78.384 90.9626 78.281 91.3561 78.1555 90.8751C78.0295 90.3941 78.0295 89.6061 78.1555 89.1251C78.281 88.6441 78.384 89.0376 78.384 90.0001ZM-26 89.0001C-26 89.3666 -26.15 89.5166 -26.3335 89.3336C-26.5165 89.1501 -26.5165 88.8501 -26.3335 88.6666C-26.15 88.4836 -26 88.6336 -26 89.0001ZM193.5 89.2501C193.5 89.3876 193.612 89.5001 193.75 89.5001C193.888 89.5001 194 89.3876 194 89.2501C194 89.1126 193.888 89.0001 193.75 89.0001C193.612 89.0001 193.5 89.1126 193.5 89.2501ZM145.384 93.5001C145.384 94.4626 145.281 94.8561 145.156 94.3751C145.03 93.8941 145.03 93.1061 145.156 92.6251C145.281 92.1441 145.384 92.5376 145.384 93.5001ZM118.5 92.5001C118.5 92.8666 118.35 93.0166 118.167 92.8336C117.984 92.6501 117.984 92.3501 118.167 92.1666C118.35 91.9836 118.5 92.1336 118.5 92.5001ZM146.96 93.2916C146.936 93.8741 146.818 93.9926 146.658 93.5941C146.514 93.2331 146.532 92.8016 146.698 92.6356C146.864 92.4696 146.982 92.7646 146.96 93.2916ZM192.334 94.8336C192.15 95.0166 191.85 95.0166 191.666 94.8336C191.483 94.6501 191.633 94.5001 192 94.5001C192.367 94.5001 192.517 94.6501 192.334 94.8336ZM141.5 95.2501C141.5 95.3876 141.387 95.5001 141.25 95.5001C141.113 95.5001 141 95.3876 141 95.2501C141 95.1126 141.113 95.0001 141.25 95.0001C141.387 95.0001 141.5 95.1126 141.5 95.2501ZM199.46 99.0841C199.482 101.193 199.636 103.274 199.803 103.709C199.97 104.144 199.904 104.5 199.657 104.5C198.832 104.5 198.153 98.1021 198.819 96.6021C199.354 95.3971 199.423 95.6666 199.46 99.0841ZM144 95.7501C144 95.8876 143.887 96.0001 143.75 96.0001C143.613 96.0001 143.5 95.8876 143.5 95.7501C143.5 95.6126 143.613 95.5001 143.75 95.5001C143.887 95.5001 144 95.6126 144 95.7501ZM168.5 96.7501C168.5 96.8876 168.388 97.0001 168.25 97.0001C168.112 97.0001 168 96.8876 168 96.7501C168 96.6126 168.112 96.5001 168.25 96.5001C168.388 96.5001 168.5 96.6126 168.5 96.7501ZM169.25 99.5001C169.42 99.7751 169.452 100 169.321 100C169.189 100 168.726 100.137 168.291 100.304C167.772 100.503 167.5 100.331 167.5 99.8036C167.5 98.9216 168.757 98.7036 169.25 99.5001ZM113.333 99.3336C113.15 99.5166 112.85 99.5166 112.667 99.3336C112.484 99.1501 112.633 99.0001 113 99.0001C113.367 99.0001 113.516 99.1501 113.333 99.3336ZM180.166 101.334C180.35 101.517 180.5 101.367 180.5 101C180.5 100.634 180.35 100.484 180.166 100.667C179.983 100.85 179.983 101.15 180.166 101.334ZM170 101.25C170 101.388 169.888 101.5 169.75 101.5C169.612 101.5 169.5 101.388 169.5 101.25C169.5 101.113 169.612 101 169.75 101C169.888 101 170 101.113 170 101.25ZM104.775 101.422C105.036 101.654 106.529 102.349 108.092 102.967C110.358 103.862 111.042 104.399 111.467 105.619C112.287 107.971 112.113 109.938 110.75 113.752C108.593 119.789 106.06 121.018 99.8 119.065C97.3915 118.313 96.684 117.832 95.946 116.447C94.822 114.338 94.7615 111.379 95.7805 108.388C96.35 106.716 97.3525 105.409 99.491 103.549C102.305 101.101 103.756 100.517 104.775 101.422ZM118 102.5C117.021 103.132 116 103.132 116 102.5C116 102.225 116.619 102.004 117.375 102.008C118.447 102.014 118.585 102.123 118 102.5ZM94.5 102.721C94.5 103.117 94.296 103.567 94.0465 103.721C93.7975 103.876 93.711 103.551 93.855 103.001C94.1605 101.833 94.5 101.686 94.5 102.721ZM170.98 103.226C171.621 103.998 171.25 106 170.466 106C170.21 106 170 105.569 170 105.041C170 104.514 169.864 103.726 169.697 103.291C169.316 102.3 170.175 102.256 170.98 103.226ZM134.5 103.25C134.5 103.388 134.387 103.5 134.25 103.5C134.113 103.5 134 103.388 134 103.25C134 103.113 134.113 103 134.25 103C134.387 103 134.5 103.113 134.5 103.25ZM181.159 104.594C181.318 104.993 181.437 104.874 181.461 104.292C181.482 103.765 181.364 103.47 181.198 103.636C181.032 103.802 181.014 104.233 181.159 104.594ZM125.5 104.25C125.5 104.388 125.387 104.5 125.25 104.5C125.113 104.5 125 104.388 125 104.25C125 104.113 125.113 104 125.25 104C125.387 104 125.5 104.113 125.5 104.25ZM123.681 104.75C123.507 105.202 122.769 105.494 121.822 105.484C120.332 105.469 120.301 105.43 121.221 104.734C122.517 103.754 124.06 103.764 123.681 104.75ZM119.708 104.433C119.924 104.782 119.965 105.202 119.8 105.367C119.353 105.814 118.865 105.156 119.107 104.431C119.276 103.923 119.393 103.923 119.708 104.433ZM103.894 105.678C103.973 106.405 103.804 107 103.519 107C103.233 107 103 106.438 103 105.75C103 105.063 102.849 104.5 102.665 104.5C101.847 104.5 100.5 106.26 100.5 107.328C100.5 107.973 100.275 108.5 100 108.5C99.725 108.5 99.5 108.163 99.5 107.75C99.5 107.338 99.275 107 99 107C98.725 107 98.5 107.45 98.5 108C98.5 108.55 98.744 109 99.0415 109C99.3395 109 99.48 109.282 99.354 109.625C99.228 109.969 98.88 110.197 98.5805 110.131C98.281 110.066 98.1675 110.355 98.3285 110.775C98.4895 111.194 98.251 111.947 97.7985 112.447C96.9185 113.419 97.189 115 98.236 115C99.1865 115 101.399 113.105 101.754 111.987C101.926 111.444 102.283 111 102.546 111C103.08 111 101.735 113.837 100.721 114.851C100.363 115.208 99.8115 115.5 99.494 115.5C98.3475 115.5 99.372 116.751 100.546 116.785C101.208 116.803 102.178 117.01 102.702 117.243C104.177 117.899 107.622 116.496 108.368 114.935C109.086 113.434 110.013 107.468 109.63 106.822C109.49 106.586 109.163 106.699 108.904 107.072C108.566 107.56 108.514 107.464 108.718 106.729C108.951 105.888 108.625 105.563 106.876 104.893C104.224 103.876 103.712 104.011 103.894 105.678ZM-28.543 105C-28.558 105.413 -28.7635 106.2 -29 106.75L-29.4295 107.75L-29.457 106.75C-29.4725 106.2 -29.2665 105.413 -29 105C-28.569 104.334 -28.5185 104.334 -28.543 105ZM132.484 105.334C132.51 106.284 131.928 107.5 131.447 107.5C130.791 107.5 130.9 106.823 131.734 105.721C132.138 105.187 132.475 105.013 132.484 105.334ZM147.111 106.279C146.5 106.707 146 107.355 146 107.72C146 108.085 145.55 108.501 145 108.645C144.057 108.892 143.538 110.5 144.402 110.5C144.797 110.5 147.166 108.094 148.462 106.375C149.28 105.291 148.592 105.241 147.111 106.279ZM124.648 106.335C124.824 106.62 124.645 107.28 124.25 107.802C123.478 108.822 123.337 108.347 123.949 106.783C124.168 106.226 124.463 106.036 124.648 106.335ZM81.4925 114.042C81.4875 119.221 81.3155 121.983 81.026 121.525C80.511 120.711 80.6355 106.698 81.1625 106.171C81.348 105.985 81.4965 109.527 81.4925 114.042ZM121.801 107.25C122.531 107.803 122.577 107.97 122 107.977C120.932 107.988 119.795 107.186 120.373 106.829C120.637 106.666 121.279 106.855 121.801 107.25ZM181.659 108.094C181.818 108.493 181.937 108.374 181.961 107.792C181.982 107.265 181.864 106.97 181.698 107.136C181.532 107.302 181.514 107.733 181.659 108.094ZM172 107.25C172 107.388 171.888 107.5 171.75 107.5C171.612 107.5 171.5 107.388 171.5 107.25C171.5 107.113 171.612 107 171.75 107C171.888 107 172 107.113 172 107.25ZM158.619 107.354C157.997 107.473 157.097 107.469 156.619 107.344C156.141 107.219 156.65 107.121 157.75 107.126C158.85 107.132 159.241 107.234 158.619 107.354ZM173.217 108.948C173.37 109.194 173.126 109.537 172.675 109.71C171.702 110.083 171.271 109.775 171.729 109.034C172.132 108.383 172.843 108.342 173.217 108.948ZM104.25 109C104.08 109.275 103.828 109.5 103.691 109.5C103.553 109.5 103.58 109.275 103.75 109C103.92 108.725 104.172 108.5 104.309 108.5C104.447 108.5 104.42 108.725 104.25 109ZM181.669 111.125C181.807 111.469 181.921 111.188 181.921 110.5C181.921 109.813 181.807 109.532 181.669 109.875C181.53 110.219 181.53 110.782 181.669 111.125ZM29.082 109.972C30.0895 110.168 31.488 110.705 32.1895 111.165C32.891 111.624 33.888 112 34.4055 112C35.262 112 37.377 112.825 39.618 114.032C40.0955 114.29 40.803 114.5 41.1895 114.5C41.861 114.5 42.5 115.515 42.5 116.581C42.5 117.166 39.5655 116.639 38.6305 115.886C38.29 115.611 38.153 115.157 38.3265 114.876C38.526 114.554 38.063 114.451 37.071 114.596C35.961 114.759 35.5 114.626 35.5 114.141C35.5 113.632 35.063 113.537 33.8075 113.772C32.7875 113.964 31.9805 113.873 31.778 113.545C31.5925 113.245 30.9765 113 30.4095 113C29.578 113 29.491 112.863 29.963 112.295C30.4115 111.755 30.408 111.502 29.9485 111.218C29.6055 111.007 29.073 111.224 28.706 111.726C28.12 112.527 27.8755 112.542 25.938 111.896C24.769 111.507 23.7235 110.921 23.6145 110.594C23.3755 109.876 25.3115 109.791 25.75 110.5C25.92 110.775 26.552 110.993 27.1545 110.984C28.2255 110.969 28.228 110.952 27.2795 110.234C26.234 109.444 26.3115 109.432 29.082 109.972ZM141.822 110.75C141.409 111.163 140.718 111.5 140.286 111.5C139.854 111.5 139.5 111.73 139.5 112.01C139.5 112.462 140.853 112.347 142.875 111.724C143.594 111.503 143.734 110 143.036 110C142.781 110 142.234 110.338 141.822 110.75ZM131.5 110.471C131.5 110.73 131.275 111.08 131 111.25C130.725 111.42 130.5 111.208 130.5 110.78C130.5 110.351 130.725 110 131 110C131.275 110 131.5 110.212 131.5 110.471ZM47.0415 116.371C49.9895 117.542 50.3335 117.823 50.3335 119.062C50.3335 120.264 50.209 120.38 49.3885 119.941C48.8685 119.662 48.3195 119.112 48.1685 118.718C48.017 118.323 47.249 118 46.462 118C45.396 118 45.1045 117.809 45.319 117.25C45.4955 116.791 45.319 116.5 44.8645 116.5C44.4565 116.5 43.8425 116.163 43.5 115.75C42.6655 114.745 43.1705 114.833 47.0415 116.371ZM114.361 117.561C114.669 117.87 114.803 118.432 114.658 118.811C114.46 119.327 114.903 119.5 116.417 119.5C118.226 119.5 119.494 120.173 118.867 120.8C118.348 121.319 113.878 119.706 113.41 118.831C112.807 117.705 113.534 116.734 114.361 117.561ZM154.85 118.082C155.73 118.321 156.587 118.738 156.755 119.008C156.922 119.279 157.584 119.5 158.226 119.5C158.868 119.5 159.522 119.838 159.681 120.25C159.839 120.663 160.285 121 160.673 121C161.06 121 161.67 121.352 162.026 121.782C162.597 122.469 162.499 122.521 161.213 122.215C160.408 122.024 158.604 121.335 157.202 120.684C155.8 120.033 154.422 119.5 154.138 119.5C153.43 119.5 152.357 118.141 152.85 117.868C153.07 117.747 153.97 117.843 154.85 118.082ZM196.834 119.834C196.65 120.017 196.35 120.017 196.166 119.834C195.983 119.65 196.133 119.5 196.5 119.5C196.866 119.5 197.017 119.65 196.834 119.834ZM147.486 120.981C147.89 121.237 149.803 121.931 151.736 122.523C157.105 124.168 170.274 128.646 172.25 129.499C172.8 129.736 174.15 130.194 175.25 130.516C180.715 132.115 188.597 135.246 188.985 135.972C189.242 136.452 189.215 137.767 188.921 139.146C188.456 141.325 188.306 141.5 186.9 141.5C185.318 141.5 171.181 136.928 169 135.711C167.718 134.996 164.603 133.838 161.5 132.923C160.537 132.639 159.536 132.203 159.275 131.954C159.014 131.704 158.311 131.5 157.714 131.5C157.116 131.5 155.643 131.081 154.439 130.568C153.235 130.055 151.8 129.448 151.25 129.219C150.7 128.99 148.9 128.454 147.25 128.027C144.446 127.301 144.24 127.148 144.097 125.676C143.913 123.787 145.188 120.497 146.1 120.508C146.458 120.512 147.081 120.725 147.486 120.981ZM99.1365 121.125C99.2575 121.469 99.172 122.249 98.947 122.859C98.7215 123.468 98.296 126.339 98.001 129.238C97.7065 132.138 97.3365 134.845 97.179 135.255C97.0215 135.665 97.106 136 97.366 136C98.0195 136 99 133.718 99 132.197C99 131.481 99.2165 131.075 99.5035 131.252C100.073 131.605 100.061 131.639 101.293 126.375C101.792 124.244 102.38 122.5 102.6 122.5C103.105 122.5 103.116 122.314 102.256 128.25C101.857 131 101.525 134.306 101.516 135.596C101.507 136.886 101.292 138.07 101.038 138.227C100.783 138.384 99.4895 138.084 98.1625 137.559C96.0335 136.718 95.757 136.438 95.8095 135.178C96.1955 125.923 98.0575 118.058 99.1365 121.125ZM80.9605 123.292C80.9365 123.874 80.818 123.993 80.6585 123.594C80.514 123.233 80.532 122.802 80.698 122.636C80.864 122.47 80.982 122.765 80.9605 123.292ZM145.533 124.693C146.074 125.217 148.682 125.192 148.861 124.661C149.088 123.986 146.497 123.514 145.783 124.1C145.526 124.311 145.414 124.578 145.533 124.693ZM107.27 124.534C107.452 124.827 107.475 125.192 107.322 125.345C106.91 125.757 105.5 125.115 105.5 124.516C105.5 123.837 106.848 123.851 107.27 124.534ZM100.5 124.5C100.5 124.867 100.35 125.017 100.167 124.834C99.9835 124.65 99.9835 124.35 100.167 124.167C100.35 123.984 100.5 124.134 100.5 124.5ZM171.625 124.831C171.281 124.97 170.718 124.97 170.375 124.831C170.031 124.693 170.312 124.579 171 124.579C171.688 124.579 171.968 124.693 171.625 124.831ZM177 125.5C177 125.867 176.85 126.017 176.666 125.834C176.483 125.65 176.483 125.35 176.666 125.167C176.85 124.984 177 125.134 177 125.5ZM153.505 126.824C155.882 127.823 157.026 127.605 155.018 126.536C154.065 126.029 152.973 125.734 152.591 125.88C152.144 126.052 152.468 126.387 153.505 126.824ZM183.25 127C181.868 127.594 181 127.594 181 127C181 126.725 181.732 126.516 182.625 126.535C183.987 126.565 184.088 126.64 183.25 127ZM114.875 127.169C116.802 127.546 117.5 127.907 117.5 128.527C117.5 129.262 117.192 129.315 115.125 128.935C112.241 128.406 110 127.534 110 126.94C110 126.414 111.341 126.477 114.875 127.169ZM180 127.5C180 128.127 179.47 128.127 178.5 127.5C177.894 127.108 177.965 127.014 178.875 127.008C179.494 127.004 180 127.225 180 127.5ZM81.384 129C81.384 129.963 81.281 130.356 81.1555 129.875C81.0295 129.394 81.0295 128.606 81.1555 128.125C81.281 127.644 81.384 128.038 81.384 129ZM2.99249 129.125C2.98599 130.035 2.892 130.107 2.5 129.5C1.8735 128.531 1.8735 128 2.5 128C2.77499 128 2.99649 128.506 2.99249 129.125ZM198.75 129C198.58 129.275 198.104 129.5 197.691 129.5C197.279 129.5 197.08 129.275 197.25 129C197.42 128.725 197.896 128.5 198.309 128.5C198.721 128.5 198.92 128.725 198.75 129ZM195.021 129.81C194.164 130.53 193.129 131.768 192.719 132.56C191.757 134.421 190.783 134.463 191.214 132.625C191.612 130.925 194.159 128.5 195.547 128.5C196.453 128.5 196.39 128.657 195.021 129.81ZM188.902 129.292C189.811 129.695 190.823 129.876 191.152 129.692C191.481 129.509 191.352 129.78 190.867 130.295C190.129 131.077 189.821 131.129 188.998 130.615C188.457 130.277 187.28 129.997 186.382 129.993C184.541 129.984 182.483 129.027 184.25 129.001C184.8 128.993 185.7 128.89 186.25 128.772C186.8 128.654 187.993 128.888 188.902 129.292ZM162.705 129.429C162.874 129.701 163.74 130.067 164.631 130.243C166.869 130.685 169 131.545 169 132.007C169 132.469 172.694 134 173.81 134C174.243 134 175.308 134.306 176.174 134.68C179.494 136.113 183.605 137.096 184.12 136.58C184.463 136.237 183.918 135.891 182.438 135.513C181.235 135.204 179.196 134.513 177.908 133.976C176.619 133.439 174.978 133 174.262 133C173.546 133 172.013 132.506 170.855 131.902C168.734 130.796 162.9 128.629 162.575 128.827C162.478 128.886 162.537 129.156 162.705 129.429ZM206.834 131.334C206.65 131.517 206.35 131.517 206.166 131.334C205.983 131.15 206.134 131 206.5 131C206.866 131 207.017 131.15 206.834 131.334ZM203.125 132.831C202.781 132.97 202.219 132.97 201.875 132.831C201.531 132.693 201.812 132.579 202.5 132.579C203.188 132.579 203.469 132.693 203.125 132.831ZM203.922 136.765C204.515 137.519 205.024 138.611 205.053 139.193C205.171 141.546 204.883 143.308 204.21 144.358C203.819 144.967 203.5 145.803 203.5 146.215C203.5 147.291 201.804 148.104 201.076 147.377C200.153 146.454 200.405 145.522 201.741 144.914C203.966 143.9 204.472 138.997 202.516 137.413C201.041 136.218 200.457 136.656 201.133 138.448C201.86 140.374 200.452 144.136 198.451 145.616C196.451 147.095 196.58 148 198.791 148C200.924 148 200.936 149.16 198.806 149.411C196.99 149.626 196.248 148.922 195.508 146.281C194.325 142.056 197.35 136.267 201.047 135.68C202.587 135.436 202.998 135.591 203.922 136.765ZM195 136.78C195 137.208 194.771 137.418 194.492 137.245C194.212 137.072 194.113 136.722 194.271 136.466C194.7 135.772 195 135.901 195 136.78ZM184.666 138.834C184.85 139.017 185.15 139.017 185.334 138.834C185.517 138.65 185.367 138.5 185 138.5C184.633 138.5 184.483 138.65 184.666 138.834ZM96.125 138.787C96.3315 138.996 96.5 140.89 96.5 142.996C96.5 146.595 97.66 156.033 98.311 157.729C98.474 158.153 98.3525 158.5 98.041 158.5C97.1795 158.5 96.7075 156.805 95.7405 150.232C95.0845 145.774 94.971 143.46 95.3025 141.31C95.5485 139.714 95.9185 138.578 96.125 138.787ZM137.5 139.75C137.5 139.888 137.613 140 137.75 140C137.887 140 138 139.888 138 139.75C138 139.613 137.887 139.5 137.75 139.5C137.613 139.5 137.5 139.613 137.5 139.75ZM198.9 141.6C199.367 142.067 199.5 141.934 199.5 141C199.5 140.067 199.367 139.934 198.9 140.4C198.434 140.867 198.434 141.134 198.9 141.6ZM100.238 140.625C100.351 140.969 100.565 143.838 100.714 147C100.863 150.163 101.124 153.821 101.294 155.129C101.552 157.123 101.479 157.461 100.846 157.218C99.9025 156.856 99.0345 152.103 98.64 145.136C98.38 140.542 98.438 140 99.1905 140C99.653 140 100.124 140.282 100.238 140.625ZM29.5 140.75C29.5 140.888 29.3875 141 29.25 141C29.1125 141 29 140.888 29 140.75C29 140.613 29.1125 140.5 29.25 140.5C29.3875 140.5 29.5 140.613 29.5 140.75ZM188.772 145.225C188.961 146.483 189.287 147.618 189.496 147.748C190.068 148.101 189.318 151.144 188.601 151.383C188.198 151.518 187.983 151.088 187.993 150.171C188.013 148.363 187.684 145.979 187.273 144.955C187.096 144.514 187.283 143.888 187.692 143.549C188.318 143.029 188.481 143.282 188.772 145.225ZM44 144.75C44 144.888 43.8875 145 43.75 145C43.6125 145 43.5 144.888 43.5 144.75C43.5 144.613 43.6125 144.5 43.75 144.5C43.8875 144.5 44 144.613 44 144.75ZM192 145.5C192 145.775 191.438 146 190.75 146C190.062 146 189.5 145.775 189.5 145.5C189.5 145.225 190.062 145 190.75 145C191.438 145 192 145.225 192 145.5ZM28.825 146.092C29.0585 146.454 29.475 147.112 29.75 147.554C31.36 150.141 33.0275 152.458 33.4795 152.738C34.281 153.233 34.0955 154.006 33.253 153.682C32.391 153.351 27.74 146.094 28.136 145.698C28.281 145.552 28.591 145.73 28.825 146.092ZM16.3335 146.334C16.15 146.517 15.85 146.517 15.6665 146.334C15.4835 146.15 15.6335 146 16 146C16.3665 146 16.5165 146.15 16.3335 146.334ZM128.5 150C128.5 150.275 128.262 150.5 127.971 150.5C127.68 150.5 127.58 150.275 127.75 150C127.92 149.725 128.158 149.5 128.279 149.5C128.401 149.5 128.5 149.725 128.5 150ZM163.665 157.383C158.779 162.225 158.713 162.804 163.5 158.818C165.912 156.809 169.973 151.912 169.982 151C169.986 150.588 169.391 151.038 168.66 152C167.929 152.963 165.681 155.385 163.665 157.383ZM-27.25 152C-27.08 152.275 -27.1795 152.5 -27.4705 152.5C-27.7615 152.5 -28 152.275 -28 152C-28 151.725 -27.901 151.5 -27.7795 151.5C-27.658 151.5 -27.42 151.725 -27.25 152ZM34.5 154.75C34.5 154.888 34.3875 155 34.25 155C34.1125 155 34 154.888 34 154.75C34 154.613 34.1125 154.5 34.25 154.5C34.3875 154.5 34.5 154.613 34.5 154.75ZM25.25 156.5C25.42 156.775 25.334 157 25.059 157C24.784 157 24.42 156.775 24.25 156.5C24.08 156.225 24.166 156 24.441 156C24.716 156 25.08 156.225 25.25 156.5ZM-25.0715 157.477C-23.608 158.729 -15.597 162.965 -12.75 163.993C-12.2 164.191 -10.675 164.837 -9.36151 165.427C-5.65102 167.094 -5.0265 166.784 -7.5 164.5C-8.6915 163.4 -9.75551 162.5 -9.86401 162.5C-9.97301 162.5 -11.229 161.97 -12.656 161.323C-14.0825 160.675 -16.15 159.895 -17.25 159.59C-18.35 159.285 -20.6 158.365 -22.25 157.547C-26.091 155.642 -27.2505 155.613 -25.0715 157.477ZM36.3335 156.834C36.15 157.017 35.85 157.017 35.6665 156.834C35.4835 156.65 35.6335 156.5 36 156.5C36.3665 156.5 36.5165 156.65 36.3335 156.834ZM197 159C197.451 159.291 197.513 159.488 197.155 159.493C196.827 159.497 196.42 159.275 196.25 159C195.867 158.379 196.039 158.379 197 159ZM184.906 159.25C184.416 160.801 181.769 165.5 181.385 165.5C181.136 165.5 181.397 164.847 181.966 164.048C182.535 163.249 183 162.262 183 161.853C183 161.445 183.464 160.58 184.032 159.931C184.6 159.281 184.993 158.975 184.906 159.25ZM109.311 160.223C110.17 160.594 111.238 161.421 111.686 162.06C112.874 163.757 112.701 168.153 111.314 171.5L110.176 174.25H107.894C106.46 174.25 105.266 174.562 104.68 175.09C102.933 176.665 101.115 177.062 99.237 176.277C95.9055 174.885 94.6375 170.58 96.1355 165.75C96.898 163.293 98.3995 161 99.2465 161C99.5935 161 100.158 160.663 100.5 160.25C101.302 159.284 102 159.291 102 160.266C102 161.399 103.257 161.678 104.585 160.84C106.457 159.658 107.646 159.503 109.311 160.223ZM194.798 161.078C195.019 161.435 194.935 161.519 194.577 161.298C194.001 160.942 193.803 160.5 194.22 160.5C194.342 160.5 194.602 160.76 194.798 161.078ZM193.927 162.319C196.086 164.938 196.261 166.202 194.843 168.931C193.576 171.37 192.385 172.218 189.5 172.733C187.918 173.015 187.666 172.895 186.875 171.482C185.722 169.424 185.768 166.916 187.001 164.499C189.222 160.146 191.535 159.418 193.927 162.319ZM105.452 162.858C104.256 163.565 104 164.05 104 165.608C104 166.656 103.753 167.5 103.447 167.5C103.106 167.5 102.966 166.751 103.082 165.54C103.257 163.712 103.173 163.566 101.842 163.37C100.719 163.205 100.324 163.399 99.9895 164.278C99.756 164.893 99.351 165.475 99.09 165.573C98.3795 165.838 97.762 173 98.4495 173C98.752 173 99.004 172.719 99.0085 172.375C99.0135 172.032 99.5495 171.246 100.201 170.629C101.191 169.69 101.477 169.62 101.96 170.203C102.415 170.751 102.269 171.11 101.269 171.896C99.7055 173.126 99.6715 173.501 101.125 173.497C103.095 173.491 107.5 169.849 107.5 168.224C107.5 167.826 107.725 167.5 108 167.5C108.574 167.5 108.604 167.809 108.185 169.375C108.019 169.994 107.572 170.5 107.191 170.5C106.812 170.5 106.5 170.838 106.5 171.25C106.5 171.673 106.947 172 107.525 172C108.561 172 109.511 170.372 110.291 167.265C110.595 166.053 110.521 165.885 109.803 166.16C109.078 166.439 109.002 166.244 109.275 164.793C109.525 163.461 109.397 162.988 108.671 162.566C107.422 161.84 107.13 161.867 105.452 162.858ZM108.266 163.025C108.741 163.794 108.09 164.29 107.448 163.648C107.089 163.289 107.08 163.01 107.422 162.799C107.702 162.626 108.082 162.728 108.266 163.025ZM189.582 164.625C188.66 166.126 188.252 170 189.016 170C189.445 170 193 165.891 193 165.395C193 165.178 192.689 165 192.309 165C191.928 165 191.499 164.55 191.355 164C191 162.642 190.746 162.732 189.582 164.625ZM165 164.28C165 164.708 164.771 164.918 164.492 164.745C164.212 164.572 164.113 164.222 164.271 163.966C164.7 163.272 165 163.401 165 164.28ZM167.5 164.25C167.5 164.388 167.388 164.5 167.25 164.5C167.112 164.5 167 164.388 167 164.25C167 164.113 167.112 164 167.25 164C167.388 164 167.5 164.113 167.5 164.25ZM191.5 166C191.5 166.275 191.275 166.5 191 166.5C190.725 166.5 190.5 166.275 190.5 166C190.5 165.725 190.725 165.5 191 165.5C191.275 165.5 191.5 165.725 191.5 166ZM180.248 166.996C180.686 168.375 179.95 169.498 179.449 168.217C179.24 167.685 179.055 166.969 179.035 166.625C178.979 165.623 179.902 165.905 180.248 166.996ZM183.421 168C183.421 168.688 183.307 168.969 183.169 168.625C183.03 168.282 183.03 167.719 183.169 167.375C183.307 167.032 183.421 167.313 183.421 168ZM176.897 169.284C178.127 170.145 177.95 171 176.543 171C175.799 171 175.591 171.575 175.334 174.334C174.922 178.738 173.357 181.147 169.843 182.783C168.417 183.447 166.744 183.993 166.125 183.995C164.839 184.001 164.637 182.924 165.75 182C166.201 181.626 166.5 180.532 166.5 179.252C166.5 172.202 172.648 166.308 176.897 169.284ZM156.25 169C156.08 169.275 155.716 169.5 155.441 169.5C155.166 169.5 155.08 169.275 155.25 169C155.42 168.725 155.784 168.5 156.059 168.5C156.334 168.5 156.42 168.725 156.25 169ZM103 169.5C103 169.867 102.85 170.017 102.667 169.834C102.484 169.65 102.484 169.35 102.667 169.167C102.85 168.984 103 169.134 103 169.5ZM171.598 172.831C169.834 174.595 167.752 180.83 169.073 180.396C170.191 180.028 173.682 172 172.724 172C172.562 172 172.055 172.374 171.598 172.831ZM81.6355 172.302C81.836 172.503 82 173.012 82 173.434C82 173.996 81.852 174.052 81.4435 173.644C81.138 173.338 80.9735 172.829 81.079 172.513C81.1845 172.197 81.435 172.102 81.6355 172.302ZM94 175C94 175.367 93.85 175.517 93.6665 175.334C93.4835 175.15 93.4835 174.85 93.6665 174.667C93.85 174.484 94 174.634 94 175ZM113.697 180.541C115.801 182.719 118.418 185.093 119.511 185.817C120.605 186.541 121.5 187.328 121.5 187.567C121.5 188.132 119.383 188.123 117.908 187.553C116.742 187.102 106.498 177.697 106.502 177.081C106.504 176.899 107.262 176.712 108.188 176.665C109.68 176.59 110.308 177.032 113.697 180.541ZM83 177C83 177.367 82.85 177.517 82.6665 177.334C82.4835 177.15 82.4835 176.85 82.6665 176.667C82.85 176.484 83 176.634 83 177ZM135.8 184.7C137.271 186.171 137.5 186.731 137.5 188.85C137.5 191.744 136.873 192.55 134.926 192.161C133.616 191.898 133.416 192.065 132.475 194.19C131.702 195.938 130.94 196.766 129.364 197.57C123.952 200.331 120.462 197.917 120.949 191.75C121.131 189.448 121.72 188.891 123.563 189.277C124.692 189.514 125.132 189.205 126.689 187.083C128.519 184.591 130.978 183 133.001 183C133.606 183 134.865 183.765 135.8 184.7ZM129.727 187.324C128.48 188.96 128.396 189.306 128.914 190.678C129.681 192.71 128.826 193.494 128.005 191.512C127.434 190.133 127.278 190.045 126.557 190.695C126.113 191.095 125.131 191.577 124.375 191.765C123.354 192.02 123 192.416 123 193.304C123 194.669 123.591 194.845 124.5 193.75C125.11 193.016 126.5 192.705 126.5 193.303C126.5 193.47 125.935 194.05 125.245 194.593C123.669 195.833 124.085 196.657 125.893 195.876C128.011 194.96 130.178 193.026 131.004 191.313C131.495 190.295 132.366 189.542 133.504 189.153C134.465 188.825 134.964 188.544 134.615 188.528C134.191 188.51 134.085 188.086 134.294 187.25C134.488 186.48 134.396 186 134.054 186C133.75 186 133.5 186.273 133.5 186.607C133.5 186.986 133.178 186.892 132.643 186.357C131.474 185.188 131.317 185.24 129.727 187.324ZM163 186.25C163 186.388 162.888 186.5 162.75 186.5C162.612 186.5 162.5 186.388 162.5 186.25C162.5 186.113 162.612 186 162.75 186C162.888 186 163 186.113 163 186.25ZM156 189C156 189.275 155.611 189.5 155.134 189.5C154.658 189.5 153.14 189.929 151.76 190.452C147.373 192.116 143.734 193 141.27 193C139.2 193 138.962 192.899 139.5 192.25C139.842 191.838 140.908 191.5 141.868 191.5C143.976 191.5 152.059 189.611 152.725 188.963C153.364 188.341 156 188.371 156 189ZM107.913 191.157C108.789 192.091 109 192.919 109 195.44C109 198.829 108.581 199.987 106.564 202.176C104.9 203.981 103.415 204.558 101.449 204.165C96.5105 203.177 97.243 194.569 102.551 191.218C104.968 189.693 106.52 189.675 107.913 191.157ZM107 192.721C107 192.842 107.225 193.08 107.5 193.25C107.775 193.42 108 193.321 108 193.03C108 192.739 107.775 192.5 107.5 192.5C107.225 192.5 107 192.599 107 192.721ZM102.068 194.406C101.517 195.179 100.912 196.427 100.723 197.18C100.396 198.483 100.449 198.533 101.814 198.204L103.25 197.859L102.125 199.087C100.828 200.502 100.716 201 101.693 201C102.603 201 104.252 198.491 104.076 197.375C104 196.894 104.177 196.5 104.469 196.5C105.046 196.5 105.21 193.877 104.667 193.334C103.984 192.651 103.039 193.041 102.068 194.406ZM106.667 199.834C106.85 200.017 107 199.867 107 199.5C107 199.134 106.85 198.984 106.667 199.167C106.484 199.35 106.484 199.65 106.667 199.834ZM95.218 200.647C95.03 201.14 94.7505 201.417 94.5965 201.263C94.4425 201.11 94.596 200.706 94.938 200.367C95.432 199.877 95.489 199.934 95.218 200.647ZM107.833 206.334C107.65 206.517 107.35 206.517 107.167 206.334C106.984 206.15 107.133 206 107.5 206C107.867 206 108.016 206.15 107.833 206.334ZM104.333 207.334C104.15 207.517 103.85 207.517 103.667 207.334C103.484 207.15 103.633 207 104 207C104.367 207 104.516 207.15 104.333 207.334Z" fill="#006098"/>
</svg>
