<svg width="50" height="50" viewBox="0 0 50 50" fill="none" xmlns="http://www.w3.org/2000/svg">
<path d="M24.9981 9.87109C20.2867 9.87109 16.4531 13.7047 16.4531 18.4161C16.4531 23.1275 20.2867 26.9611 24.9981 26.9611C29.7096 26.9611 33.5432 23.1275 33.5432 18.4161C33.5432 13.7047 29.7096 9.87109 24.9981 9.87109Z" fill="#B3F018"/>
<path d="M23.0787 39.0466L23.0328 39.0046L21.944 38.0193L19.3818 35.7012L16.5959 36.001L14.891 36.1836L14.4868 36.2275L13.1852 36.3672L9.08594 45.0782L15.434 45.1622L19.5429 49.9996L24.2144 40.0738L23.0787 39.0466Z" fill="#006098"/>
<path d="M36.8144 36.3672L35.5127 36.2275L35.1085 36.1846L33.4036 36.001L30.6177 35.7012L28.0555 38.0193L26.9667 39.0046L26.9208 39.0466L25.7852 40.0738L30.4566 49.9996L34.5655 45.1622L40.9136 45.0782L36.8144 36.3672Z" fill="#006098"/>
<path d="M39.9646 18.4162L42.5142 12.7254L37.1065 9.62012L35.8244 3.51719L29.6238 4.18311L24.9993 0L20.3748 4.1832L14.1742 3.51728L12.8921 9.62012L7.48438 12.7253L10.0339 18.4161L7.48438 24.1069L12.8921 27.2121L14.1742 33.315L14.6469 33.2643L16.3527 33.0807L18.0576 32.898L18.5146 32.8492H18.5156L20.3748 32.649L21.7731 33.9136L23.2486 35.2484L23.7086 35.6645L24.3843 36.2757L24.9994 36.8322L25.6145 36.2757L26.2902 35.6645L26.7502 35.2484L27.8976 34.2114L27.8985 34.2104L29.6239 32.6491L32.6373 32.9724H32.6383L32.9449 33.0056L33.646 33.0808H33.647L35.3519 33.2644L35.8245 33.3151L37.1066 27.2122L42.5144 24.107L39.9646 18.4162ZM24.9993 29.8906C18.6728 29.8906 13.5248 24.7437 13.5248 18.4161C13.5248 12.0896 18.6728 6.9416 24.9993 6.9416C31.3259 6.9416 36.4738 12.0896 36.4738 18.4161C36.4738 24.7437 31.3259 29.8906 24.9993 29.8906Z" fill="#006098"/>
</svg>
