<svg width="35" height="36" viewBox="0 0 35 36" fill="none" xmlns="http://www.w3.org/2000/svg">
<mask id="path-1-inside-1_1_362" fill="white">
<path d="M17.2527 6.99695C11.1856 6.99695 6.24961 11.9327 6.24961 18C6.24961 24.0673 11.1856 29.003 17.2527 29.003C23.3197 29.003 28.2557 24.0671 28.2557 18C28.2557 11.9329 23.3197 6.99695 17.2527 6.99695ZM17.2527 26.7531C15.5215 26.7531 13.8291 26.2398 12.3897 25.278C10.9502 24.3162 9.82832 22.9491 9.16582 21.3497C8.50331 19.7502 8.32997 17.9903 8.66771 16.2923C9.00546 14.5944 9.83911 13.0347 11.0633 11.8106C12.2874 10.5865 13.8471 9.7528 15.545 9.41505C17.2429 9.07731 19.0029 9.25065 20.6023 9.91316C22.2018 10.5757 23.5688 11.6976 24.5306 13.137C25.4924 14.5765 26.0058 16.2688 26.0058 18C26.0032 20.3207 25.0801 22.5455 23.4392 24.1865C21.7982 25.8275 19.5733 26.7505 17.2527 26.7531ZM34.3786 21.8933L33.227 18.1512C33.1922 18.0535 33.1922 17.9467 33.227 17.8489L34.3787 14.1069C34.5502 13.5634 34.5477 12.9799 34.3716 12.4379C34.1955 11.8959 33.8545 11.4224 33.3963 11.0836L30.265 8.73318C30.1793 8.67452 30.1165 8.5881 30.0872 8.4885L28.8195 4.78389C28.6388 4.24336 28.2939 3.77274 27.8328 3.43775C27.3717 3.10276 26.8175 2.92012 26.2476 2.91534L22.3327 2.85424C22.2289 2.85713 22.1274 2.82412 22.0452 2.7608L18.8421 0.509131C18.3783 0.177977 17.8225 -3.05176e-05 17.2526 -3.05176e-05C16.6826 -3.05176e-05 16.1269 0.177977 15.663 0.509131L12.4602 2.7608C12.3779 2.82412 12.2763 2.85712 12.1726 2.85424L8.25773 2.91534C7.68782 2.92012 7.13363 3.10276 6.67254 3.43775C6.21145 3.77274 5.86648 4.24336 5.6858 4.78389L4.41805 8.48829C4.38868 8.58784 4.32591 8.67422 4.2403 8.7329L1.10906 11.0833C0.650834 11.4221 0.309857 11.8956 0.133742 12.4376C-0.0423742 12.9796 -0.0448372 13.5631 0.126697 14.1066L1.2783 17.8488C1.31302 17.9465 1.31302 18.0533 1.2783 18.1511L0.126626 21.8932C-0.0449075 22.4367 -0.0424445 23.0201 0.133671 23.5622C0.309787 24.1042 0.650764 24.5776 1.10899 24.9165L4.2403 27.2668C4.32593 27.3255 4.3887 27.4119 4.41805 27.5114L5.6858 31.2161C5.86648 31.7566 6.21145 32.2273 6.67254 32.5622C7.13363 32.8972 7.68782 33.0799 8.25773 33.0847L12.1724 33.1458C12.2762 33.1429 12.3778 33.1758 12.4601 33.2391L15.6632 35.4909C16.127 35.822 16.6827 36 17.2527 36C17.8226 36 18.3783 35.822 18.8421 35.4909L22.0451 33.2392C22.1274 33.1759 22.229 33.1429 22.3327 33.1458L26.2476 33.0847C26.8175 33.0799 27.3717 32.8972 27.8328 32.5622C28.2939 32.2272 28.6388 31.7566 28.8194 31.216L30.0872 27.5117C30.1166 27.4122 30.1793 27.3258 30.2649 27.2671L33.3962 24.9167C33.8545 24.5779 34.1955 24.1044 34.3716 23.5623C34.5478 23.0203 34.5502 22.4368 34.3786 21.8933ZM32.0458 23.1173L28.9146 25.4677C28.4675 25.7967 28.1335 26.2563 27.9589 26.7832L26.691 30.4876C26.66 30.5896 26.5965 30.6787 26.5102 30.7414C26.4239 30.8041 26.3196 30.837 26.2129 30.835L22.2979 30.8961C21.7429 30.8995 21.2027 31.0751 20.7517 31.3986L17.5483 33.6502C17.4631 33.7145 17.3594 33.7493 17.2527 33.7493C17.146 33.7493 17.0422 33.7145 16.957 33.6502L13.7539 31.3984C13.3029 31.0749 12.7627 30.8994 12.2077 30.896L8.29281 30.835C8.18618 30.8369 8.08182 30.804 7.99555 30.7413C7.90927 30.6786 7.84579 30.5895 7.81471 30.4875L6.54695 26.7831C6.37227 26.2563 6.0383 25.7966 5.59116 25.4677L2.4595 23.1173C2.372 23.0562 2.30682 22.9682 2.27383 22.8667C2.24084 22.7652 2.24185 22.6557 2.2767 22.5549L3.42837 18.8128C3.59669 18.2839 3.59669 17.7158 3.42837 17.1869L2.2767 13.4448C2.24185 13.344 2.24084 13.2345 2.27383 13.133C2.30682 13.0315 2.372 12.9435 2.4595 12.8824L5.59081 10.532C6.03788 10.203 6.37179 9.74335 6.54646 9.21649L7.81429 5.51216C7.84537 5.41013 7.90885 5.32102 7.99512 5.25832C8.0814 5.19562 8.18576 5.16275 8.29239 5.16469L12.2071 5.10359C12.7623 5.10037 13.3028 4.92481 13.7539 4.60115L16.9574 2.34977C17.0425 2.28548 17.1463 2.2507 17.2529 2.2507C17.3596 2.2507 17.4634 2.28548 17.5485 2.34977L20.7513 4.60143C21.2023 4.925 21.7426 5.10056 22.2977 5.10387L26.2125 5.16497C26.3191 5.16304 26.4235 5.19592 26.5098 5.25862C26.596 5.32131 26.6595 5.41042 26.6906 5.51244L27.9584 9.2167C28.133 9.7436 28.467 10.2033 28.9141 10.5323L32.0458 12.8826C32.1333 12.9438 32.1985 13.0317 32.2315 13.1332C32.2645 13.2348 32.2635 13.3442 32.2286 13.4451L31.0769 17.1871C30.9086 17.7161 30.9086 18.2842 31.0769 18.8131L32.2286 22.5551C32.2634 22.6559 32.2644 22.7654 32.2314 22.8668C32.1984 22.9683 32.1333 23.0562 32.0458 23.1173ZM23.3555 14.0215C23.4554 14.1304 23.5327 14.2579 23.5833 14.3968C23.6338 14.5356 23.6565 14.683 23.6501 14.8306C23.6437 14.9782 23.6082 15.123 23.5458 15.2569C23.4834 15.3908 23.3952 15.5111 23.2863 15.6109L16.2634 22.0477C16.0559 22.2377 15.7847 22.343 15.5034 22.343C15.482 22.343 15.4607 22.3423 15.4394 22.3411C15.2893 22.3326 15.1425 22.2941 15.0076 22.2279C14.8727 22.1616 14.7525 22.0691 14.6539 21.9556L11.1304 17.8988C11.033 17.7873 10.9586 17.6577 10.9114 17.5174C10.8642 17.3772 10.8452 17.229 10.8553 17.0813C10.8655 16.9337 10.9047 16.7895 10.9707 16.657C11.0367 16.5245 11.1282 16.4064 11.24 16.3094C11.3517 16.2123 11.4815 16.1383 11.6219 16.0915C11.7623 16.0447 11.9106 16.026 12.0582 16.0366C12.2058 16.0472 12.3499 16.0869 12.4822 16.1532C12.6144 16.2196 12.7323 16.3114 12.8291 16.4234L15.595 19.6085L21.7661 13.9525C21.986 13.7509 22.2771 13.6449 22.5751 13.6578C22.8732 13.6708 23.1539 13.8016 23.3555 14.0215Z"/>
</mask>
<path d="M17.2527 6.99695C11.1856 6.99695 6.24961 11.9327 6.24961 18C6.24961 24.0673 11.1856 29.003 17.2527 29.003C23.3197 29.003 28.2557 24.0671 28.2557 18C28.2557 11.9329 23.3197 6.99695 17.2527 6.99695ZM17.2527 26.7531C15.5215 26.7531 13.8291 26.2398 12.3897 25.278C10.9502 24.3162 9.82832 22.9491 9.16582 21.3497C8.50331 19.7502 8.32997 17.9903 8.66771 16.2923C9.00546 14.5944 9.83911 13.0347 11.0633 11.8106C12.2874 10.5865 13.8471 9.7528 15.545 9.41505C17.2429 9.07731 19.0029 9.25065 20.6023 9.91316C22.2018 10.5757 23.5688 11.6976 24.5306 13.137C25.4924 14.5765 26.0058 16.2688 26.0058 18C26.0032 20.3207 25.0801 22.5455 23.4392 24.1865C21.7982 25.8275 19.5733 26.7505 17.2527 26.7531ZM34.3786 21.8933L33.227 18.1512C33.1922 18.0535 33.1922 17.9467 33.227 17.8489L34.3787 14.1069C34.5502 13.5634 34.5477 12.9799 34.3716 12.4379C34.1955 11.8959 33.8545 11.4224 33.3963 11.0836L30.265 8.73318C30.1793 8.67452 30.1165 8.5881 30.0872 8.4885L28.8195 4.78389C28.6388 4.24336 28.2939 3.77274 27.8328 3.43775C27.3717 3.10276 26.8175 2.92012 26.2476 2.91534L22.3327 2.85424C22.2289 2.85713 22.1274 2.82412 22.0452 2.7608L18.8421 0.509131C18.3783 0.177977 17.8225 -3.05176e-05 17.2526 -3.05176e-05C16.6826 -3.05176e-05 16.1269 0.177977 15.663 0.509131L12.4602 2.7608C12.3779 2.82412 12.2763 2.85712 12.1726 2.85424L8.25773 2.91534C7.68782 2.92012 7.13363 3.10276 6.67254 3.43775C6.21145 3.77274 5.86648 4.24336 5.6858 4.78389L4.41805 8.48829C4.38868 8.58784 4.32591 8.67422 4.2403 8.7329L1.10906 11.0833C0.650834 11.4221 0.309857 11.8956 0.133742 12.4376C-0.0423742 12.9796 -0.0448372 13.5631 0.126697 14.1066L1.2783 17.8488C1.31302 17.9465 1.31302 18.0533 1.2783 18.1511L0.126626 21.8932C-0.0449075 22.4367 -0.0424445 23.0201 0.133671 23.5622C0.309787 24.1042 0.650764 24.5776 1.10899 24.9165L4.2403 27.2668C4.32593 27.3255 4.3887 27.4119 4.41805 27.5114L5.6858 31.2161C5.86648 31.7566 6.21145 32.2273 6.67254 32.5622C7.13363 32.8972 7.68782 33.0799 8.25773 33.0847L12.1724 33.1458C12.2762 33.1429 12.3778 33.1758 12.4601 33.2391L15.6632 35.4909C16.127 35.822 16.6827 36 17.2527 36C17.8226 36 18.3783 35.822 18.8421 35.4909L22.0451 33.2392C22.1274 33.1759 22.229 33.1429 22.3327 33.1458L26.2476 33.0847C26.8175 33.0799 27.3717 32.8972 27.8328 32.5622C28.2939 32.2272 28.6388 31.7566 28.8194 31.216L30.0872 27.5117C30.1166 27.4122 30.1793 27.3258 30.2649 27.2671L33.3962 24.9167C33.8545 24.5779 34.1955 24.1044 34.3716 23.5623C34.5478 23.0203 34.5502 22.4368 34.3786 21.8933ZM32.0458 23.1173L28.9146 25.4677C28.4675 25.7967 28.1335 26.2563 27.9589 26.7832L26.691 30.4876C26.66 30.5896 26.5965 30.6787 26.5102 30.7414C26.4239 30.8041 26.3196 30.837 26.2129 30.835L22.2979 30.8961C21.7429 30.8995 21.2027 31.0751 20.7517 31.3986L17.5483 33.6502C17.4631 33.7145 17.3594 33.7493 17.2527 33.7493C17.146 33.7493 17.0422 33.7145 16.957 33.6502L13.7539 31.3984C13.3029 31.0749 12.7627 30.8994 12.2077 30.896L8.29281 30.835C8.18618 30.8369 8.08182 30.804 7.99555 30.7413C7.90927 30.6786 7.84579 30.5895 7.81471 30.4875L6.54695 26.7831C6.37227 26.2563 6.0383 25.7966 5.59116 25.4677L2.4595 23.1173C2.372 23.0562 2.30682 22.9682 2.27383 22.8667C2.24084 22.7652 2.24185 22.6557 2.2767 22.5549L3.42837 18.8128C3.59669 18.2839 3.59669 17.7158 3.42837 17.1869L2.2767 13.4448C2.24185 13.344 2.24084 13.2345 2.27383 13.133C2.30682 13.0315 2.372 12.9435 2.4595 12.8824L5.59081 10.532C6.03788 10.203 6.37179 9.74335 6.54646 9.21649L7.81429 5.51216C7.84537 5.41013 7.90885 5.32102 7.99512 5.25832C8.0814 5.19562 8.18576 5.16275 8.29239 5.16469L12.2071 5.10359C12.7623 5.10037 13.3028 4.92481 13.7539 4.60115L16.9574 2.34977C17.0425 2.28548 17.1463 2.2507 17.2529 2.2507C17.3596 2.2507 17.4634 2.28548 17.5485 2.34977L20.7513 4.60143C21.2023 4.925 21.7426 5.10056 22.2977 5.10387L26.2125 5.16497C26.3191 5.16304 26.4235 5.19592 26.5098 5.25862C26.596 5.32131 26.6595 5.41042 26.6906 5.51244L27.9584 9.2167C28.133 9.7436 28.467 10.2033 28.9141 10.5323L32.0458 12.8826C32.1333 12.9438 32.1985 13.0317 32.2315 13.1332C32.2645 13.2348 32.2635 13.3442 32.2286 13.4451L31.0769 17.1871C30.9086 17.7161 30.9086 18.2842 31.0769 18.8131L32.2286 22.5551C32.2634 22.6559 32.2644 22.7654 32.2314 22.8668C32.1984 22.9683 32.1333 23.0562 32.0458 23.1173ZM23.3555 14.0215C23.4554 14.1304 23.5327 14.2579 23.5833 14.3968C23.6338 14.5356 23.6565 14.683 23.6501 14.8306C23.6437 14.9782 23.6082 15.123 23.5458 15.2569C23.4834 15.3908 23.3952 15.5111 23.2863 15.6109L16.2634 22.0477C16.0559 22.2377 15.7847 22.343 15.5034 22.343C15.482 22.343 15.4607 22.3423 15.4394 22.3411C15.2893 22.3326 15.1425 22.2941 15.0076 22.2279C14.8727 22.1616 14.7525 22.0691 14.6539 21.9556L11.1304 17.8988C11.033 17.7873 10.9586 17.6577 10.9114 17.5174C10.8642 17.3772 10.8452 17.229 10.8553 17.0813C10.8655 16.9337 10.9047 16.7895 10.9707 16.657C11.0367 16.5245 11.1282 16.4064 11.24 16.3094C11.3517 16.2123 11.4815 16.1383 11.6219 16.0915C11.7623 16.0447 11.9106 16.026 12.0582 16.0366C12.2058 16.0472 12.3499 16.0869 12.4822 16.1532C12.6144 16.2196 12.7323 16.3114 12.8291 16.4234L15.595 19.6085L21.7661 13.9525C21.986 13.7509 22.2771 13.6449 22.5751 13.6578C22.8732 13.6708 23.1539 13.8016 23.3555 14.0215Z" fill="#006098" stroke="white" stroke-width="0.4" mask="url(#path-1-inside-1_1_362)"/>
</svg>
