<svg width="51" height="39" viewBox="0 0 51 39" fill="none" xmlns="http://www.w3.org/2000/svg">
<path d="M46.4157 3.15441C49.2809 6.30882 51 9.75 51 15.4853C51 25.5221 43.8371 34.4118 33.809 39L31.2303 35.2721C40.6854 30.1103 42.691 23.5147 43.264 19.2132C41.8315 20.0735 39.8258 20.3603 37.8202 20.0735C32.6629 19.5 28.6517 15.4853 28.6517 10.0368C28.6517 7.45588 29.7978 4.875 31.5169 2.86765C33.5225 0.860294 35.8146 0 38.6798 0C41.8315 0 44.6966 1.43382 46.4157 3.15441ZM17.764 3.15441C20.6292 6.30882 22.3483 9.75 22.3483 15.4853C22.3483 25.5221 15.1854 34.4118 5.1573 39L2.57865 35.2721C12.0337 30.1103 14.0393 23.5147 14.6124 19.2132C13.1798 20.0735 11.1742 20.3603 9.16854 20.0735C4.01123 19.5 0 15.4853 0 10.0368C0 7.45588 1.14607 4.875 2.86517 2.86765C4.58427 0.860294 7.16292 0 10.0281 0C13.1798 0 16.0449 1.43382 17.764 3.15441Z" fill="#CFEAFA"/>
</svg>
