<svg width="64" height="56" viewBox="0 0 64 56" fill="none" xmlns="http://www.w3.org/2000/svg">
<path fill-rule="evenodd" clip-rule="evenodd" d="M34.4458 14.624C23.4178 16.8062 15.2336 21.2401 16.1661 24.5248C17.0994 27.8095 26.7959 28.703 37.8238 26.5192C39.3948 26.2084 40.9082 25.8515 42.3453 25.4589C48.0434 25.5084 47.9624 26.2846 47.9624 26.2846C48.064 25.3903 47.4594 24.5886 46.6131 24.4926L45.7958 24.3998C52.515 22.0906 56.7905 19.0416 56.1029 16.6169C55.1699 13.3322 45.4736 12.44 34.4458 14.624ZM40.0731 14.8025C32.414 15.838 26.6695 18.4984 27.2423 20.7443C27.8154 22.9893 34.4891 23.9709 42.1481 22.9353C49.8064 21.9006 55.5518 19.24 54.9787 16.9941C54.4059 14.7485 47.7329 13.7669 40.0731 14.8025Z" fill="#B3F018"/>
<path fill-rule="evenodd" clip-rule="evenodd" d="M6.89316 27.6766C5.81674 26.9075 5.11872 25.9982 4.87401 24.9597C4.5571 23.6132 5.03258 22.1784 6.16239 20.7392C6.83917 19.8772 7.75061 19.0132 8.86673 18.1658C9.33442 17.8108 9.81635 17.4744 10.3083 17.154C14.7915 14.2326 21.6572 11.6007 29.6155 10.0368C30.4271 9.87728 31.2331 9.73212 32.0323 9.60119C37.5737 8.69337 42.7794 8.46571 47.1103 8.83872C47.4038 8.8638 47.6935 8.89232 47.9788 8.92291C51.8524 9.34083 54.9551 10.2633 56.8656 11.6281C57.8093 12.3025 58.6133 13.1932 58.8845 14.3455C58.9259 14.5215 59.0422 15.8895 58.704 16.6409C58.2145 17.7287 58.578 17.3142 57.596 18.5654C57.4646 18.7328 57.3239 18.9006 57.1749 19.068C57.5252 18.3579 57.6323 17.6584 57.4659 16.9886C56.4505 12.9231 45.738 11.4683 33.5381 13.7395C23.7477 15.5634 15.9748 19.232 13.8117 22.7106C13.2794 23.5664 13.0868 24.4111 13.2873 25.2137C14.3026 29.2795 25.3592 30.4649 37.2663 27.9591C49.1725 25.4531 39.0006 28.1104 39.8652 27.9125C37.1893 28.6592 34.4679 29.2547 31.7262 29.7038C20.7105 31.5088 11.0204 30.625 6.89316 27.6766Z" fill="#006098"/>
<path d="M46.5547 12.3646L43.981 22.6511C41.4239 23.089 38.1824 23.425 36.9235 23.3426L39.8291 12.1929L39.8568 12.0692C42.299 12.1224 43.3129 12.1606 46.5547 12.3646Z" fill="#006098"/>
<path fill-rule="evenodd" clip-rule="evenodd" d="M48.8341 2.23952C48.5244 0.643005 46.5508 -0.316915 44.4251 0.0956912C42.2999 0.507196 40.8288 2.136 41.1385 3.73314C41.4482 5.33033 43.4224 6.2902 45.5476 5.87764C47.6727 5.46527 49.1447 3.83667 48.8341 2.23952Z" fill="#B3F018"/>
<path d="M7.172 35.9595H5.43158L3.82103 42.0834H1.70566L3.33427 35.9595C2.84688 35.9452 2.45259 35.958 2.15032 35.9969C1.84741 36.0367 1.60065 36.0996 1.41019 36.1859C1.2204 36.2713 1.06902 36.3755 0.956613 36.4979C0.844792 36.6201 0.738318 36.7528 0.638607 36.896C0.607153 36.9394 0.568031 36.953 0.521714 36.9394C0.474296 36.9245 0.457074 36.8922 0.469853 36.842C0.676038 36.3899 0.878606 35.988 1.07795 35.6362C1.2782 35.2853 1.5099 34.9892 1.7762 34.7492C2.04085 34.5077 2.35587 34.327 2.72102 34.2048C3.08621 34.0832 3.53982 34.0255 4.08352 34.0331V34.0548H7.67744L7.172 35.9595Z" fill="#006098"/>
<path d="M10.6643 38.1548C10.8382 38.1548 10.9838 38.1406 11.0992 38.1121C11.2146 38.0836 11.3115 38.0444 11.3902 37.9934C11.4674 37.9433 11.5326 37.8848 11.5859 37.8157C11.6391 37.7475 11.694 37.6778 11.7501 37.6066C11.8942 37.4265 12.0043 37.2264 12.0823 37.0038C12.1603 36.781 12.1992 36.5449 12.1992 36.2937C12.1992 36.2067 12.185 36.1174 12.1573 36.0237C12.1288 35.9306 12.0897 35.8466 12.0404 35.7709C11.9909 35.6959 11.9292 35.6353 11.858 35.5879C11.7862 35.5416 11.7067 35.5176 11.6189 35.5176H10.3276L9.6347 38.1548H10.6643ZM10.4955 39.8014H9.20424L8.60527 42.0832H6.58278L8.68921 34.0649H12.2181C12.4557 34.0649 12.6919 34.1011 12.9295 34.1723C13.1665 34.2442 13.3789 34.356 13.5664 34.5067C13.753 34.6574 13.906 34.8472 14.0244 35.0774C14.1437 35.3067 14.203 35.576 14.203 35.8842C14.203 36.307 14.1505 36.724 14.0484 37.1326C13.9449 37.5422 13.7904 37.9252 13.585 38.2844C13.4409 38.5425 13.2716 38.7884 13.0743 39.0216C12.8779 39.2548 12.6613 39.443 12.4243 39.5861L13.1359 42.0832H11.1698L10.4955 39.8014Z" fill="#006098"/>
<path d="M15.9066 34.0649H17.9935L15.8879 42.0832H13.7719L15.9066 34.0649Z" fill="#006098"/>
<path d="M21.776 35.6576C21.5638 35.6434 21.3568 35.6577 21.1581 35.7012C21.0142 35.7363 20.886 35.8015 20.7742 35.8946C20.6617 35.9875 20.5799 36.1136 20.5304 36.2711C20.3242 36.8312 20.145 37.4085 19.992 38.0047C19.8392 38.6001 19.7003 39.2029 19.5751 39.8125C19.5443 39.9558 19.5443 40.1014 19.5751 40.2482C19.6066 40.3951 19.6846 40.498 19.8098 40.555C19.9973 40.6413 20.1952 40.6861 20.4046 40.6899C20.6129 40.6938 20.8178 40.6802 21.0171 40.6517C21.1798 40.6517 21.3275 40.5835 21.4618 40.4476C21.5959 40.3112 21.695 40.1605 21.7573 39.9955C21.9626 39.3927 22.1486 38.7906 22.3144 38.1869C22.4787 37.5841 22.6241 36.9751 22.7493 36.3581C22.7614 36.307 22.7597 36.2462 22.7448 36.1744C22.7291 36.103 22.7036 36.0347 22.6691 35.9703C22.6353 35.9059 22.5947 35.8504 22.5476 35.8031C22.501 35.7567 22.4493 35.7267 22.393 35.7116C22.1937 35.6906 21.9875 35.6727 21.776 35.6576ZM22.0189 40.8668C21.8629 40.8819 21.7145 40.9088 21.5742 40.9478C21.4339 40.9868 21.2945 41.043 21.1581 41.1144C20.9204 41.2441 20.6977 41.4016 20.4885 41.5882C20.2793 41.775 20.1038 42.0006 19.9599 42.2661C19.7537 42.2595 19.5428 42.2482 19.3277 42.2346C19.1124 42.2197 18.8958 42.1836 18.6769 42.1266C18.4339 42.0546 18.2299 41.9385 18.0643 41.7765C17.8985 41.6152 17.7688 41.4248 17.6757 41.2058C17.582 40.9869 17.5212 40.7484 17.4927 40.4905C17.4651 40.2325 17.4666 39.97 17.498 39.7045C17.6099 39.0095 17.7605 38.3218 17.9472 37.6433C18.1346 36.9653 18.3432 36.3002 18.574 35.6472C18.7113 35.267 18.9018 34.9709 19.1447 34.7594C19.3885 34.5479 19.6621 34.3904 19.9643 34.2863C20.2666 34.1819 20.5852 34.119 20.9189 34.0973C21.2533 34.0763 21.5757 34.0649 21.8878 34.0649C22.0691 34.0649 22.2702 34.0688 22.4915 34.0763C22.7133 34.0831 22.9382 34.1032 23.1663 34.1355C23.3933 34.1676 23.6131 34.218 23.8252 34.2863C24.0382 34.3545 24.2265 34.4527 24.3915 34.5817C24.5573 34.7105 24.6899 34.8763 24.7905 35.0771C24.8893 35.2774 24.9397 35.5251 24.9397 35.8196C24.8332 36.652 24.6869 37.4589 24.4995 38.2409C24.3128 39.023 24.0847 39.7947 23.8163 40.555H25.6887L25.2862 42.0832H22.9367C22.3497 42.0832 21.8472 42.1604 21.4295 42.315C21.0103 42.4693 20.6932 42.7009 20.4749 43.0091C20.4434 43.0586 20.4046 43.0774 20.3571 43.0625C20.3108 43.0483 20.2927 43.0159 20.3063 42.9658C20.3684 42.6575 20.4749 42.374 20.6241 42.1153C20.7742 41.8575 20.9519 41.6317 21.1581 41.4375C21.4138 41.1862 21.7003 40.9967 22.0189 40.8668Z" fill="#006098"/>
<path d="M29.5909 34.0327L28.0836 39.7368C28.0402 39.8807 28.0387 40.0029 28.0792 40.1035C28.1197 40.2032 28.1856 40.288 28.2756 40.3562C28.3663 40.4238 28.4758 40.4761 28.6042 40.5122C28.7315 40.5475 28.8635 40.5766 29.0014 40.5985C29.1447 40.5834 29.282 40.5624 29.4132 40.5339C29.5443 40.5048 29.6689 40.4597 29.7881 40.399C29.9059 40.3382 30.0124 40.2572 30.1061 40.1569C30.1998 40.0563 30.2808 39.9273 30.3497 39.7691L31.8659 34.0327C31.872 34.0252 31.8848 34.0214 31.9035 34.0214H34.0097L32.2776 40.5766C32.0901 40.9711 31.8457 41.2778 31.5436 41.4968C31.2399 41.7157 30.9159 41.8769 30.5695 41.9812C30.223 42.0848 29.8736 42.1477 29.5205 42.1702C29.1687 42.1912 28.8486 42.2023 28.5614 42.2023C28.3491 42.2023 28.131 42.1963 27.9059 42.1859C27.6817 42.1747 27.4665 42.1461 27.2604 42.0996C27.0542 42.0524 26.8623 41.9842 26.6845 41.8949C26.5066 41.805 26.3574 41.6834 26.2352 41.5289C26.113 41.3746 26.0275 41.1848 25.978 40.9584C25.9279 40.7326 25.9279 40.4583 25.978 40.1358L27.6068 34.0327H29.5909Z" fill="#006098"/>
<path d="M39.4108 38.7149H36.7706C36.7398 38.8801 36.703 39.0441 36.6588 39.2099C36.6146 39.3749 36.5838 39.5407 36.5651 39.7047C36.5523 39.8053 36.5808 39.902 36.649 39.9957C36.7181 40.0886 36.7961 40.1426 36.8837 40.1569C37.4138 40.2506 37.9478 40.2882 38.4847 40.2695C39.0208 40.2521 39.5487 40.1853 40.0661 40.0714L39.5704 42.0622C38.2717 42.2917 36.9676 42.3232 35.6571 42.1591C35.3646 42.123 35.1254 42.0114 34.9409 41.8246C34.7573 41.6386 34.6176 41.4128 34.5247 41.1467C34.431 40.8821 34.3762 40.5949 34.3613 40.2858C34.3447 39.9777 34.3598 39.6867 34.4025 39.4146C34.4903 38.8687 34.6042 38.3325 34.7445 37.8053C34.8855 37.2775 35.0525 36.7632 35.2453 36.2615C35.1575 36.2966 35.0661 36.3251 34.9694 36.347C34.8727 36.3687 34.7722 36.3971 34.6701 36.433C34.5666 36.4692 34.4603 36.5209 34.3515 36.5891C34.242 36.6573 34.1317 36.7602 34.0193 36.8958C34.0006 36.9175 33.9848 36.9281 33.9721 36.9281C33.9413 36.9498 33.9068 36.9513 33.8694 36.9332C33.8326 36.916 33.8229 36.8854 33.8409 36.8418C34.0284 36.4256 34.242 36.0456 34.4827 35.7006C34.7226 35.3565 34.9926 35.061 35.2925 34.8134C35.5918 34.5659 35.9246 34.374 36.2892 34.2369C36.6544 34.1011 37.0578 34.0329 37.5016 34.0329H41.5262L41.0207 35.9593H38.0445C37.9133 35.9593 37.8054 36.0065 37.7214 36.0996C37.6374 36.1933 37.5654 36.3034 37.5061 36.433C37.447 36.5621 37.3951 36.6971 37.3517 36.8365C37.3073 36.9768 37.258 37.0931 37.2025 37.1868C37.258 37.1794 37.3254 37.174 37.4028 37.1702C37.4814 37.1672 37.6075 37.1651 37.7822 37.1651C37.9629 37.1651 38.2141 37.1672 38.5357 37.1702C38.8573 37.174 39.2862 37.1756 39.8232 37.1756L39.4108 38.7149Z" fill="#006098"/>
<path d="M46.5057 38.7149L47.7416 34.0652H49.7445L47.6576 42.0832H45.1673L44.1842 36.5089L42.7243 42.0832H40.6555L42.752 34.0652H44.8495C44.9611 34.0652 45.0744 34.0845 45.1862 34.1243C45.2986 34.164 45.4013 34.221 45.495 34.296C45.5888 34.3719 45.6683 34.4595 45.7342 34.56C45.7994 34.6612 45.8445 34.7751 45.8691 34.905L46.5057 38.7149Z" fill="#006098"/>
<path d="M51.7525 39.9739C51.8186 40.0525 51.8973 40.1035 51.991 40.1245C52.516 40.2106 53.0385 40.2519 53.559 40.2482C54.08 40.2444 54.5968 40.1851 55.109 40.0712L54.6119 42.062C53.3146 42.2915 52.0136 42.3239 50.7089 42.1587C50.4155 42.1228 50.1764 42.0118 49.9928 41.8252C49.8083 41.6392 49.6703 41.4126 49.5766 41.1465C49.4828 40.8819 49.4259 40.5947 49.4078 40.2856C49.3891 39.9774 49.401 39.6864 49.4452 39.4144C49.4948 39.113 49.557 38.7686 49.6327 38.3811C49.7069 37.9934 49.8023 37.6004 49.9184 37.2029C50.0331 36.8042 50.1696 36.415 50.3256 36.0347C50.4816 35.6547 50.6668 35.3157 50.8821 35.0179C51.0972 34.7194 51.3425 34.4818 51.6169 34.3026C51.8919 34.1226 52.204 34.0327 52.5526 34.0327H56.6905L56.185 35.9591H53.0866C52.9928 35.9591 52.905 35.9905 52.8249 36.0513C52.743 36.1119 52.681 36.1893 52.6374 36.2822C52.3749 36.8057 52.1628 37.3568 52.0008 37.9341C51.838 38.5123 51.7294 39.1023 51.673 39.7053C51.6603 39.8051 51.6873 39.8958 51.7525 39.9739Z" fill="#006098"/>
<path d="M60.2008 38.0793H58.6757L57.6176 42.0834H55.5114L56.5506 38.1656C56.2192 38.2451 55.9327 38.3522 55.6891 38.4887C55.4461 38.6252 55.2465 38.7969 55.0907 39.0046C55.0591 39.0556 55.0202 39.0737 54.973 39.0594C54.9265 39.0444 54.9092 39.012 54.922 38.9627C55.0712 38.6394 55.2166 38.3439 55.3569 38.074C55.4978 37.8055 55.647 37.5664 55.8069 37.3588C55.9656 37.1511 56.1397 36.9749 56.3308 36.8316C56.5206 36.6884 56.741 36.5833 56.9908 36.5189L57.6461 34.0646H59.733L59.124 36.3786H60.6508L61.2687 34.0548H63.3654L61.2492 42.0722H59.1338L60.2008 38.0793Z" fill="#006098"/>
<path d="M15.0056 46.0478L15.0308 45.9672H16.5614L16.5313 46.0478C16.3925 46.0478 16.2867 46.0792 16.2134 46.1416C16.1409 46.2039 16.0762 46.3341 16.0208 46.5322L15.445 48.5408C15.4032 48.6844 15.3826 48.7807 15.3826 48.8288C15.3826 48.885 15.4038 48.9283 15.4472 48.9598C15.5026 49 15.6075 49.0221 15.7614 49.0252L15.7385 49.1058H14.1865L14.2126 49.0252C14.3679 49.0252 14.4815 48.9953 14.5542 48.9354C14.6267 48.8755 14.6922 48.7437 14.7507 48.5408L15.3266 46.5322C15.3621 46.4074 15.3795 46.3128 15.3795 46.249C15.3795 46.1914 15.3582 46.1463 15.3148 46.1133C15.2722 46.08 15.1687 46.0587 15.0056 46.0478ZM17.8649 45.9672L18.8415 48.0651L19.2795 46.5377C19.3024 46.4541 19.3142 46.38 19.3142 46.3151C19.3142 46.237 19.2898 46.1754 19.2417 46.129C19.1927 46.0825 19.1091 46.0556 18.9907 46.0478L19.0161 45.9672H20.0023L19.9793 46.0478C19.8523 46.0556 19.7482 46.0912 19.6662 46.1542C19.5834 46.2174 19.5139 46.3452 19.4563 46.5369L18.7123 49.1389H18.6325L17.3638 46.4681L16.7674 48.5512C16.7469 48.6245 16.7374 48.69 16.7374 48.7476C16.7374 48.8313 16.7643 48.899 16.8194 48.9496C16.874 49 16.9616 49.0252 17.0814 49.0252L17.0609 49.1058H16.0392L16.0605 49.0252C16.1481 49.0252 16.2103 49.0174 16.2474 49.0025C16.3121 48.9771 16.3753 48.9298 16.4369 48.8596C16.4984 48.7893 16.5489 48.6877 16.5875 48.5543L17.2409 46.2703C17.1642 46.1771 17.1004 46.1172 17.0483 46.0903C16.9963 46.0635 16.9188 46.0492 16.8147 46.0478L16.8337 45.9672H17.8649ZM19.442 49.1058L19.4706 49.0252C19.6211 49.0252 19.7356 48.9939 19.8137 48.9306C19.8909 48.8676 19.9558 48.7493 20.0062 48.5764L20.5728 46.5929C20.6098 46.4627 20.6288 46.3561 20.6288 46.2725C20.6288 46.2014 20.6067 46.1488 20.5639 46.1147C20.5205 46.0808 20.4103 46.0587 20.2334 46.0478L20.2611 45.9672H21.3334C21.8981 45.9672 22.3061 46.0817 22.5563 46.3112C22.8064 46.54 22.9318 46.8613 22.9318 47.2746C22.9318 47.5665 22.8742 47.811 22.7583 48.0083C22.5325 48.3942 22.2636 48.6734 21.9527 48.8461C21.6418 49.019 21.2417 49.1058 20.7542 49.1058H19.442ZM21.3956 46.1519L20.7131 48.5322C20.6808 48.6419 20.6649 48.7208 20.6649 48.7681C20.6649 48.8114 20.6823 48.8462 20.7178 48.8722C20.7645 48.9077 20.8323 48.9259 20.9238 48.9259C21.1409 48.9259 21.3348 48.8582 21.5061 48.7224C21.7255 48.5481 21.892 48.3128 22.007 48.0187C22.1215 47.7235 22.1791 47.4307 22.1791 47.1405C22.1791 46.9306 22.146 46.7476 22.0789 46.5921C22.0118 46.4359 21.9085 46.3167 21.7689 46.2355C21.6709 46.1793 21.5464 46.1519 21.3956 46.1519ZM23.6854 46.0478L23.7106 45.9672H25.2413L25.2111 46.0478C25.0723 46.0478 24.9665 46.0792 24.8932 46.1416C24.8207 46.2039 24.756 46.3341 24.7007 46.5322L24.1248 48.5408C24.0831 48.6844 24.0624 48.7807 24.0624 48.8288C24.0624 48.885 24.0836 48.9283 24.1271 48.9598C24.1824 49 24.2874 49.0221 24.4412 49.0252L24.4183 49.1058H22.8664L22.8924 49.0252C23.0477 49.0252 23.1613 48.9953 23.2341 48.9354C23.3066 48.8755 23.372 48.7437 23.4305 48.5408L24.0064 46.5322C24.0419 46.4074 24.0593 46.3128 24.0593 46.249C24.0593 46.1914 24.038 46.1463 23.9946 46.1133C23.9521 46.08 23.8486 46.0587 23.6854 46.0478ZM26.7916 48.0928H25.8259L25.6272 48.3357L25.4047 48.6001C25.3613 48.6584 25.3297 48.7104 25.3099 48.7579C25.2941 48.7933 25.2871 48.8297 25.2871 48.866C25.2871 48.903 25.3059 48.9377 25.3454 48.9701C25.3848 49.0025 25.4503 49.0205 25.541 49.0252V49.1058H24.6038L24.6273 49.0252C24.7104 49.0112 24.7845 48.9819 24.8492 48.9362C24.9351 48.8738 25.0591 48.7445 25.2216 48.5495L27.445 45.8962H27.5491L27.4472 48.4644C27.4425 48.5985 27.4402 48.6797 27.4402 48.7082C27.4402 48.8148 27.4606 48.892 27.5026 48.941C27.5443 48.9891 27.6145 49.0174 27.7116 49.0252L27.6887 49.1058H26.3324L26.3578 49.0252C26.4927 49.0126 26.5699 49.0017 26.5898 48.993C26.6331 48.9709 26.6726 48.9251 26.7081 48.8557C26.7435 48.7871 26.7649 48.6664 26.7728 48.4952L26.7916 48.0928ZM26.7916 47.9034L26.8531 46.8792L25.9854 47.9034H26.7916ZM30.2898 47.6675L30.0438 48.54C30.0083 48.6648 29.9901 48.7524 29.9901 48.8036C29.9901 48.8755 30.013 48.929 30.0595 48.9662C30.106 49.0025 30.2109 49.0221 30.3743 49.0252L30.3435 49.1058H28.8145L28.8397 49.0252C28.9698 49.0238 29.0614 49.0112 29.1151 48.9866C29.1688 48.9631 29.2138 48.9236 29.2491 48.8691C29.2753 48.8336 29.3148 48.7239 29.3669 48.54L29.9381 46.5471C29.9783 46.413 29.9988 46.3167 29.9988 46.2591C29.9988 46.2009 29.9727 46.1519 29.9223 46.1125C29.8709 46.0722 29.7786 46.0509 29.6445 46.0478L29.6705 45.9672H30.9163C31.2588 45.9672 31.5048 46.0106 31.6548 46.0973C31.8868 46.233 32.0029 46.4373 32.0029 46.7096C32.0029 46.9723 31.8868 47.2035 31.6557 47.4039C31.4237 47.6043 31.112 47.7046 30.7199 47.7046C30.6024 47.7046 30.4588 47.6918 30.2898 47.6675ZM30.3413 47.4867C30.4398 47.4994 30.5226 47.5057 30.5881 47.5057C30.798 47.5057 30.9637 47.4086 31.0837 47.2139C31.2043 47.0197 31.2642 46.817 31.2642 46.6055C31.2642 46.4619 31.2256 46.3506 31.1475 46.2711C31.0694 46.1914 30.9622 46.1519 30.8248 46.1519C30.7957 46.1519 30.7594 46.1533 30.7168 46.1566L30.3413 47.4867ZM32.5842 49.1769L32.686 46.5518C32.6908 46.3987 32.693 46.3184 32.693 46.3105C32.693 46.2244 32.6726 46.1614 32.6315 46.1203C32.5906 46.08 32.5148 46.0556 32.4051 46.0478L32.4328 45.9672H33.7536L33.7282 46.0478C33.6145 46.0478 33.5295 46.0825 33.471 46.1511C33.4134 46.2197 33.3795 46.3618 33.37 46.5778L33.2944 48.2143L34.5181 46.7925C34.6765 46.6072 34.7744 46.4785 34.8114 46.4074C34.8486 46.3357 34.8676 46.2734 34.8676 46.2205C34.8676 46.1818 34.8502 46.1472 34.8162 46.1164C34.7823 46.0864 34.7176 46.0635 34.6222 46.0478L34.6544 45.9672H35.5208V46.0478C35.4466 46.0666 35.3867 46.0934 35.3409 46.1298C35.2731 46.181 35.1682 46.2907 35.026 46.458L32.686 49.1769H32.5842ZM35.7608 45.9672H38.2839L38.0473 46.8098H37.9668C37.9699 46.765 37.9715 46.7255 37.9715 46.6914C37.9715 46.5314 37.9226 46.4066 37.824 46.3176C37.7261 46.2291 37.5596 46.1787 37.3262 46.1661L36.6499 48.5355C36.6113 48.6671 36.5916 48.765 36.5916 48.8282C36.5916 48.8865 36.616 48.9338 36.6633 48.9684C36.7114 49.0032 36.8085 49.0221 36.9546 49.0252L36.9339 49.1058H35.382L35.4105 49.0252C35.5691 49.0252 35.6842 48.9953 35.7569 48.9354C35.8294 48.8755 35.8957 48.7412 35.9556 48.5322L36.6317 46.1661C36.3958 46.174 36.1987 46.2261 36.0401 46.3238C35.8814 46.4208 35.7362 46.5826 35.6044 46.8098H35.5146L35.7608 45.9672ZM37.779 48.4051C37.8856 48.4051 37.9755 48.4423 38.0496 48.5165C38.1238 48.5914 38.161 48.6805 38.161 48.7863C38.161 48.8912 38.1238 48.9812 38.0488 49.056C37.9738 49.1302 37.8839 49.1674 37.779 49.1674C37.6732 49.1674 37.5842 49.1302 37.51 49.056C37.4359 48.9812 37.3987 48.8912 37.3987 48.7863C37.3987 48.6805 37.4359 48.5914 37.51 48.5165C37.5842 48.4423 37.6732 48.4051 37.779 48.4051ZM42.1847 49.1058H39.6718L39.6978 49.0252C39.8468 49.0252 39.9558 48.9961 40.0244 48.9377C40.093 48.8794 40.157 48.7484 40.2153 48.5441L40.792 46.5235C40.8244 46.4121 40.841 46.3246 40.841 46.2615C40.841 46.1992 40.818 46.1494 40.7716 46.1125C40.7251 46.0753 40.6342 46.054 40.4985 46.0478L40.5245 45.9672H42.0283L42.0023 46.0478C41.8579 46.0509 41.7499 46.0839 41.6782 46.1463C41.6063 46.2087 41.5425 46.3357 41.4871 46.5283L40.9585 48.3744C40.8907 48.6097 40.8567 48.7524 40.8567 48.8028C40.8567 48.8344 40.874 48.8629 40.9089 48.8903C40.9436 48.9172 40.9996 48.9306 41.0769 48.9306C41.3349 48.9306 41.5825 48.8716 41.8226 48.754C42.0624 48.6357 42.265 48.4597 42.4307 48.2252H42.5303L42.1847 49.1058ZM43.3911 45.9672H45.9141L45.6776 46.8098H45.597C45.6001 46.765 45.6018 46.7255 45.6018 46.6914C45.6018 46.5314 45.5528 46.4066 45.4543 46.3176C45.3563 46.2291 45.1899 46.1787 44.9564 46.1661L44.2801 48.5355C44.2415 48.6671 44.2219 48.765 44.2219 48.8282C44.2219 48.8865 44.2462 48.9338 44.2936 48.9684C44.3417 49.0032 44.4388 49.0221 44.5848 49.0252L44.5642 49.1058H43.0122L43.0407 49.0252C43.1993 49.0252 43.3144 48.9953 43.3871 48.9354C43.4596 48.8755 43.526 48.7412 43.5858 48.5322L44.262 46.1661C44.0261 46.174 43.829 46.2261 43.6703 46.3238C43.5117 46.4208 43.3665 46.5826 43.2347 46.8098H43.1448L43.3911 45.9672ZM45.3539 49.1058L45.3824 49.0252C45.533 49.0252 45.6474 48.9939 45.7255 48.9306C45.8028 48.8676 45.8676 48.7493 45.918 48.5764L46.4846 46.5929C46.5216 46.4627 46.5406 46.3561 46.5406 46.2725C46.5406 46.2014 46.5185 46.1488 46.4757 46.1147C46.4324 46.0808 46.3221 46.0587 46.1452 46.0478L46.1729 45.9672H47.2452C47.81 45.9672 48.218 46.0817 48.4681 46.3112C48.7183 46.54 48.8436 46.8613 48.8436 47.2746C48.8436 47.5665 48.786 47.811 48.6701 48.0083C48.4444 48.3942 48.1754 48.6734 47.8645 48.8461C47.5537 49.019 47.1535 49.1058 46.666 49.1058H45.3539ZM47.3074 46.1519L46.6249 48.5322C46.5927 48.6419 46.5768 48.7208 46.5768 48.7681C46.5768 48.8114 46.5941 48.8462 46.6296 48.8722C46.6763 48.9077 46.7441 48.9259 46.8356 48.9259C47.0527 48.9259 47.2467 48.8582 47.4179 48.7224C47.6373 48.5481 47.8038 48.3128 47.9188 48.0187C48.0333 47.7235 48.0909 47.4307 48.0909 47.1405C48.0909 46.9306 48.0579 46.7476 47.9907 46.5921C47.9236 46.4359 47.8203 46.3167 47.6807 46.2355C47.5827 46.1793 47.4582 46.1519 47.3074 46.1519ZM49.2626 48.4051C49.3692 48.4051 49.459 48.4423 49.5332 48.5165C49.6074 48.5914 49.6445 48.6805 49.6445 48.7863C49.6445 48.8912 49.6074 48.9812 49.5324 49.056C49.4574 49.1302 49.3675 49.1674 49.2626 49.1674C49.1568 49.1674 49.0678 49.1302 48.9936 49.056C48.9195 48.9812 48.8823 48.8912 48.8823 48.7863C48.8823 48.6805 48.9195 48.5914 48.9936 48.5165C49.0678 48.4423 49.1568 48.4051 49.2626 48.4051Z" fill="#006098"/>
<path fill-rule="evenodd" clip-rule="evenodd" d="M0.244914 47.0134H12.871L12.496 47.9051H0.607428C0.0618082 47.9051 -0.0701437 47.7206 0.0315333 47.4596C0.0770245 47.3427 0.244914 47.0134 0.244914 47.0134Z" fill="#B3F018"/>
<path fill-rule="evenodd" clip-rule="evenodd" d="M51.0531 47.9051H63.6792L63.3041 47.0135H51.4156C50.8699 47.0135 50.738 47.1979 50.8397 47.4589C50.8852 47.5758 51.0531 47.9051 51.0531 47.9051Z" fill="#B3F018"/>
<path d="M1.6106 52.1826V54.7262H1.07281V52.1826H1.6106Z" fill="#006098"/>
<path d="M2.57222 53.6234V54.7262H2.04313V52.8186H2.54738V53.1551H2.56973C2.61196 53.0442 2.68276 52.9564 2.78212 52.8918C2.88148 52.8264 3.00195 52.7937 3.14354 52.7937C3.27602 52.7937 3.39152 52.8227 3.49006 52.8806C3.58859 52.9386 3.66518 53.0214 3.71983 53.129C3.77447 53.2358 3.8018 53.3633 3.8018 53.5116V54.7262H3.27271V53.606C3.27353 53.4892 3.24373 53.3981 3.18328 53.3327C3.12284 53.2665 3.03962 53.2333 2.93364 53.2333C2.86243 53.2333 2.7995 53.2487 2.74486 53.2793C2.69104 53.31 2.64881 53.3547 2.61817 53.4135C2.58836 53.4714 2.57305 53.5414 2.57222 53.6234Z" fill="#006098"/>
<path d="M5.23351 52.8186V53.216H4.08466V52.8186H5.23351ZM4.34548 52.3615H4.87458V54.14C4.87458 54.1889 4.88203 54.227 4.89693 54.2543C4.91184 54.2808 4.93254 54.2994 4.95903 54.3102C4.98636 54.3209 5.01782 54.3263 5.05342 54.3263C5.07826 54.3263 5.1031 54.3243 5.12794 54.3201C5.15278 54.3152 5.17183 54.3114 5.18508 54.3089L5.26829 54.7027C5.24179 54.7109 5.20453 54.7204 5.15651 54.7312C5.10849 54.7428 5.05011 54.7499 4.98139 54.7523C4.85388 54.7573 4.7421 54.7403 4.64605 54.7014C4.55083 54.6625 4.47672 54.602 4.42373 54.5201C4.37074 54.4381 4.34466 54.3346 4.34548 54.2096V52.3615Z" fill="#006098"/>
<path d="M6.42708 54.7635C6.23084 54.7635 6.06193 54.7237 5.92034 54.6442C5.77958 54.5639 5.67111 54.4505 5.59494 54.304C5.51876 54.1566 5.48067 53.9823 5.48067 53.7811C5.48067 53.5848 5.51876 53.4126 5.59494 53.2644C5.67111 53.1162 5.77834 53.0007 5.91662 52.9179C6.05572 52.8351 6.21883 52.7937 6.40596 52.7937C6.53182 52.7937 6.64898 52.814 6.75745 52.8546C6.86674 52.8943 6.96197 52.9543 7.04311 53.0346C7.12508 53.1149 7.18884 53.216 7.23438 53.3377C7.27992 53.4586 7.30269 53.6001 7.30269 53.7624V53.9078H5.69181V53.5799H6.80465C6.80465 53.5037 6.78809 53.4362 6.75497 53.3775C6.72185 53.3187 6.67589 53.2727 6.6171 53.2396C6.55914 53.2056 6.49166 53.1886 6.41466 53.1886C6.33434 53.1886 6.26313 53.2073 6.20103 53.2445C6.13976 53.2809 6.09174 53.3302 6.05696 53.3923C6.02218 53.4536 6.00438 53.5219 6.00355 53.5972V53.909C6.00355 54.0034 6.02094 54.0849 6.05572 54.1537C6.09132 54.2224 6.14142 54.2754 6.206 54.3127C6.27058 54.3499 6.34717 54.3685 6.43577 54.3685C6.49456 54.3685 6.54838 54.3603 6.59723 54.3437C6.64608 54.3271 6.6879 54.3023 6.72267 54.2692C6.75745 54.2361 6.78394 54.1955 6.80216 54.1475L7.29151 54.1798C7.26667 54.2973 7.21575 54.4 7.13874 54.4878C7.06257 54.5747 6.96404 54.6426 6.84315 54.6915C6.72309 54.7395 6.5844 54.7635 6.42708 54.7635Z" fill="#006098"/>
<path d="M8.17706 52.1826V54.7262H7.64796V52.1826H8.17706Z" fill="#006098"/>
<path d="M9.12998 52.1826V54.7262H8.60089V52.1826H9.12998Z" fill="#006098"/>
<path d="M9.55381 54.7262V52.8186H10.0829V54.7262H9.55381ZM9.8196 52.5726C9.74094 52.5726 9.67346 52.5465 9.61716 52.4944C9.56168 52.4414 9.53394 52.378 9.53394 52.3043C9.53394 52.2315 9.56168 52.169 9.61716 52.1168C9.67346 52.0638 9.74094 52.0373 9.8196 52.0373C9.89826 52.0373 9.96533 52.0638 10.0208 52.1168C10.0771 52.169 10.1053 52.2315 10.1053 52.3043C10.1053 52.378 10.0771 52.4414 10.0208 52.4944C9.96533 52.5465 9.89826 52.5726 9.8196 52.5726Z" fill="#006098"/>
<path d="M11.3662 55.4814C11.1948 55.4814 11.0478 55.4578 10.9253 55.4106C10.8036 55.3642 10.7067 55.3009 10.6347 55.2206C10.5626 55.1403 10.5158 55.05 10.4943 54.9498L10.9837 54.884C10.9986 54.9221 11.0222 54.9577 11.0545 54.9908C11.0868 55.0239 11.1294 55.0504 11.1824 55.0703C11.2362 55.091 11.3016 55.1013 11.3786 55.1013C11.4937 55.1013 11.5885 55.0732 11.663 55.0169C11.7384 54.9614 11.7761 54.8682 11.7761 54.7374V54.3884H11.7537C11.7305 54.4414 11.6957 54.4915 11.6494 54.5387C11.603 54.5859 11.5434 54.6244 11.4705 54.6542C11.3977 54.684 11.3107 54.6989 11.2097 54.6989C11.0665 54.6989 10.9361 54.6658 10.8185 54.5995C10.7017 54.5325 10.6086 54.4302 10.539 54.2928C10.4703 54.1545 10.4359 53.9798 10.4359 53.7687C10.4359 53.5526 10.4711 53.3721 10.5415 53.2271C10.6119 53.0823 10.7055 52.9738 10.8222 52.9018C10.9398 52.8297 11.0685 52.7937 11.2085 52.7937C11.3153 52.7937 11.4047 52.8119 11.4767 52.8483C11.5488 52.8839 11.6067 52.9286 11.6506 52.9825C11.6953 53.0355 11.7297 53.0876 11.7537 53.139H11.7736V52.8186H12.2989V54.7449C12.2989 54.9072 12.2592 55.043 12.1797 55.1523C12.1002 55.2615 11.9901 55.3435 11.8493 55.3982C11.7094 55.4536 11.5484 55.4814 11.3662 55.4814ZM11.3774 54.3015C11.4627 54.3015 11.5347 54.2804 11.5935 54.2381C11.6531 54.1951 11.6986 54.1338 11.7301 54.0543C11.7624 53.974 11.7785 53.878 11.7785 53.7662C11.7785 53.6544 11.7628 53.5575 11.7313 53.4755C11.6999 53.3927 11.6543 53.3286 11.5947 53.283C11.5351 53.2375 11.4627 53.2147 11.3774 53.2147C11.2904 53.2147 11.2172 53.2383 11.1575 53.2855C11.0979 53.3319 11.0528 53.3965 11.0222 53.4793C10.9915 53.5621 10.9762 53.6577 10.9762 53.7662C10.9762 53.8763 10.9915 53.9715 11.0222 54.0518C11.0536 54.1313 11.0988 54.193 11.1575 54.2369C11.2172 54.28 11.2904 54.3015 11.3774 54.3015Z" fill="#006098"/>
<path d="M13.5894 54.7635C13.3931 54.7635 13.2242 54.7237 13.0826 54.6442C12.9419 54.5639 12.8334 54.4505 12.7572 54.304C12.6811 54.1566 12.643 53.9823 12.643 53.7811C12.643 53.5848 12.6811 53.4126 12.7572 53.2644C12.8334 53.1162 12.9406 53.0007 13.0789 52.9179C13.218 52.8351 13.3811 52.7937 13.5683 52.7937C13.6941 52.7937 13.8113 52.814 13.9198 52.8546C14.029 52.8943 14.1243 52.9543 14.2054 53.0346C14.2874 53.1149 14.3511 53.216 14.3967 53.3377C14.4422 53.4586 14.465 53.6001 14.465 53.7624V53.9078H12.8541V53.5799H13.9669C13.9669 53.5037 13.9504 53.4362 13.9173 53.3775C13.8842 53.3187 13.8382 53.2727 13.7794 53.2396C13.7214 53.2056 13.654 53.1886 13.577 53.1886C13.4966 53.1886 13.4254 53.2073 13.3633 53.2445C13.3021 53.2809 13.254 53.3302 13.2193 53.3923C13.1845 53.4536 13.1667 53.5219 13.1659 53.5972V53.909C13.1659 54.0034 13.1832 54.0849 13.218 54.1537C13.2536 54.2224 13.3037 54.2754 13.3683 54.3127C13.4329 54.3499 13.5095 54.3685 13.5981 54.3685C13.6569 54.3685 13.7107 54.3603 13.7595 54.3437C13.8084 54.3271 13.8502 54.3023 13.885 54.2692C13.9198 54.2361 13.9462 54.1955 13.9645 54.1475L14.4538 54.1798C14.429 54.2973 14.3781 54.4 14.301 54.4878C14.2249 54.5747 14.1263 54.6426 14.0055 54.6915C13.8854 54.7395 13.7467 54.7635 13.5894 54.7635Z" fill="#006098"/>
<path d="M15.3394 53.6234V54.7262H14.8103V52.8186H15.3145V53.1551H15.3369C15.3791 53.0442 15.4499 52.9564 15.5493 52.8918C15.6486 52.8264 15.7691 52.7937 15.9107 52.7937C16.0432 52.7937 16.1587 52.8227 16.2572 52.8806C16.3557 52.9386 16.4323 53.0214 16.487 53.129C16.5416 53.2358 16.5689 53.3633 16.5689 53.5116V54.7262H16.0398V53.606C16.0407 53.4892 16.0109 53.3981 15.9504 53.3327C15.89 53.2665 15.8068 53.2333 15.7008 53.2333C15.6296 53.2333 15.5666 53.2487 15.512 53.2793C15.4582 53.31 15.416 53.3547 15.3853 53.4135C15.3555 53.4714 15.3402 53.5414 15.3394 53.6234Z" fill="#006098"/>
<path d="M18.0007 52.8186V53.216H16.8518V52.8186H18.0007ZM17.1126 52.3615H17.6417V54.14C17.6417 54.1889 17.6492 54.227 17.6641 54.2543C17.679 54.2808 17.6997 54.2994 17.7262 54.3102C17.7535 54.3209 17.785 54.3263 17.8206 54.3263C17.8454 54.3263 17.8702 54.3243 17.8951 54.3201C17.9199 54.3152 17.939 54.3114 17.9522 54.3089L18.0354 54.7027C18.0089 54.7109 17.9717 54.7204 17.9237 54.7312C17.8756 54.7428 17.8173 54.7499 17.7485 54.7523C17.621 54.7573 17.5092 54.7403 17.4132 54.7014C17.318 54.6625 17.2439 54.602 17.1909 54.5201C17.1379 54.4381 17.1118 54.3346 17.1126 54.2096V52.3615Z" fill="#006098"/>
<path d="M20.5446 52.9141C20.5346 52.814 20.492 52.7362 20.4167 52.6807C20.3413 52.6252 20.239 52.5974 20.1099 52.5974C20.0221 52.5974 19.948 52.6099 19.8876 52.6347C19.8271 52.6587 19.7808 52.6922 19.7485 52.7353C19.717 52.7784 19.7013 52.8272 19.7013 52.8819C19.6996 52.9274 19.7091 52.9672 19.7298 53.0011C19.7514 53.0351 19.7808 53.0645 19.818 53.0893C19.8553 53.1133 19.8983 53.1344 19.9472 53.1526C19.996 53.17 20.0482 53.1849 20.1037 53.1973L20.3322 53.252C20.4432 53.2768 20.545 53.3099 20.6377 53.3513C20.7305 53.3927 20.8108 53.4437 20.8787 53.5041C20.9466 53.5646 20.9992 53.6358 21.0364 53.7177C21.0745 53.7997 21.094 53.8937 21.0948 53.9996C21.094 54.1553 21.0542 54.2903 20.9756 54.4045C20.8977 54.518 20.7851 54.6062 20.6377 54.6691C20.4912 54.7312 20.3144 54.7622 20.1074 54.7622C19.9021 54.7622 19.7232 54.7308 19.5709 54.6679C19.4193 54.6049 19.3009 54.5118 19.2156 54.3884C19.1312 54.2642 19.0869 54.1106 19.0828 53.9276H19.6031C19.6089 54.0129 19.6334 54.0841 19.6764 54.1413C19.7203 54.1976 19.7787 54.2402 19.8515 54.2692C19.9252 54.2973 20.0085 54.3114 20.1012 54.3114C20.1923 54.3114 20.2713 54.2982 20.3384 54.2717C20.4063 54.2452 20.4589 54.2083 20.4961 54.1611C20.5334 54.1139 20.552 54.0597 20.552 53.9984C20.552 53.9413 20.5351 53.8933 20.5011 53.8544C20.468 53.8155 20.4191 53.7823 20.3546 53.755C20.2908 53.7277 20.2126 53.7029 20.1198 53.6805L19.8429 53.6109C19.6284 53.5587 19.4591 53.4772 19.3349 53.3663C19.2107 53.2553 19.149 53.1059 19.1498 52.9179C19.149 52.7639 19.19 52.6293 19.2728 52.5142C19.3564 52.3991 19.4711 52.3093 19.6168 52.2447C19.7625 52.1801 19.9281 52.1478 20.1136 52.1478C20.3024 52.1478 20.4672 52.1801 20.6079 52.2447C20.7495 52.3093 20.8596 52.3991 20.9383 52.5142C21.017 52.6293 21.0575 52.7626 21.06 52.9141H20.5446Z" fill="#006098"/>
<path d="M21.4466 55.4416V52.8186H21.9682V53.139H21.9918C22.015 53.0876 22.0485 53.0355 22.0924 52.9825C22.1371 52.9286 22.1951 52.8839 22.2663 52.8483C22.3383 52.8119 22.4278 52.7937 22.5346 52.7937C22.6737 52.7937 22.802 52.8301 22.9196 52.903C23.0372 52.975 23.1312 53.0839 23.2015 53.2296C23.2719 53.3745 23.3071 53.5563 23.3071 53.7749C23.3071 53.9877 23.2727 54.1674 23.204 54.3139C23.1361 54.4597 23.0434 54.5702 22.9258 54.6455C22.8091 54.72 22.6782 54.7573 22.5333 54.7573C22.4307 54.7573 22.3433 54.7403 22.2713 54.7064C22.2001 54.6724 22.1417 54.6298 22.0962 54.5785C22.0506 54.5263 22.0158 54.4737 21.9918 54.4207H21.9757V55.4416H21.4466ZM21.9645 53.7724C21.9645 53.8858 21.9802 53.9848 22.0117 54.0692C22.0432 54.1537 22.0887 54.2195 22.1483 54.2667C22.2079 54.3131 22.2804 54.3363 22.3657 54.3363C22.4518 54.3363 22.5246 54.3127 22.5843 54.2655C22.6439 54.2174 22.689 54.1512 22.7196 54.0668C22.7511 53.9815 22.7668 53.8833 22.7668 53.7724C22.7668 53.6623 22.7515 53.5654 22.7209 53.4817C22.6902 53.3981 22.6451 53.3327 22.5855 53.2855C22.5259 53.2383 22.4526 53.2147 22.3657 53.2147C22.2796 53.2147 22.2067 53.2375 22.1471 53.283C22.0883 53.3286 22.0432 53.3932 22.0117 53.4768C21.9802 53.5604 21.9645 53.659 21.9645 53.7724Z" fill="#006098"/>
<path d="M23.6598 54.7262V52.8186H24.1889V54.7262H23.6598ZM23.9256 52.5726C23.847 52.5726 23.7795 52.5465 23.7232 52.4944C23.6677 52.4414 23.64 52.378 23.64 52.3043C23.64 52.2315 23.6677 52.169 23.7232 52.1168C23.7795 52.0638 23.847 52.0373 23.9256 52.0373C24.0043 52.0373 24.0713 52.0638 24.1268 52.1168C24.1831 52.169 24.2113 52.2315 24.2113 52.3043C24.2113 52.378 24.1831 52.4414 24.1268 52.4944C24.0713 52.5465 24.0043 52.5726 23.9256 52.5726Z" fill="#006098"/>
<path d="M25.1418 53.6234V54.7262H24.6128V52.8186H25.117V53.1551H25.1394C25.1816 53.0442 25.2524 52.9564 25.3517 52.8918C25.4511 52.8264 25.5716 52.7937 25.7132 52.7937C25.8456 52.7937 25.9612 52.8227 26.0597 52.8806C26.1582 52.9386 26.2348 53.0214 26.2895 53.129C26.3441 53.2358 26.3714 53.3633 26.3714 53.5116V54.7262H25.8423V53.606C25.8432 53.4892 25.8134 53.3981 25.7529 53.3327C25.6925 53.2665 25.6093 53.2333 25.5033 53.2333C25.4321 53.2333 25.3691 53.2487 25.3145 53.2793C25.2607 53.31 25.2184 53.3547 25.1878 53.4135C25.158 53.4714 25.1427 53.5414 25.1418 53.6234Z" fill="#006098"/>
<path d="M27.4914 54.7573C27.3465 54.7573 27.2153 54.72 27.0977 54.6455C26.9809 54.5702 26.8882 54.4597 26.8195 54.3139C26.7516 54.1674 26.7176 53.9877 26.7176 53.7749C26.7176 53.5563 26.7528 53.3745 26.8232 53.2296C26.8936 53.0839 26.9871 52.975 27.1039 52.903C27.2215 52.8301 27.3502 52.7937 27.4902 52.7937C27.597 52.7937 27.686 52.8119 27.7572 52.8483C27.8292 52.8839 27.8872 52.9286 27.9311 52.9825C27.9758 53.0355 28.0097 53.0876 28.0329 53.139H28.0491V52.1826H28.5769V54.7262H28.0553V54.4207H28.0329C28.0081 54.4737 27.9729 54.5263 27.9273 54.5785C27.8826 54.6298 27.8243 54.6724 27.7522 54.7064C27.681 54.7403 27.5941 54.7573 27.4914 54.7573ZM27.6591 54.3363C27.7444 54.3363 27.8164 54.3131 27.8752 54.2667C27.9348 54.2195 27.9803 54.1537 28.0118 54.0692C28.0441 53.9848 28.0602 53.8858 28.0602 53.7724C28.0602 53.659 28.0445 53.5604 28.013 53.4768C27.9816 53.3932 27.936 53.3286 27.8764 53.283C27.8168 53.2375 27.7444 53.2147 27.6591 53.2147C27.5721 53.2147 27.4988 53.2383 27.4392 53.2855C27.3796 53.3327 27.3345 53.3981 27.3039 53.4817C27.2732 53.5654 27.2579 53.6623 27.2579 53.7724C27.2579 53.8833 27.2732 53.9815 27.3039 54.0668C27.3353 54.1512 27.3804 54.2174 27.4392 54.2655C27.4988 54.3127 27.5721 54.3363 27.6591 54.3363Z" fill="#006098"/>
<path d="M29.541 52.1826V54.7262H29.0119V52.1826H29.541Z" fill="#006098"/>
<path d="M30.8342 54.7635C30.638 54.7635 30.4691 54.7237 30.3275 54.6442C30.1867 54.5639 30.0783 54.4505 30.0021 54.304C29.9259 54.1566 29.8878 53.9823 29.8878 53.7811C29.8878 53.5848 29.9259 53.4126 30.0021 53.2644C30.0783 53.1162 30.1855 53.0007 30.3238 52.9179C30.4629 52.8351 30.626 52.7937 30.8131 52.7937C30.939 52.7937 31.0561 52.814 31.1646 52.8546C31.2739 52.8943 31.3691 52.9543 31.4503 53.0346C31.5322 53.1149 31.596 53.216 31.6415 53.3377C31.6871 53.4586 31.7099 53.6001 31.7099 53.7624V53.9078H30.099V53.5799H31.2118C31.2118 53.5037 31.1953 53.4362 31.1621 53.3775C31.129 53.3187 31.0831 53.2727 31.0243 53.2396C30.9663 53.2056 30.8988 53.1886 30.8218 53.1886C30.7415 53.1886 30.6703 53.2073 30.6082 53.2445C30.5469 53.2809 30.4989 53.3302 30.4641 53.3923C30.4294 53.4536 30.4116 53.5219 30.4107 53.5972V53.909C30.4107 54.0034 30.4281 54.0849 30.4629 54.1537C30.4985 54.2224 30.5486 54.2754 30.6132 54.3127C30.6778 54.3499 30.7543 54.3685 30.8429 54.3685C30.9017 54.3685 30.9555 54.3603 31.0044 54.3437C31.0533 54.3271 31.0951 54.3023 31.1298 54.2692C31.1646 54.2361 31.1911 54.1955 31.2093 54.1475L31.6987 54.1798C31.6738 54.2973 31.6229 54.4 31.5459 54.4878C31.4697 54.5747 31.3712 54.6426 31.2503 54.6915C31.1303 54.7395 30.9916 54.7635 30.8342 54.7635Z" fill="#006098"/>
<path d="M34.2544 52.9141C34.2445 52.814 34.2018 52.7362 34.1265 52.6807C34.0511 52.6252 33.9489 52.5974 33.8197 52.5974C33.7319 52.5974 33.6578 52.6099 33.5974 52.6347C33.5369 52.6587 33.4906 52.6922 33.4583 52.7353C33.4268 52.7784 33.4111 52.8272 33.4111 52.8819C33.4094 52.9274 33.419 52.9672 33.4397 53.0011C33.4612 53.0351 33.4906 53.0645 33.5278 53.0893C33.5651 53.1133 33.6082 53.1344 33.657 53.1526C33.7059 53.17 33.758 53.1849 33.8135 53.1973L34.042 53.252C34.153 53.2768 34.2548 53.3099 34.3476 53.3513C34.4403 53.3927 34.5206 53.4437 34.5885 53.5041C34.6564 53.5646 34.709 53.6358 34.7462 53.7177C34.7843 53.7997 34.8038 53.8937 34.8046 53.9996C34.8038 54.1553 34.764 54.2903 34.6854 54.4045C34.6075 54.518 34.4949 54.6062 34.3476 54.6691C34.201 54.7312 34.0242 54.7622 33.8172 54.7622C33.6119 54.7622 33.433 54.7308 33.2807 54.6679C33.1292 54.6049 33.0107 54.5118 32.9255 54.3884C32.841 54.2642 32.7967 54.1106 32.7926 53.9276H33.313C33.3188 54.0129 33.3432 54.0841 33.3862 54.1413C33.4301 54.1976 33.4885 54.2402 33.5614 54.2692C33.6351 54.2973 33.7183 54.3114 33.811 54.3114C33.9021 54.3114 33.9812 54.2982 34.0482 54.2717C34.1161 54.2452 34.1687 54.2083 34.206 54.1611C34.2432 54.1139 34.2619 54.0597 34.2619 53.9984C34.2619 53.9413 34.2449 53.8933 34.2109 53.8544C34.1778 53.8155 34.129 53.7823 34.0644 53.755C34.0006 53.7277 33.9224 53.7029 33.8296 53.6805L33.5527 53.6109C33.3382 53.5587 33.1689 53.4772 33.0447 53.3663C32.9205 53.2553 32.8588 53.1059 32.8596 52.9179C32.8588 52.7639 32.8998 52.6293 32.9826 52.5142C33.0662 52.3991 33.1809 52.3093 33.3266 52.2447C33.4724 52.1801 33.638 52.1478 33.8234 52.1478C34.0122 52.1478 34.177 52.1801 34.3177 52.2447C34.4593 52.3093 34.5695 52.3991 34.6481 52.5142C34.7268 52.6293 34.7673 52.7626 34.7698 52.9141H34.2544Z" fill="#006098"/>
<path d="M36.0184 54.7635C35.8254 54.7635 35.6586 54.7225 35.5178 54.6405C35.3779 54.5577 35.2698 54.4427 35.1937 54.2953C35.1175 54.1471 35.0794 53.9753 35.0794 53.7799C35.0794 53.5828 35.1175 53.4105 35.1937 53.2632C35.2698 53.1149 35.3779 52.9999 35.5178 52.9179C35.6586 52.8351 35.8254 52.7937 36.0184 52.7937C36.2113 52.7937 36.3777 52.8351 36.5176 52.9179C36.6584 52.9999 36.7669 53.1149 36.843 53.2632C36.9192 53.4105 36.9573 53.5828 36.9573 53.7799C36.9573 53.9753 36.9192 54.1471 36.843 54.2953C36.7669 54.4427 36.6584 54.5577 36.5176 54.6405C36.3777 54.7225 36.2113 54.7635 36.0184 54.7635ZM36.0208 54.3536C36.1086 54.3536 36.1819 54.3288 36.2407 54.2791C36.2995 54.2286 36.3438 54.1599 36.3736 54.0729C36.4042 53.986 36.4195 53.8871 36.4195 53.7761C36.4195 53.6651 36.4042 53.5662 36.3736 53.4793C36.3438 53.3924 36.2995 53.3236 36.2407 53.2731C36.1819 53.2226 36.1086 53.1973 36.0208 53.1973C35.9322 53.1973 35.8577 53.2226 35.7973 53.2731C35.7377 53.3236 35.6925 53.3924 35.6619 53.4793C35.6321 53.5662 35.6172 53.6651 35.6172 53.7761C35.6172 53.8871 35.6321 53.986 35.6619 54.0729C35.6925 54.1599 35.7377 54.2286 35.7973 54.2791C35.8577 54.3288 35.9322 54.3536 36.0208 54.3536Z" fill="#006098"/>
<path d="M37.8304 52.1826V54.7262H37.3013V52.1826H37.8304Z" fill="#006098"/>
<path d="M39.4776 53.914V52.8186H40.0067V54.7262H39.4987V54.3797H39.4789C39.4358 54.4915 39.3642 54.5813 39.264 54.6492C39.1646 54.7171 39.0433 54.7511 38.9001 54.7511C38.7726 54.7511 38.6604 54.7221 38.5635 54.6642C38.4666 54.6062 38.3909 54.5238 38.3362 54.417C38.2824 54.3102 38.2551 54.1823 38.2543 54.0332V52.8186H38.7834V53.9388C38.7842 54.0514 38.8144 54.1404 38.874 54.2058C38.9336 54.2712 39.0135 54.304 39.1137 54.304C39.1775 54.304 39.2371 54.2895 39.2926 54.2605C39.3481 54.2307 39.3928 54.1868 39.4267 54.1288C39.4615 54.0709 39.4785 53.9992 39.4776 53.914Z" fill="#006098"/>
<path d="M41.4447 52.8186V53.216H40.2958V52.8186H41.4447ZM40.5566 52.3615H41.0857V54.14C41.0857 54.1889 41.0932 54.227 41.1081 54.2543C41.123 54.2808 41.1437 54.2994 41.1702 54.3102C41.1975 54.3209 41.229 54.3263 41.2646 54.3263C41.2894 54.3263 41.3142 54.3243 41.3391 54.3201C41.3639 54.3152 41.383 54.3114 41.3962 54.3089L41.4794 54.7027C41.4529 54.7109 41.4157 54.7204 41.3676 54.7312C41.3196 54.7428 41.2613 54.7499 41.1925 54.7523C41.065 54.7573 40.9532 54.7403 40.8572 54.7014C40.762 54.6625 40.6879 54.602 40.6349 54.5201C40.5819 54.4381 40.5558 54.3346 40.5566 54.2096V52.3615Z" fill="#006098"/>
<path d="M41.7893 54.7262V52.8186H42.3184V54.7262H41.7893ZM42.0551 52.5726C41.9764 52.5726 41.909 52.5465 41.8526 52.4944C41.7972 52.4414 41.7694 52.378 41.7694 52.3043C41.7694 52.2315 41.7972 52.169 41.8526 52.1168C41.909 52.0638 41.9764 52.0373 42.0551 52.0373C42.1338 52.0373 42.2008 52.0638 42.2563 52.1168C42.3126 52.169 42.3408 52.2315 42.3408 52.3043C42.3408 52.378 42.3126 52.4414 42.2563 52.4944C42.2008 52.5465 42.1338 52.5726 42.0551 52.5726Z" fill="#006098"/>
<path d="M43.6042 54.7635C43.4113 54.7635 43.2444 54.7225 43.1037 54.6405C42.9637 54.5577 42.8557 54.4427 42.7795 54.2953C42.7033 54.1471 42.6652 53.9753 42.6652 53.7799C42.6652 53.5828 42.7033 53.4105 42.7795 53.2632C42.8557 53.1149 42.9637 52.9999 43.1037 52.9179C43.2444 52.8351 43.4113 52.7937 43.6042 52.7937C43.7971 52.7937 43.9635 52.8351 44.1035 52.9179C44.2442 52.9999 44.3527 53.1149 44.4289 53.2632C44.505 53.4105 44.5431 53.5828 44.5431 53.7799C44.5431 53.9753 44.505 54.1471 44.4289 54.2953C44.3527 54.4427 44.2442 54.5577 44.1035 54.6405C43.9635 54.7225 43.7971 54.7635 43.6042 54.7635ZM43.6067 54.3536C43.6944 54.3536 43.7677 54.3288 43.8265 54.2791C43.8853 54.2286 43.9296 54.1599 43.9594 54.0729C43.99 53.986 44.0053 53.8871 44.0053 53.7761C44.0053 53.6651 43.99 53.5662 43.9594 53.4793C43.9296 53.3924 43.8853 53.3236 43.8265 53.2731C43.7677 53.2226 43.6944 53.1973 43.6067 53.1973C43.5181 53.1973 43.4436 53.2226 43.3831 53.2731C43.3235 53.3236 43.2784 53.3924 43.2477 53.4793C43.2179 53.5662 43.203 53.6651 43.203 53.7761C43.203 53.8871 43.2179 53.986 43.2477 54.0729C43.2784 54.1599 43.3235 54.2286 43.3831 54.2791C43.4436 54.3288 43.5181 54.3536 43.6067 54.3536Z" fill="#006098"/>
<path d="M45.4163 53.6234V54.7262H44.8872V52.8186H45.3914V53.1551H45.4138C45.456 53.0442 45.5268 52.9564 45.6262 52.8918C45.7255 52.8264 45.846 52.7937 45.9876 52.7937C46.1201 52.7937 46.2356 52.8227 46.3341 52.8806C46.4326 52.9386 46.5092 53.0214 46.5639 53.129C46.6185 53.2358 46.6458 53.3633 46.6458 53.5116V54.7262H46.1167V53.606C46.1176 53.4892 46.0878 53.3981 46.0273 53.3327C45.9669 53.2665 45.8837 53.2333 45.7777 53.2333C45.7065 53.2333 45.6435 53.2487 45.5889 53.2793C45.5351 53.31 45.4929 53.3547 45.4622 53.4135C45.4324 53.4714 45.4171 53.5414 45.4163 53.6234Z" fill="#006098"/>
<path d="M48.6501 53.3625L48.1657 53.3923C48.1575 53.3509 48.1397 53.3137 48.1123 53.2805C48.085 53.2466 48.049 53.2197 48.0043 53.1998C47.9604 53.1791 47.9078 53.1688 47.8465 53.1688C47.7646 53.1688 47.6954 53.1862 47.6391 53.221C47.5828 53.2549 47.5547 53.3004 47.5547 53.3575C47.5547 53.4031 47.5729 53.4416 47.6093 53.4731C47.6458 53.5045 47.7083 53.5298 47.7969 53.5488L48.1421 53.6184C48.3276 53.6565 48.4659 53.7178 48.557 53.8022C48.648 53.8867 48.6936 53.9976 48.6936 54.1351C48.6936 54.2601 48.6567 54.3698 48.583 54.4642C48.5102 54.5586 48.41 54.6322 48.2825 54.6852C48.1558 54.7374 48.0097 54.7635 47.8441 54.7635C47.5915 54.7635 47.3903 54.7109 47.2404 54.6058C47.0914 54.4998 47.0041 54.3557 46.9784 54.1736L47.4988 54.1462C47.5145 54.2233 47.5526 54.282 47.613 54.3226C47.6735 54.3624 47.7509 54.3822 47.8453 54.3822C47.938 54.3822 48.0126 54.3644 48.0689 54.3288C48.126 54.2924 48.155 54.2456 48.1558 54.1885C48.155 54.1404 48.1347 54.1011 48.0949 54.0705C48.0552 54.039 47.9939 54.015 47.9111 53.9984L47.5808 53.9326C47.3945 53.8953 47.2558 53.8308 47.1647 53.7389C47.0744 53.647 47.0293 53.5298 47.0293 53.3874C47.0293 53.2648 47.0624 53.1592 47.1287 53.0706C47.1957 52.9821 47.2897 52.9138 47.4106 52.8657C47.5323 52.8177 47.6747 52.7937 47.8378 52.7937C48.0788 52.7937 48.2684 52.8446 48.4067 52.9464C48.5458 53.0483 48.6269 53.187 48.6501 53.3625Z" fill="#006098"/>
<path d="M49.8462 54.7262V52.1826H50.8497C51.0426 52.1826 51.207 52.2195 51.3428 52.2932C51.4786 52.366 51.5821 52.4674 51.6533 52.5974C51.7253 52.7266 51.7613 52.8757 51.7613 53.0446C51.7613 53.2135 51.7249 53.3625 51.652 53.4917C51.5792 53.6209 51.4736 53.7215 51.3353 53.7935C51.1979 53.8656 51.0314 53.9016 50.836 53.9016H50.1964V53.4706H50.7491C50.8526 53.4706 50.9379 53.4528 51.005 53.4172C51.0728 53.3807 51.1234 53.3306 51.1565 53.2669C51.1904 53.2023 51.2074 53.1282 51.2074 53.0446C51.2074 52.9601 51.1904 52.8864 51.1565 52.8235C51.1234 52.7597 51.0728 52.7105 51.005 52.6757C50.9371 52.6401 50.8509 52.6223 50.7466 52.6223H50.384V54.7262H49.8462Z" fill="#006098"/>
<path d="M52.1007 54.7262V52.8186H52.6137V53.1514H52.6335C52.6683 53.033 52.7267 52.9436 52.8086 52.8831C52.8906 52.8218 52.985 52.7912 53.0918 52.7912C53.1183 52.7912 53.1469 52.7929 53.1775 52.7962C53.2082 52.7995 53.2351 52.804 53.2583 52.8098V53.2793C53.2334 53.2719 53.199 53.2653 53.1552 53.2595C53.1113 53.2537 53.0711 53.2508 53.0347 53.2508C52.9569 53.2508 52.8873 53.2677 52.826 53.3017C52.7656 53.3348 52.7176 53.3812 52.682 53.4408C52.6472 53.5004 52.6298 53.5691 52.6298 53.6469V54.7262H52.1007Z" fill="#006098"/>
<path d="M54.3049 54.7635C54.112 54.7635 53.9452 54.7225 53.8044 54.6405C53.6645 54.5577 53.5564 54.4427 53.4803 54.2953C53.4041 54.1471 53.366 53.9753 53.366 53.7799C53.366 53.5828 53.4041 53.4105 53.4803 53.2632C53.5564 53.1149 53.6645 52.9999 53.8044 52.9179C53.9452 52.8351 54.112 52.7937 54.3049 52.7937C54.4979 52.7937 54.6643 52.8351 54.8042 52.9179C54.945 52.9999 55.0535 53.1149 55.1296 53.2632C55.2058 53.4105 55.2439 53.5828 55.2439 53.7799C55.2439 53.9753 55.2058 54.1471 55.1296 54.2953C55.0535 54.4427 54.945 54.5577 54.8042 54.6405C54.6643 54.7225 54.4979 54.7635 54.3049 54.7635ZM54.3074 54.3536C54.3952 54.3536 54.4685 54.3288 54.5273 54.2791C54.5861 54.2286 54.6304 54.1599 54.6602 54.0729C54.6908 53.986 54.7061 53.8871 54.7061 53.7761C54.7061 53.6651 54.6908 53.5662 54.6602 53.4793C54.6304 53.3924 54.5861 53.3236 54.5273 53.2731C54.4685 53.2226 54.3952 53.1973 54.3074 53.1973C54.2188 53.1973 54.1443 53.2226 54.0839 53.2731C54.0243 53.3236 53.9791 53.3924 53.9485 53.4793C53.9187 53.5662 53.9038 53.6651 53.9038 53.7761C53.9038 53.8871 53.9187 53.986 53.9485 54.0729C53.9791 54.1599 54.0243 54.2286 54.0839 54.2791C54.1443 54.3288 54.2188 54.3536 54.3074 54.3536Z" fill="#006098"/>
<path d="M57.305 52.8186L56.638 54.7262H56.0419L55.3749 52.8186H55.9338L56.33 54.1835H56.3499L56.7449 52.8186H57.305Z" fill="#006098"/>
<path d="M57.5758 54.7262V52.8186H58.1048V54.7262H57.5758ZM57.8415 52.5726C57.7629 52.5726 57.6954 52.5465 57.6391 52.4944C57.5836 52.4414 57.5559 52.378 57.5559 52.3043C57.5559 52.2315 57.5836 52.169 57.6391 52.1168C57.6954 52.0638 57.7629 52.0373 57.8415 52.0373C57.9202 52.0373 57.9873 52.0638 58.0427 52.1168C58.099 52.169 58.1272 52.2315 58.1272 52.3043C58.1272 52.378 58.099 52.4414 58.0427 52.4944C57.9873 52.5465 57.9202 52.5726 57.8415 52.5726Z" fill="#006098"/>
<path d="M59.2316 54.7573C59.0867 54.7573 58.9555 54.72 58.8379 54.6455C58.7212 54.5702 58.6285 54.4597 58.5597 54.3139C58.4918 54.1674 58.4579 53.9877 58.4579 53.7749C58.4579 53.5563 58.4931 53.3745 58.5635 53.2296C58.6338 53.0839 58.7274 52.975 58.8441 52.903C58.9617 52.8301 59.0905 52.7937 59.2304 52.7937C59.3372 52.7937 59.4262 52.8119 59.4974 52.8483C59.5695 52.8839 59.6274 52.9286 59.6713 52.9825C59.716 53.0355 59.75 53.0876 59.7732 53.139H59.7893V52.1826H60.3172V54.7262H59.7955V54.4207H59.7732C59.7483 54.4737 59.7131 54.5263 59.6676 54.5785C59.6229 54.6298 59.5645 54.6724 59.4925 54.7064C59.4213 54.7403 59.3343 54.7573 59.2316 54.7573ZM59.3993 54.3363C59.4846 54.3363 59.5566 54.3131 59.6154 54.2667C59.675 54.2195 59.7206 54.1537 59.7521 54.0692C59.7843 53.9848 59.8005 53.8858 59.8005 53.7724C59.8005 53.659 59.7847 53.5604 59.7533 53.4768C59.7218 53.3932 59.6763 53.3286 59.6167 53.283C59.5571 53.2375 59.4846 53.2147 59.3993 53.2147C59.3124 53.2147 59.2391 53.2383 59.1795 53.2855C59.1199 53.3327 59.0747 53.3981 59.0441 53.4817C59.0135 53.5654 58.9982 53.6623 58.9982 53.7724C58.9982 53.8833 59.0135 53.9815 59.0441 54.0668C59.0756 54.1512 59.1207 54.2174 59.1795 54.2655C59.2391 54.3127 59.3124 54.3363 59.3993 54.3363Z" fill="#006098"/>
<path d="M61.6216 54.7635C61.4253 54.7635 61.2564 54.7237 61.1148 54.6442C60.9741 54.5639 60.8656 54.4505 60.7894 54.304C60.7133 54.1566 60.6752 53.9823 60.6752 53.7811C60.6752 53.5848 60.7133 53.4126 60.7894 53.2644C60.8656 53.1162 60.9728 53.0007 61.1111 52.9179C61.2502 52.8351 61.4133 52.7937 61.6005 52.7937C61.7263 52.7937 61.8435 52.814 61.9519 52.8546C62.0612 52.8943 62.1565 52.9543 62.2376 53.0346C62.3196 53.1149 62.3833 53.216 62.4289 53.3377C62.4744 53.4586 62.4972 53.6001 62.4972 53.7624V53.9078H60.8863V53.5799H61.9991C61.9991 53.5037 61.9826 53.4362 61.9495 53.3775C61.9163 53.3187 61.8704 53.2727 61.8116 53.2396C61.7536 53.2056 61.6862 53.1886 61.6092 53.1886C61.5288 53.1886 61.4576 53.2073 61.3955 53.2445C61.3343 53.2809 61.2862 53.3302 61.2515 53.3923C61.2167 53.4536 61.1989 53.5219 61.1981 53.5972V53.909C61.1981 54.0034 61.2154 54.0849 61.2502 54.1537C61.2858 54.2224 61.3359 54.2754 61.4005 54.3127C61.4651 54.3499 61.5417 54.3685 61.6303 54.3685C61.6891 54.3685 61.7429 54.3603 61.7917 54.3437C61.8406 54.3271 61.8824 54.3023 61.9172 54.2692C61.9519 54.2361 61.9784 54.1955 61.9967 54.1475L62.486 54.1798C62.4612 54.2973 62.4102 54.4 62.3332 54.4878C62.2571 54.5747 62.1585 54.6426 62.0376 54.6915C61.9176 54.7395 61.7789 54.7635 61.6216 54.7635Z" fill="#006098"/>
<path d="M62.8425 54.7262V52.8186H63.3554V53.1514H63.3753C63.41 53.033 63.4684 52.9436 63.5504 52.8831C63.6324 52.8218 63.7268 52.7912 63.8336 52.7912C63.8601 52.7912 63.8886 52.7929 63.9193 52.7962C63.9499 52.7995 63.9768 52.804 64 52.8098V53.2793C63.9752 53.2719 63.9408 53.2653 63.8969 53.2595C63.853 53.2537 63.8129 53.2508 63.7764 53.2508C63.6986 53.2508 63.6291 53.2677 63.5678 53.3017C63.5073 53.3348 63.4593 53.3812 63.4237 53.4408C63.3889 53.5004 63.3715 53.5691 63.3715 53.6469V54.7262H62.8425Z" fill="#006098"/>
</svg>
