<svg width="50" height="50" viewBox="0 0 50 50" fill="none" xmlns="http://www.w3.org/2000/svg">
<path d="M31.25 40.6016C30.4562 40.9203 29.6359 41.1875 28.7875 41.3828L28.4438 45.8609C28.4 46.4328 27.9219 46.875 27.3484 46.875H22.65C22.0766 46.875 21.6 46.4328 21.5562 45.8625L21.2125 41.3844C19.3719 40.9609 17.6516 40.2344 16.0969 39.2609L12.6828 42.1875C12.2469 42.5609 11.5984 42.5359 11.1922 42.1297L7.87031 38.8078C7.46406 38.4016 7.44063 37.7531 7.8125 37.3172L10.7391 33.9031C9.76719 32.3484 9.04063 30.6281 8.61562 28.7875L4.1375 28.4438C3.56719 28.4 3.125 27.9219 3.125 27.3484V22.65C3.125 22.0766 3.56719 21.6 4.1375 21.5562L8.61562 21.2125C9.03906 19.3719 9.76562 17.6516 10.7391 16.0969L7.81406 12.6828C7.44062 12.2484 7.46563 11.5984 7.87031 11.1938L11.1922 7.87188C11.5969 7.46719 12.2469 7.44219 12.6828 7.81406L16.0969 10.7406C17.6516 9.76875 19.3719 9.04219 21.2125 8.61719L21.5562 4.13906C21.6 3.56719 22.0781 3.125 22.6516 3.125H27.35C27.9234 3.125 28.4 3.56719 28.4438 4.1375L28.4641 4.39844C27.2516 6.25938 26.5625 8.45312 26.5625 10.7734C26.5625 12.6516 27.0062 14.4516 27.8172 16.0578C26.9281 15.7766 25.9813 15.625 25 15.625C19.8219 15.625 15.625 19.8219 15.625 25C15.625 30.1781 19.8219 34.375 25 34.375C27.4047 34.375 29.5906 33.4625 31.25 31.9734V40.6016Z" fill="#005D95"/>
<path d="M42.1875 18.4195V42.9679C42.1875 45.1257 40.4391 46.8741 38.2812 46.8741C36.1234 46.8741 34.375 45.1257 34.375 42.9679V18.4195C31.5938 16.996 29.6875 14.1101 29.6875 10.771C29.6875 7.54446 31.4687 4.73821 34.1 3.26946C34.2203 3.20383 34.375 3.29758 34.375 3.43508V12.4991L38.2812 14.0616L42.1875 12.4991V3.43508C42.1875 3.29758 42.3422 3.20383 42.4625 3.27102C45.0938 4.73977 46.875 7.54446 46.875 10.7726C46.875 14.1101 44.9688 16.9976 42.1875 18.4195Z" fill="#C4F053"/>
</svg>
