<svg width="50" height="50" viewBox="0 0 50 50" fill="none" xmlns="http://www.w3.org/2000/svg">
<path d="M39.8438 29.6875H36.5468L38.3764 32.8125H39.8438C41.9983 32.8125 43.75 34.565 43.75 36.7188C43.75 38.8725 41.9983 40.625 39.8438 40.625H37.5089L37.5031 40.6258L37.4971 40.625H8.45947L8.91724 40.1672C9.52759 39.5569 9.52759 38.5681 8.91724 37.9578C8.30688 37.3474 7.31812 37.3474 6.70776 37.9578L3.58276 41.0828C2.97241 41.6931 2.97241 42.6819 3.58276 43.2922L6.70776 46.4172C7.01294 46.7224 7.41272 46.875 7.8125 46.875C8.21228 46.875 8.61206 46.7224 8.91724 46.4172C9.52759 45.8069 9.52759 44.8181 8.91724 44.2078L8.45947 43.75H39.8438C43.721 43.75 46.875 40.596 46.875 36.7188C46.875 32.8415 43.721 29.6875 39.8438 29.6875Z" fill="#C4F053"/>
<path d="M6.70776 12.0422C7.01294 12.3474 7.41272 12.5 7.8125 12.5C8.21228 12.5 8.61206 12.3474 8.91724 12.0422C9.52759 11.4319 9.52759 10.4431 8.91724 9.83276L8.45947 9.375H39.8438C41.9983 9.375 43.75 11.1275 43.75 13.2812C43.75 15.435 41.9983 17.1875 39.8438 17.1875H38.3764L36.5468 20.3125H39.8438C43.721 20.3125 46.875 17.1585 46.875 13.2812C46.875 9.40399 43.721 6.25 39.8438 6.25H8.45947L8.91724 5.79224C9.52759 5.18188 9.52759 4.19312 8.91724 3.58276C8.30688 2.97241 7.31812 2.97241 6.70776 3.58276L3.58276 6.70776C2.97241 7.31812 2.97241 8.30688 3.58276 8.91724L6.70776 12.0422Z" fill="#C4F053"/>
<path d="M38.5283 23.2594L35.5806 22.2769C35.3211 21.2694 34.9241 20.3196 34.4063 19.4458L35.7967 16.6648C35.9471 16.364 35.8882 16.0007 35.6503 15.763L34.237 14.3497C33.9993 14.1118 33.636 14.0529 33.3352 14.2033L30.5542 15.5937C29.6804 15.0759 28.7306 14.6789 27.7231 14.4194L26.7406 11.4717C26.6342 11.1526 26.3357 10.9375 25.9995 10.9375H24.0005C23.6643 10.9375 23.3658 11.1526 23.2594 11.4717L22.2769 14.4194C21.2694 14.6789 20.3196 15.0759 19.4458 15.5937L16.6648 14.2033C16.364 14.0529 16.0007 14.1118 15.763 14.3497L14.3497 15.763C14.1118 16.0007 14.0529 16.364 14.2033 16.6648L15.5937 19.4458C15.0759 20.3196 14.6789 21.2694 14.4194 22.2769L11.4717 23.2594C11.1526 23.3658 10.9375 23.6643 10.9375 24.0005V25.9995C10.9375 26.3357 11.1526 26.6342 11.4717 26.7406L14.4194 27.7231C14.6789 28.7306 15.0759 29.6804 15.5937 30.5542L14.2033 33.3352C14.0529 33.636 14.1118 33.9993 14.3497 34.237L15.763 35.6503C16.0007 35.8882 16.364 35.9471 16.6648 35.7967L19.4458 34.4063C20.3196 34.9241 21.2694 35.3211 22.2769 35.5806L23.2594 38.5283C23.3658 38.8473 23.6643 39.0625 24.0005 39.0625H25.9995C26.3357 39.0625 26.6342 38.8473 26.7406 38.5283L27.7231 35.5806C28.7306 35.3211 29.6804 34.9241 30.5542 34.4063L33.3352 35.7967C33.636 35.9471 33.9993 35.8882 34.237 35.6503L35.6503 34.237C35.8882 33.9993 35.9471 33.636 35.7967 33.3352L34.4063 30.5542C34.9241 29.6804 35.3211 28.7306 35.5806 27.7231L38.5283 26.7406C38.8474 26.6342 39.0625 26.3357 39.0625 25.9995V24.0005C39.0625 23.6643 38.8474 23.3658 38.5283 23.2594ZM25 31.25C21.5482 31.25 18.75 28.4518 18.75 25C18.75 21.5482 21.5482 18.75 25 18.75C28.4518 18.75 31.25 21.5482 31.25 25C31.25 28.4518 28.4518 31.25 25 31.25Z" fill="#005D95"/>
<path d="M25 29.6875C27.5888 29.6875 29.6875 27.5888 29.6875 25C29.6875 22.4112 27.5888 20.3125 25 20.3125C22.4112 20.3125 20.3125 22.4112 20.3125 25C20.3125 27.5888 22.4112 29.6875 25 29.6875Z" fill="#005D95"/>
</svg>
