<svg width="416" height="200" viewBox="0 0 416 200" fill="none" xmlns="http://www.w3.org/2000/svg">
<path fill-rule="evenodd" clip-rule="evenodd" d="M406.378 13.1252C405.566 13.4569 405.479 14.1723 406.212 14.4799C407.271 14.9236 408.207 17.9826 407.675 19.253C407.397 19.9155 407.523 20.5239 407.978 20.7146C409.354 21.292 410.099 18.2595 409.187 15.7919C408.387 13.6292 407.411 12.7028 406.378 13.1252ZM398.841 11.2019C397.709 11.1411 396.047 12.0412 395.681 12.9134C395.527 13.2805 396.182 14.464 397.135 15.5432C399.343 18.0416 400.101 18.3652 398.968 16.3257C398.481 15.4502 397.809 14.6187 397.473 14.4778C396.386 14.0221 397.775 13.123 399.199 13.3605C400.862 13.6377 402.144 12.1394 400.7 11.6061C400.17 11.41 399.334 11.2283 398.841 11.2019ZM370.622 0.707842C370.359 0.895964 369.432 0.936747 368.564 0.798341C366.067 0.400805 354.147 1.29081 354.238 1.86865C354.343 2.53539 360.005 2.87508 364.316 2.47238C369.841 1.95671 371.055 2.17028 377.42 4.77856C379.713 5.71787 382.139 7.01691 382.812 7.66493C383.486 8.31297 385.059 9.27194 386.309 9.79601C387.558 10.3201 388.627 11.043 388.684 11.4025C388.811 12.2119 393.325 14.1656 393.592 13.5276C393.699 13.2737 393.075 12.634 392.204 12.1066C391.334 11.5792 390.024 10.6097 389.292 9.95193C386.266 7.23307 383.157 5.42167 377.293 2.96287C373.887 1.53456 370.886 0.519921 370.622 0.707842ZM403.239 14.9098C401.78 14.6553 401.313 16.3957 402.496 17.6752C403.223 18.462 403.358 19.2943 402.963 20.5641C402.543 21.9143 402.666 22.501 403.465 22.9786C404.878 23.8224 406.324 22.1822 405.708 20.4344C405.465 19.742 405.363 18.9429 405.482 18.6583C405.863 17.7498 404.271 15.09 403.239 14.9098ZM403.175 24.8385C402.216 25.5236 402.459 27.2847 403.746 28.9849C406.049 32.0285 411.233 45.7641 411.655 49.9435C412.627 59.5614 413.221 68.0707 413.156 71.4208C413.068 75.9289 411.678 82.3166 409.776 86.9547C407.666 92.0969 402.003 100.007 397.259 104.436C396.514 105.131 395.541 106.234 395.095 106.887C393.777 108.817 389.322 111.613 387.421 111.704C386.452 111.75 384.497 112.589 383.079 113.57C381.661 114.55 380.345 115.302 380.155 115.24C379.311 114.967 380.341 112.087 381.582 111.25C382.306 110.761 383.311 109.357 383.816 108.13C384.963 105.339 384.272 105.806 379.555 111.009C376.217 114.691 375.15 116.869 377.327 115.557C377.92 115.2 378.392 115.213 378.452 115.589C378.507 115.945 377.477 116.372 376.162 116.539C374.846 116.706 372.288 117.463 370.476 118.221C368.664 118.98 366.985 119.518 366.745 119.418C366.505 119.317 364.598 119.902 362.506 120.717C360.415 121.531 356.695 122.788 354.241 123.508C351.786 124.228 347.139 125.771 343.914 126.937C331.161 131.547 327.105 132.926 325.982 133.032C325.337 133.092 323.306 133.776 321.467 134.552C318.403 135.844 315.222 136.922 297.325 142.738C293.993 143.82 289.134 145.536 286.526 146.55C283.918 147.565 279.231 149.202 276.11 150.189C269.075 152.413 254.474 157.39 247.696 159.875C244.899 160.9 239.323 162.82 235.305 164.141C221.599 168.648 218.515 169.7 214.158 171.357C211.761 172.267 207.251 173.852 204.135 174.877C201.019 175.902 196.35 177.535 193.76 178.506C191.171 179.478 187.788 180.666 186.243 181.147C184.698 181.629 180.376 183.091 176.639 184.396C172.902 185.7 168.09 187.213 165.946 187.758C163.802 188.302 159.755 189.838 156.952 191.169C153.885 192.627 151.621 193.365 151.263 193.023C150.929 192.702 148.997 193.112 146.834 193.961C140.898 196.292 132.507 197.417 130.8 196.112C130.301 195.729 129.811 195.611 129.712 195.847C129.613 196.084 128.537 196.192 127.322 196.089C126.106 195.984 124.802 195.982 124.424 196.083C123.356 196.368 117.599 194.608 117.498 193.965C117.448 193.65 121.725 191.56 127.003 189.321C132.28 187.082 136.687 185.039 136.795 184.78C136.904 184.522 138.75 183.452 140.898 182.402C144.479 180.652 148.272 177.793 148.854 176.405C149.356 175.208 146.624 176.113 143.55 178.161C141.821 179.313 139.775 180.275 139.006 180.299C138.236 180.322 136.845 181.02 135.915 181.85C131.087 186.16 112.035 193.128 107.398 192.28C105.583 191.948 105.565 191.912 106.533 190.61C107.1 189.847 107.238 189.421 106.855 189.61C105.907 190.079 103.147 193.277 103.322 193.704C103.402 193.9 104.542 194.026 105.855 193.984C107.504 193.931 110.294 194.642 114.877 196.283C122.437 198.99 123.078 199.125 130.027 199.463C138.274 199.864 140.755 199.261 164.299 191.124C171.332 188.695 179.593 185.912 182.656 184.941C185.719 183.969 190.248 182.402 192.719 181.458C195.189 180.513 199.579 179.007 202.473 178.11C205.368 177.214 209.861 175.672 212.458 174.683C215.055 173.693 219.385 172.212 222.08 171.39C224.775 170.569 230.224 168.712 234.189 167.264C238.154 165.816 242.321 164.396 243.449 164.108C244.577 163.82 247.452 162.874 249.837 162.006C254.601 160.271 258.521 158.924 269.501 155.254C273.51 153.914 280.027 151.698 283.982 150.33C287.937 148.962 292.271 147.517 293.613 147.119C294.956 146.721 298.638 145.474 301.796 144.35C308.744 141.873 320.878 137.834 332.306 134.193C336.957 132.711 342.264 130.873 344.098 130.108C345.934 129.344 349.759 128.045 352.599 127.221C355.439 126.398 360.075 124.908 362.9 123.91C365.726 122.913 370.781 121.216 374.133 120.14C377.486 119.064 380.31 117.988 380.41 117.75C380.51 117.512 383.332 116.186 386.682 114.804C390.371 113.282 393.673 111.472 395.057 110.212C396.313 109.069 397.729 107.82 398.205 107.436C398.68 107.052 399.178 106.479 399.312 106.161C399.445 105.843 400.183 104.981 400.951 104.245C404.555 100.797 409.59 93.3066 411.717 88.2303C413.51 83.951 415.377 76.3569 415.393 73.2747C415.427 67.0685 414.908 55.8645 414.5 53.9747C414.301 53.0516 413.965 50.5756 413.754 48.4727C413.544 46.3699 412.424 42.234 411.265 39.2817C408.805 33.0144 403.925 24.3027 403.175 24.8385ZM345.628 2.41076C343.397 2.36675 341.157 2.50016 340.651 2.70727C340.145 2.91406 339.556 3.01032 339.344 2.92106C339.131 2.83179 336.202 3.37148 332.835 4.12025C329.468 4.86881 324.914 5.70536 322.713 5.97848C320.512 6.25211 317.494 6.75812 316.006 7.10358C314.518 7.44853 309.752 8.40392 305.415 9.2262C301.078 10.0483 296.072 11.0032 294.291 11.3475C292.51 11.6916 290.858 11.8918 290.619 11.7914C290.38 11.6913 286.808 12.379 282.681 13.32C278.555 14.261 274.247 15.0993 273.11 15.1827C271.972 15.2664 269.06 15.7994 266.639 16.3678C264.218 16.9356 259.641 17.7974 256.467 18.2828C247.58 19.6405 242.749 20.4491 237.495 21.4569C234.845 21.9654 228.687 23.0514 223.811 23.8703C210.278 26.1433 200.278 27.9349 189.218 30.0685C183.684 31.1365 178.887 32.0136 178.558 32.0181C177.295 32.0349 172.367 32.9106 162.726 34.8308C157.219 35.9274 151.524 36.9136 150.071 37.0221C148.618 37.1311 146.365 37.5765 145.065 38.0124C143.764 38.4481 141.501 38.7852 140.034 38.7611C136.597 38.7043 133.56 39.0498 128.714 40.0481L124.809 40.8525L126.965 41.9452C128.717 42.833 129.6 42.9073 131.683 42.3423C133.092 41.9595 135.499 41.6032 137.032 41.5507C138.565 41.4982 141.072 41.4088 142.603 41.3519C144.2 41.2926 145.539 40.8943 145.742 40.418C145.96 39.9073 147.181 39.6241 148.913 39.6828C150.461 39.7345 154.232 39.258 157.293 38.623C170.202 35.9449 187.952 32.7937 190.321 32.7599C191.25 32.7465 192.099 32.5238 192.207 32.2647C192.316 32.0056 194.485 31.4669 197.026 31.0676C202.285 30.2407 203.606 30.0004 207.284 29.2007C211.468 28.2906 212.277 28.1391 217.955 27.1986C220.912 26.709 223.482 26.3717 223.667 26.4492C223.851 26.5265 225.279 26.1792 226.841 25.6782C228.401 25.1765 230.851 24.6801 232.284 24.5747C236.389 24.2728 239.373 23.733 242.195 22.7808C243.631 22.297 245.507 22.0172 246.364 22.1599C247.222 22.3029 249.565 21.995 251.572 21.4766C253.58 20.9575 256.896 20.39 258.943 20.2154C260.99 20.0406 263.536 19.6465 264.603 19.3405C269.367 17.9709 270.797 17.6912 272.779 17.7405C273.942 17.7692 275.678 17.4856 276.637 17.1098C277.596 16.7343 278.556 16.5009 278.772 16.5913C278.988 16.6819 280.697 16.2838 282.57 15.7067C284.444 15.1299 287.228 14.62 288.759 14.5733C290.289 14.527 293.756 13.9363 296.463 13.2608C299.17 12.586 301.573 12.1117 301.803 12.2082C302.032 12.3044 303.31 12.0612 304.643 11.6678C305.975 11.2749 308.976 10.7421 311.311 10.4843C313.645 10.2262 316.678 9.59906 318.051 9.08993C319.424 8.5808 322.379 8.00003 324.617 7.79907C326.856 7.59884 329.736 7.08896 331.017 6.66593C332.298 6.24341 334.819 5.7985 336.621 5.67665C338.422 5.5548 340.363 5.32579 340.933 5.16691C341.503 5.00802 343.481 4.87665 345.329 4.87487C347.176 4.87309 349.596 4.86898 350.707 4.86533C351.818 4.86169 352.68 4.56776 352.624 4.21142C352.456 3.14515 349.931 2.49538 345.628 2.41076ZM372.214 17.2671C372.761 18.5453 377.362 23.7486 378.29 24.1375C379.477 24.6354 379.832 23.8138 378.817 22.9214C378.388 22.5437 377.77 21.8872 377.445 21.462C375.622 19.0786 373.993 17.4516 373.021 17.044C372.34 16.7583 372.032 16.8437 372.214 17.2671ZM381.679 28.3062C381.336 28.6658 381.283 29.0558 381.562 29.173C383.359 29.9265 387.829 36.1288 389.717 40.489C390.174 41.5418 390.712 42.7474 390.914 43.168C391.117 43.5888 391.78 45.3321 392.389 47.0428C393.282 49.5508 393.58 49.9508 393.933 49.1092C394.846 46.9317 389.154 35.0597 384.587 29.6158C382.978 27.699 382.477 27.4734 381.679 28.3062ZM378.367 34.5483C378.071 34.7598 378.062 35.0309 378.347 35.1507C378.633 35.2704 379.109 35.1953 379.405 34.9838C379.701 34.7722 379.71 34.5012 379.425 34.3814C379.139 34.2617 378.663 34.3368 378.367 34.5483ZM394.043 53.9427C394.1 54.3023 394.249 54.6396 394.375 54.6925C394.501 54.7454 394.702 54.5548 394.822 54.2693C394.941 53.9837 394.792 53.6462 394.49 53.5195C394.187 53.3928 393.986 53.5831 394.043 53.9427ZM394.853 60.1328C394.624 60.7481 394.696 60.9227 395.035 60.5784C395.342 60.2665 395.511 59.8106 395.411 59.5659C395.311 59.3213 395.06 59.5762 394.853 60.1328ZM394.806 74.6869C394.618 75.1355 394.51 75.9999 394.567 76.6066C394.779 78.8859 394.222 83.7288 393.464 86.2086C393.031 87.6225 392.921 88.8809 393.218 89.0055C393.859 89.2742 395.575 83.7496 395.405 81.9625C395.345 81.3231 395.486 80.3455 395.719 79.7905C395.951 79.2355 395.913 78.344 395.634 77.8087C395.355 77.2734 395.304 76.411 395.522 75.8918C395.74 75.3721 395.745 74.7051 395.533 74.4088C395.322 74.1126 394.995 74.2378 394.806 74.6869ZM391.182 93.4935C391.087 93.7058 389.93 95.8468 388.609 98.2523C387.29 100.657 386.185 103.197 386.155 103.896C386.106 105.063 386.175 105.052 387.009 103.759C388.318 101.727 391.999 93.3782 391.65 93.2317C391.488 93.1638 391.277 93.2813 391.182 93.4935ZM148.288 45.6437C147.515 45.6841 146.781 45.9622 146.656 46.2613C146.515 46.5956 146.767 46.6659 147.312 46.4431C147.798 46.2441 148.981 46.4106 149.94 46.8127C150.971 47.2449 151.642 47.2766 151.581 46.8903C151.45 46.062 150.096 45.5495 148.288 45.6437ZM262.588 93.9483C261.896 94.2724 261.163 94.9352 260.959 95.4212C260.494 96.5302 258.813 96.5247 258.358 95.4127C257.661 93.7089 257.03 94.2208 257.68 95.9628C258.573 98.3582 259.177 98.5222 262.013 97.1408C263.967 96.1892 264.38 95.7513 264.284 94.7355C264.14 93.2192 264.142 93.2199 262.588 93.9483ZM251.611 96.2396C249.239 96.3198 248.904 96.5095 248.209 98.1657C247.456 99.961 247.397 99.9814 245.628 99.0532C243.857 98.1252 243.795 98.1468 242.882 100C241.758 102.28 241.378 102.485 240.17 101.458C239.293 100.713 239.317 100.621 240.621 99.7412C241.379 99.2299 241.942 98.6738 241.874 98.5058C241.49 97.5684 237.309 100.232 237.478 101.306C237.693 102.67 240.946 102.663 245.107 101.29C247.42 100.526 249.494 99.4699 249.715 98.9414C249.991 98.2841 250.497 98.1396 251.317 98.4836C253.034 99.2037 254.877 98.6397 254.915 97.3823C254.954 96.1347 254.933 96.1277 251.611 96.2396ZM260.824 100.84C259.295 101.282 256.945 102.068 255.601 102.586C254.257 103.105 252.719 103.345 252.185 103.121C251.651 102.897 250.612 103.12 249.875 103.617C249.14 104.114 247.76 104.517 246.81 104.513C244.503 104.503 240.565 106.185 241.742 106.678C242.207 106.873 242.829 106.86 243.126 106.648C243.422 106.436 244.139 106.463 244.72 106.706C245.3 106.949 246.598 106.929 247.603 106.66C252.961 105.228 255.878 104.67 256.547 104.95C256.957 105.122 257.731 105.035 258.266 104.756C259.066 104.338 259.082 104.182 258.353 103.876C256.85 103.246 258.352 102.353 259.921 102.945C261.387 103.497 264.057 102.494 264.64 101.171C265.109 100.106 263.763 99.9894 260.824 100.84ZM154.981 56.2525C155.038 56.6121 155.603 57.1043 156.237 57.3469C157.348 57.7715 157.359 57.7559 156.538 56.9057C155.367 55.6923 154.859 55.4791 154.981 56.2525ZM118.979 42.091C117.482 41.8958 115.949 41.784 115.572 41.8437C114.192 42.0616 114.52 42.9479 116.25 43.6731C117.225 44.0823 118.024 44.7608 118.024 45.1804C118.025 45.7269 118.296 45.754 118.981 45.2764C119.507 44.9095 120.337 44.7683 120.827 44.9626C122.313 45.5534 124.125 44.8565 123.713 43.8514C123.295 42.8285 122.576 42.5613 118.979 42.091ZM124.101 46.2026C123.777 46.9895 123.79 47.4476 124.132 47.2199C124.474 46.9927 125.613 46.7253 126.662 46.6261L128.569 46.446L126.63 45.6088C124.853 44.841 124.643 44.8906 124.101 46.2026ZM131.909 49.6917C131.842 50.5781 136.193 55.0342 137.824 55.7484C138.547 56.0653 139.278 56.6149 139.448 56.97C139.618 57.3245 140.942 58.721 142.39 60.0724C143.838 61.4238 145.544 63.5554 146.18 64.809C147.215 66.8453 147.217 67.0381 146.207 66.6147C145.586 66.354 144.612 66.5194 144.043 66.9815C143.219 67.6509 142.758 67.6264 141.781 66.8635C139.607 65.1634 136.451 63.3157 136.307 63.6589C135.976 64.4491 137.003 65.8071 138.363 66.3775C139.173 66.7172 140.243 67.5994 140.741 68.3376C142.013 70.2211 143.948 70.5955 145.002 69.1616C145.79 68.0904 146.065 68.0938 148.366 69.2061C151.426 70.6847 152.931 70.5965 152.434 68.9672C152.25 68.3605 151.805 67.7412 151.447 67.5909C151.089 67.4407 150.652 66.8453 150.476 66.2678C150.3 65.6903 149.813 65.074 149.394 64.8983C148.974 64.7224 148.036 63.3936 147.308 61.9455C146.035 59.4141 143.677 56.8892 140.212 54.3483C139.313 53.6893 137.868 52.5524 137.002 51.8221C134.943 50.087 131.972 48.8442 131.909 49.6917ZM111.409 42.2342C106.711 41.5343 92.7325 45.5636 89.2735 48.6148C88.2737 49.4965 86.6811 50.8689 85.7339 51.6645C83.3735 53.6478 76.6915 61.3156 76.8935 61.8094C76.9836 62.0297 77.3658 61.8884 77.7423 61.4944C78.1193 61.1006 78.7204 60.9015 79.0787 61.0518C79.4369 61.202 81.9325 60.914 84.6238 60.4114C87.3153 59.9095 91.5242 59.2991 93.9766 59.0559C96.429 58.8127 98.7416 58.5389 99.1158 58.4473C99.4897 58.3563 100.686 58.4489 101.774 58.6537C103.704 59.0166 106.754 59.1156 109.305 58.8981C110.002 58.8385 112.075 59.4637 113.912 60.2872C115.879 61.1687 117.046 61.4868 116.751 61.0614C116.409 60.5682 117.138 60.4504 119.043 60.6911C120.579 60.8849 122.262 60.8724 122.781 60.6629C123.546 60.3548 123.838 60.5572 124.318 61.7304C124.643 62.5262 125.494 63.4226 126.208 63.722C126.922 64.0214 127.408 64.4999 127.288 64.7855C127.168 65.071 126.822 65.2008 126.52 65.0741C126.218 64.9474 126.017 65.1377 126.074 65.4973C126.256 66.6557 127.659 66.8117 128.115 65.724C128.763 64.1789 130.197 64.4835 131.257 66.3915C131.767 67.3093 132.526 68.203 132.943 68.378C134.142 68.881 136.001 71.6688 135.667 72.4647C135.461 72.9564 135.706 73.1828 136.438 73.1739C138.674 73.1462 141.313 74.1941 142.551 75.5996C143.25 76.3931 144.289 77.5623 144.862 78.1981C145.435 78.8334 146.932 81.6291 148.19 84.4106C149.447 87.1918 150.785 89.8991 151.161 90.4271C152.356 92.1022 151.525 93.4776 149.295 93.516C148.185 93.5352 144.855 94.1309 141.896 94.8394C136.673 96.0902 134.794 96.0559 134.581 94.706C134.525 94.3464 134.261 93.961 133.995 93.8495C133.327 93.5695 134.186 96.1242 135.578 98.5623L136.734 100.585L139.222 99.7505C140.591 99.2918 141.877 98.9865 142.082 99.0718C142.414 99.2109 147.362 97.2714 151.727 95.2913C153.297 94.579 153.339 94.4977 153.022 92.782C152.703 91.0453 147.831 78.895 147.379 78.7055C147.253 78.6526 146.275 77.3895 145.206 75.8983C143.595 73.6521 142.915 73.1128 141.237 72.752C140.027 72.4921 139.17 72.0445 139.106 71.6392C138.958 70.699 131.837 64.2579 130.168 63.5544C129.418 63.2382 128.661 62.5074 128.485 61.9299C128.251 61.1593 127.077 60.4235 124.068 59.1616C120.03 57.4683 113.204 56.1521 112.849 56.9989C112.749 57.2378 112.228 57.249 111.692 57.0241C111.156 56.7994 110.308 56.8289 109.808 57.0899C109.308 57.3511 108.264 57.4674 107.488 57.3495C106.712 57.2312 105.98 57.364 105.863 57.6438C105.745 57.9242 105.211 57.9691 104.674 57.7442C104.139 57.5195 103.265 57.5624 102.734 57.8395C101.766 58.3446 100.913 57.8017 101.284 56.9165C101.393 56.6574 103.19 56.0094 105.278 55.4773C108.696 54.6055 109.028 54.3962 108.61 53.3748C108.192 52.3532 107.942 52.3184 106.095 53.0285C104.966 53.462 103.81 53.7188 103.524 53.599C103.239 53.4795 101.85 53.882 100.435 54.4941C99.022 55.1058 96.8536 55.7258 95.6171 55.872C94.3805 56.0183 91.9156 56.3277 90.1395 56.5597C88.3633 56.7916 86.7323 56.9135 86.5155 56.8305C85.7267 56.5278 86.8467 55.0421 89.5772 52.769C92.769 50.1118 92.8545 50.0652 98.8871 47.7294L103.375 45.9917L104.798 47.752C105.58 48.7206 106.145 49.693 106.052 49.9137C105.96 50.1343 106.118 50.413 106.403 50.5328C107.369 50.9377 107.6 49.1567 106.826 47.2658C105.878 44.9467 106.295 44.413 108.888 44.6256C110.735 44.7768 110.993 44.9731 111.879 46.8916C112.824 48.9399 112.871 48.9704 113.765 48.131C114.462 47.477 114.533 46.8707 114.061 45.6064C113.72 44.6914 113.556 43.6657 113.698 43.3272C113.983 42.6476 113.892 42.6042 111.409 42.2342ZM126.316 49.6856C124.134 51.4583 124.163 52.9104 126.437 55.8776C127.628 57.4314 128.882 58.6587 129.224 58.6046C129.565 58.5511 130.223 57.566 130.687 56.4157C131.393 54.6659 131.33 53.9441 130.304 51.9938C128.883 49.2921 127.666 48.5884 126.316 49.6856ZM150.489 60.4132C150.235 61.0176 151.299 62.8041 153.175 64.9261C154.086 65.957 155.525 68.0935 156.373 69.6739C157.221 71.2548 158.336 73.0636 158.85 73.6938C159.365 74.3236 160.559 76.4911 161.505 78.5101C163.951 83.7377 167.781 89.3331 168.755 89.1062C169.194 89.004 171.86 88.2302 174.68 87.3872C180.537 85.6362 184.174 84.9784 185.326 85.4615C185.764 85.6453 186.078 86.5325 186.023 87.4325C185.92 89.1182 187.682 93.9874 188.304 93.7334C188.815 93.524 187.344 86.3076 186.738 86.0537C186.455 85.9351 186.363 85.5064 186.533 85.1014C186.827 84.4016 183.292 77.2967 182.475 76.9444C181.78 76.645 181.704 77.6244 182.22 80.1845C182.752 82.8205 181.919 84.813 181.012 83.0743C180.453 82.0035 177.46 82.0811 171.257 83.3289C167.601 84.0647 167.38 84.0375 166.32 82.7289C165.709 81.9753 164.503 79.7884 163.641 77.8688C162.778 75.9497 161.401 73.5853 160.581 72.615C159.76 71.6449 159.168 70.2935 159.265 69.6121C159.365 68.9115 159.1 68.3536 158.657 68.3281C158.225 68.3034 157.15 67.3733 156.268 66.261C153.714 63.0416 150.676 59.9672 150.489 60.4132ZM179.352 73.5954C179.463 73.8653 179.774 73.9959 180.044 73.8858C180.314 73.775 180.224 73.5539 179.843 73.3943C179.463 73.2347 179.242 73.3251 179.352 73.5954ZM129.401 55.5983C129.287 55.8693 128.908 56.0698 128.558 56.0434C128.208 56.017 128.085 55.6063 128.284 55.1302C128.484 54.6541 128.863 54.4542 129.127 54.6852C129.391 54.9161 129.514 55.3273 129.401 55.5983ZM250.084 108.982C247.379 109.826 243.982 110.885 242.534 111.335C239.803 112.183 239.021 112.863 240.205 113.36C241.018 113.701 243.662 112.538 244.721 111.374C245.151 110.901 245.727 110.805 246.083 111.147C246.423 111.472 247.135 111.512 247.664 111.236C248.331 110.888 248.721 110.969 248.94 111.502C249.45 112.749 250.193 112.757 250.37 111.518C250.589 109.974 254.328 108.956 254.282 110.453C254.266 110.97 254.55 111.345 254.912 111.288C255.854 111.139 255.997 110.523 255.466 108.884C255.005 107.458 254.958 107.459 250.084 108.982ZM112.649 50.1961C112.235 51.1841 113.335 53.645 114.222 53.7116C114.582 53.7391 114.451 52.7801 113.93 51.5811C113.267 50.0547 112.883 49.639 112.649 50.1961ZM120.337 55.1553C120.065 55.8058 120.616 56.0368 121.895 55.8085C122.696 55.6655 122.662 55.5366 121.72 55.1338C121.079 54.8601 120.457 54.8697 120.337 55.1553ZM231.278 102.226C230.762 102.646 229.524 102.939 228.529 102.877C227.533 102.816 226.016 103.308 225.157 103.971C224.299 104.634 223.121 105.136 222.541 105.087C221.96 105.037 221.062 105.622 220.546 106.385C220.03 107.149 219.286 107.639 218.893 107.475C218.014 107.106 218.643 105.437 219.848 104.945C220.535 104.663 220.486 104.48 219.624 104.118C218.388 103.6 217.045 104.81 216.885 106.588C216.811 107.42 217.178 107.829 218.266 108.125C219.081 108.347 219.915 108.579 220.118 108.641C220.321 108.703 220.842 108.337 221.274 107.828C221.707 107.318 222.722 106.924 223.53 106.951C224.337 106.979 225.841 106.373 226.87 105.606C227.899 104.838 228.987 104.445 229.287 104.732C230.182 105.589 232.633 104.736 233.207 103.369C233.846 101.843 232.634 101.124 231.278 102.226ZM238.598 106.525C238.31 107.213 229.592 109.519 228.697 109.144C227.601 108.685 227.02 109.277 226.618 111.262C226.222 113.218 226.93 113.968 227.62 112.324C227.927 111.592 228.753 111.26 230.265 111.262C231.474 111.263 233.972 110.712 235.815 110.036C237.659 109.36 239.78 108.868 240.528 108.94C241.819 109.066 241.855 109.016 241.244 107.961C240.511 106.695 238.895 105.818 238.598 106.525ZM256.057 114.391C255.841 114.905 255.272 115.486 254.793 115.682C254.313 115.878 254.014 116.267 254.128 116.545C254.451 117.334 257.84 115.846 257.869 114.903C257.907 113.684 256.518 113.292 256.057 114.391ZM253.212 113.894C253.1 114.163 253.181 114.625 253.392 114.922C253.604 115.218 253.93 115.096 254.116 114.651C254.303 114.206 254.222 113.743 253.937 113.624C253.651 113.504 253.325 113.626 253.212 113.894ZM249.15 115.94C247.434 116.163 247.391 117.089 249.074 117.577C249.921 117.823 250.704 117.692 250.879 117.276C251.282 116.314 250.561 115.756 249.15 115.94ZM253.576 119.668C251.989 120.296 250.401 120.688 250.046 120.539C249.691 120.39 249.076 120.651 248.678 121.118C248.281 121.586 246.772 122.193 245.324 122.467C243.051 122.899 242.583 123.227 241.893 124.874L241.093 126.781L243.222 125.963C244.392 125.513 245.36 124.797 245.373 124.371C245.387 123.945 245.768 123.538 246.221 123.467C246.693 123.392 247.021 123.644 246.989 124.059C246.909 125.128 248.792 124.436 249.307 123.207C249.572 122.574 250.835 122.112 252.903 121.89C255.521 121.608 256.199 121.293 256.697 120.123C257.465 118.319 257.114 118.268 253.576 119.668ZM173.797 84.9002C173.677 85.1858 173.332 85.3155 173.03 85.1888C172.727 85.0621 172.722 84.7851 173.018 84.5736C173.315 84.3621 173.66 84.2321 173.786 84.285C173.912 84.3379 173.917 84.6146 173.797 84.9002ZM237.152 112.938C236.505 113.618 235.52 113.873 234.361 113.662C233.06 113.424 232.661 113.555 232.901 114.143C233.084 114.589 233.007 115.491 232.732 116.147C232.115 117.619 232.923 118.073 233.968 116.842C234.392 116.345 235.571 115.87 236.589 115.789C238.574 115.629 238.648 115.559 238.917 113.583C239.147 111.891 238.406 111.62 237.152 112.938ZM170.221 86.1479C170.042 86.5762 169.675 86.8346 169.406 86.7218C168.752 86.4473 168.623 85.4397 169.212 85.1988C170.041 84.8594 170.558 85.3452 170.221 86.1479ZM241.436 117.753C240.643 118.155 239.629 119.142 239.184 119.946L238.374 121.408L239.973 120.876C240.852 120.583 242.169 120.112 242.897 119.83C243.626 119.549 244.476 119.424 244.785 119.554C245.951 120.043 245.394 118.406 244.165 117.728C243.332 117.27 242.371 117.279 241.436 117.753ZM212.399 105.776C212.003 106.189 211.901 106.998 212.163 107.639C212.58 108.657 212.662 108.686 212.982 107.924C213.177 107.457 213.634 106.766 213.997 106.387C214.417 105.947 214.374 105.58 213.877 105.371C213.449 105.192 212.784 105.374 212.399 105.776ZM219.102 112.054C216.485 112.594 214.607 113.332 214.217 113.974C213.428 115.276 214.052 115.563 216.311 114.939C217.277 114.672 218.329 114.564 218.65 114.699C218.971 114.833 219.522 114.642 219.875 114.274C220.227 113.906 221.324 113.539 222.313 113.46C223.476 113.366 224.119 112.998 224.137 112.416C224.177 111.112 223.8 111.085 219.102 112.054ZM237.333 118.469C236.854 118.719 236.551 119.138 236.658 119.402C236.884 119.955 238.64 119.529 238.923 118.853C239.21 118.169 238.319 117.954 237.333 118.469ZM158.703 85.6265C158.047 85.8951 157.919 88.0026 158.539 88.337C158.849 88.5043 159.646 88.8186 160.311 89.0362C160.975 89.2538 161.397 89.7208 161.249 90.0744C161.101 90.4279 161.169 90.6393 161.402 90.5446C161.634 90.4491 161.754 89.4921 161.668 88.4173C161.522 86.6047 159.944 85.1189 158.703 85.6265ZM104.033 64.1908C103.494 64.5762 103.934 64.8623 108.011 66.7778C109.215 67.343 110.357 68.1897 110.549 68.6591C110.741 69.1277 111.374 69.7197 111.956 69.9747C112.537 70.2289 113.323 70.9706 113.701 71.6224C114.08 72.2739 114.944 73.0399 115.622 73.3243C116.3 73.6086 117.233 74.3062 117.695 74.8747C118.414 75.7599 118.539 75.7612 118.566 74.8855C118.583 74.3225 118.634 73.7748 118.679 73.6683C118.724 73.5614 117.956 72.9444 116.972 72.2971C115.99 71.6493 114.242 70.0826 113.091 68.8157C110.88 66.3837 105.097 63.4312 104.033 64.1908ZM168.732 91.1562C168.627 91.4054 168.666 91.9231 168.819 92.3058C168.972 92.6885 168.779 93.9679 168.39 95.148L167.684 97.2937L169.316 96.2289C170.795 95.2622 170.929 95.0073 170.753 93.4782C170.568 91.8645 169.128 90.2107 168.732 91.1562ZM226.474 115.887C224.3 116.776 224.816 118.739 227.02 117.963C227.716 117.718 228.559 117.633 228.893 117.773C229.227 117.913 229.648 117.678 229.828 117.249C230.265 116.207 227.97 115.275 226.474 115.887ZM164.904 91.5491C164.744 91.9297 164.835 92.1508 165.105 92.0406C165.375 91.9298 165.506 91.6183 165.395 91.3481C165.285 91.0781 165.063 91.1686 164.904 91.5491ZM237.071 121.813C236.912 122.194 237.002 122.415 237.272 122.305C237.542 122.194 237.673 121.882 237.563 121.612C237.452 121.342 237.231 121.433 237.071 121.813ZM203.184 109.021C202.854 109.366 202.789 110.659 203.038 111.895C203.483 114.1 203.803 119.62 203.524 120.285C203.446 120.471 203.57 121.453 203.798 122.467C204.027 123.482 204.169 125.782 204.114 127.578C204.059 129.374 204.033 131.402 204.057 132.083C204.08 132.764 203.982 133.799 203.838 134.383C203.418 136.094 204.611 136.62 205.282 135.019C206.191 132.852 206.352 128.205 205.794 120.296C205.239 112.441 204.202 107.958 203.184 109.021ZM232.382 120.864C231.662 121.159 231.016 122.937 231.548 123.16C231.798 123.265 232.428 123.129 232.948 122.858C234.336 122.133 233.81 120.28 232.382 120.864ZM57.6205 48.9408C57.3608 49.5601 57.6781 50.3525 58.4707 51.0653C59.1657 51.6907 60.8083 54.4894 62.1201 57.2849C65.0908 63.6143 65.5182 64.1733 66.857 63.4746C67.7385 63.0147 67.7656 62.7055 67.0402 61.3708C66.5721 60.5102 65.5464 58.3921 64.76 56.6643C61.8523 50.2734 58.5566 46.7088 57.6205 48.9408ZM120.397 75.3565C119.838 75.8107 119.193 76.8334 118.964 77.6302C118.623 78.8145 118.936 79.4337 120.682 81.0265C121.856 82.0976 123.537 84.2561 124.417 85.8232C125.298 87.3908 126.253 88.7713 126.541 88.8919C126.828 89.0125 127.33 89.6788 127.654 90.3731C127.98 91.067 128.431 91.5585 128.658 91.4656C129.125 91.275 128.873 90.7193 126.514 86.7349C125.592 85.1779 124.587 83.7992 124.28 83.6706C123.479 83.3346 121.97 81.3073 121.802 80.3419C121.723 79.8894 121.23 79.3391 120.707 79.1196C119.755 78.7203 119.647 76.486 120.573 76.34C121.454 76.2008 124.579 78.4374 124.878 79.4207C125.039 79.9492 125.501 80.5195 125.904 80.6887C126.669 81.0094 128.403 83.3001 129.111 84.9254C129.579 85.9997 130.399 86.4825 130.667 85.8424C130.949 85.1716 127.751 80.2421 126.767 79.8295C126.284 79.6268 125.439 78.5859 124.89 77.5162C123.673 75.1442 121.779 74.2339 120.397 75.3565ZM228.848 121.178C227.034 122.186 226.869 123.029 228.362 123.656C229.53 124.145 230.559 123.568 229.764 122.869C229.319 122.477 229.412 122.266 230.221 121.842C230.84 121.516 231.092 121.103 230.866 120.785C230.66 120.499 229.752 120.675 228.848 121.178ZM238.532 124.872C237.061 125.561 236.974 126.411 238.372 126.454C239.269 126.482 240.965 124.667 240.302 124.389C240.087 124.299 239.291 124.517 238.532 124.872ZM93.0004 64.1061C89.7635 64.1498 89.5878 64.8673 92.5463 65.959C94.0957 66.5313 95.0119 66.6554 94.7474 66.2582C94.4146 65.7591 94.6485 65.4853 95.6243 65.2315C96.9413 64.8889 96.9446 64.8811 95.9382 64.4829C95.3794 64.262 94.0575 64.0922 93.0004 64.1061ZM156.207 92.0229C156.853 94.5453 161.86 106.271 162.226 106.121C162.438 106.035 162.539 105.059 162.45 103.952C162.301 102.089 162.38 101.898 163.533 101.358C165.435 100.467 166.879 100.9 167.438 102.53C167.944 104.006 170.547 107.019 171.116 106.787C171.737 106.532 169.098 98.8023 168.271 98.4555C167.806 98.2604 165.885 98.583 164.003 99.1723C160.656 100.22 160.566 100.213 159.93 98.8538C159.572 98.0901 159.173 96.6945 159.044 95.7533C158.83 94.1953 157.186 91.3651 156.273 90.9821C156.068 90.8961 156.038 91.3647 156.207 92.0229ZM56.0819 51.9634C55.2244 52.5757 55.4967 54.2149 56.5278 54.6473C57.4696 55.0422 57.5064 54.9765 57.2165 53.4098C56.8768 51.5733 56.7872 51.4594 56.0819 51.9634ZM223.891 122.188C223.123 122.501 221.929 125.726 222.358 126.327C222.593 126.656 223.129 125.944 223.735 124.498C224.745 122.091 224.762 121.831 223.891 122.188ZM52.3118 50.9C52.0872 51.0598 51.3377 52.0507 50.6467 53.1016C49.9554 54.1517 48.8977 55.1398 48.297 55.2969C46.635 55.7312 48.2008 56.2352 50.1124 55.8812C51.3348 55.6551 52.1696 55.9032 53.7379 56.959C55.5634 58.1873 55.7375 58.535 55.4063 60.2972C55.12 61.82 54.7973 62.3012 53.9766 62.4296C53.3938 62.5209 52.2797 62.8395 51.5012 63.1369C50.7229 63.4351 48.6038 63.3639 46.7926 62.9791L43.4992 62.2799L42.7543 64.2716C42.3444 65.3671 42.092 66.2978 42.1933 66.3403C42.5743 66.5001 49.0482 65.9 50.7506 65.5468C53.1664 65.0459 54.3898 65.6749 55.4229 67.95C56.0859 69.41 56.0909 70.1086 55.4437 70.8586C54.9756 71.401 54.0835 72.7307 53.4622 73.8133C52.8409 74.8959 51.9288 75.9981 51.4364 76.2623C50.9433 76.5268 49.7379 78.2191 48.7574 80.0228C47.7762 81.8268 46.3503 84.3289 45.5868 85.5832C44.2194 87.8321 41.068 97.0953 42.2132 95.4999C42.5374 95.0485 43.1436 94.8216 43.5599 94.9963C43.9763 95.1709 44.5984 95.0196 44.9421 94.6601C45.2863 94.3008 46.01 94.1922 46.5505 94.4189C47.9279 94.9965 48.1719 94.0042 46.8476 93.2126C45.7779 92.5723 45.8101 92.4417 48.5096 86.4762C50.1786 82.7891 51.8384 79.8252 52.7238 78.9529C53.5277 78.1612 54.4711 76.8316 54.8206 75.9983C55.1698 75.1655 56.0852 73.9609 56.8552 73.3217C57.6243 72.6827 58.4309 71.742 58.6472 71.2319C59.293 69.7067 64.7515 66.7235 66.0275 67.1982C66.2629 67.2859 68.4695 67.265 70.9308 67.1519C81.809 66.6503 86.6446 68.5213 97.5729 77.4601L100.543 79.8887L99.3983 82.7329L98.2535 85.5764L96.5391 84.8574C95.5958 84.4618 94.5453 84.3375 94.204 84.5808C93.7673 84.8928 93.5045 84.691 93.3152 83.898C92.9012 82.1627 83.3808 77.6739 79.211 77.2476C74.5794 76.7741 71.913 77.0863 70.3842 78.2803C68.4434 79.7973 69.0432 80.4737 71.6162 79.6706C72.8213 79.295 74.0817 79.1007 74.4177 79.2398C74.7535 79.3782 75.8866 79.4102 76.9357 79.3105C79.3993 79.0756 90.8393 83.5697 91.4269 85.0029C91.9014 86.1585 93.8283 86.9935 95.4223 86.7346C96.1337 86.619 96.9701 86.8782 97.4413 87.3603C98.1841 88.1205 98.1442 88.1691 96.913 87.9983C94.918 87.7215 94.7274 88.6507 96.5753 89.6436C97.4712 90.1249 98.547 91.2629 98.966 92.1724C99.3854 93.0821 100.432 94.6692 101.291 95.7C102.151 96.7313 103.513 98.6226 104.319 99.9032C105.125 101.184 106.802 103.735 108.047 105.573C111.008 109.945 112.813 113.668 112.68 115.13C112.565 116.399 113.553 120.862 114.072 121.412C114.246 121.597 114.213 122.168 113.998 122.68C113.783 123.192 113.836 124.049 114.115 124.584C114.394 125.12 114.53 125.779 114.417 126.049C114.303 126.32 114.473 127.801 114.794 129.341C116.006 135.153 116.122 142.108 115.15 150.659C115.022 151.781 114.948 153.649 114.985 154.811C115.08 157.797 109.657 169.551 107.059 171.991C106.071 172.92 104.761 174.156 104.148 174.739C103.536 175.321 101.891 176.637 100.493 177.663C97.7897 179.647 97.5036 180.383 99.5092 180.193C100.807 180.071 106.994 175.775 107.455 174.677C107.602 174.327 108.036 173.91 108.419 173.752C109.459 173.323 113.307 167.193 114.774 163.627C116.332 159.843 117.284 155.392 116.956 153.428C116.668 151.705 117.509 151.148 118.252 152.57C118.54 153.123 118.967 153.497 119.2 153.401C119.838 153.14 119.502 151.874 118.706 151.54C117.806 151.163 117.09 145.877 117.732 144.348C118.184 143.269 118.28 138.883 117.902 136.551C117.814 136.01 117.75 135.228 117.759 134.812C117.767 134.396 117.775 133.713 117.777 133.293C117.779 132.453 117.409 129.741 116.467 123.707C115.761 119.183 115.859 118.6 117.226 119.173C118.71 119.796 122.682 119.667 122.577 118.999C122.526 118.675 122.757 118.367 123.091 118.315C123.425 118.262 124.055 119.537 124.491 121.149C124.928 122.76 125.4 124.27 125.542 124.505C126.114 125.453 125.69 128.065 124.912 128.383C124.041 128.739 124.011 129.194 124.608 132.953C124.837 134.392 125.079 136.691 125.146 138.063C125.284 140.874 127.055 145.421 127.545 144.219C128.125 142.793 128.122 135.04 127.542 134.226C127.348 133.956 127.398 132.456 127.653 130.894C128.644 124.813 125.715 114.815 120.204 105.473C117.879 101.533 115.1 96.7957 114.028 94.9481C111.113 89.9223 111.032 89.8435 110.738 91.7699C110.434 93.7709 112.551 99.8804 113.613 100.064C114.572 100.23 118.888 106.504 118.59 107.3C118.469 107.623 117.59 108.216 116.635 108.617C115.681 109.018 114.499 109.668 114.009 110.062C113.191 110.718 112.986 110.552 111.546 108.058C110.683 106.562 109.299 104.333 108.471 103.106C107.642 101.878 106.261 99.744 105.401 98.3638C104.541 96.9835 103.48 95.7045 103.043 95.5214C102.606 95.3381 101.598 93.535 100.802 91.5138C99.327 87.7683 99.3666 85.5279 100.958 82.6862C101.672 81.4117 101.932 81.3419 103.247 82.0696C105.071 83.0795 105.244 83.4382 104.123 83.8967C103.643 84.0924 102.965 84.935 102.616 85.7683C101.849 87.5953 103.73 92.7572 105.42 93.4659C106.387 93.871 106.646 93.6269 107.559 91.45C108.542 89.1048 108.5 88.7445 106.76 84.6949C104.428 79.2691 102.075 76.5503 96.6628 73.0315C94.2883 71.4875 91.7217 69.6999 90.9591 69.0596C88.5242 67.0134 81.0472 64.5391 77.0588 64.4592C76.3929 64.4456 74.6189 64.4178 73.1169 64.3965C71.6146 64.3758 67.9361 65.0633 64.9421 65.9256C61.9488 66.7875 59.3138 67.4151 59.087 67.3199C58.4572 67.0558 56.6266 61.5043 56.9252 60.7645C57.3191 59.7874 55.8396 56.8007 54.7322 56.3363C54.1985 56.1124 53.3511 55.0251 52.8494 53.9197C51.9866 52.0176 52.0041 51.8943 53.1762 51.6148C54.2482 51.3586 54.3007 51.2713 53.5671 50.9637C53.1009 50.7682 52.536 50.7395 52.3118 50.9ZM231.388 126.631C230.472 126.814 229.29 127.128 228.762 127.329C228.234 127.53 227.623 127.619 227.403 127.527C227.184 127.435 226.493 127.832 225.869 128.41C225.244 128.987 224.378 129.311 223.943 129.128C223.509 128.946 223.001 129.214 222.813 129.723C222.611 130.275 222.689 130.431 223.007 130.111C223.316 129.798 223.965 129.89 224.551 130.33C225.33 130.913 226.393 130.726 229.173 129.519C231.159 128.657 232.995 128.04 233.253 128.148C233.511 128.257 233.868 127.995 234.048 127.566C234.47 126.56 233.481 126.212 231.388 126.631ZM226.055 124.789C225.869 125.234 225.95 125.696 226.235 125.816C226.521 125.936 226.846 125.814 226.959 125.545C227.072 125.276 226.991 124.814 226.779 124.518C226.568 124.222 226.242 124.344 226.055 124.789ZM193.524 113.675C193.295 114.29 193.367 114.465 193.706 114.121C194.013 113.809 194.182 113.353 194.082 113.108C193.982 112.864 193.731 113.119 193.524 113.675ZM108.982 80.1175C109.64 81.7262 112.189 84.8697 112.675 84.6711C113.087 84.502 109.657 79.3695 108.927 79.0636C108.677 78.9587 108.702 79.4329 108.982 80.1175ZM59.7045 61.5222C60.1901 63.6776 61.0696 64.92 61.8758 64.5902C62.5152 64.3291 60.8453 60.1209 59.9538 59.747C59.4352 59.5295 59.366 60.0206 59.7045 61.5222ZM131.885 90.2175C131.825 90.3602 131.893 90.526 132.036 90.5859C132.179 90.6458 132.344 90.578 132.404 90.4352C132.464 90.2924 132.396 90.1266 132.254 90.0667C132.111 90.0069 131.945 90.0747 131.885 90.2175ZM153.095 101.51C151.335 102.019 151.124 102.221 151.737 102.816C152.136 103.203 153.001 103.469 153.659 103.407C155.176 103.263 156.015 104.399 155.269 105.587C154.624 106.615 154.719 108.035 155.455 108.343C155.724 108.456 156.098 108.181 156.286 107.732C156.87 106.339 158.246 107.865 158.004 109.637C157.88 110.547 158.106 111.812 158.507 112.447C159.517 114.049 160.245 120.578 159.501 121.356C158.773 122.117 159.349 122.467 160.533 121.983C161.4 121.628 161.392 121.573 161.445 128.255C161.456 129.602 161.515 131.808 161.577 133.156C161.639 134.504 161.496 136.093 161.259 136.686C161.023 137.279 160.918 138.488 161.026 139.373C161.135 140.258 161.044 141.435 160.824 141.988C160.604 142.54 160.582 143.493 160.774 144.103C161.357 145.957 158.699 156.08 156.111 161.864C154.809 164.771 153.654 167.642 153.544 168.244C153.4 169.032 152.936 169.291 151.889 169.168C151.089 169.074 150.702 169.137 151.029 169.308C151.414 169.509 151.28 170.174 150.65 171.194C150.114 172.06 149.652 173.414 149.623 174.203L149.57 175.636L151.339 174.312C152.939 173.116 153.572 171.917 157.905 161.873C161.851 152.726 162.669 150.436 162.529 148.938C162.435 147.937 162.657 146.382 163.023 145.483C163.39 144.584 163.537 143.25 163.35 142.52C163.164 141.79 163.231 140.667 163.5 140.025C163.77 139.382 163.817 138.614 163.606 138.318C163.394 138.022 163.421 137.303 163.665 136.722C163.908 136.14 164.038 134.906 163.954 133.979C163.869 133.052 163.752 131.313 163.693 130.113C163.485 125.835 163.266 124.096 162.54 121.001C162.136 119.275 161.918 117.595 162.056 117.266C162.453 116.319 161.762 113.264 160.672 111.142C160.122 110.072 159.476 108.664 159.237 108.013C156.52 100.631 156.439 100.544 153.095 101.51ZM44.9376 55.8918C44.8179 56.1773 44.9395 56.5031 45.2085 56.6158C45.4774 56.7286 45.9393 56.6476 46.2356 56.4361C46.5319 56.2246 46.4097 55.8986 45.9648 55.712C45.5198 55.5254 45.0574 55.6062 44.9376 55.8918ZM50.3559 58.2018C50.0413 58.4264 49.057 58.6058 48.1683 58.6012C46.8215 58.5939 46.6946 58.6957 47.4056 59.213C47.8752 59.5547 48.8246 59.6347 49.5157 59.3916C50.207 59.1479 51.0462 59.064 51.3806 59.2042C51.7149 59.3444 52.0865 59.2255 52.2063 58.94C52.4961 58.2489 51.0804 57.6839 50.3559 58.2018ZM165.808 106.377C165.538 106.487 164.948 107.458 164.497 108.533C163.831 110.12 163.886 110.825 164.79 112.281C165.855 114 165.96 114.054 167.296 113.584C169.344 112.863 170.336 110.096 169.168 108.365C168.207 106.94 166.663 106.027 165.808 106.377ZM53.1358 59.635C53.0759 59.7778 53.1437 59.9436 53.2865 60.0035C53.4293 60.0633 53.5951 59.9955 53.655 59.8527C53.7149 59.71 53.647 59.5441 53.5042 59.4843C53.3615 59.4244 53.1957 59.4922 53.1358 59.635ZM222.844 131.72C222.9 132.079 223.05 132.417 223.176 132.47C223.302 132.522 223.503 132.332 223.622 132.046C223.742 131.761 223.592 131.423 223.29 131.297C222.988 131.17 222.787 131.36 222.844 131.72ZM41.1207 56.371C40.3774 56.759 40.5029 57.1046 41.7935 58.227C42.6657 58.986 43.2894 59.822 43.1788 60.0858C43.0684 60.349 43.3534 60.7219 43.8124 60.9144C44.3602 61.1441 44.6567 60.9363 44.676 60.3107C44.6921 59.7863 44.7437 59.2658 44.7907 59.1537C44.8795 58.9419 42.6445 56.1511 42.2551 55.9878C42.1331 55.9366 41.6225 56.109 41.1207 56.371ZM113.376 86.3142C113.157 86.8365 114.581 89.9725 116.123 92.3613C117.367 94.2883 118.032 94.8488 117.872 93.8342C117.709 92.7986 113.563 85.8662 113.376 86.3142ZM193.92 119.895C193.86 120.038 193.928 120.204 194.07 120.264C194.213 120.324 194.379 120.256 194.439 120.113C194.499 119.97 194.431 119.805 194.288 119.745C194.145 119.685 193.98 119.753 193.92 119.895ZM170.635 113.168C170.135 114.523 170.001 115.764 170.32 116.07C171.727 117.417 168.249 119.746 166.104 118.894C164.847 118.394 164.288 119.984 165.537 120.508C166.088 120.739 167.748 120.474 169.227 119.919C170.706 119.364 172.092 118.983 172.307 119.073C172.903 119.323 172.72 120.964 172.015 121.701C171.67 122.061 171.604 126.086 171.867 130.644C172.131 135.202 172.252 139.99 172.135 141.284C172.018 142.579 171.917 144.184 171.909 144.853C171.902 145.521 171.461 148.171 170.93 150.742C170.399 153.312 169.706 157.651 169.391 160.382C168.752 165.919 167.646 169.14 164.091 175.826C162.354 179.091 161.797 180.543 162.112 180.984C162.411 181.404 162.823 180.946 163.416 179.532C163.892 178.396 165.25 176.187 166.434 174.624C169.683 170.332 172.285 162.434 172.359 156.641C172.368 155.973 172.605 154.149 172.885 152.588C173.165 151.027 173.533 148.846 173.702 147.741C174.074 145.308 174.544 137.5 174.41 135.972C174.082 132.249 173.803 122.736 174.007 122.251C174.679 120.648 172.946 111.447 171.883 110.97C171.677 110.878 171.115 111.867 170.635 113.168ZM49.5601 60.8827C49.4403 61.1683 49.5619 61.494 49.8309 61.6068C50.0998 61.7196 50.5618 61.6386 50.858 61.427C51.1543 61.2155 51.0322 60.8896 50.5872 60.703C50.1423 60.5164 49.6798 60.5972 49.5601 60.8827ZM130.033 95.1361C130.671 96.949 130.044 98.1205 128.353 98.2748C127.568 98.3459 126.44 98.7067 125.846 99.0761C124.423 99.9621 122.077 98.9314 120.966 96.9325C120.48 96.0571 119.673 95.1694 119.174 94.9601C118.329 94.6057 118.302 94.6793 118.783 96.0458C119.067 96.8522 120.233 98.9544 121.375 100.717L123.451 103.922L125.49 103.355C126.611 103.044 128.447 102.407 129.568 101.939C130.69 101.472 132.136 101.174 132.782 101.277C133.795 101.438 133.711 101.039 132.169 98.3596C131.186 96.6527 130.47 95.0472 130.577 94.7922C130.684 94.5378 130.501 94.2159 130.172 94.0776C129.813 93.9272 129.757 94.3526 130.033 95.1361ZM194.606 122.625C194.547 122.768 194.614 122.934 194.757 122.994C194.9 123.054 195.066 122.986 195.126 122.843C195.185 122.7 195.118 122.535 194.975 122.475C194.832 122.415 194.666 122.483 194.606 122.625ZM64.0671 69.9133C62.0252 70.5081 61.9176 72.0387 63.6868 75.3026C65.3225 78.32 66.6777 78.8297 67.79 76.8469C68.3602 75.8308 68.3523 74.8306 67.7607 73.2773C66.5148 70.0002 65.8485 69.3936 64.0671 69.9133ZM38.5064 59.0964C37.3991 59.549 37.317 61.2282 38.3071 63.1575C39.3171 65.125 39.307 65.2203 38.0594 65.5677C36.823 65.9118 36.8259 65.9484 38.119 66.3283C39.2625 66.6644 39.632 66.4311 40.4521 64.8555C41.211 63.3967 41.2586 62.5741 40.6681 61.1305C39.8918 59.233 39.3709 58.7428 38.5064 59.0964ZM137.42 103.222C137.487 103.922 137.885 104.638 138.306 104.815C138.941 105.081 139.034 104.913 138.857 103.825C138.74 103.104 138.342 102.388 137.972 102.233C137.461 102.019 137.329 102.255 137.42 103.222ZM104.753 90.1336C104.81 90.4931 104.739 90.7383 104.597 90.6784C104.454 90.6186 104.291 90.2754 104.234 89.9158C104.177 89.5562 104.248 89.3111 104.39 89.371C104.533 89.4308 104.696 89.774 104.753 90.1336ZM133.903 102.876C133.367 104.153 134.591 107.548 135.621 107.64C136.317 107.702 136.97 108.855 137.768 111.437C138.984 115.369 141.016 123.953 141.102 125.523C141.305 129.203 141.984 130.19 142.866 128.087C144.072 125.21 140.041 108.595 137.922 107.706C136.781 107.228 134.981 104.914 134.491 103.294C134.276 102.584 134.082 102.447 133.903 102.876ZM194.68 129.372C194.517 130.143 194.565 130.85 194.786 130.943C195.008 131.035 195.09 131.826 194.97 132.698C194.842 133.628 194.979 134.04 195.301 133.692C195.603 133.367 195.821 132.497 195.786 131.759C195.751 131.022 195.763 129.955 195.813 129.389C195.952 127.803 195.015 127.789 194.68 129.372ZM58.3144 73.5221C57.5189 75.4876 59.9522 80.2468 61.7814 80.3032C62.9225 80.3379 63.4553 79.5303 62.5436 79.1479C62.2051 79.006 61.2011 77.4696 60.3125 75.7337C59.0383 73.2445 58.6163 72.7776 58.3144 73.5221ZM156.601 115.716C156.511 115.93 156.656 117.359 156.922 118.892C157.308 121.107 157.533 121.495 158.02 120.785C158.39 120.245 158.264 118.992 157.699 117.61C157.184 116.354 156.691 115.501 156.601 115.716ZM107.835 96.6151C107.775 96.7579 107.843 96.9237 107.986 96.9835C108.128 97.0434 108.294 96.9756 108.354 96.8328C108.414 96.69 108.346 96.5242 108.203 96.4644C108.06 96.4045 107.895 96.4723 107.835 96.6151ZM70.6342 81.9627C70.3547 82.6293 71.611 87.2239 72.1328 87.4427C72.6473 87.6585 72.6895 85.8722 72.2216 83.6644C71.8254 81.795 71.0521 80.9664 70.6342 81.9627ZM93.3547 91.2674C93.9073 91.6383 94.4257 92.6456 94.5073 93.5065C94.6374 94.8834 94.4985 95.1084 93.3461 95.3889C92.1738 95.6744 92.0649 95.5921 92.3011 94.6008C92.4463 93.9926 92.2865 93.2278 91.9453 92.9016C91.6047 92.5755 91.4681 91.9695 91.6421 91.5546C91.816 91.1398 91.6641 90.8471 91.3045 90.9039C90.9449 90.9607 90.4674 91.4442 90.2434 91.9784C89.9917 92.5786 89.3783 92.833 88.6386 92.6431C86.6144 92.1244 86.2592 93.3644 88.193 94.1992C89.1404 94.6086 90.3597 95.5223 90.9025 96.2298C92.3937 98.1738 92.8527 98.1813 94.8769 96.2952L96.7403 94.5595L95.9454 93.0803C95.5082 92.2669 94.5206 91.3741 93.7504 91.0969C92.6146 90.6884 92.5401 90.7206 93.3547 91.2674ZM165.438 122.804C165.692 123.525 165.733 124.512 165.529 124.998C165.325 125.484 165.452 126.163 165.812 126.507C166.171 126.851 166.285 127.561 166.066 128.085C165.846 128.609 165.85 129.294 166.075 129.609C166.299 129.923 166.47 130.904 166.455 131.788C166.437 132.754 166.637 133.169 166.955 132.829C167.246 132.518 167.416 130.727 167.331 128.849C167.246 126.972 167.257 125.244 167.355 125.011C167.625 124.365 166.445 122.11 165.666 121.783C165.156 121.569 165.097 121.834 165.438 122.804ZM124.676 105.953C124.279 106.899 124.87 108.07 125.596 107.773C125.848 107.669 125.826 107.024 125.546 106.339C125.076 105.19 125.008 105.16 124.676 105.953ZM130.162 107.912C130.273 108.182 130.585 108.312 130.855 108.202C131.125 108.091 131.035 107.87 130.654 107.711C130.273 107.551 130.052 107.642 130.162 107.912ZM63.7501 80.9091C63.6236 81.2107 62.2269 82.5761 60.646 83.9437C59.0654 85.3107 57.5918 86.8594 57.3717 87.3843C57.1516 87.9092 56.6773 88.3849 56.3178 88.4417C55.9582 88.4985 54.942 90.2665 54.0593 92.3713C52.8725 95.2014 52.1447 96.3241 51.2648 96.684C49.8409 97.267 42.9843 97.8073 42.0404 97.4115C41.4194 97.1511 31.655 99.1545 28.4972 100.19C27.7184 100.446 25.6855 100.726 23.9796 100.812C16.8587 101.172 14.2163 102.203 12.4886 105.296C11.5614 106.957 10.4283 107.999 8.36002 109.095L5.50935 110.606L3.21776 116.07C1.67341 119.753 0.925318 122.248 0.923312 123.725C0.921845 124.93 0.695976 126.451 0.421636 127.105C-0.0525735 128.236 0.897626 146.722 1.53848 148.841C1.70602 149.393 2.39155 151.724 3.0624 154.02C4.17867 157.842 8.18118 166.85 8.8961 167.15C9.06173 167.219 10.0429 168.455 11.0761 169.896C12.1088 171.336 13.3444 172.678 13.8216 172.878C14.2987 173.079 14.6757 173.677 14.6592 174.209C14.6359 174.965 15.1017 175.291 16.7869 175.701C18.8068 176.192 19.0493 176.464 20.6058 179.986L22.2681 183.747L26.5083 185.525C28.8405 186.503 31.2425 187.263 31.8456 187.215C32.449 187.167 34.0674 187.135 35.4427 187.144C36.8178 187.153 39.2686 186.571 40.8887 185.85C42.5086 185.129 45.5644 184.209 47.679 183.804C49.7934 183.4 53.9412 182.326 56.8957 181.417C62.0621 179.827 63.9177 179.761 64.1386 181.159C64.1953 181.519 64.7671 182.033 65.4099 182.303C66.0521 182.572 66.8874 183.326 67.2662 183.977C67.6442 184.629 68.6633 185.469 69.5308 185.843C70.3976 186.217 71.2606 186.898 71.4475 187.355C71.6347 187.812 73.4495 189.021 75.4799 190.04C77.5108 191.06 79.4638 192.242 79.8196 192.667C81.2743 194.404 94.4941 196.688 97.5874 195.736L99.1274 195.262L97.6114 194.51C95.4709 193.448 95.5456 193.466 90.1371 192.68C84.6727 191.886 78.752 189.246 77.7793 187.169C77.103 185.726 76.454 185.461 76.4186 186.614C76.387 187.631 75.2635 187.351 74.1384 186.045C72.5096 184.154 70.0966 182.243 66.0982 179.679L61.8614 176.961L58.4482 178.268C51.9533 180.755 47.9761 181.542 45.3126 180.867C43.3701 180.374 42.5356 180.465 41.6751 181.26C40.8396 182.032 40.6477 182.511 40.9121 183.157C41.499 184.592 41.0649 184.787 38.5973 184.197C37.3001 183.887 35.7405 183.802 35.1307 184.007C34.3962 184.255 32.9656 183.89 30.8866 182.924C28.7523 181.932 27.4383 181.605 26.7733 181.9C25.9493 182.265 26.1064 182.411 27.7752 182.833C28.864 183.107 29.9973 183.68 30.2941 184.105C31.1224 185.292 24.3692 182.223 22.6327 180.624C20.9026 179.029 21.6017 178.603 25.3853 178.944C28.6103 179.234 30.9975 178.63 33.8332 176.804C36.1375 175.32 38.5469 172.626 38.6702 171.394C38.7497 170.599 39.5271 168.38 41.4243 163.533C42.9852 159.546 42.9907 159.454 41.6804 159.255C40.4325 159.065 40.405 158.899 41.282 156.807C41.7994 155.574 42.1582 153.878 42.0785 153.039C41.9992 152.2 42.2872 150.537 42.7191 149.342C44.1142 145.48 43.4105 141.48 39.6789 132.062C37.7452 127.181 35.7586 122.727 35.2638 122.163C30.8676 117.148 26.4254 113.812 22.4805 112.562C20.7553 112.016 18.8001 111.614 18.1355 111.669C17.4705 111.723 16.1147 111.803 15.122 111.845C14.1296 111.888 11.8758 112.782 10.1136 113.832C8.35159 114.882 6.83756 115.563 6.74863 115.346C6.51839 114.784 9.87703 111.476 11.7134 110.455C12.5628 109.983 13.4856 109.055 13.7632 108.393C15.1299 105.134 19.2596 103.846 26.6486 104.374C31.1569 104.697 31.8991 104.429 30.9662 102.819C30.3404 101.741 30.3636 101.71 31.4677 102.155C32.1045 102.411 33.6651 102.292 34.9359 101.891C40.435 100.155 47.0063 99.3285 49.4983 100.058C51.7363 100.713 51.885 100.685 50.923 99.7861L49.8482 98.7823L51.5072 98.3595C53.0134 97.9765 53.2981 97.599 54.5955 94.2561C55.7646 91.2427 56.4591 90.2024 58.4198 88.5229C59.7373 87.3947 61.2925 85.7533 61.876 84.8759C62.4592 83.999 63.6549 82.8264 64.5323 82.2713C66.1173 81.2681 66.1207 81.2585 65.0537 80.8111C64.4634 80.5635 63.8766 80.6074 63.7501 80.9091ZM195.2 137.727C195.453 138.447 195.491 139.493 195.283 140.051C195.043 140.698 195.114 140.854 195.479 140.482C196.156 139.793 195.987 136.94 195.25 136.632C194.969 136.514 194.946 137.006 195.2 137.727ZM75.7897 88.0642C74.7925 88.1479 73.6836 88.0931 73.3243 87.9424C72.3685 87.5416 66.3883 89.7144 66.6475 90.3689C66.7688 90.6749 67.4849 90.7084 68.2391 90.4429C70.5274 89.6376 78.1845 89.9806 80.6091 90.9974C82.9361 91.9732 84.3441 91.7499 83.1382 90.5959C81.8633 89.375 77.614 87.9111 75.7897 88.0642ZM73.7195 92.9469L71.7963 93.3083L76.9743 95.376C81.7459 97.2817 86.2022 100.159 85.8146 101.083C85.7397 101.262 83.4299 100.357 80.6821 99.0731C76.5476 97.1403 75.5061 96.8317 74.6428 97.2816C74.0698 97.581 73.1765 97.6483 72.6583 97.4311C72.1402 97.2138 70.5162 97.5633 69.0496 98.2071L66.3833 99.3783L65.3269 96.594C64.3687 94.0689 64.0831 93.7702 62.2508 93.3748C61.1401 93.135 60.2078 92.9735 60.1793 93.0153C60.1506 93.0576 59.0986 94.2807 57.8417 95.7334L55.5557 98.3748L56.8396 100.96C57.5461 102.382 58.5513 103.725 59.0741 103.944C60.3721 104.489 65.3877 110.063 66.9146 112.659C67.5993 113.823 68.7926 115.742 69.5663 116.924C70.34 118.105 71.4443 121.044 72.0208 123.455C72.5971 125.866 73.6313 129.333 74.3194 131.162C75.007 132.99 75.6377 135.089 75.7209 135.826C75.8472 136.952 76.2144 141.011 76.7371 147.065C77.0322 150.482 76.9227 151.655 75.6131 159.109C74.9073 163.125 74.8386 163.223 72.9162 162.959C70.9155 162.684 69.8132 163.107 68.9011 164.498C68.5229 165.075 67.5874 165.323 66.4263 165.155C62.1145 164.532 60.1516 168.543 63.3584 171.424C64.3255 172.293 65.1825 173.036 65.2633 173.075C65.4797 173.179 64.8393 171.142 64.2066 169.715C63.59 168.323 63.7535 167.672 64.9261 166.853C65.6048 166.379 65.8567 166.573 66.5335 168.092C66.9755 169.082 67.2071 170.202 67.0484 170.581C66.8897 170.959 66.9933 171.367 67.2789 171.487C67.5644 171.607 68.0008 171.221 68.2488 170.63C68.5915 169.813 68.9625 169.713 69.798 170.211C70.7041 170.753 70.7515 171.127 70.0668 172.351C68.7959 174.624 66.4739 176.476 65.0444 176.354C63.9767 176.263 63.89 176.348 64.5361 176.85C65.8845 177.897 68.8078 176.877 71.3949 174.457C73.3293 172.647 74.2465 171.266 75.4789 168.305C77.0105 164.628 77.1079 164.514 78.1399 165.199C79.4833 166.091 86.5212 165.461 87.2428 164.386C87.6249 163.815 87.475 163.576 86.6948 163.509C85.0381 163.367 82.7672 163.357 80.8119 163.483C79.835 163.546 78.7325 163.47 78.3618 163.314C77.541 162.97 77.5818 160.565 78.4639 157.252C79.1157 154.803 79.8374 146.487 79.5116 145.176C79.4185 144.802 79.1918 142.423 79.0086 139.892C78.8252 137.359 77.9519 132.984 77.0677 130.168C76.1833 127.352 75.0191 123.478 74.4807 121.559C73.9422 119.64 72.7325 116.824 71.7924 115.3C70.852 113.776 70.1449 112.351 70.2205 112.133C70.3758 111.686 79.3078 109.421 82.8043 108.943L85.0991 108.629L84.1473 106.918C83.3002 105.396 82.5976 104.967 77.7671 103.022C73.0532 101.125 72.1396 100.919 70.8281 101.455L69.3182 102.072L75.1909 104.386C78.4208 105.659 81.1194 106.838 81.1882 107.006C81.4082 107.542 79.531 108.068 76.6557 108.274C72.3065 108.586 70.2008 109.2 69.7432 110.291C69.2428 111.485 68.0217 111.121 67.5723 109.645C67.3963 109.067 66.9504 108.468 66.5807 108.313C66.211 108.158 65.9285 107.766 65.9521 107.442C65.9762 107.118 64.5196 105.69 62.715 104.268C56.998 99.7629 56.5256 98.9183 58.9425 97.5149C59.5941 97.1361 60.2989 96.4177 60.5083 95.9182C61.2057 94.2553 62.2981 94.7585 63.3543 97.2289C64.1492 99.0891 64.2054 99.9307 63.5885 100.754C62.2517 102.538 63.827 102.542 67.8105 100.764C71.9521 98.9157 74.3077 98.8553 79.3568 100.469C82.2997 101.41 83.3689 102.063 86.083 104.575C89.3809 107.628 90.3782 108.053 89.8022 106.161C89.5477 105.326 89.6814 104.988 90.422 104.602C90.9411 104.331 91.3207 103.82 91.2651 103.468C91.1131 102.504 88.8459 100.029 87.0028 98.8148C86.106 98.2238 85.3304 97.4791 85.2801 97.1607C85.2301 96.8418 83.0407 95.6819 80.4154 94.5834C76.5899 92.9822 75.2604 92.6572 73.7195 92.9469ZM122.267 112.862C122.465 113.349 122.492 114.071 122.326 114.468C121.898 115.489 115.441 117.922 114.957 117.245C114.737 116.936 114.558 115.707 114.559 114.514C114.562 112.439 114.633 112.323 116.183 111.882C119.368 110.975 121.645 111.342 122.267 112.862ZM64.1141 91.2026C63.4098 91.4903 63.1793 92.2349 63.7234 92.4631C63.9784 92.57 64.4685 92.3635 64.8127 92.0042C65.4483 91.3403 65.0089 90.8362 64.1141 91.2026ZM94.398 103.953C94.2063 104.47 95.9866 107.412 96.3909 107.247C96.8281 107.068 95.6489 104.02 95.0441 103.766C94.7694 103.651 94.479 103.735 94.398 103.953ZM50.0875 85.829C50.0276 85.9718 50.0954 86.1376 50.2382 86.1974C50.381 86.2573 50.5468 86.1895 50.6067 86.0467C50.6666 85.9039 50.5987 85.7381 50.4559 85.6783C50.3132 85.6184 50.1474 85.6862 50.0875 85.829ZM166.566 135.627C166.319 136.215 166.398 136.652 166.742 136.598C167.086 136.543 167.38 136.101 167.395 135.614C167.433 134.368 167.091 134.373 166.566 135.627ZM106.865 111.457C106.113 111.965 105.396 112.622 105.271 112.918C105.148 113.213 104.462 113.21 103.748 112.911C103.034 112.612 102.33 112.66 102.184 113.018C102.037 113.376 102.818 116.107 103.919 119.088C105.02 122.068 106.048 125.306 106.204 126.284C106.596 128.747 107.65 129.697 107.932 127.842C108.07 126.936 108.562 126.272 109.326 125.96C110.408 125.517 110.314 125.41 108.186 124.675C106.133 123.965 105.904 123.731 106.19 122.635C106.369 121.954 106.281 121.299 105.995 121.179C105.141 120.821 104.583 118.926 105.022 117.879C105.248 117.342 105.294 116.323 105.124 115.616C104.861 114.511 105.001 114.204 106.115 113.452C107.291 112.658 107.462 112.685 107.957 113.741C108.257 114.381 108.777 115.02 109.111 115.16C110.181 115.609 110.236 114.148 109.22 112.313L108.233 110.534L106.865 111.457ZM97.8232 109.934C98.187 110.824 98.7185 111.456 99.0039 111.339C99.2898 111.222 99.2161 110.597 98.8404 109.95C97.7862 108.134 97.0825 108.124 97.8232 109.934ZM92.8989 107.483C92.4952 108.445 93.4029 111.625 94.1744 111.949C95.4921 112.501 96.0837 111.821 95.4344 110.5C94.692 108.989 93.0746 107.064 92.8989 107.483ZM122.044 121.194C121.744 121.908 121.74 122.249 122.033 121.953C122.327 121.656 122.572 121.072 122.578 120.655C122.583 120.238 122.343 120.48 122.044 121.194ZM192.653 150.805C192.354 151.519 192.349 151.86 192.643 151.564C192.937 151.267 193.182 150.683 193.187 150.266C193.193 149.849 192.953 150.091 192.653 150.805ZM85.5682 108.95C85.4484 109.235 85.8037 109.659 86.3582 109.892C86.9127 110.124 87.4128 110.613 87.4705 110.978C87.5281 111.343 88.2365 112.313 89.0446 113.133C89.8531 113.954 90.4265 114.834 90.3192 115.09C89.9651 115.934 87.3986 116.533 82.7757 116.849C77.877 117.184 76.1574 117.909 76.7603 119.382C77.3054 120.715 83.763 120.629 88.7383 119.224C92.0291 118.294 92.7456 116.808 91.0765 114.376C90.3993 113.389 89.3399 111.82 88.7228 110.89C87.5229 109.081 85.9252 108.098 85.5682 108.95ZM95.8138 114.544C95.2609 115.361 94.6241 116.536 94.3981 117.155C94.0257 118.174 94.0697 118.176 94.8671 117.168C96.5116 115.091 97.136 116.032 96.2393 119.236C95.596 121.535 95.5853 122.889 96.196 124.594C99.1071 132.72 99.4327 142.854 96.9718 148.723C96.1845 150.6 95.9575 151.874 96.295 152.52C96.5742 153.055 96.5208 154.165 96.1763 154.987C95.8317 155.809 95.7834 156.579 96.0689 156.699C97.0658 157.117 99.5585 148.893 100.337 142.616C100.849 138.482 100.572 132.917 99.8171 132.194C98.9926 131.406 100.69 130.554 101.994 131.101C103.235 131.621 103.325 131.36 102.797 128.784C102.274 126.238 101.558 124.813 100.596 124.41C100.076 124.191 100.016 124.604 100.378 125.916C101.08 128.459 100.187 128.753 99.1875 126.309C98.7309 125.194 98.0972 124.053 97.7783 123.774C97.0306 123.119 98.3899 121.653 99.3654 122.062C100.605 122.582 100.96 120.482 99.8979 118.909C99.3413 118.084 98.6045 116.507 98.2605 115.404C97.4638 112.852 97.0548 112.708 95.8138 114.544ZM123.209 124.735C123.266 125.095 123.415 125.432 123.541 125.485C123.668 125.538 123.868 125.347 123.988 125.062C124.108 124.776 123.958 124.439 123.656 124.312C123.354 124.185 123.153 124.376 123.209 124.735ZM165.997 143.64C165.532 146.467 165.846 147.44 166.633 145.614C167.015 144.725 167.091 143.541 166.8 142.984C166.335 142.091 166.238 142.17 165.997 143.64ZM145.421 135.144C145.257 135.509 145.38 136.505 145.694 137.357C146.008 138.21 146.37 138.656 146.499 138.348C146.842 137.53 145.775 134.358 145.421 135.144ZM108.387 120.046C108.327 120.188 108.395 120.354 108.538 120.414C108.681 120.474 108.847 120.406 108.907 120.263C108.966 120.121 108.899 119.955 108.756 119.895C108.613 119.835 108.447 119.903 108.387 120.046ZM119.81 124.836C119.75 124.978 119.817 125.144 119.96 125.204C120.103 125.264 120.269 125.196 120.329 125.053C120.389 124.911 120.321 124.745 120.178 124.685C120.035 124.625 119.869 124.693 119.81 124.836ZM110.849 122.91C110.789 123.052 110.857 123.218 111 123.278C111.143 123.338 111.309 123.27 111.368 123.127C111.428 122.985 111.361 122.819 111.218 122.759C111.075 122.699 110.909 122.767 110.849 122.91ZM101.345 122.281C101.225 122.567 101.361 122.899 101.646 123.018C101.932 123.138 102.263 123.002 102.383 122.717C102.503 122.431 102.367 122.1 102.082 121.98C101.796 121.86 101.465 121.996 101.345 122.281ZM131.567 134.65C131.507 134.793 131.575 134.959 131.717 135.019C131.86 135.078 132.026 135.011 132.086 134.868C132.146 134.725 132.078 134.559 131.935 134.499C131.792 134.439 131.626 134.507 131.567 134.65ZM51.7207 102.315C51.555 102.71 51.8354 103.352 52.3439 103.741C53.4672 104.6 53.0349 105.818 51.156 107.086C50.2812 107.677 49.503 107.794 49.0897 107.398C48.5059 106.84 47.266 107.201 46.8879 108.038C46.5267 108.84 50.3427 109.092 52.2363 108.392C54.6325 107.506 55.765 105.641 55.0176 103.813C54.4286 102.374 52.1333 101.331 51.7207 102.315ZM49.7953 103.512C49.5256 103.622 48.6686 103.521 47.8897 103.288C46.2135 102.787 37.1332 104.491 34.9146 105.724C34.0002 106.232 33.1861 107.201 32.9292 108.086C32.583 109.278 32.7811 109.748 33.8946 110.372C34.8021 110.881 35.7075 110.938 36.4631 110.533C37.5407 109.957 37.5549 110.017 36.6444 111.327L35.6584 112.745L37.1356 112.086C39.394 111.078 41.9236 108.814 42.3163 107.448C42.5103 106.774 42.9214 106.328 43.2303 106.457C43.5387 106.587 44.8186 106.299 46.074 105.818C47.3299 105.338 48.5287 105.016 48.739 105.105C48.9488 105.193 49.4386 104.849 49.8276 104.34C50.5819 103.354 50.5757 103.192 49.7953 103.512ZM144.714 144.06C144.595 144.346 144.67 144.821 144.881 145.118C145.093 145.414 145.364 145.423 145.484 145.137C145.603 144.852 145.528 144.376 145.317 144.079C145.105 143.783 144.834 143.774 144.714 144.06ZM164.213 152.883C163.967 153.471 163.998 154.05 164.284 154.17C164.569 154.29 164.944 154.051 165.117 153.64C165.289 153.228 165.257 152.649 165.046 152.353C164.834 152.057 164.459 152.296 164.213 152.883ZM86.3745 124.537C82.4436 125.525 79.0367 126.553 78.8041 126.819C78.2334 127.471 81.7816 128.927 83.5551 128.768C84.3169 128.7 86.9366 127.979 89.3757 127.166C92.4854 126.13 93.9658 125.319 94.3287 124.454C94.6135 123.775 94.5486 123.112 94.184 122.979C93.8199 122.847 90.3057 123.548 86.3745 124.537ZM107.107 130.378C106.843 131.008 107.879 143.324 108.238 143.827C109.696 145.868 109.694 135.506 108.236 132.231C107.696 131.018 107.188 130.184 107.107 130.378ZM131.58 141.371C131.565 141.868 131.644 142.314 131.756 142.361C131.868 142.408 132.107 142.096 132.287 141.668C132.466 141.239 132.387 140.794 132.11 140.678C131.834 140.562 131.595 140.874 131.58 141.371ZM187.996 165.684C187.69 165.812 187.146 166.64 186.785 167.524C186.23 168.885 186.272 169.024 187.055 168.433C188.076 167.662 188.88 165.315 187.996 165.684ZM163.003 155.77C162.943 155.912 163.011 156.078 163.153 156.138C163.296 156.198 163.462 156.13 163.522 155.987C163.582 155.845 163.514 155.679 163.371 155.619C163.228 155.559 163.062 155.627 163.003 155.77ZM101.962 133.098C101.515 133.565 101.399 134.385 101.671 135.157C101.919 135.862 101.978 136.784 101.802 137.204C101.626 137.624 101.593 138.276 101.73 138.652C102.182 139.899 101.351 146.942 100.266 151.053C99.5283 153.846 98.4609 156.386 96.8278 159.233C94.4074 163.453 93.9476 165.577 95.3292 166.156C95.8066 166.357 96.8284 164.227 99.5351 157.389C101.502 152.422 103.024 148.047 102.919 147.667C102.815 147.287 102.915 146.093 103.141 145.013C103.368 143.933 103.558 142.501 103.562 141.831C103.598 136.795 103.53 135.534 103.143 134.029C102.748 132.491 102.631 132.399 101.962 133.098ZM39.4776 107.733C39.2073 107.843 38.8958 107.712 38.7849 107.442C38.6748 107.172 38.8959 107.082 39.2765 107.241C39.657 107.401 39.7475 107.622 39.4776 107.733ZM93.1869 131.434C92.1841 131.884 90.5052 132.334 89.4563 132.433C88.0307 132.567 87.7483 132.752 88.3376 133.162C89.1701 133.742 95.8532 132.465 96.19 131.662C96.5741 130.746 94.9862 130.625 93.1869 131.434ZM121.292 142.653C119.443 143.409 119.807 148.469 121.688 148.172C122.236 148.085 122.289 148.259 121.851 148.716C121.006 149.6 121.583 150.915 123.095 151.549C124.377 152.087 126.131 150.782 126.182 149.254C126.272 146.566 122.888 142 121.292 142.653ZM185.772 169.897C185.612 170.277 185.702 170.498 185.973 170.388C186.243 170.277 186.373 169.966 186.263 169.696C186.152 169.426 185.931 169.516 185.772 169.897ZM36.4079 108.786C36.0637 109.145 35.545 109.339 35.2553 109.218C34.951 109.09 35.1396 108.782 35.7008 108.489C36.236 108.21 36.7547 108.015 36.8534 108.057C36.952 108.098 36.7516 108.426 36.4079 108.786ZM41.5833 111.238C41.2984 111.441 41.8201 112.5 42.7429 113.591C45.9205 117.349 52.3393 127.794 54.5217 132.758C57.876 140.389 58.7408 139.713 56.1298 131.501C54.4436 126.197 52.3814 122.262 47.0516 114.177C45.8916 112.417 42.4909 110.589 41.5833 111.238ZM121.873 145.657C121.534 146.001 121.463 145.827 121.691 145.211C121.899 144.655 122.15 144.4 122.25 144.645C122.35 144.889 122.18 145.345 121.873 145.657ZM95.0579 136.892C94.9459 137.6 94.929 138.486 95.0206 138.86C95.1121 139.234 95.0312 140.367 94.8403 141.379C94.6493 142.39 94.7084 143.308 94.9711 143.418C95.6383 143.698 97.0393 140.174 96.5392 139.474C96.3146 139.159 96.1533 138.251 96.1798 137.455C96.2418 135.626 95.3306 135.168 95.0579 136.892ZM182.331 175.474C181.982 176.335 181.977 176.672 182.321 176.222C182.665 175.772 182.95 175.068 182.955 174.656C182.96 174.245 182.679 174.613 182.331 175.474ZM158.109 167.606C157.369 169.276 157.024 170.661 157.317 170.784C157.928 171.04 158.374 169.999 158.979 166.903C159.416 164.67 159.407 164.677 158.109 167.606ZM38.7154 115.858C38.5161 116.333 38.8732 116.84 39.6312 117.158C40.3144 117.445 40.8622 118.057 40.8481 118.519C40.8339 118.98 41.8088 120.492 43.0152 121.878C44.2211 123.263 45.634 125.171 46.1549 126.118C46.6755 127.065 47.264 127.774 47.4625 127.692C48.1859 127.397 40.9437 115.877 39.7086 115.359C39.342 115.205 38.895 115.43 38.7154 115.858ZM105.364 144.724C105.244 145.009 105.38 145.341 105.666 145.461C105.951 145.581 106.283 145.445 106.403 145.159C106.522 144.874 106.387 144.542 106.101 144.422C105.816 144.303 105.484 144.438 105.364 144.724ZM108.393 146.35C108.165 146.965 108.236 147.14 108.575 146.796C108.883 146.484 109.052 146.028 108.952 145.783C108.852 145.539 108.601 145.794 108.393 146.35ZM125.799 153.652C124.718 154.781 123.716 157.621 124.082 158.517C124.27 158.977 123.806 161.652 123.049 164.463L121.675 169.574L123.949 164.306C125.252 161.289 126.059 158.808 125.839 158.499C125.627 158.203 125.834 157.054 126.299 155.945C127.193 153.815 126.905 152.497 125.799 153.652ZM106.266 148.511C106.038 149.126 106.109 149.301 106.448 148.956C106.755 148.644 106.925 148.188 106.825 147.944C106.725 147.699 106.474 147.954 106.266 148.511ZM138.54 163.266C138.311 163.881 138.383 164.056 138.722 163.712C139.029 163.4 139.198 162.944 139.098 162.699C138.998 162.454 138.747 162.709 138.54 163.266ZM26.7668 117.563C28.4356 119.102 29.8775 120.394 29.971 120.433C30.0644 120.472 29.8979 120.869 29.6006 121.316C29.1761 121.954 28.3815 121.879 25.8878 120.965C24.1426 120.325 21.7435 119.498 20.5564 119.126C18.0865 118.352 14.4283 114.956 15.162 114.118C15.6642 113.544 20.7497 113.717 22.6132 114.371C23.229 114.587 25.0979 116.024 26.7668 117.563ZM178.494 179.971C178.435 180.113 178.502 180.279 178.645 180.339C178.788 180.399 178.954 180.331 179.014 180.188C179.074 180.046 179.006 179.88 178.863 179.82C178.72 179.76 178.554 179.828 178.494 179.971ZM94.8085 145.944C94.3815 146.353 94.0384 147.171 94.0464 147.762C94.0599 148.785 94.089 148.797 94.6591 148.018C94.9879 147.569 95.3311 146.751 95.4211 146.201C95.5769 145.249 95.5478 145.237 94.8085 145.944ZM104.636 150.829C104.456 151.257 104.543 151.705 104.828 151.825C105.114 151.945 105.494 151.692 105.674 151.264C105.854 150.836 105.767 150.387 105.481 150.268C105.196 150.148 104.815 150.4 104.636 150.829ZM19.7368 117.168C20.0482 117.476 20.5041 117.645 20.7488 117.545C20.9935 117.445 20.7385 117.194 20.1819 116.986C19.5666 116.758 19.392 116.829 19.7368 117.168ZM32.6255 123.043C32.9895 124.238 31.5652 126.159 30.8044 125.5C30.1769 124.957 31.1301 121.529 31.8274 121.822C32.0963 121.935 32.4552 122.484 32.6255 123.043ZM154.29 174.552C153.849 175.122 153.308 176.006 153.09 176.517C152.701 177.424 154.96 184.448 155.746 184.777C155.964 184.869 156.716 184.307 157.415 183.53C159.381 181.344 159.35 178.672 157.327 175.975C155.296 173.268 155.287 173.264 154.29 174.552ZM14.1408 117.507C14.0609 118.795 13.6586 119.615 12.5864 120.67C10.4889 122.737 9.26329 123.002 8.2723 121.6C7.29326 120.215 8.58373 116.521 10.0308 116.565C10.5282 116.58 11.1123 116.17 11.3291 115.653C11.7467 114.657 12.8678 114.486 13.7294 115.287C14.0143 115.552 14.1992 116.551 14.1408 117.507ZM106.499 154.726C106.203 154.847 105.811 155.304 105.628 155.742C105.383 156.326 105.512 156.449 106.114 156.202C106.564 156.018 106.957 155.561 106.985 155.187C107.013 154.813 106.794 154.605 106.499 154.726ZM34.0214 127.051C33.356 128.638 34.0069 129.492 35.0511 128.401C35.7682 127.652 37.0089 128.662 36.592 129.656C36.4308 130.04 37.1113 131.868 38.1039 133.717C41.441 139.931 42.9832 150.31 40.4101 149.23C39.4272 148.818 38.9483 147.33 39.4292 146.183C39.6589 145.635 39.5141 144.05 39.1076 142.66C37.1688 136.031 35.1695 130.667 34.5144 130.336C32.7531 129.448 32.0338 125.402 33.5282 124.79C34.4204 124.426 34.6604 125.528 34.0214 127.051ZM50.3719 131.735C50.3121 131.878 50.3799 132.044 50.5227 132.104C50.6654 132.164 50.8312 132.096 50.8911 131.953C50.951 131.81 50.8832 131.645 50.7404 131.585C50.5976 131.525 50.4318 131.593 50.3719 131.735ZM64.4764 140.094C62.8159 140.574 60.1411 141.376 58.5314 141.875C55.0772 142.946 53.9206 142.622 53.9885 140.602C54.0486 138.823 51.7449 132.966 51.0903 133.234C50.8361 133.338 51.0694 134.23 51.6088 135.216C52.3361 136.546 52.386 137.25 51.8023 137.937C51.2117 138.632 51.2671 139.24 52.0242 140.362L53.0349 141.859L51.3995 142.275C49.0096 142.883 49.7713 143.696 53.2645 144.265C55.6837 144.66 57.2671 144.421 60.8242 143.124C66.0722 141.211 68.1438 141.289 67.3121 143.368C67.0154 144.111 66.6998 145.127 66.611 145.625C66.4374 146.603 62.7362 147.842 56.4044 149.044C54.3143 149.441 52.4392 150.145 52.2379 150.609C51.6142 152.044 56.2787 151.961 61.503 150.445C68.7425 148.344 68.5805 148.449 69.4423 145.275C70.2509 142.298 69.8697 140.217 68.4035 139.602C67.9036 139.393 66.1361 139.614 64.4764 140.094ZM136.122 168.917C136.062 169.059 136.13 169.225 136.273 169.285C136.415 169.345 136.581 169.277 136.641 169.134C136.701 168.992 136.633 168.826 136.49 168.766C136.348 168.706 136.182 168.774 136.122 168.917ZM20.0391 123.22C19.0642 124.824 18.8216 125.784 19.0617 127.084C19.2381 128.034 19.5884 128.899 19.8413 129.005C20.5328 129.295 21.2666 127.058 21.0706 125.257C20.8125 122.887 22.1785 122.049 24.6275 123.076C27.4992 124.28 31.5925 128.847 31.2687 130.487C31.1105 131.289 30.8283 131.284 29.603 130.455C27.9673 129.35 27.0395 130.092 28.5825 131.272C29.274 131.8 29.3058 132.239 28.7102 133.033C28.2746 133.615 28.0911 134.333 28.3026 134.629C28.8695 135.423 30.941 134.397 31.5097 133.041C31.7805 132.395 32.2299 131.773 32.5084 131.659C33.1061 131.415 35.4654 136.733 35.1059 137.515C34.9701 137.809 33.9709 138.502 32.8848 139.054C27.1398 141.973 24.7399 143.438 24.8239 143.971C24.9478 144.756 24.6047 144.578 23.3287 143.198C22.5227 142.327 22.0295 142.129 21.2534 142.365C20.1617 142.697 16.8759 140.866 16.7132 139.834C16.6632 139.516 15.9381 138.968 15.1022 138.617C14.2668 138.267 12.6532 137.261 11.5166 136.382C9.16383 134.562 8.49313 134.584 8.6724 136.479C8.76475 137.455 9.30631 138.02 10.7238 138.62C11.7832 139.068 13.7548 140.287 15.1053 141.329C16.4552 142.371 18.0549 143.327 18.6601 143.455C19.3785 143.605 20.0839 144.587 20.6931 146.284C21.8621 149.539 23.2532 149.817 24.4221 147.03C25.0788 145.464 25.8744 144.825 28.8038 143.507C30.773 142.621 33.3278 141.4 34.4819 140.792C36.8878 139.526 37.3287 139.546 36.7624 140.896C36.5403 141.426 36.6784 142.734 37.0694 143.803C38.0074 146.371 37.5387 147.277 35.4321 146.973C32.8712 146.602 33.1786 147.72 35.9692 148.924C37.3098 149.502 38.4903 150.181 38.5933 150.431C38.6956 150.682 38.5164 151.864 38.1942 153.056C37.5759 155.345 36.3165 156.152 35.7027 154.651C35.5182 154.2 34.7177 153.559 33.9239 153.226C33.13 152.893 31.7197 151.871 30.7891 150.955C28.8849 149.08 25.288 147.683 24.5516 148.532C24.283 148.842 24.4897 149.274 25.0149 149.499C25.5365 149.723 26.7566 150.635 27.7263 151.525C28.6959 152.416 30.3474 153.516 31.3961 153.97C32.4448 154.425 33.3492 155.091 33.406 155.451C33.4628 155.81 34.4296 156.49 35.5552 156.962L37.6014 157.821L36.4167 160.645C35.7651 162.199 34.9606 163.513 34.6287 163.565C34.2966 163.618 33.6096 164.251 33.1013 164.973C32.2205 166.224 26.5694 169.067 25.693 168.699C25.4636 168.603 24.9148 168.513 24.4738 168.499C23.9305 168.481 23.8462 167.959 24.2125 166.881C24.782 165.205 24.4541 162.075 23.6742 161.748C23.0772 161.498 22.0483 163.945 22.4908 164.564C22.6767 164.825 22.6935 165.682 22.5274 166.468L22.2252 167.898L19.2653 166.243C15.4304 164.1 11.8896 160.045 10.5696 156.285L9.52071 153.297L13.6522 151.418C18.0878 149.401 19.6068 148.109 19.075 146.81C18.8306 146.212 18.4351 146.185 17.6011 146.711C16.9746 147.106 15.0116 148.19 13.2395 149.119C11.467 150.049 9.88441 151.125 9.72264 151.511C9.28828 152.547 8.2752 151.412 8.53259 150.178C8.6538 149.596 8.49093 148.111 8.16979 146.878C7.66966 144.955 7.72139 144.648 8.53428 144.722C9.05493 144.769 9.90007 144.845 10.4124 144.892C12.3015 145.064 11.4733 143.503 9.29615 142.789C7.3368 142.146 7.14569 141.917 7.15333 140.226C7.15771 139.206 6.93338 137.676 6.65478 136.828C6.23335 135.545 6.50205 134.442 8.2589 130.253C10.0571 125.965 10.5975 125.107 11.91 124.458C12.7572 124.039 13.5992 123.342 13.781 122.908C14.2365 121.822 16.4437 120.865 17.4852 121.302C17.9571 121.5 18.9411 121.509 19.6713 121.322C21.4986 120.855 21.4927 120.827 20.0391 123.22ZM72.9223 143.58C72.2235 143.945 72.1132 144.206 72.4572 144.688C72.7622 145.115 72.4247 146.173 71.4118 147.967C69.6687 151.053 70.0913 151.585 72.725 149.622C75.0193 147.911 75.7701 146.25 74.9963 144.599C74.279 143.067 74.086 142.973 72.9223 143.58ZM93.4218 152.821C93.2463 153.239 92.4573 154.213 91.6685 154.985C90.8796 155.757 89.747 156.985 89.151 157.713C88.4086 158.62 87.4777 158.998 86.193 158.914L84.3188 158.792L85.1454 160.195C85.9533 161.568 86.0235 161.573 88.3397 160.445C89.847 159.712 90.9427 158.732 91.3536 157.752C91.7087 156.906 92.2328 156.311 92.5183 156.431C92.8039 156.55 93.4294 155.714 93.9084 154.572C94.3874 153.43 94.5457 152.397 94.2601 152.277C93.9746 152.157 93.5973 152.402 93.4218 152.821ZM10.7544 118.479C10.5948 118.86 10.6853 119.081 10.9555 118.971C11.2254 118.86 11.3561 118.548 11.246 118.278C11.1351 118.008 10.914 118.099 10.7544 118.479ZM24.752 127.554C24.3423 129.146 23.6082 132.008 23.1205 133.916C22.0691 138.032 21.9653 141.018 22.8712 141.087C23.6123 141.142 25.0067 137.326 24.6636 136.181C24.5416 135.774 25.0283 133.918 25.7447 132.055C26.692 129.592 26.9225 128.159 26.5911 126.799C26.3401 125.77 25.9911 124.869 25.8156 124.795C25.6401 124.722 25.1617 125.963 24.752 127.554ZM15.499 122.725C14.6625 123.322 15.0092 126.907 16.2393 130.381C16.8296 132.048 17.2199 133.633 17.1067 133.903C16.8099 134.611 18.1249 138.582 19.0211 139.686C20.3076 141.269 20.5628 139.352 19.4765 136.259C18.941 134.733 18.5659 133.335 18.6428 133.152C18.7199 132.968 18.3046 131.175 17.7195 129.166C17.1344 127.158 16.5245 124.795 16.3634 123.916C16.188 122.957 15.8421 122.48 15.499 122.725ZM93.9185 157.751C93.4321 157.949 92.8796 158.481 92.6908 158.931C92.5018 159.382 91.8424 160.081 91.2253 160.484C89.074 161.891 88.6038 162.726 89.704 163.187C90.3799 163.47 90.8736 163.264 91.1617 162.577C91.4012 162.006 91.8053 161.626 92.0603 161.733C92.3147 161.84 92.9454 161.349 93.4622 160.642C93.9791 159.935 94.6946 158.999 95.0525 158.562C95.8025 157.646 95.2103 157.222 93.9185 157.751ZM133.799 174.091C133.494 174.219 133.076 174.725 132.87 175.216C132.664 175.707 131.866 176.631 131.096 177.27C129.559 178.547 128.451 180.657 129.161 180.955C129.41 181.059 130.148 180.23 130.804 179.114C131.458 177.997 132.335 177.029 132.75 176.963C133.166 176.898 133.697 176.173 133.93 175.352C134.164 174.53 134.105 173.963 133.799 174.091ZM99.6028 162.201C98.5894 163.553 98.2523 165.551 98.9843 165.858C99.2507 165.969 99.9096 165.01 100.449 163.725C101.519 161.171 101.032 160.293 99.6028 162.201ZM147.418 181.285C147.259 181.666 147.349 181.887 147.619 181.777C147.889 181.666 148.02 181.354 147.91 181.084C147.799 180.814 147.578 180.905 147.418 181.285ZM6.15265 125.063C5.64202 128.85 4.49529 133.656 4.05956 133.835C3.36487 134.119 3.50726 127.511 4.25543 124.759C5.16844 121.398 6.6162 121.63 6.15265 125.063ZM118.092 176.538C115.321 182.073 114.801 183.589 115.817 183.173C116.033 183.085 117.307 180.208 118.65 176.781L121.09 170.55L118.092 176.538ZM155.488 187.64C155.112 187.908 154.887 188.326 154.986 188.569C155.256 189.229 156.049 188.758 156.114 187.9C156.16 187.299 156.037 187.248 155.488 187.64ZM48.1998 143.84C47.8089 144.352 47.5736 145.447 47.6772 146.274C47.7808 147.102 47.8837 148.377 47.9058 149.11C47.9283 149.842 48.1303 150.698 48.3549 151.013C48.5795 151.327 48.5777 152.027 48.3506 152.569C48.0515 153.282 48.3976 153.856 49.6082 154.654C50.5272 155.259 51.6397 155.765 52.0802 155.779C53.0711 155.809 53.3569 157.387 52.9359 160.508C52.759 161.821 52.8342 162.988 53.1032 163.1C53.6857 163.345 55.141 158.424 54.7819 157.425C54.6474 157.05 54.7164 156.314 54.9357 155.791C55.4907 154.468 54.208 153.415 52.958 154.169C52.3464 154.537 51.4608 154.506 50.7703 154.091C49.8639 153.546 49.5339 152.248 49.2606 148.153C48.9953 144.181 48.7385 143.136 48.1998 143.84ZM68.3425 151.482C68.2826 151.624 68.3505 151.79 68.4932 151.85C68.636 151.91 68.8018 151.842 68.8617 151.699C68.9216 151.556 68.8537 151.391 68.711 151.331C68.5682 151.271 68.4024 151.339 68.3425 151.482ZM11.672 129.393C11.2531 130.392 12.3094 132.562 13.447 133.039C14.7486 133.585 14.651 132.462 13.219 130.411C12.2514 129.023 11.9187 128.805 11.672 129.393ZM26.4556 136.358C26.3958 136.501 26.4636 136.666 26.6064 136.726C26.7492 136.786 26.915 136.718 26.9748 136.576C27.0347 136.433 26.9669 136.267 26.8241 136.207C26.6813 136.147 26.5155 136.215 26.4556 136.358ZM28.8424 137.461C28.5721 137.571 28.2498 137.903 28.1259 138.198C27.9896 138.523 28.2444 138.594 28.7728 138.378C29.2525 138.181 29.5748 137.85 29.4892 137.64C29.4038 137.431 29.1123 137.35 28.8424 137.461ZM89.4813 164.765C88.1882 164.546 88.0318 165.008 88.7444 166.943C89.3942 168.708 89.6418 168.89 91.0577 168.648C91.8942 168.505 91.9253 168.21 91.2618 166.706C90.8314 165.731 90.03 164.857 89.4813 164.765ZM45.6996 147.244C45.3075 148.179 45.5276 152.563 45.9769 152.77C46.6517 153.081 46.9784 151.551 46.4528 150.544C46.1736 150.008 46.1232 149.146 46.3409 148.627C46.5588 148.107 46.5638 147.44 46.3523 147.144C46.1408 146.847 45.8471 146.893 45.6996 147.244ZM94.862 168.362C94.3349 168.791 93.6817 169.685 93.4107 170.348L92.9179 171.555L94.4778 170.683C96.1303 169.759 97.16 168.145 96.3215 167.794C96.0463 167.678 95.3896 167.934 94.862 168.362ZM127.438 181.86C127.168 181.97 126.799 182.434 126.617 182.89C126.347 183.57 126.458 183.591 127.237 183.002C128.199 182.275 128.337 181.493 127.438 181.86ZM73.6212 166.477C73.8486 167.223 73.6636 167.696 72.9043 168.313C71.5698 169.397 71.0654 169.131 70.6986 167.15C70.4203 165.644 70.4808 165.514 71.5242 165.377C73.0326 165.18 73.263 165.3 73.6212 166.477ZM80.3928 168.847C79.2741 169.304 79.3971 170.464 80.6187 170.976C81.5704 171.375 82.0327 171.244 82.3522 170.482C82.7769 169.469 81.4922 168.397 80.3928 168.847ZM86.7275 172.793C83.7218 173.166 82.708 173.693 83.9925 174.214C84.5963 174.458 90.6159 172.779 90.0419 172.526C89.9002 172.464 88.4085 172.584 86.7275 172.793ZM45.7731 155.906C45.424 156.683 45.3716 157.416 45.6572 157.536C46.2667 157.791 46.4342 157.392 46.4192 155.719C46.4094 154.633 46.3364 154.654 45.7731 155.906ZM68.9549 167.907C68.8641 168.546 68.6027 168.99 68.3743 168.894C67.9439 168.713 67.8593 167.191 68.2308 166.306C68.5857 165.459 69.1314 166.666 68.9549 167.907ZM112.715 185.657C112.415 186.371 112.411 186.713 112.704 186.416C112.998 186.12 113.243 185.536 113.248 185.118C113.254 184.701 113.014 184.943 112.715 185.657ZM6.99434 143.459C6.93447 143.602 6.76866 143.669 6.62588 143.61C6.4831 143.55 6.41528 143.384 6.47515 143.241C6.53503 143.098 6.70084 143.031 6.84362 143.09C6.98639 143.15 7.05422 143.316 6.99434 143.459ZM19.8206 150.101C19.3187 150.771 19.0315 151.725 19.1829 152.221C19.4321 153.04 19.0851 157.167 18.4622 160.783C18.125 162.742 18.8592 164.857 19.6741 164.276C20.3616 163.785 20.8626 158.942 20.3063 158.163C20.1148 157.895 20.3382 156.768 20.8031 155.66C21.2679 154.551 21.4752 153.402 21.2636 153.106C21.0521 152.81 21.0571 152.143 21.2751 151.623C21.4928 151.104 21.46 150.275 21.202 149.781C20.8273 149.063 20.55 149.127 19.8206 150.101ZM110.082 187.337C109.896 187.782 110.037 188.1 110.397 188.043C110.756 187.986 111.143 187.72 111.255 187.451C111.368 187.182 111.227 186.865 110.941 186.745C110.655 186.625 110.269 186.892 110.082 187.337ZM23.2509 151.279C22.6632 152.68 27.5997 166.156 28.6405 165.992C29.7839 165.811 29.7574 165.179 28.4642 161.776C27.7853 159.991 26.6081 156.857 25.8482 154.811C24.4833 151.138 23.736 150.122 23.2509 151.279ZM98.1855 183.14C97.1644 183.618 96.9952 183.904 97.3395 184.568C97.5759 185.025 97.7855 186.671 97.8051 188.225C97.8289 190.104 98.2013 191.326 98.9161 191.869C100.3 192.92 101.488 192.421 101.754 190.676C101.986 189.155 100.533 182.991 99.8769 182.716C99.649 182.62 98.8878 182.81 98.1855 183.14ZM93.3356 181.804C92.7394 182.225 91.869 182.41 91.4018 182.214C90.9345 182.018 90.1142 182.086 89.5789 182.365C89.0436 182.644 88.0504 182.64 87.3718 182.355C86.6927 182.07 86.0392 182.071 85.9194 182.357C85.6024 183.113 88.0244 183.987 89.0098 183.473C89.4717 183.232 90.7943 183.057 91.949 183.084C93.104 183.11 94.3421 182.749 94.7005 182.28C95.5674 181.146 94.6957 180.842 93.3356 181.804ZM39.2642 165.893C38.1536 169.293 37.0926 171.633 36.0275 173.033C34.4287 175.134 31.1312 177.085 29.989 176.606C29.6495 176.464 28.9649 176.559 28.4686 176.818C27.2852 177.436 22.9119 176.31 21.9823 175.148C21.5815 174.647 20.6969 173.854 20.0156 173.385C18.9914 172.68 18.915 172.325 19.5739 171.332C20.0789 170.572 20.7191 170.277 21.3188 170.528C21.8395 170.746 22.5081 170.752 22.8044 170.541C23.1006 170.329 23.9234 170.399 24.6331 170.697C25.7977 171.185 29.5586 170.233 33.0203 168.573C34.9591 167.643 37.7863 164.49 38.8255 162.099C39.4996 160.548 39.9699 160.01 40.3571 160.348C40.7169 160.662 40.3273 162.638 39.2642 165.893ZM6.1282 148.685C6.79391 150.105 6.44485 151.47 5.51602 151.081C4.80317 150.782 3.35791 147.763 3.62397 147.128C3.93402 146.389 5.51269 147.37 6.1282 148.685ZM30.8633 158.636C30.2107 159.101 31.3171 161.901 32.3202 162.321C33.7142 162.906 33.9788 161.995 32.928 160.231C31.7434 158.242 31.5854 158.119 30.8633 158.636ZM81.7408 182.131C81.6809 182.273 81.7487 182.439 81.8915 182.499C82.0343 182.559 82.2001 182.491 82.26 182.348C82.3198 182.206 82.252 182.04 82.1092 181.98C81.9665 181.92 81.8007 181.988 81.7408 182.131ZM14.9934 156.627C13.7015 157.821 13.6192 158.752 14.7625 159.232C15.2713 159.445 15.7543 158.964 16.2727 157.728C17.1723 155.583 16.6287 155.115 14.9934 156.627ZM7.5172 154.573C7.67504 155.427 8.27457 156.634 8.84865 157.255C9.42274 157.876 9.75331 158.716 9.58283 159.123C9.25602 159.902 15.3592 167.418 16.8145 168.029C18.0154 168.532 18.4737 169.949 17.8871 171.348C17.3234 172.692 16.1165 172.469 15.6488 170.934C15.4801 170.379 14.9568 169.914 14.4867 169.899C14.0164 169.885 13.6446 169.451 13.6607 168.936C13.6765 168.42 13.0552 167.439 12.2809 166.755C11.506 166.071 10.17 163.994 9.31239 162.141C8.45448 160.287 7.40855 158.477 6.98777 158.12C5.98763 157.27 5.07168 153.481 5.7495 152.997C6.60892 152.383 7.21147 152.92 7.5172 154.573ZM49.5214 175.981C49.2055 176.734 49.2472 177.265 49.618 177.206C49.9776 177.15 50.4618 176.65 50.6944 176.096C50.9269 175.541 50.8833 174.99 50.5978 174.87C50.3122 174.75 49.8278 175.251 49.5214 175.981ZM41.0466 174.375C40.5862 175.49 40.6393 175.681 41.2858 175.239C42.3682 174.498 42.813 173.437 42.1568 173.162C41.8712 173.042 41.3719 173.588 41.0466 174.375ZM38.6815 177.809C38.7383 178.169 38.8874 178.506 39.0136 178.559C39.1398 178.612 39.3405 178.421 39.4603 178.136C39.58 177.85 39.4304 177.513 39.1282 177.386C38.826 177.259 38.6247 177.45 38.6815 177.809Z" fill="#006098"/>
</svg>
