<svg width="36" height="36" viewBox="0 0 36 36" fill="none" xmlns="http://www.w3.org/2000/svg">
<mask id="mask0_1_374" style="mask-type:luminance" maskUnits="userSpaceOnUse" x="0" y="0" width="36" height="36">
<path d="M0 0H36V36H0V0Z" fill="white"/>
</mask>
<g mask="url(#mask0_1_374)">
<path d="M18 1.40625C8.81417 1.40625 1.31864 8.96097 1.40702 18.163L1.40625 34.5937L1.68131 34.3187C4.0069 31.9931 7.56612 31.3802 10.5064 32.8537C12.7318 33.969 15.25 34.595 17.9259 34.5937C27.06 34.598 34.5053 27.2966 34.593 18.163C34.6814 8.96097 27.334 1.40625 18 1.40625Z" stroke="#006098" stroke-width="2.42424" stroke-miterlimit="10" stroke-linecap="round" stroke-linejoin="round"/>
<path d="M13.7812 18C13.7812 18.9708 12.9942 19.7578 12.0234 19.7578C11.0526 19.7578 10.2656 18.9708 10.2656 18C10.2656 17.0292 11.0526 16.2422 12.0234 16.2422C12.9942 16.2422 13.7812 17.0292 13.7812 18Z" fill="#006098"/>
<path d="M19.8281 18C19.8281 18.9708 19.0411 19.7578 18.0703 19.7578C17.0995 19.7578 16.3125 18.9708 16.3125 18C16.3125 17.0292 17.0995 16.2422 18.0703 16.2422C19.0411 16.2422 19.8281 17.0292 19.8281 18Z" fill="#006098"/>
<path d="M25.875 18C25.875 18.9708 25.088 19.7578 24.1172 19.7578C23.1464 19.7578 22.3594 18.9708 22.3594 18C22.3594 17.0292 23.1464 16.2422 24.1172 16.2422C25.088 16.2422 25.875 17.0292 25.875 18Z" fill="#006098"/>
</g>
</svg>
