<svg width="36" height="22" viewBox="0 0 36 22" fill="none" xmlns="http://www.w3.org/2000/svg">
<path d="M34 0C35.1 0 36 0.9 36 2V20C36 21.1 35.1 22 34 22H2C0.9 22 0 21.1 0 20V2C0 0.9 0.9 0 2 0H34Z" fill="white"/>
<path d="M27.3 9.1H27C26.6 10.1 26.3 10.6 26 12.1H27.9C27.6 10.6 27.6 9.9 27.3 9.1ZM30.2 15H28.5C28.4 15 28.4 15 28.3 14.9L28.1 14L28 13.8H25.6C25.5 13.8 25.4 13.8 25.4 14L25.1 14.9C25.1 15 25 15 25 15H22.9L23.1 14.5L26 7.7C26 7.2 26.3 7 26.8 7H28.3C28.4 7 28.5 7 28.5 7.2L29.9 13.7C30 14.1 30.1 14.4 30.1 14.8C30.2 14.9 30.2 14.9 30.2 15ZM16.8 14.7L17.2 12.9C17.3 12.9 17.4 13 17.4 13C18.1 13.3 18.8 13.5 19.5 13.4C19.7 13.4 20 13.3 20.2 13.2C20.7 13 20.7 12.5 20.3 12.1C20.1 11.9 19.8 11.8 19.5 11.6C19.1 11.4 18.7 11.2 18.4 10.9C17.2 9.9 17.6 8.5 18.3 7.8C18.9 7.4 19.2 7 20 7C21.2 7 22.5 7 23.1 7.2H23.2C23.1 7.8 23 8.3 22.8 8.9C22.3 8.7 21.8 8.5 21.3 8.5C21 8.5 20.7 8.5 20.4 8.6C20.2 8.6 20.1 8.7 20 8.8C19.8 9 19.8 9.3 20 9.5L20.5 9.9C20.9 10.1 21.3 10.3 21.6 10.5C22.1 10.8 22.6 11.3 22.7 11.9C22.9 12.8 22.6 13.6 21.8 14.2C21.3 14.6 21.1 14.8 20.4 14.8C19 14.8 17.9 14.9 17 14.6C16.9 14.8 16.9 14.8 16.8 14.7ZM13.3 15C13.4 14.3 13.4 14.3 13.5 14C14 11.8 14.5 9.5 14.9 7.3C15 7.1 15 7 15.2 7H17C16.8 8.2 16.6 9.1 16.3 10.2C16 11.7 15.7 13.2 15.3 14.7C15.3 14.9 15.2 14.9 15 14.9M4 7.2C4 7.1 4.2 7 4.3 7H7.7C8.2 7 8.6 7.3 8.7 7.8L9.6 12.2C9.6 12.3 9.6 12.3 9.7 12.4C9.7 12.3 9.8 12.3 9.8 12.3L11.9 7.2C11.8 7.1 11.9 7 12 7H14.1C14.1 7.1 14.1 7.1 14 7.2L10.9 14.5C10.8 14.7 10.8 14.8 10.7 14.9C10.6 15 10.4 14.9 10.2 14.9H8.7C8.6 14.9 8.5 14.9 8.5 14.7L6.9 8.5C6.7 8.3 6.4 8 6 7.9C5.4 7.6 4.3 7.4 4.1 7.4L4 7.2Z" fill="#142688"/>
</svg>
