<svg width="15" height="11" viewBox="0 0 15 11" fill="none" xmlns="http://www.w3.org/2000/svg">
<path d="M14.406 1.617C14.7 2.7489 14.7 5.145 14.7 5.145C14.7 5.145 14.7 7.5411 14.406 8.673C14.3242 8.9918 14.1582 9.28277 13.9255 9.5155C13.6928 9.74823 13.4018 9.91418 13.083 9.996C11.9511 10.29 7.35 10.29 7.35 10.29C7.35 10.29 2.7489 10.29 1.617 9.996C1.2982 9.91418 1.00723 9.74823 0.774503 9.5155C0.541772 9.28277 0.375824 8.9918 0.294 8.673C2.57702e-08 7.5411 0 5.145 0 5.145C0 5.145 2.57702e-08 2.7489 0.294 1.617C0.379741 1.30013 0.547001 1.01124 0.779122 0.779122C1.01124 0.547001 1.30013 0.379741 1.617 0.294C2.7489 1.28851e-07 7.35 0 7.35 0C7.35 0 11.9511 1.28851e-07 13.083 0.294C13.3999 0.379741 13.6888 0.547001 13.9209 0.779122C14.153 1.01124 14.3203 1.30013 14.406 1.617ZM5.88 7.35L9.702 5.145L5.88 2.94V7.35Z" fill="white"/>
</svg>
